<?xml version="1.0" standalone="no"?>
<!DOCTYPE svg PUBLIC "-//W3C//DTD SVG 1.1//EN" "http://www.w3.org/Graphics/SVG/1.1/DTD/svg11.dtd" >
<svg xmlns="http://www.w3.org/2000/svg" xmlns:xlink="http://www.w3.org/1999/xlink" version="1.1">
<metadata></metadata>
<defs>
<font id="gopher_displayregular" horiz-adv-x="1339" >
<font-face units-per-em="2048" ascent="1597" descent="-451" />
<missing-glyph horiz-adv-x="505" />
<glyph unicode="&#xfb01;" horiz-adv-x="1189" d="M70 850v194h245v158q0 283 279 283h111v-193h-101q-174 0 -174 -131v-117h612v-1044h-114v850h-498v-850h-115v850h-245zM854 1358q0 50 37 83.5t94 33.5q55 0 92 -33.5t37 -83.5q0 -51 -36.5 -84t-92.5 -33q-57 0 -94 33t-37 84z" />
<glyph unicode="&#xfb02;" horiz-adv-x="1220" d="M70 840v204h245v158q0 283 279 283h158v-205h-148q-174 0 -174 -119v-117h322v-204h-322v-840h-115v840h-245zM958 0v1475h113v-1475h-113z" />
<glyph horiz-adv-x="0" />
<glyph horiz-adv-x="682" />
<glyph unicode=" "  horiz-adv-x="505" />
<glyph unicode="&#x09;" horiz-adv-x="505" />
<glyph unicode="&#xa0;" horiz-adv-x="505" />
<glyph unicode="!" horiz-adv-x="507" d="M104 121q0 57 43 95t107 38t106.5 -38t42.5 -95q0 -58 -42 -96.5t-107 -38.5t-107.5 38.5t-42.5 96.5zM178 1092v321h152v-321l-39 -686h-74z" />
<glyph unicode="&#x22;" horiz-adv-x="776" d="M133 1413h143l-12 -493h-117zM500 1413h143l-14 -493h-117z" />
<glyph unicode="#" horiz-adv-x="1556" d="M70 371v192h323l84 287h-299v192h357l108 371h102l-108 -371h463l108 371h103l-109 -371h266v-192h-323l-84 -287h301v-192h-358l-109 -371h-100l108 371h-465l-108 -371h-103l109 371h-266zM496 563h465l81 287h-462z" />
<glyph unicode="$" horiz-adv-x="1245" d="M96 412h131q0 -83 97.5 -141.5t246.5 -69.5v420q-209 36 -327.5 143t-118.5 276q0 150 127 255.5t319 119.5v141h105v-141q193 -15 318.5 -126.5t125.5 -270.5h-131q0 74 -89 128.5t-224 65.5v-397q473 -92 473 -426q0 -156 -135.5 -266.5t-337.5 -124.5v-141h-105v141 q-203 14 -339 131.5t-136 282.5zM256 1042q0 -73 77.5 -122t237.5 -84v376q-138 -7 -226.5 -55.5t-88.5 -114.5zM676 201q149 8 245.5 59t96.5 123q0 76 -86.5 128t-255.5 89v-399z" />
<glyph unicode="%" horiz-adv-x="1701" d="M98 1110q0 140 95 234t237 94q141 0 235.5 -94t94.5 -234t-94.5 -234t-235.5 -94q-142 0 -237 94t-95 234zM203 1110q0 -63 65 -106t162 -43q95 0 160 43t65 106q0 64 -64.5 107t-160.5 43q-97 0 -162 -43t-65 -107zM268 0l1024 1413h144l-1024 -1413h-144zM942 303 q0 140 95 234t237 94q141 0 235.5 -94t94.5 -234t-94.5 -234t-235.5 -94q-142 0 -237 94t-95 234zM1047 303q0 -63 65 -106t162 -43q96 0 160.5 43t64.5 106q0 65 -64 107.5t-161 42.5t-162 -43t-65 -107z" />
<glyph unicode="&#x26;" horiz-adv-x="1290" d="M76 426q0 154 73.5 259.5t208.5 180.5q-137 172 -137 283q0 122 96.5 205.5t237.5 83.5q142 0 240 -85t98 -212q0 -124 -88.5 -218t-224.5 -153l397 -424q61 74 61 164v178h113v-178q0 -140 -82 -260l234 -250h-160l-160 176q-67 -99 -170.5 -150t-230.5 -51 q-221 0 -363.5 126.5t-142.5 324.5zM197 430q0 -103 112.5 -172.5t282.5 -69.5q174 0 303 82l-416 455q-64 -30 -110 -57.5t-87.5 -63.5t-63 -79.5t-21.5 -94.5zM319 1128q0 -39 30.5 -88.5t99.5 -128.5q6 2 29 12t36 15q66 26 106.5 44.5t81 43.5t59.5 52t19 59 q0 47 -64 78.5t-161 31.5q-100 0 -168 -33t-68 -86z" />
<glyph unicode="'" horiz-adv-x="409" d="M133 1413h143l-12 -493h-117z" />
<glyph unicode="(" horiz-adv-x="634" d="M156 573q0 261 69.5 525t182.5 438h217q-156 -174 -251 -437.5t-95 -525.5t95 -525t251 -437h-217q-113 174 -182.5 437.5t-69.5 524.5z" />
<glyph unicode=")" horiz-adv-x="634" d="M10 -389q156 174 251 437t95 525t-95 525.5t-251 437.5h217q114 -173 183 -437t69 -526t-69 -525.5t-183 -436.5h-217z" />
<glyph unicode="*" horiz-adv-x="784" d="M92 1081l158 70l72 16l-72 17l-158 67l72 127l145 -98l41 -55l-6 71v179h96v-179l-6 -73l43 57l144 98l71 -127l-157 -69l-76 -15l76 -18l157 -68l-71 -127l-144 99l-45 59l8 -76v-178h-96v178l8 74l-45 -57l-143 -99z" />
<glyph unicode="+" horiz-adv-x="1093" d="M129 506v199h363v317h110v-317h363v-199h-363v-320h-110v320h-363z" />
<glyph unicode="," horiz-adv-x="509" d="M78 -324q89 61 156.5 151.5t89.5 176.5q-30 -18 -76 -18q-63 0 -104.5 38.5t-41.5 96.5q0 60 43.5 98.5t110.5 38.5q69 0 111.5 -45.5t42.5 -120.5q0 -112 -37.5 -226t-98.5 -190h-196z" />
<glyph unicode="-" horiz-adv-x="835" d="M129 457v209h578v-209h-578z" />
<glyph unicode="." horiz-adv-x="509" d="M102 121q0 59 44 98t110 39q65 0 109.5 -39.5t44.5 -97.5q0 -57 -44.5 -96t-109.5 -39q-66 0 -110 39t-44 96z" />
<glyph unicode="/" horiz-adv-x="980" d="M23 -307l819 1843h116l-819 -1843h-116z" />
<glyph unicode="0" horiz-adv-x="1316" d="M115 707q0 324 151.5 527.5t392.5 203.5q158 0 281.5 -92t192.5 -259t69 -380t-69 -380t-192.5 -259.5t-281.5 -92.5q-241 0 -392.5 204t-151.5 528zM246 707q0 -225 115.5 -367.5t297.5 -142.5q183 0 298.5 142t115.5 368t-115.5 368t-298.5 142q-182 0 -297.5 -142.5 t-115.5 -367.5z" />
<glyph unicode="1" horiz-adv-x="782" d="M74 977v235l411 201h119v-1413h-125v1174z" />
<glyph unicode="2" horiz-adv-x="1140" d="M104 0v154l613 569q79 76 122.5 142.5t43.5 133.5q0 92 -89 151.5t-227 59.5q-139 0 -230 -58.5t-91 -147.5h-131q0 186 129 310t321 124t319.5 -121t127.5 -303q0 -109 -50.5 -201t-142.5 -180l-430 -418h641v-215h-926z" />
<glyph unicode="3" horiz-adv-x="1163" d="M94 395h131q0 -86 99.5 -142t250.5 -56q156 0 256.5 59t100.5 150q0 99 -91.5 162t-238.5 63h-213v198h213q132 0 215.5 57.5t83.5 147.5q0 78 -91.5 130.5t-231.5 52.5q-139 0 -230.5 -51t-91.5 -126h-131q0 170 129.5 284t323.5 114t323 -109.5t129 -273.5 q0 -103 -54 -188.5t-147 -133.5q107 -46 170.5 -139.5t63.5 -210.5q0 -173 -139.5 -290.5t-345.5 -117.5q-205 0 -344.5 120.5t-139.5 299.5z" />
<glyph unicode="4" horiz-adv-x="1177" d="M68 305v152l626 956h232v-897h194v-211h-194v-305h-125v305h-733zM248 516h553v680h-53z" />
<glyph unicode="5" horiz-adv-x="1204" d="M127 401h131q22 -90 123.5 -147t243.5 -57q157 0 262.5 69.5t105.5 173.5t-105.5 175t-262.5 71q-97 0 -193 -26.5t-143 -63.5h-131l69 817h811v-215h-708l-35 -471q49 73 151.5 121.5t206.5 48.5q200 0 335.5 -132t135.5 -329q0 -130 -65.5 -236t-179.5 -165.5 t-254 -59.5q-204 0 -345 120.5t-153 305.5z" />
<glyph unicode="6" horiz-adv-x="1157" d="M88 584q0 239 104.5 431.5t295 303.5t432.5 111v-216q-281 0 -469.5 -145.5t-214.5 -388.5l-7 -57q50 119 163.5 192.5t250.5 73.5q195 0 327 -129t132 -320q0 -199 -140.5 -332t-353.5 -133q-228 0 -374 168.5t-146 440.5zM242 436q0 -103 103 -171t257 -68 q157 0 264 68.5t107 170.5q0 103 -104.5 172.5t-256.5 69.5q-157 0 -263.5 -69.5t-106.5 -172.5z" />
<glyph unicode="7" horiz-adv-x="1118" d="M92 1198v215h963v-149l-619 -1264h-194l645 1198h-795z" />
<glyph unicode="8" horiz-adv-x="1210" d="M102 387q0 113 64.5 203.5t177.5 142.5q-97 52 -152 136.5t-55 187.5q0 162 134 271.5t333 109.5q200 0 334.5 -109.5t134.5 -271.5q0 -102 -55.5 -187t-151.5 -137q112 -52 177 -142.5t65 -203.5q0 -115 -66 -209.5t-182 -148.5t-256 -54q-214 0 -358 117.5t-144 294.5z M231 403q0 -90 105.5 -148t267.5 -58t267.5 58t105.5 148q0 95 -106 157.5t-267 62.5t-267 -62.5t-106 -157.5zM268 1038q0 -86 95 -143t241 -57t242 57t96 143q0 77 -96 128t-242 51t-241 -51t-95 -128z" />
<glyph unicode="9" horiz-adv-x="1157" d="M53 973q0 199 141.5 332t354.5 133q228 0 374 -168.5t146 -440.5q0 -188 -61.5 -345.5t-172 -267.5t-269.5 -171t-349 -61v215q293 0 487 144.5t222 389.5l6 47q-54 -115 -168.5 -185.5t-251.5 -70.5q-200 0 -329.5 126.5t-129.5 322.5zM184 977q0 -103 103.5 -172.5 t255.5 -69.5q158 0 264 69.5t106 172.5t-103 171.5t-255 68.5q-157 0 -264 -69t-107 -171z" />
<glyph unicode=":" horiz-adv-x="544" d="M119 121q0 59 43.5 98t109.5 39t110 -39t44 -98q0 -57 -44 -96t-110 -39t-109.5 39t-43.5 96zM119 838q0 58 43.5 96.5t109.5 38.5t110 -38.5t44 -96.5q0 -59 -44 -98.5t-110 -39.5t-109.5 39.5t-43.5 98.5z" />
<glyph unicode=";" horiz-adv-x="544" d="M96 -324q89 61 156.5 152t89.5 176q-30 -18 -76 -18q-64 0 -105.5 38t-41.5 97q0 60 43.5 98.5t109.5 38.5q69 0 111.5 -45.5t42.5 -120.5q0 -113 -37 -227t-98 -189h-195zM119 838q0 58 43.5 96.5t109.5 38.5t110 -38.5t44 -96.5q0 -59 -44 -98.5t-110 -39.5 t-109.5 39.5t-43.5 98.5z" />
<glyph unicode="&#x3c;" horiz-adv-x="950" d="M129 526v160l692 348v-215l-563 -213l563 -213v-215z" />
<glyph unicode="=" horiz-adv-x="1093" d="M129 313v199h836v-199h-836zM129 698v199h836v-199h-836z" />
<glyph unicode="&#x3e;" horiz-adv-x="950" d="M129 178v215l563 213l-563 213v215l692 -348v-160z" />
<glyph unicode="?" horiz-adv-x="1046" d="M59 1018q0 178 129.5 299t323.5 121q192 0 322.5 -116.5t130.5 -289.5q0 -64 -21.5 -118t-56 -91.5t-76.5 -70.5t-84 -62.5t-76.5 -59.5t-56 -69t-21.5 -84v-65h-122v65q0 60 21 111t55 88t75 70t82.5 63t75.5 61t55 70t21 84q0 84 -93.5 139.5t-228.5 55.5 q-138 0 -232 -58t-94 -143h-129zM362 121q0 57 43 95t107 38t107 -38t43 -95q0 -58 -42.5 -96.5t-107.5 -38.5t-107.5 38.5t-42.5 96.5z" />
<glyph unicode="@" horiz-adv-x="1734" d="M109 553q0 157 58 296.5t158.5 239.5t242 158t302.5 58q210 0 383.5 -92t273 -255t99.5 -364q0 -185 -82 -298.5t-223 -113.5q-88 0 -147.5 58t-65.5 151q-33 -100 -109.5 -156.5t-187.5 -56.5q-153 0 -253.5 107t-100.5 266q0 160 99.5 267.5t244.5 107.5 q108 0 189.5 -65t117.5 -173v213h121v-477q0 -30 30.5 -49t79.5 -19q79 0 129 68t50 174q0 148 -85 269t-233.5 189t-329.5 68q-186 0 -336 -74.5t-234.5 -205t-84.5 -291.5t84.5 -292t235 -206t337.5 -75q271 0 447 92h174q-117 -128 -278.5 -199.5t-344.5 -71.5 q-161 0 -302.5 57.5t-242 157.5t-158.5 239.5t-58 297.5zM582 553q0 -74 75 -124t187 -50t188 50t76 124q0 73 -76.5 122.5t-187.5 49.5q-109 0 -185.5 -49.5t-76.5 -122.5z" />
<glyph unicode="A" horiz-adv-x="1480" d="M41 0l577 1413h244l576 -1413h-135l-142 328h-831l-142 -328h-147zM422 543h647l-268 622h-113z" />
<glyph unicode="B" horiz-adv-x="1368" d="M166 0v1413h715q157 0 262.5 -100.5t105.5 -253.5q0 -104 -53.5 -188.5t-144.5 -125.5q116 -40 185 -139t69 -225q0 -164 -114.5 -272.5t-285.5 -108.5h-739zM291 215h583q137 0 218.5 56t81.5 147q0 98 -81.5 158.5t-218.5 60.5h-583v-422zM291 829h557q122 0 197 53.5 t75 139.5q0 79 -73.5 127.5t-198.5 48.5h-557v-369z" />
<glyph unicode="C" horiz-adv-x="1624" d="M92 707q0 205 96.5 372.5t266 263t376.5 95.5q260 0 455.5 -149t257.5 -386h-137q-67 142 -221 228t-355 86q-171 0 -310 -66.5t-218.5 -183.5t-79.5 -260t79.5 -260t218.5 -183.5t310 -66.5q201 0 355 85.5t221 227.5h137q-62 -237 -257.5 -386t-455.5 -149 q-155 0 -292 56.5t-235 153.5t-155 232.5t-57 289.5z" />
<glyph unicode="D" horiz-adv-x="1517" d="M166 0v1413h545q202 0 366 -92t257 -253.5t93 -360.5t-93 -361t-257 -254t-366 -92h-545zM291 215h418q165 0 300 64.5t211 177t76 250.5t-76 250.5t-211 176.5t-300 64h-418v-983z" />
<glyph unicode="E" horiz-adv-x="1255" d="M166 0v1413h987v-215h-862v-389h794v-197h-794v-397h872v-215h-997z" />
<glyph unicode="F" horiz-adv-x="1173" d="M166 0v1413h936v-215h-811v-393h727v-215h-727v-590h-125z" />
<glyph unicode="G" horiz-adv-x="1689" d="M92 707q0 205 96.5 372.5t266 263t376.5 95.5q250 0 441 -135t256 -351h-152q-70 121 -215.5 193t-329.5 72q-171 0 -310 -66.5t-218.5 -183.5t-79.5 -260t79.5 -260t218.5 -183.5t310 -66.5q227 0 394.5 100.5t218.5 263.5h-586v207h705v-768h-103v436 q-77 -218 -240.5 -339.5t-388.5 -121.5q-155 0 -292 56.5t-235 153.5t-155 232.5t-57 289.5z" />
<glyph unicode="H" horiz-adv-x="1495" d="M166 0v1413h125v-590h913v590h125v-1413h-125v598h-913v-598h-125z" />
<glyph unicode="I" horiz-adv-x="458" d="M166 0v1413h125v-1413h-125z" />
<glyph unicode="J" horiz-adv-x="1146" d="M55 444h131q0 -106 100 -176.5t251 -70.5t251.5 70.5t100.5 176.5v969h125v-969q0 -201 -137.5 -335t-341.5 -134q-206 0 -343 134t-137 335z" />
<glyph unicode="K" horiz-adv-x="1349" d="M166 0v1413h125v-643h92l678 643h266l-647 -653l661 -760h-165l-601 672l-284 -187v-485h-125z" />
<glyph unicode="L" horiz-adv-x="1122" d="M166 0v1413h125v-1198h770v-215h-895z" />
<glyph unicode="M" horiz-adv-x="1751" d="M166 0v1413h221l447 -819h75l447 819h229v-1413h-125v1102h-96l-416 -813h-143l-418 813h-96v-1102h-125z" />
<glyph unicode="N" horiz-adv-x="1513" d="M166 0v1413h190l803 -1087h62v1087h125v-1413h-189l-803 1087h-63v-1087h-125z" />
<glyph unicode="O" horiz-adv-x="1662" d="M92 707q0 205 96.5 372.5t266 263t376.5 95.5q208 0 377.5 -95.5t266 -263t96.5 -372.5t-96.5 -373t-266 -263.5t-377.5 -95.5q-155 0 -292 56.5t-235 153.5t-155 232.5t-57 289.5zM223 707q0 -143 79.5 -260t218.5 -183.5t310 -66.5t311 66.5t220 183.5t80 260t-80 260 t-220 183.5t-311 66.5t-310 -66.5t-218.5 -183.5t-79.5 -260z" />
<glyph unicode="P" horiz-adv-x="1327" d="M166 0v1413h635q198 0 330.5 -130.5t132.5 -324.5q0 -195 -132.5 -325.5t-330.5 -130.5h-510v-502h-125zM291 719h506q153 0 245.5 65.5t92.5 173.5q0 107 -92.5 173.5t-245.5 66.5h-506v-479z" />
<glyph unicode="Q" horiz-adv-x="1662" d="M92 707q0 205 96.5 372.5t266 263t376.5 95.5q208 0 377.5 -95.5t266 -263t96.5 -372.5q0 -204 -97 -371.5t-262 -261.5l154 -248h-139l-123 197q-130 -48 -273 -48q-155 0 -292 56.5t-235 153.5t-155 232.5t-57 289.5zM223 707q0 -143 79.5 -260t218.5 -183.5t310 -66.5 q68 0 154 14l-158 250h142l135 -215q155 63 246.5 185t91.5 276q0 143 -80 260t-220 183.5t-311 66.5t-310 -66.5t-218.5 -183.5t-79.5 -260z" />
<glyph unicode="R" horiz-adv-x="1347" d="M166 0v1413h635q198 0 330.5 -130.5t132.5 -324.5q0 -167 -99.5 -289.5t-259.5 -156.5l373 -512h-162l-366 502h-459v-502h-125zM291 719h506q153 0 245.5 65.5t92.5 173.5q0 107 -92.5 173.5t-245.5 66.5h-506v-479z" />
<glyph unicode="S" horiz-adv-x="1251" d="M78 403h131q0 -94 123 -157.5t307 -63.5q109 0 199.5 23.5t147 70t56.5 107.5q0 164 -424 229q-90 15 -165.5 38t-140 58.5t-109 81t-69.5 107.5t-25 135q0 122 69.5 215.5t185.5 142t257 48.5q225 0 373.5 -118t148.5 -292h-131q0 87 -112.5 145t-283.5 58 q-101 0 -185.5 -20.5t-138.5 -65t-54 -105.5q0 -39 26.5 -72.5t64.5 -55t95.5 -40t102 -28t102.5 -19.5q120 -18 216.5 -51.5t170.5 -84t114.5 -123t40.5 -163.5q0 -82 -29.5 -152t-81 -120t-120.5 -86t-148 -53t-163 -17q-155 0 -281.5 56t-198 154.5t-71.5 217.5z" />
<glyph unicode="T" horiz-adv-x="1241" d="M57 1198v215h1125v-215h-500v-1198h-125v1198h-500z" />
<glyph unicode="U" horiz-adv-x="1419" d="M135 541v872h125v-868q0 -149 128.5 -248.5t320.5 -99.5q193 0 321.5 99.5t128.5 248.5v868h125v-872q0 -159 -75 -288.5t-206.5 -203.5t-293.5 -74q-161 0 -292.5 74t-206.5 203.5t-75 288.5z" />
<glyph unicode="V" horiz-adv-x="1431" d="M43 1413h135l477 -1153h107l477 1153h152l-555 -1413h-240z" />
<glyph unicode="W" horiz-adv-x="2191" d="M51 1413h135l379 -1087h92l373 1087h123l373 -1087h92l379 1087h145l-467 -1413h-182l-346 1049h-103l-346 -1049h-182z" />
<glyph unicode="X" horiz-adv-x="1361" d="M39 0l510 713l-494 700h152l418 -553h112l422 553h164l-502 -708l500 -705h-150l-426 555h-112l-430 -555h-164z" />
<glyph unicode="Y" horiz-adv-x="1323" d="M18 1413h148l438 -643h105l438 643h158l-580 -938v-475h-125v475z" />
<glyph unicode="Z" horiz-adv-x="1318" d="M84 0v145l905 1053h-897v215h1127v-145l-904 -1053h918v-215h-1149z" />
<glyph unicode="[" horiz-adv-x="636" d="M176 -389v1925h416v-205h-297v-1515h297v-205h-416z" />
<glyph unicode="\" horiz-adv-x="980" d="M23 1536h116l819 -1843h-116z" />
<glyph unicode="]" horiz-adv-x="636" d="M45 -184h297v1515h-297v205h416v-1925h-416v205z" />
<glyph unicode="^" horiz-adv-x="858" d="M92 920l256 493h164l254 -493h-133l-174 311h-51l-177 -311h-139z" />
<glyph unicode="_" horiz-adv-x="1046" d="M72 -158h903v-190h-903v190z" />
<glyph unicode="`" horiz-adv-x="468" d="M0 1446h268l201 -266h-176z" />
<glyph unicode="a" d="M86 522q0 153 67.5 278.5t187.5 197t267 71.5q169 0 295 -101t174 -266v342h113v-1044h-113v342q-48 -165 -174 -266t-295 -101q-147 0 -267 71.5t-187.5 197t-67.5 278.5zM205 522q0 -143 124.5 -239.5t311.5 -96.5t311.5 96.5t124.5 239.5t-124.5 239.5t-311.5 96.5 t-311.5 -96.5t-124.5 -239.5z" />
<glyph unicode="b" d="M150 0v1475h112v-773q48 165 174 266t295 101q224 0 374 -157t150 -390t-150 -390t-374 -157q-169 0 -295 101t-174 266v-342h-112zM262 522q0 -143 124.5 -239.5t311.5 -96.5t312 96.5t125 239.5t-125 239.5t-312 96.5t-311.5 -96.5t-124.5 -239.5z" />
<glyph unicode="c" horiz-adv-x="1249" d="M82 522q0 153 72.5 278.5t200.5 197t284 71.5q198 0 345 -113t190 -294h-127q-47 90 -157.5 143t-250.5 53q-187 0 -311.5 -96.5t-124.5 -239.5t124.5 -239.5t311.5 -96.5q140 0 250 53.5t158 143.5h127q-43 -181 -190 -294.5t-345 -113.5q-156 0 -284 71.5t-200.5 197 t-72.5 278.5z" />
<glyph unicode="d" d="M86 522q0 153 67.5 278.5t187.5 197t267 71.5q169 0 295 -101t174 -266v773h113v-1475h-113v342q-48 -165 -174 -266t-295 -101q-147 0 -267 71.5t-187.5 197t-67.5 278.5zM205 522q0 -143 124.5 -239.5t311.5 -96.5t311.5 96.5t124.5 239.5t-124.5 239.5t-311.5 96.5 t-311.5 -96.5t-124.5 -239.5z" />
<glyph unicode="e" horiz-adv-x="1273" d="M82 522q0 153 72.5 278.5t200.5 197t284 71.5t283 -71t199.5 -197.5t72.5 -282.5q0 -21 -4 -67h-989q31 -120 151.5 -193.5t290.5 -73.5q127 0 231 33.5t160 89.5h144q-65 -151 -208 -241.5t-327 -90.5q-159 0 -287.5 71.5t-201 196.5t-72.5 279zM203 598h872 q-31 117 -151 189.5t-285 72.5t-285 -72.5t-151 -189.5z" />
<glyph unicode="f" horiz-adv-x="804" d="M70 840v204h245v158q0 283 279 283h158v-205h-148q-174 0 -174 -119v-117h322v-204h-322v-840h-115v840h-245z" />
<glyph unicode="g" horiz-adv-x="1337" d="M86 532q0 113 40 212.5t109 170.5t166 112.5t207 41.5q169 0 296 -99t175 -261v335h113v-931q0 -237 -146.5 -382t-386.5 -145q-202 0 -339.5 105.5t-182.5 290.5h121q39 -89 147 -142t254 -53q190 0 305 89.5t115 238.5v241q-48 -163 -174.5 -261.5t-296.5 -98.5 q-224 0 -373 153t-149 383zM207 532q0 -143 124.5 -240t311.5 -97q186 0 311 97t125 240t-125 239.5t-311 96.5q-187 0 -311.5 -96.5t-124.5 -239.5z" />
<glyph unicode="h" horiz-adv-x="1261" d="M150 0v1475h112v-727q50 153 164.5 237t275.5 84q191 0 307.5 -116t116.5 -308v-645h-112v590q0 123 -100.5 195.5t-268.5 72.5q-173 0 -278 -74t-105 -198v-586h-112z" />
<glyph unicode="i" horiz-adv-x="411" d="M76 1358q0 50 37 83.5t92 33.5q57 0 94 -33.5t37 -83.5q0 -51 -37 -84t-94 -33q-56 0 -92.5 33t-36.5 84zM150 0v1044h112v-1044h-112z" />
<glyph unicode="j" horiz-adv-x="425" d="M-86 -217q248 0 248 184v1077h114v-1093q0 -183 -93 -274t-269 -91v197zM90 1358q0 50 37 83.5t92 33.5t92 -33.5t37 -83.5q0 -51 -36.5 -84t-92.5 -33t-92.5 33t-36.5 84z" />
<glyph unicode="k" horiz-adv-x="1097" d="M150 0v1475h112v-889h64l495 458h256l-495 -493l510 -551h-158l-451 469l-221 -158v-311h-112z" />
<glyph unicode="l" horiz-adv-x="411" d="M150 0v1475h112v-1475h-112z" />
<glyph unicode="m" horiz-adv-x="1908" d="M150 0v1044h112v-262q46 137 147.5 212t243.5 75t237 -80t120 -219q43 143 144 221t243 78q171 0 274 -106t103 -283v-680h-113v631q0 103 -84.5 165t-224.5 62q-150 0 -242 -63.5t-92 -167.5v-627h-113v631q0 103 -84.5 165t-224.5 62q-150 0 -242 -63.5t-92 -167.5 v-627h-112z" />
<glyph unicode="n" horiz-adv-x="1261" d="M150 0v1044h112v-290q50 151 164.5 233t275.5 82q191 0 307.5 -116t116.5 -308v-645h-112v590q0 123 -100.5 195.5t-268.5 72.5q-173 0 -278 -74t-105 -198v-586h-112z" />
<glyph unicode="o" horiz-adv-x="1275" d="M82 522q0 153 72.5 278.5t200.5 197t284 71.5q236 0 395.5 -157t159.5 -390t-159.5 -390t-395.5 -157q-156 0 -284 71.5t-200.5 197t-72.5 278.5zM203 522q0 -143 124.5 -239.5t311.5 -96.5q186 0 311 96.5t125 239.5t-125 239.5t-311 96.5q-187 0 -311.5 -96.5 t-124.5 -239.5z" />
<glyph unicode="p" d="M150 -389v1433h112v-342q48 165 174 266t295 101q224 0 374 -157t150 -390t-150 -390t-374 -157q-169 0 -295 101t-174 266v-731h-112zM262 522q0 -143 124.5 -239.5t311.5 -96.5t312 96.5t125 239.5t-125 239.5t-312 96.5t-311.5 -96.5t-124.5 -239.5z" />
<glyph unicode="q" d="M86 522q0 153 67.5 278.5t187.5 197t267 71.5q169 0 295 -101t174 -266v342h113v-1433h-113v731q-48 -165 -174 -266t-295 -101q-147 0 -267 71.5t-187.5 197t-67.5 278.5zM205 522q0 -143 124.5 -239.5t311.5 -96.5t311.5 96.5t124.5 239.5t-124.5 239.5t-311.5 96.5 t-311.5 -96.5t-124.5 -239.5z" />
<glyph unicode="r" horiz-adv-x="759" d="M150 0v1044h112v-352q48 171 163 270t275 99v-252q-207 0 -322.5 -82.5t-115.5 -230.5v-496h-112z" />
<glyph unicode="s" horiz-adv-x="1075" d="M78 324h127q0 -65 93.5 -106.5t240.5 -41.5q150 0 240.5 33.5t90.5 89.5q0 58 -93 91t-269 54q-186 23 -299 103t-113 211q0 144 124.5 227.5t316.5 83.5q194 0 318 -94.5t124 -241.5h-127q0 60 -88.5 97.5t-226.5 37.5q-141 0 -226.5 -31t-85.5 -83q0 -54 91 -87 t266 -55q86 -11 158 -33.5t131 -59.5t92.5 -94t33.5 -128q0 -148 -128.5 -235t-329.5 -87q-203 0 -332 98.5t-129 250.5z" />
<glyph unicode="t" horiz-adv-x="813" d="M41 840v204h240v273l114 35v-308h353v-204h-353v-518q0 -115 176 -115h156v-207h-168q-278 0 -278 283v557h-240z" />
<glyph unicode="u" horiz-adv-x="1222" d="M133 387v657h115v-608q0 -114 95 -182t253 -68q163 0 262.5 69.5t99.5 184.5v604h115v-1044h-115v279q-50 -146 -158 -225t-259 -79q-183 0 -295.5 113t-112.5 299z" />
<glyph unicode="v" horiz-adv-x="1112" d="M29 1044h123l348 -796h98l348 796h137l-421 -1044h-211z" />
<glyph unicode="w" horiz-adv-x="1718" d="M37 1044h119l288 -763h86l265 763h116l265 -763h84l288 763h133l-362 -1044h-168l-246 754h-90l-248 -754h-168z" />
<glyph unicode="x" horiz-adv-x="1130" d="M49 0l391 526l-379 518h140l313 -389h100l314 389h153l-387 -524l385 -520h-139l-319 389h-101l-319 -389h-152z" />
<glyph unicode="y" horiz-adv-x="1112" d="M29 1044h123l348 -796h98l348 796h137l-577 -1433h-168l201 389h-88z" />
<glyph unicode="z" horiz-adv-x="1062" d="M84 0v135l659 705h-651v204h871v-135l-660 -704h674v-205h-893z" />
<glyph unicode="{" horiz-adv-x="780" d="M135 473v205h80q49 0 80 26.5t31 67.5v516q0 109 69 178.5t176 69.5h162v-205h-133q-67 0 -111.5 -30t-44.5 -76v-496q0 -52 -29 -93.5t-79 -60.5q50 -20 79 -61.5t29 -93.5v-498q0 -46 44.5 -76t111.5 -30h133v-205h-162q-107 0 -176 69.5t-69 178.5v518q0 42 -31 69 t-80 27h-80z" />
<glyph unicode="|" horiz-adv-x="524" d="M207 -389v1925h108v-1925h-108z" />
<glyph unicode="}" horiz-adv-x="780" d="M45 -184h133q67 0 111.5 30t44.5 76v498q0 52 29 93.5t79 61.5q-50 19 -79 60.5t-29 93.5v496q0 46 -44.5 76t-111.5 30h-133v205h162q109 0 177.5 -69.5t68.5 -178.5v-516q0 -41 31.5 -67.5t78.5 -26.5h80v-205h-80q-47 0 -78.5 -27.5t-31.5 -68.5v-518 q0 -109 -68.5 -178.5t-177.5 -69.5h-162v205z" />
<glyph unicode="~" horiz-adv-x="1132" d="M129 471q0 133 66.5 216t191.5 83q54 0 112 -17.5t99.5 -38t89.5 -38t84 -17.5q53 0 88 27.5t35 67.5h109q0 -132 -66.5 -215.5t-192.5 -83.5q-68 0 -140.5 27.5t-135.5 55t-107 27.5q-54 0 -89 -27t-35 -67h-109z" />
<glyph unicode="&#xa1;" horiz-adv-x="507" d="M104 924q0 58 42.5 96.5t107.5 38.5t107 -38.5t42 -96.5q0 -57 -42.5 -95t-106.5 -38t-107 38t-43 95zM178 -47l39 686h74l39 -686v-322h-152v322z" />
<glyph unicode="&#xa2;" horiz-adv-x="1306" d="M106 707q0 220 144.5 373.5t365.5 170.5v162h107v-162q178 -19 306.5 -129t168.5 -276h-127q-43 80 -135 132t-213 62v-667q121 10 213 62t135 132h127q-40 -166 -168.5 -276t-306.5 -129v-162h-107v162q-221 17 -365.5 171t-144.5 374zM227 707q0 -133 110 -227.5 t279 -106.5v667q-169 -12 -279 -106t-110 -227z" />
<glyph unicode="&#xa3;" horiz-adv-x="1271" d="M100 0v215h140v350h-140v201h140v240q0 185 134 308.5t333 123.5q201 0 336 -126t135 -315h-129q0 95 -97 157.5t-245 62.5t-245 -62.5t-97 -157.5v-231h569v-201h-569v-350h833v-215h-1098z" />
<glyph unicode="&#xa4;" horiz-adv-x="1097" d="M96 367l129 129q-63 91 -63 211q0 119 65 213l-129 131l107 108l135 -133q91 57 211 57q115 0 211 -55l131 131l108 -110l-127 -127q66 -95 66 -215q0 -118 -66 -213l127 -127l-108 -109l-131 131q-91 -57 -211 -57t-211 57l-133 -131zM260 707q0 -86 83 -143.5 t208 -57.5q123 0 206 57.5t83 143.5q0 88 -83 146t-206 58q-125 0 -208 -58t-83 -146z" />
<glyph unicode="&#xa5;" horiz-adv-x="1300" d="M37 1413h149l410 -647h102l410 647h156l-459 -780h225v-158h-317v-115h317v-157h-317v-203h-125v203h-316v157h316v115h-316v158h224z" />
<glyph unicode="&#xa6;" horiz-adv-x="524" d="M207 -389v840h108v-840h-108zM207 696v840h108v-840h-108z" />
<glyph unicode="&#xa7;" horiz-adv-x="1093" d="M147 125h113q0 -61 83.5 -103t205.5 -42q121 0 201.5 35t80.5 89q0 66 -83 110t-246 73q-160 28 -255 112t-95 226q0 80 43.5 145t119.5 104q-157 92 -157 259q0 137 112.5 221t274.5 84q166 0 278.5 -91t112.5 -225h-113q0 60 -81 100t-197 40t-194.5 -34t-78.5 -85 q0 -63 81 -105t241 -71q164 -30 261 -113.5t97 -224.5q0 -82 -46 -147.5t-126 -104.5q166 -90 166 -262q0 -94 -54.5 -166t-144.5 -109t-198 -37q-171 0 -286.5 92.5t-115.5 229.5zM266 639q0 -126 289 -172q122 1 202.5 43.5t80.5 103.5q0 127 -297 172 q-120 -3 -197.5 -45.5t-77.5 -101.5z" />
<glyph unicode="&#xa8;" horiz-adv-x="675" d="M0 1303q0 49 36 82.5t89 33.5t89 -33.5t36 -82.5q0 -48 -36.5 -82.5t-88.5 -34.5q-53 0 -89 34t-36 83zM426 1303q0 49 36 82.5t89 33.5t89 -33.5t36 -82.5q0 -48 -36.5 -82.5t-88.5 -34.5t-88.5 34.5t-36.5 82.5z" />
<glyph unicode="&#xa9;" horiz-adv-x="1687" d="M113 707q0 205 95.5 372.5t263 263t372.5 95.5t372.5 -95.5t263 -263t95.5 -372.5t-95.5 -373t-263 -263.5t-372.5 -95.5t-372.5 95.5t-263 263.5t-95.5 373zM197 707q0 -160 84.5 -290.5t233 -205t329.5 -74.5t329.5 74.5t233 205t84.5 290.5q0 120 -50 225.5 t-135.5 181t-205.5 119t-256 43.5t-256 -43.5t-205.5 -119t-135.5 -181t-50 -225.5zM438 707q0 173 117.5 290t292.5 117q153 0 263.5 -89.5t135.5 -231.5h-100q-30 67 -111 108t-188 41q-134 0 -223.5 -68t-89.5 -167t89.5 -167.5t223.5 -68.5q107 0 188 41.5t111 108.5 h100q-25 -142 -135.5 -232t-263.5 -90q-175 0 -292.5 117.5t-117.5 290.5z" />
<glyph unicode="&#xaa;" horiz-adv-x="800" d="M92 1137q0 126 80 210.5t199 84.5q81 0 145 -47t96 -123v153h97v-557h-97v154q-32 -76 -96 -123t-145 -47q-119 0 -199 84.5t-80 210.5zM190 1137q0 -63 60.5 -106.5t150.5 -43.5q89 0 150 43.5t61 106.5t-61 106t-150 43q-90 0 -150.5 -43t-60.5 -106z" />
<glyph unicode="&#xab;" horiz-adv-x="1263" d="M88 541l328 415h250l-430 -415l430 -416h-250zM590 541l330 415h247l-430 -415l430 -416h-247z" />
<glyph unicode="&#xad;" horiz-adv-x="835" d="M129 457v209h578v-209h-578z" />
<glyph unicode="&#xae;" horiz-adv-x="929" d="M92 1065q0 160 106.5 266.5t266.5 106.5t265.5 -106.5t105.5 -266.5q0 -159 -106 -265t-265 -106q-160 0 -266.5 106.5t-106.5 264.5zM139 1065q0 -121 94 -202t232 -81t230.5 81t92.5 202q0 122 -92.5 203.5t-230.5 81.5t-232 -82t-94 -203zM348 885v391h150 q53 0 88 -37t35 -92q0 -43 -22.5 -76t-59.5 -45l94 -141h-49l-92 135h-103v-135h-41zM389 1098h107q39 0 61.5 13.5t22.5 35.5q0 23 -22.5 37t-61.5 14h-107v-100z" />
<glyph unicode="&#xaf;" horiz-adv-x="485" d="M0 1212v179h485v-179h-485z" />
<glyph unicode="&#xb0;" horiz-adv-x="806" d="M102 1143q0 126 86 210.5t215 84.5q128 0 213.5 -84.5t85.5 -210.5q0 -129 -85.5 -214t-213.5 -85q-129 0 -215 85t-86 214zM211 1143q0 -57 54.5 -95t137.5 -38t138 38t55 95q0 56 -55 92.5t-138 36.5t-137.5 -36.5t-54.5 -92.5z" />
<glyph unicode="&#xb1;" horiz-adv-x="1093" d="M129 82v199h836v-199h-836zM129 643v199h363v233h110v-233h363v-199h-363v-233h-110v233h-363z" />
<glyph unicode="&#xb2;" horiz-adv-x="686" d="M59 750v100l369 336q98 94 98 162q0 53 -52 86.5t-134 33.5t-135 -34t-53 -86h-84q0 114 78 189t194 75q115 0 192.5 -74t77.5 -184q0 -116 -116 -228l-250 -239h377v-137h-562z" />
<glyph unicode="&#xb3;" horiz-adv-x="698" d="M53 989h86q0 -51 58.5 -84t146.5 -33q92 0 151.5 35t59.5 88q0 57 -54.5 93t-140.5 36h-131v125h131q77 0 127 33.5t50 83.5q0 46 -54 77.5t-137 31.5q-81 0 -134.5 -30t-53.5 -75h-84q0 104 78 173t194 69q117 0 196 -67t79 -165q0 -60 -31.5 -110.5t-85.5 -79.5 q64 -29 99.5 -85.5t35.5 -123.5q0 -104 -84.5 -175t-208.5 -71t-208.5 73t-84.5 181z" />
<glyph unicode="&#xb4;" horiz-adv-x="468" d="M0 1180l201 266h268l-293 -266h-176z" />
<glyph unicode="&#xb6;" horiz-adv-x="1232" d="M68 995q0 178 119 298t296 120h594v-1802h-98v1612h-244v-1612h-98v969h-154q-177 0 -296 119t-119 296z" />
<glyph unicode="&#xb7;" horiz-adv-x="563" d="M129 561q0 59 44 98t110 39q64 0 107.5 -39t43.5 -98t-43.5 -98t-107.5 -39q-66 0 -110 39t-44 98z" />
<glyph unicode="&#xb8;" horiz-adv-x="444" d="M0 -264h104q0 -31 33.5 -51.5t83.5 -20.5q51 0 85 20.5t34 51.5q0 34 -33.5 56t-83.5 22q-53 0 -94 -25l-84 57l127 154v4h100v-4l-61 -74q20 4 35 4q85 0 141.5 -55.5t56.5 -138.5q0 -84 -64 -141.5t-159 -57.5q-93 0 -157 57.5t-64 141.5z" />
<glyph unicode="&#xb9;" horiz-adv-x="471" d="M43 1327v150l248 120h76v-847h-80v694z" />
<glyph unicode="&#xba;" horiz-adv-x="802" d="M92 1137q0 126 89 210.5t220 84.5q132 0 221 -84.5t89 -210.5t-89 -210.5t-221 -84.5q-131 0 -220 84.5t-89 210.5zM190 1137q0 -63 61 -106.5t150 -43.5t151 43.5t62 106.5t-62 106t-151 43t-150 -43t-61 -106z" />
<glyph unicode="&#xbb;" horiz-adv-x="1263" d="M102 125l428 416l-428 415h248l330 -415l-330 -416h-248zM604 125l430 416l-430 415h248l330 -415l-330 -416h-248z" />
<glyph unicode="&#xbc;" horiz-adv-x="1478" d="M43 1143v149l248 121h76v-848h-80v695zM186 0l990 1413h104l-991 -1413h-103zM811 178v98l373 572h147v-535h115v-135h-115v-178h-80v178h-440zM924 313h327v402h-34z" />
<glyph unicode="&#xbd;" horiz-adv-x="1587" d="M43 1143v149l248 121h76v-848h-80v695zM186 0l990 1413h104l-991 -1413h-103zM963 0v100l368 336q99 95 99 162q0 53 -52.5 87t-134.5 34t-135 -34t-53 -87h-84q0 114 78 189t194 75q115 0 192.5 -74t77.5 -184q0 -115 -116 -227l-250 -240h377v-137h-561z" />
<glyph unicode="&#xbe;" horiz-adv-x="1624" d="M53 805h86q0 -51 58.5 -84t146.5 -33q92 0 151.5 35t59.5 88q0 57 -54.5 93t-140.5 36h-131v125h131q77 0 127 33.5t50 83.5q0 46 -54 77t-137 31q-81 0 -134.5 -30t-53.5 -74h-84q0 104 78 172.5t194 68.5q117 0 196 -66.5t79 -164.5q0 -60 -31.5 -110.5t-85.5 -79.5 q64 -29 99.5 -85.5t35.5 -123.5q0 -104 -84.5 -175t-208.5 -71t-208.5 73t-84.5 181zM332 0l989 1413h104l-991 -1413h-102zM956 178v98l373 572h148v-535h114v-135h-114v-178h-80v178h-441zM1069 313h328v402h-35z" />
<glyph unicode="&#xbf;" horiz-adv-x="1017" d="M78 12q0 64 21.5 118t56 91.5t76 70.5t83.5 62.5t76.5 59.5t56 69t21.5 84v66h123v-66q0 -60 -21 -111t-55 -88t-75.5 -70t-82.5 -63t-75 -61t-55 -70t-21 -84q0 -84 92.5 -139t226.5 -55q139 0 232.5 58t93.5 143h129q0 -178 -129.5 -299t-323.5 -121q-192 0 -321 116 t-129 289zM379 924q0 58 43 96.5t108 38.5q63 0 106.5 -38.5t43.5 -96.5q0 -57 -43.5 -95t-106.5 -38q-65 0 -108 38t-43 95z" />
<glyph unicode="&#xc0;" horiz-adv-x="1480" d="M41 0l577 1413h244l576 -1413h-135l-142 328h-831l-142 -328h-147zM383 1815h268l201 -267h-176zM422 543h647l-268 622h-113z" />
<glyph unicode="&#xc1;" horiz-adv-x="1480" d="M41 0l577 1413h244l576 -1413h-135l-142 328h-831l-142 -328h-147zM422 543h647l-268 622h-113zM631 1548l200 267h269l-293 -267h-176z" />
<glyph unicode="&#xc2;" horiz-adv-x="1480" d="M41 0l577 1413h244l576 -1413h-135l-142 328h-831l-142 -328h-147zM422 543h647l-268 622h-113zM426 1548l205 267h221l205 -267h-158l-135 127h-31l-135 -127h-172z" />
<glyph unicode="&#xc3;" horiz-adv-x="1480" d="M41 0l577 1413h244l576 -1413h-135l-142 328h-831l-142 -328h-147zM393 1571q0 107 56.5 176.5t152.5 69.5q43 0 82.5 -13.5t64.5 -30.5t57 -30.5t62 -13.5q43 0 71 22.5t28 56.5h123q0 -108 -57 -176.5t-152 -68.5q-56 0 -103.5 21.5t-87.5 43t-76 21.5q-43 0 -70.5 -22 t-27.5 -56h-123zM422 543h647l-268 622h-113z" />
<glyph unicode="&#xc4;" horiz-adv-x="1480" d="M41 0l577 1413h244l576 -1413h-135l-142 328h-831l-142 -328h-147zM403 1671q0 49 36 83t89 34t89 -34t36 -83q0 -48 -36.5 -82.5t-88.5 -34.5q-53 0 -89 34t-36 83zM422 543h647l-268 622h-113zM829 1671q0 49 36 83t89 34t89 -34t36 -83q0 -48 -36.5 -82.5t-88.5 -34.5 t-88.5 34.5t-36.5 82.5z" />
<glyph unicode="&#xc5;" horiz-adv-x="1480" d="M41 0l577 1413h244l576 -1413h-135l-142 328h-831l-142 -328h-147zM422 543h647l-268 622h-113zM557 1698q0 75 52.5 125.5t129.5 50.5q78 0 131.5 -50.5t53.5 -125.5t-53.5 -125.5t-131.5 -50.5q-77 0 -129.5 50.5t-52.5 125.5zM643 1698q0 -27 28 -45.5t68 -18.5 q43 0 71 18t28 46t-28 45.5t-71 17.5q-40 0 -68 -18t-28 -45z" />
<glyph unicode="&#xc6;" horiz-adv-x="1968" d="M-51 0l856 1413h1063v-215h-774v-389h706v-197h-706v-397h784v-215h-936v319h-618l-203 -319h-172zM457 532h485v666h-63z" />
<glyph unicode="&#xc7;" horiz-adv-x="1624" d="M92 707q0 205 96.5 372.5t266 263t376.5 95.5q260 0 455.5 -149t257.5 -386h-137q-67 142 -221 228t-355 86q-171 0 -310 -66.5t-218.5 -183.5t-79.5 -260t79.5 -260t218.5 -183.5t310 -66.5q201 0 355 85.5t221 227.5h137q-61 -229 -245.5 -377t-432.5 -158l-41 -49 q20 4 35 4q85 0 142 -55.5t57 -138.5q0 -84 -64 -141.5t-159 -57.5q-94 0 -158 58t-64 141h105q0 -31 33.5 -51.5t83.5 -20.5q51 0 84.5 20.5t33.5 51.5q0 34 -33 56t-83 22q-54 0 -95 -25l-84 57l109 131q-192 15 -346 113.5t-242 260.5t-88 356z" />
<glyph unicode="&#xc8;" horiz-adv-x="1255" d="M166 0v1413h987v-215h-862v-389h794v-197h-794v-397h872v-215h-997zM324 1815h268l201 -267h-177z" />
<glyph unicode="&#xc9;" horiz-adv-x="1255" d="M166 0v1413h987v-215h-862v-389h794v-197h-794v-397h872v-215h-997zM569 1548l201 267h268l-293 -267h-176z" />
<glyph unicode="&#xca;" horiz-adv-x="1255" d="M166 0v1413h987v-215h-862v-389h794v-197h-794v-397h872v-215h-997zM367 1548l204 267h222l204 -267h-157l-135 127h-31l-135 -127h-172z" />
<glyph unicode="&#xcb;" horiz-adv-x="1255" d="M166 0v1413h987v-215h-862v-389h794v-197h-794v-397h872v-215h-997zM344 1671q0 49 36 83t89 34t89 -34t36 -83q0 -48 -36.5 -82.5t-88.5 -34.5q-53 0 -89 34t-36 83zM770 1671q0 49 36 83t89 34t89 -34t36 -83q0 -48 -36.5 -82.5t-88.5 -34.5t-88.5 34.5t-36.5 82.5z " />
<glyph unicode="&#xcc;" horiz-adv-x="458" d="M-127 1815h268l201 -267h-176zM166 0v1413h125v-1413h-125z" />
<glyph unicode="&#xcd;" horiz-adv-x="458" d="M119 1548l200 267h269l-293 -267h-176zM166 0v1413h125v-1413h-125z" />
<glyph unicode="&#xce;" horiz-adv-x="458" d="M-86 1548l205 267h221l205 -267h-158l-135 127h-31l-135 -127h-172zM166 0v1413h125v-1413h-125z" />
<glyph unicode="&#xcf;" horiz-adv-x="458" d="M-106 1671q0 50 36 83.5t88 33.5q53 0 89 -34t36 -83q0 -48 -36.5 -82.5t-88.5 -34.5t-88 33.5t-36 83.5zM166 0v1413h125v-1413h-125zM319 1671q0 49 36 83t89 34t89 -34t36 -83q0 -48 -36.5 -82.5t-88.5 -34.5t-88.5 34.5t-36.5 82.5z" />
<glyph unicode="&#xd0;" horiz-adv-x="1517" d="M23 631v151h143v631h545q202 0 366 -92t257 -253.5t93 -360.5t-93 -361t-257 -254t-366 -92h-545v631h-143zM291 215h418q165 0 300 64.5t211 177t76 250.5t-76 250.5t-211 176.5t-300 64h-418v-416h325v-151h-325v-416z" />
<glyph unicode="&#xd1;" horiz-adv-x="1513" d="M166 0v1413h190l803 -1087h62v1087h125v-1413h-189l-803 1087h-63v-1087h-125zM412 1571q0 107 56.5 176.5t152.5 69.5q43 0 82.5 -13.5t64.5 -30.5t57 -30.5t62 -13.5q43 0 70.5 22.5t27.5 56.5h123q0 -108 -57 -176.5t-152 -68.5q-44 0 -84 13.5t-64.5 29.5t-56 29.5 t-61.5 13.5q-43 0 -70.5 -22t-27.5 -56h-123z" />
<glyph unicode="&#xd2;" horiz-adv-x="1662" d="M92 707q0 205 96.5 372.5t266 263t376.5 95.5q208 0 377.5 -95.5t266 -263t96.5 -372.5t-96.5 -373t-266 -263.5t-377.5 -95.5q-155 0 -292 56.5t-235 153.5t-155 232.5t-57 289.5zM223 707q0 -143 79.5 -260t218.5 -183.5t310 -66.5t311 66.5t220 183.5t80 260t-80 260 t-220 183.5t-311 66.5t-310 -66.5t-218.5 -183.5t-79.5 -260zM475 1815h268l201 -267h-176z" />
<glyph unicode="&#xd3;" horiz-adv-x="1662" d="M92 707q0 205 96.5 372.5t266 263t376.5 95.5q208 0 377.5 -95.5t266 -263t96.5 -372.5t-96.5 -373t-266 -263.5t-377.5 -95.5q-155 0 -292 56.5t-235 153.5t-155 232.5t-57 289.5zM223 707q0 -143 79.5 -260t218.5 -183.5t310 -66.5t311 66.5t220 183.5t80 260t-80 260 t-220 183.5t-311 66.5t-310 -66.5t-218.5 -183.5t-79.5 -260zM721 1548l201 267h268l-293 -267h-176z" />
<glyph unicode="&#xd4;" horiz-adv-x="1662" d="M92 707q0 205 96.5 372.5t266 263t376.5 95.5q208 0 377.5 -95.5t266 -263t96.5 -372.5t-96.5 -373t-266 -263.5t-377.5 -95.5q-155 0 -292 56.5t-235 153.5t-155 232.5t-57 289.5zM223 707q0 -143 79.5 -260t218.5 -183.5t310 -66.5t311 66.5t220 183.5t80 260t-80 260 t-220 183.5t-311 66.5t-310 -66.5t-218.5 -183.5t-79.5 -260zM516 1548l205 267h221l205 -267h-158l-135 127h-31l-135 -127h-172z" />
<glyph unicode="&#xd5;" horiz-adv-x="1662" d="M92 707q0 205 96.5 372.5t266 263t376.5 95.5q208 0 377.5 -95.5t266 -263t96.5 -372.5t-96.5 -373t-266 -263.5t-377.5 -95.5q-155 0 -292 56.5t-235 153.5t-155 232.5t-57 289.5zM223 707q0 -143 79.5 -260t218.5 -183.5t310 -66.5t311 66.5t220 183.5t80 260t-80 260 t-220 183.5t-311 66.5t-310 -66.5t-218.5 -183.5t-79.5 -260zM483 1571q0 107 56.5 176.5t152.5 69.5q43 0 82.5 -13.5t64.5 -30.5t57 -30.5t62 -13.5q43 0 71 22.5t28 56.5h123q0 -108 -57 -176.5t-152 -68.5q-44 0 -84 13.5t-64.5 29.5t-56 29.5t-61.5 13.5q-43 0 -71 -22 t-28 -56h-123z" />
<glyph unicode="&#xd6;" horiz-adv-x="1662" d="M92 707q0 205 96.5 372.5t266 263t376.5 95.5q208 0 377.5 -95.5t266 -263t96.5 -372.5t-96.5 -373t-266 -263.5t-377.5 -95.5q-155 0 -292 56.5t-235 153.5t-155 232.5t-57 289.5zM223 707q0 -143 79.5 -260t218.5 -183.5t310 -66.5t311 66.5t220 183.5t80 260t-80 260 t-220 183.5t-311 66.5t-310 -66.5t-218.5 -183.5t-79.5 -260zM494 1671q0 50 36 83.5t88 33.5q53 0 89 -34t36 -83q0 -48 -36.5 -82.5t-88.5 -34.5t-88 33.5t-36 83.5zM920 1671q0 50 36 83.5t88 33.5q53 0 89 -34t36 -83q0 -48 -36.5 -82.5t-88.5 -34.5t-88 34.5t-36 82.5z " />
<glyph unicode="&#xd7;" horiz-adv-x="944" d="M129 850l82 84l240 -197h43l239 197l82 -84l-223 -242v-8l223 -240l-82 -84l-239 195h-43l-240 -195l-80 84l223 240v8z" />
<glyph unicode="&#xd8;" horiz-adv-x="1662" d="M92 707q0 205 96.5 372.5t266 263t376.5 95.5q245 0 437 -133l98 108h190l-180 -203q93 -99 144 -228t51 -275q0 -205 -96.5 -373t-266 -263.5t-377.5 -95.5q-247 0 -438 136l-98 -111h-191l183 203q-195 208 -195 504zM223 707q0 -111 47.5 -206t135.5 -165l729 817 q-137 64 -304 64q-171 0 -310 -66.5t-218.5 -183.5t-79.5 -260zM528 260q135 -63 303 -63q171 0 311 66.5t220 183.5t80 260q0 111 -48.5 206t-136.5 164z" />
<glyph unicode="&#xd9;" horiz-adv-x="1419" d="M135 541v872h125v-868q0 -149 128.5 -248.5t320.5 -99.5q193 0 321.5 99.5t128.5 248.5v868h125v-872q0 -159 -75 -288.5t-206.5 -203.5t-293.5 -74q-161 0 -292.5 74t-206.5 203.5t-75 288.5zM352 1815h269l200 -267h-176z" />
<glyph unicode="&#xda;" horiz-adv-x="1419" d="M135 541v872h125v-868q0 -149 128.5 -248.5t320.5 -99.5q193 0 321.5 99.5t128.5 248.5v868h125v-872q0 -159 -75 -288.5t-206.5 -203.5t-293.5 -74q-161 0 -292.5 74t-206.5 203.5t-75 288.5zM598 1548l201 267h268l-293 -267h-176z" />
<glyph unicode="&#xdb;" horiz-adv-x="1419" d="M135 541v872h125v-868q0 -149 128.5 -248.5t320.5 -99.5q193 0 321.5 99.5t128.5 248.5v868h125v-872q0 -159 -75 -288.5t-206.5 -203.5t-293.5 -74q-161 0 -292.5 74t-206.5 203.5t-75 288.5zM393 1548l205 267h221l205 -267h-158l-135 127h-31l-135 -127h-172z" />
<glyph unicode="&#xdc;" horiz-adv-x="1419" d="M135 541v872h125v-868q0 -149 128.5 -248.5t320.5 -99.5q193 0 321.5 99.5t128.5 248.5v868h125v-872q0 -159 -75 -288.5t-206.5 -203.5t-293.5 -74q-161 0 -292.5 74t-206.5 203.5t-75 288.5zM373 1671q0 49 36 83t89 34t89 -34t36 -83q0 -48 -36.5 -82.5t-88.5 -34.5 q-53 0 -89 34t-36 83zM799 1671q0 49 36 83t89 34t89 -34t36 -83q0 -48 -36.5 -82.5t-88.5 -34.5t-88.5 34.5t-36.5 82.5z" />
<glyph unicode="&#xdd;" horiz-adv-x="1323" d="M18 1413h148l438 -643h105l438 643h158l-580 -938v-475h-125v475zM553 1548l201 267h268l-293 -267h-176z" />
<glyph unicode="&#xde;" horiz-adv-x="1320" d="M166 0v1413h125v-239h510q198 0 330.5 -130.5t132.5 -324.5q0 -195 -132.5 -325t-330.5 -130h-510v-264h-125zM291 479h506q153 0 245.5 66t92.5 174t-92.5 173.5t-245.5 65.5h-506v-479z" />
<glyph unicode="&#xdf;" horiz-adv-x="1087" d="M143 0v1112q0 166 116.5 276.5t293.5 110.5q178 0 298 -111.5t120 -273.5q0 -111 -56 -200.5t-149 -131.5q117 -37 188.5 -142t71.5 -243q0 -180 -126.5 -301t-315.5 -121q-78 0 -144 25v209q50 -23 125 -23q148 0 245 66t97 166q0 111 -94 185.5t-235 74.5h-99v209h86 q122 0 203.5 60.5t81.5 150.5q0 82 -84.5 136t-212.5 54t-212.5 -54t-84.5 -136v-1098h-113z" />
<glyph unicode="&#xe0;" d="M86 522q0 153 67.5 278.5t187.5 197t267 71.5q169 0 295 -101t174 -266v342h113v-1044h-113v342q-48 -165 -174 -266t-295 -101q-147 0 -267 71.5t-187.5 197t-67.5 278.5zM205 522q0 -143 124.5 -239.5t311.5 -96.5t311.5 96.5t124.5 239.5t-124.5 239.5t-311.5 96.5 t-311.5 -96.5t-124.5 -239.5zM317 1446h269l200 -266h-176z" />
<glyph unicode="&#xe1;" d="M86 522q0 153 67.5 278.5t187.5 197t267 71.5q169 0 295 -101t174 -266v342h113v-1044h-113v342q-48 -165 -174 -266t-295 -101q-147 0 -267 71.5t-187.5 197t-67.5 278.5zM205 522q0 -143 124.5 -239.5t311.5 -96.5t311.5 96.5t124.5 239.5t-124.5 239.5t-311.5 96.5 t-311.5 -96.5t-124.5 -239.5zM563 1180l201 266h268l-293 -266h-176z" />
<glyph unicode="&#xe2;" d="M86 522q0 153 67.5 278.5t187.5 197t267 71.5q169 0 295 -101t174 -266v342h113v-1044h-113v342q-48 -165 -174 -266t-295 -101q-147 0 -267 71.5t-187.5 197t-67.5 278.5zM205 522q0 -143 124.5 -239.5t311.5 -96.5t311.5 96.5t124.5 239.5t-124.5 239.5t-311.5 96.5 t-311.5 -96.5t-124.5 -239.5zM360 1180l205 266h221l205 -266h-157l-136 127h-30l-136 -127h-172z" />
<glyph unicode="&#xe3;" d="M86 522q0 153 67.5 278.5t187.5 197t267 71.5q169 0 295 -101t174 -266v342h113v-1044h-113v342q-48 -165 -174 -266t-295 -101q-147 0 -267 71.5t-187.5 197t-67.5 278.5zM205 522q0 -143 124.5 -239.5t311.5 -96.5t311.5 96.5t124.5 239.5t-124.5 239.5t-311.5 96.5 t-311.5 -96.5t-124.5 -239.5zM326 1202q0 107 56.5 176.5t152.5 69.5q43 0 82.5 -14t64.5 -30t57 -30t62 -14q42 0 70 23t28 57h123q0 -108 -57 -177t-152 -69q-44 0 -84 13.5t-64.5 29.5t-56 29.5t-61.5 13.5q-43 0 -70.5 -22t-27.5 -56h-123z" />
<glyph unicode="&#xe4;" d="M86 522q0 153 67.5 278.5t187.5 197t267 71.5q169 0 295 -101t174 -266v342h113v-1044h-113v342q-48 -165 -174 -266t-295 -101q-147 0 -267 71.5t-187.5 197t-67.5 278.5zM205 522q0 -143 124.5 -239.5t311.5 -96.5t311.5 96.5t124.5 239.5t-124.5 239.5t-311.5 96.5 t-311.5 -96.5t-124.5 -239.5zM338 1303q0 49 36 82.5t89 33.5t89 -33.5t36 -82.5q0 -48 -36.5 -82.5t-88.5 -34.5q-53 0 -89 34t-36 83zM764 1303q0 49 36 82.5t89 33.5t89 -33.5t36 -82.5q0 -48 -36.5 -82.5t-88.5 -34.5t-88.5 34.5t-36.5 82.5z" />
<glyph unicode="&#xe5;" d="M86 522q0 153 67.5 278.5t187.5 197t267 71.5q169 0 295 -101t174 -266v342h113v-1044h-113v342q-48 -165 -174 -266t-295 -101q-147 0 -267 71.5t-187.5 197t-67.5 278.5zM205 522q0 -143 124.5 -239.5t311.5 -96.5t311.5 96.5t124.5 239.5t-124.5 239.5t-311.5 96.5 t-311.5 -96.5t-124.5 -239.5zM492 1329q0 75 52.5 125.5t129.5 50.5q78 0 131 -50.5t53 -125.5t-53 -125.5t-131 -50.5q-77 0 -129.5 50.5t-52.5 125.5zM578 1329q0 -27 28 -45t68 -18q43 0 70.5 17.5t27.5 45.5t-27.5 46t-70.5 18q-40 0 -68 -18.5t-28 -45.5z" />
<glyph unicode="&#xe6;" horiz-adv-x="2125" d="M82 324q0 151 129 251.5t319 100.5q138 0 250 -47t172 -125v18v4v144q0 88 -97 140t-259 52q-142 0 -240 -33.5t-123 -89.5h-116q27 148 156 239t323 91q160 0 275.5 -69.5t156.5 -190.5q70 120 192 190t271 70q238 0 396.5 -157t158.5 -394q0 -12 -1 -35t-1 -34h-983 q31 -119 149 -192t285 -73q132 0 238.5 41t156.5 109h129q-56 -163 -199 -261t-329 -98q-140 0 -258 63.5t-191 172.5q-58 -106 -190.5 -171t-302.5 -65q-197 0 -332 100t-135 249zM203 324q0 -65 108 -108.5t271 -43.5q154 0 267 36t146 93q-19 47 -28 94q-36 36 -142 59 t-243 23q-165 0 -272 -43t-107 -110zM1063 598h866q-28 117 -150 189.5t-288 72.5q-163 0 -280 -72t-148 -190z" />
<glyph unicode="&#xe7;" horiz-adv-x="1249" d="M82 522q0 153 72.5 278.5t200.5 197t284 71.5q198 0 345 -113t190 -294h-127q-47 90 -157.5 143t-250.5 53q-187 0 -311.5 -96.5t-124.5 -239.5t124.5 -239.5t311.5 -96.5q140 0 250 53.5t158 143.5h127q-42 -173 -179 -285.5t-323 -122.5l-41 -49q20 4 35 4 q85 0 141.5 -55.5t56.5 -138.5q0 -84 -64 -141.5t-159 -57.5q-93 0 -157 57.5t-64 141.5h104q0 -31 33.5 -51.5t83.5 -20.5q51 0 85 20.5t34 51.5q0 34 -33.5 56t-83.5 22q-53 0 -94 -25l-84 57l108 134q-214 22 -352.5 174t-138.5 368z" />
<glyph unicode="&#xe8;" horiz-adv-x="1273" d="M82 522q0 153 72.5 278.5t200.5 197t284 71.5t283 -71t199.5 -197.5t72.5 -282.5q0 -21 -4 -67h-989q31 -120 151.5 -193.5t290.5 -73.5q127 0 231 33.5t160 89.5h144q-65 -151 -208 -241.5t-327 -90.5q-159 0 -287.5 71.5t-201 196.5t-72.5 279zM203 598h872 q-31 117 -151 189.5t-285 72.5t-285 -72.5t-151 -189.5zM281 1446h268l201 -266h-177z" />
<glyph unicode="&#xe9;" horiz-adv-x="1273" d="M82 522q0 153 72.5 278.5t200.5 197t284 71.5t283 -71t199.5 -197.5t72.5 -282.5q0 -21 -4 -67h-989q31 -120 151.5 -193.5t290.5 -73.5q127 0 231 33.5t160 89.5h144q-65 -151 -208 -241.5t-327 -90.5q-159 0 -287.5 71.5t-201 196.5t-72.5 279zM203 598h872 q-31 117 -151 189.5t-285 72.5t-285 -72.5t-151 -189.5zM528 1180l201 266h268l-292 -266h-177z" />
<glyph unicode="&#xea;" horiz-adv-x="1273" d="M82 522q0 153 72.5 278.5t200.5 197t284 71.5t283 -71t199.5 -197.5t72.5 -282.5q0 -21 -4 -67h-989q31 -120 151.5 -193.5t290.5 -73.5q127 0 231 33.5t160 89.5h144q-65 -151 -208 -241.5t-327 -90.5q-159 0 -287.5 71.5t-201 196.5t-72.5 279zM203 598h872 q-31 117 -151 189.5t-285 72.5t-285 -72.5t-151 -189.5zM324 1180l204 266h222l204 -266h-157l-135 127h-31l-135 -127h-172z" />
<glyph unicode="&#xeb;" horiz-adv-x="1273" d="M82 522q0 153 72.5 278.5t200.5 197t284 71.5t283 -71t199.5 -197.5t72.5 -282.5q0 -21 -4 -67h-989q31 -120 151.5 -193.5t290.5 -73.5q127 0 231 33.5t160 89.5h144q-65 -151 -208 -241.5t-327 -90.5q-159 0 -287.5 71.5t-201 196.5t-72.5 279zM203 598h872 q-31 117 -151 189.5t-285 72.5t-285 -72.5t-151 -189.5zM301 1303q0 49 36 82.5t89 33.5t89 -33.5t36 -82.5q0 -48 -36.5 -82.5t-88.5 -34.5q-53 0 -89 34t-36 83zM727 1303q0 49 36 82.5t89 33.5t89 -33.5t36 -82.5q0 -48 -36.5 -82.5t-88.5 -34.5t-88.5 34.5t-36.5 82.5z " />
<glyph unicode="&#xec;" horiz-adv-x="411" d="M-152 1446h269l200 -266h-176zM150 0v1044h112v-1044h-112z" />
<glyph unicode="&#xed;" horiz-adv-x="411" d="M94 1180l201 266h268l-293 -266h-176zM150 0v1044h112v-1044h-112z" />
<glyph unicode="&#xee;" horiz-adv-x="411" d="M-109 1180l205 266h221l205 -266h-157l-136 127h-30l-136 -127h-172zM150 0v1044h112v-1044h-112z" />
<glyph unicode="&#xef;" horiz-adv-x="411" d="M-131 1303q0 49 36 82.5t89 33.5t89 -33.5t36 -82.5q0 -48 -36.5 -82.5t-88.5 -34.5q-53 0 -89 34t-36 83zM150 0v1044h112v-1044h-112zM295 1303q0 49 36 82.5t89 33.5t89 -33.5t36 -82.5q0 -48 -36.5 -82.5t-88.5 -34.5t-88.5 34.5t-36.5 82.5z" />
<glyph unicode="&#xf0;" horiz-adv-x="1239" d="M80 506q0 224 148.5 374t371.5 150q230 0 385 -172q-128 242 -403 350l-99 -104h-145l133 141q-105 26 -180 33v207q173 -21 319 -92l86 92h146l-135 -144q211 -133 329.5 -349.5t118.5 -461.5q0 -249 -151.5 -402t-382.5 -153q-153 0 -277 69t-194 190.5t-70 271.5z M199 504q0 -135 119.5 -226.5t299.5 -91.5q178 0 298 91.5t120 226.5q0 136 -119.5 227.5t-298.5 91.5q-180 0 -299.5 -91t-119.5 -228z" />
<glyph unicode="&#xf1;" horiz-adv-x="1261" d="M150 0v1044h112v-290q50 151 164.5 233t275.5 82q191 0 307.5 -116t116.5 -308v-645h-112v590q0 123 -100.5 195.5t-268.5 72.5q-173 0 -278 -74t-105 -198v-586h-112zM289 1202q0 107 56.5 176.5t152.5 69.5q43 0 82.5 -14t64.5 -30t57 -30t62 -14q42 0 70 23t28 57h123 q0 -108 -57 -177t-152 -69q-44 0 -84 13.5t-64.5 29.5t-56 29.5t-61.5 13.5q-43 0 -70.5 -22t-27.5 -56h-123z" />
<glyph unicode="&#xf2;" horiz-adv-x="1275" d="M82 522q0 153 72.5 278.5t200.5 197t284 71.5q236 0 395.5 -157t159.5 -390t-159.5 -390t-395.5 -157q-156 0 -284 71.5t-200.5 197t-72.5 278.5zM203 522q0 -143 124.5 -239.5t311.5 -96.5q186 0 311 96.5t125 239.5t-125 239.5t-311 96.5q-187 0 -311.5 -96.5 t-124.5 -239.5zM281 1446h268l201 -266h-177z" />
<glyph unicode="&#xf3;" horiz-adv-x="1275" d="M82 522q0 153 72.5 278.5t200.5 197t284 71.5q236 0 395.5 -157t159.5 -390t-159.5 -390t-395.5 -157q-156 0 -284 71.5t-200.5 197t-72.5 278.5zM203 522q0 -143 124.5 -239.5t311.5 -96.5q186 0 311 96.5t125 239.5t-125 239.5t-311 96.5q-187 0 -311.5 -96.5 t-124.5 -239.5zM528 1180l201 266h268l-292 -266h-177z" />
<glyph unicode="&#xf4;" horiz-adv-x="1275" d="M82 522q0 153 72.5 278.5t200.5 197t284 71.5q236 0 395.5 -157t159.5 -390t-159.5 -390t-395.5 -157q-156 0 -284 71.5t-200.5 197t-72.5 278.5zM203 522q0 -143 124.5 -239.5t311.5 -96.5q186 0 311 96.5t125 239.5t-125 239.5t-311 96.5q-187 0 -311.5 -96.5 t-124.5 -239.5zM324 1180l204 266h222l204 -266h-157l-135 127h-31l-135 -127h-172z" />
<glyph unicode="&#xf5;" horiz-adv-x="1275" d="M82 522q0 153 72.5 278.5t200.5 197t284 71.5q236 0 395.5 -157t159.5 -390t-159.5 -390t-395.5 -157q-156 0 -284 71.5t-200.5 197t-72.5 278.5zM203 522q0 -143 124.5 -239.5t311.5 -96.5q186 0 311 96.5t125 239.5t-125 239.5t-311 96.5q-187 0 -311.5 -96.5 t-124.5 -239.5zM291 1202q0 107 56.5 176.5t152.5 69.5q43 0 82.5 -14t64.5 -30t57 -30t62 -14q42 0 70 23t28 57h123q0 -108 -57 -177t-152 -69q-44 0 -84 13.5t-64.5 29.5t-56 29.5t-61.5 13.5q-43 0 -70.5 -22t-27.5 -56h-123z" />
<glyph unicode="&#xf6;" horiz-adv-x="1275" d="M82 522q0 153 72.5 278.5t200.5 197t284 71.5q236 0 395.5 -157t159.5 -390t-159.5 -390t-395.5 -157q-156 0 -284 71.5t-200.5 197t-72.5 278.5zM203 522q0 -143 124.5 -239.5t311.5 -96.5q186 0 311 96.5t125 239.5t-125 239.5t-311 96.5q-187 0 -311.5 -96.5 t-124.5 -239.5zM301 1303q0 49 36 82.5t89 33.5t89 -33.5t36 -82.5q0 -48 -36.5 -82.5t-88.5 -34.5q-53 0 -89 34t-36 83zM727 1303q0 49 36 82.5t89 33.5t89 -33.5t36 -82.5q0 -48 -36.5 -82.5t-88.5 -34.5t-88.5 34.5t-36.5 82.5z" />
<glyph unicode="&#xf7;" horiz-adv-x="1093" d="M129 512v186h836v-186h-836zM420 274q0 47 36.5 79t90.5 32t90.5 -32t36.5 -79q0 -46 -36.5 -78t-90.5 -32t-90.5 32t-36.5 78zM420 936q0 46 36.5 78.5t90.5 32.5t90.5 -32.5t36.5 -78.5q0 -47 -36.5 -79t-90.5 -32t-90.5 32t-36.5 79z" />
<glyph unicode="&#xf8;" horiz-adv-x="1275" d="M78 0l141 156q-137 150 -137 366q0 153 72.5 278.5t200.5 197t284 71.5q182 0 328 -100l67 75h162l-141 -153q139 -152 139 -369q0 -233 -159.5 -390t-395.5 -157q-186 0 -330 101l-69 -76h-162zM203 522q0 -146 131 -243l500 546q-94 33 -195 33q-187 0 -311.5 -96.5 t-124.5 -239.5zM442 221q87 -35 197 -35q186 0 311 96.5t125 239.5q0 147 -133 246z" />
<glyph unicode="&#xf9;" horiz-adv-x="1222" d="M133 387v657h115v-608q0 -114 95 -182t253 -68q163 0 262.5 69.5t99.5 184.5v604h115v-1044h-115v279q-50 -146 -158 -225t-259 -79q-183 0 -295.5 113t-112.5 299zM246 1446h268l201 -266h-176z" />
<glyph unicode="&#xfa;" horiz-adv-x="1222" d="M133 387v657h115v-608q0 -114 95 -182t253 -68q163 0 262.5 69.5t99.5 184.5v604h115v-1044h-115v279q-50 -146 -158 -225t-259 -79q-183 0 -295.5 113t-112.5 299zM494 1180l200 266h269l-293 -266h-176z" />
<glyph unicode="&#xfb;" horiz-adv-x="1222" d="M133 387v657h115v-608q0 -114 95 -182t253 -68q163 0 262.5 69.5t99.5 184.5v604h115v-1044h-115v279q-50 -146 -158 -225t-259 -79q-183 0 -295.5 113t-112.5 299zM289 1180l205 266h221l205 -266h-158l-135 127h-31l-135 -127h-172z" />
<glyph unicode="&#xfc;" horiz-adv-x="1222" d="M133 387v657h115v-608q0 -114 95 -182t253 -68q163 0 262.5 69.5t99.5 184.5v604h115v-1044h-115v279q-50 -146 -158 -225t-259 -79q-183 0 -295.5 113t-112.5 299zM266 1303q0 49 36 82.5t89 33.5t89 -33.5t36 -82.5q0 -48 -36.5 -82.5t-88.5 -34.5q-53 0 -89 34t-36 83 zM692 1303q0 49 36 82.5t89 33.5t89 -33.5t36 -82.5q0 -48 -36.5 -82.5t-88.5 -34.5t-88.5 34.5t-36.5 82.5z" />
<glyph unicode="&#xfd;" horiz-adv-x="1112" d="M29 1044h123l348 -796h98l348 796h137l-577 -1433h-168l201 389h-88zM446 1180l201 266h268l-292 -266h-177z" />
<glyph unicode="&#xfe;" d="M150 -389v1864h112v-773q48 165 174 266t295 101q224 0 374 -157t150 -390t-150 -390t-374 -157q-169 0 -295 101t-174 266v-731h-112zM262 522q0 -143 124.5 -239.5t311.5 -96.5t312 96.5t125 239.5t-125 239.5t-312 96.5t-311.5 -96.5t-124.5 -239.5z" />
<glyph unicode="&#xff;" horiz-adv-x="1112" d="M29 1044h123l348 -796h98l348 796h137l-577 -1433h-168l201 389h-88zM219 1303q0 49 36 82.5t89 33.5t89 -33.5t36 -82.5q0 -48 -36.5 -82.5t-88.5 -34.5q-53 0 -89 34t-36 83zM645 1303q0 49 36 82.5t89 33.5t89 -33.5t36 -82.5q0 -48 -36.5 -82.5t-88.5 -34.5 t-88.5 34.5t-36.5 82.5z" />
<glyph unicode="&#x152;" horiz-adv-x="2117" d="M92 707q0 199 93 360.5t257 253.5t365 92h1208v-215h-821v-389h754v-197h-754v-397h831v-215h-1218q-151 0 -283.5 54t-227.5 148t-149.5 225t-54.5 280zM223 707q0 -138 76.5 -250.5t211.5 -177t300 -64.5h258v983h-258q-166 0 -300.5 -64t-211 -176.5t-76.5 -250.5z " />
<glyph unicode="&#x153;" horiz-adv-x="2246" d="M82 522q0 233 157 390t390 157q171 0 304 -93t191 -247q59 154 193 247t305 93q234 0 390.5 -157t156.5 -394q0 -23 -4 -69h-987q31 -119 150.5 -192t287.5 -73q136 0 245.5 38.5t159.5 101.5h127q-59 -158 -200.5 -253.5t-325.5 -95.5q-171 0 -305 93t-193 247 q-58 -154 -191 -247t-304 -93q-233 0 -390 157t-157 390zM201 522q0 -143 125.5 -240.5t312.5 -97.5q185 0 310.5 97.5t125.5 240.5t-125.5 240.5t-310.5 97.5q-187 0 -312.5 -97.5t-125.5 -240.5zM1178 598h872q-28 117 -150 189.5t-288 72.5q-164 0 -283.5 -72.5 t-150.5 -189.5z" />
<glyph unicode="&#x178;" horiz-adv-x="1323" d="M18 1413h148l438 -643h105l438 643h158l-580 -938v-475h-125v475zM326 1671q0 49 36 83t89 34q52 0 88 -33.5t36 -83.5q0 -48 -36 -82.5t-88 -34.5q-53 0 -89 34t-36 83zM752 1671q0 49 36 83t89 34q52 0 88 -33.5t36 -83.5q0 -48 -36 -82.5t-88 -34.5t-88.5 34.5 t-36.5 82.5z" />
<glyph unicode="&#x2c6;" horiz-adv-x="630" d="M0 1180l205 266h221l205 -266h-158l-135 127h-31l-135 -127h-172z" />
<glyph unicode="&#x2dc;" horiz-adv-x="696" d="M0 1202q0 107 56.5 176.5t152.5 69.5q43 0 82.5 -14t64.5 -30t57 -30t62 -14q42 0 70 23t28 57h123q0 -108 -57 -177t-152 -69q-44 0 -84 13.5t-64.5 29.5t-56 29.5t-61.5 13.5q-43 0 -70.5 -22t-27.5 -56h-123z" />
<glyph unicode="&#x2000;" horiz-adv-x="937" />
<glyph unicode="&#x2001;" horiz-adv-x="1874" />
<glyph unicode="&#x2002;" horiz-adv-x="937" />
<glyph unicode="&#x2003;" horiz-adv-x="1874" />
<glyph unicode="&#x2004;" horiz-adv-x="624" />
<glyph unicode="&#x2005;" horiz-adv-x="468" />
<glyph unicode="&#x2006;" horiz-adv-x="312" />
<glyph unicode="&#x2007;" horiz-adv-x="312" />
<glyph unicode="&#x2008;" horiz-adv-x="234" />
<glyph unicode="&#x2009;" horiz-adv-x="374" />
<glyph unicode="&#x200a;" horiz-adv-x="104" />
<glyph unicode="&#x2010;" horiz-adv-x="835" d="M129 457v209h578v-209h-578z" />
<glyph unicode="&#x2011;" horiz-adv-x="835" d="M129 457v209h578v-209h-578z" />
<glyph unicode="&#x2012;" horiz-adv-x="835" d="M129 457v209h578v-209h-578z" />
<glyph unicode="&#x2013;" horiz-adv-x="1245" d="M129 461v198h987v-198h-987z" />
<glyph unicode="&#x2014;" horiz-adv-x="2187" d="M129 461v198h1929v-198h-1929z" />
<glyph unicode="&#x2018;" horiz-adv-x="495" d="M88 1030q0 109 36.5 221t96.5 187h197q-89 -63 -156.5 -153.5t-89.5 -174.5q36 18 76 18q63 0 104 -38.5t41 -98.5q0 -59 -43 -97t-110 -38q-69 0 -110.5 48t-41.5 126z" />
<glyph unicode="&#x2019;" horiz-adv-x="495" d="M78 856q89 62 156.5 152.5t89.5 175.5q-38 -19 -76 -19q-63 0 -104.5 39t-41.5 99q0 59 43.5 97t110.5 38q69 0 111.5 -45.5t42.5 -120.5q0 -109 -38 -224t-98 -192h-196z" />
<glyph unicode="&#x201a;" horiz-adv-x="509" d="M78 -324q89 61 156.5 151.5t89.5 176.5q-30 -18 -76 -18q-63 0 -104.5 38.5t-41.5 96.5q0 60 43.5 98.5t110.5 38.5q69 0 111.5 -45.5t42.5 -120.5q0 -112 -37.5 -226t-98.5 -190h-196z" />
<glyph unicode="&#x201c;" horiz-adv-x="927" d="M88 1030q0 109 36.5 221t96.5 187h197q-89 -63 -156.5 -153.5t-89.5 -174.5q36 18 76 18q63 0 104 -38.5t41 -98.5q0 -59 -43 -97t-110 -38q-69 0 -110.5 48t-41.5 126zM518 1030q0 109 37 221t98 187h195q-90 -63 -158 -154t-88 -176q30 20 78 20q63 0 104 -38.5 t41 -98.5q0 -58 -43.5 -96.5t-109.5 -38.5q-69 0 -111.5 48t-42.5 126z" />
<glyph unicode="&#x201d;" horiz-adv-x="927" d="M78 856q89 62 156.5 152.5t89.5 175.5q-38 -19 -76 -19q-63 0 -104.5 39t-41.5 99q0 59 43.5 97t110.5 38q69 0 111.5 -45.5t42.5 -120.5q0 -109 -38 -224t-98 -192h-196zM510 856q89 63 156.5 153.5t89.5 174.5q-38 -19 -76 -19q-63 0 -105.5 39t-42.5 99q0 58 44 96.5 t110 38.5q69 0 111.5 -45.5t42.5 -120.5q0 -111 -37 -225.5t-98 -190.5h-195z" />
<glyph unicode="&#x201e;" horiz-adv-x="942" d="M78 -324q89 61 156.5 151.5t89.5 176.5q-30 -18 -76 -18q-63 0 -104.5 38.5t-41.5 96.5q0 60 43.5 98.5t110.5 38.5q69 0 111.5 -45.5t42.5 -120.5q0 -112 -37.5 -226t-98.5 -190h-196zM510 -324q89 61 156.5 152t89.5 176q-30 -18 -76 -18q-63 0 -105.5 38.5t-42.5 96.5 q0 60 44 98.5t110 38.5q69 0 111.5 -45.5t42.5 -120.5q0 -113 -37 -227t-98 -189h-195z" />
<glyph unicode="&#x2022;" horiz-adv-x="692" d="M129 561q0 86 62.5 143.5t154.5 57.5q94 0 155.5 -57.5t61.5 -143.5t-61.5 -143.5t-155.5 -57.5q-92 0 -154.5 57.5t-62.5 143.5z" />
<glyph unicode="&#x2026;" horiz-adv-x="1449" d="M102 121q0 59 44 98t110 39q65 0 109.5 -39.5t44.5 -97.5q0 -57 -44.5 -96t-109.5 -39q-66 0 -110 39t-44 96zM571 121q0 59 44 98t110 39t110 -39t44 -98q0 -57 -44 -96t-110 -39t-110 39t-44 96zM1042 121q0 59 44 98t110 39q65 0 108.5 -39.5t43.5 -97.5 q0 -57 -44 -96t-108 -39q-66 0 -110 39t-44 96z" />
<glyph unicode="&#x202f;" horiz-adv-x="374" />
<glyph unicode="&#x2039;" horiz-adv-x="761" d="M88 541l328 415h250l-430 -415l430 -416h-250z" />
<glyph unicode="&#x203a;" horiz-adv-x="761" d="M102 125l428 416l-428 415h248l330 -415l-330 -416h-248z" />
<glyph unicode="&#x205f;" horiz-adv-x="468" />
<glyph unicode="&#x20ac;" horiz-adv-x="1554" d="M68 483l26 158h127q-2 23 -2 66q0 42 2 65h-153l26 158h158q70 227 262 367.5t447 140.5q140 0 266.5 -45.5t224.5 -128.5v-215q-90 78 -213 123t-260 45q-193 0 -344.5 -78t-226.5 -209h829l-27 -158h-856q-4 -40 -4 -65q0 -26 4 -66h838l-27 -158h-757 q75 -131 226 -208.5t345 -77.5q137 0 260 45t213 123v-215q-207 -175 -494 -175q-253 0 -444.5 140t-261.5 368h-184z" />
<glyph unicode="&#x2122;" horiz-adv-x="1386" d="M49 1296v117h453v-117h-189v-485h-73v485h-191zM618 811v602h123l181 -356h24l178 356h129v-602h-73v440h-33l-164 -340h-92l-164 340h-35v-440h-74z" />
<glyph unicode="&#x25fc;" horiz-adv-x="1044" d="M0 0v1044h1044v-1044h-1044z" />
</font>
</defs>
</svg>
