<?xml version="1.0" encoding="utf-8"?>
<!-- Generator: Adobe Illustrator 23.1.1, SVG Export Plug-In . SVG Version: 6.00 Build 0)  -->
<svg version="1.1" id="Layer_1" xmlns="http://www.w3.org/2000/svg" xmlns:xlink="http://www.w3.org/1999/xlink" x="0px" y="0px"
	 viewBox="0 0 432.72 308.53" style="enable-background:new 0 0 432.72 308.53;" xml:space="preserve">
<style type="text/css">
	.st0{fill:#F05354;}
	.st1{fill:#FFF6F6;}
</style>
<g>
	<path class="st0" d="M409.02,181.61c-39.03,62.66-126.71,154.55-210.1,119c-34.04-14.51-65.23-35.27-99.01-50.56
		C71,236.96,32.68,227.99,10.42,204.74c-25.87-27.03,2.21-67.73,21.66-89.88C79.14,61.3,147.47,26.01,214.47,9.71
		C274.75-4.96,356.91-8.63,405.94,39.78C446.02,79.35,436.07,138.18,409.02,181.61z"/>
</g>
<g>
	<g>
		<path class="st1" d="M112.66,152.2c1.05-0.21,2.08,0.02,3.1,0.68c1.02,0.66,1.63,1.5,1.83,2.51c0.16,0.81,0.15,1.54-0.02,2.18
			c-0.82,3.49-2.29,6.86-4.4,10.14c-2.11,3.27-4.84,6.1-8.17,8.48c-3.33,2.38-7.28,4.02-11.84,4.93c-4.5,0.89-8.74,0.84-12.71-0.15
			c-3.97-0.99-7.54-2.73-10.7-5.2c-3.16-2.47-5.82-5.51-7.97-9.11c-2.15-3.61-3.65-7.57-4.51-11.9c-0.85-4.27-0.95-8.48-0.33-12.62
			c0.63-4.14,1.94-7.96,3.94-11.45c2-3.49,4.63-6.45,7.89-8.88c3.26-2.43,7.1-4.08,11.52-4.95c4.47-0.89,8.69-0.9,12.65-0.04
			c3.96,0.86,7.55,2.34,10.75,4.44c3.21,2.1,5.88,4.57,8.01,7.4c0.44,0.55,0.73,1.15,0.86,1.82c0.21,1.08,0.02,2.13-0.57,3.17
			c-0.59,1.04-1.4,1.66-2.42,1.86c-0.99,0.2-1.92,0.16-2.81-0.1c-0.88-0.26-1.61-0.78-2.18-1.54c-2.3-3.05-5.42-5.43-9.37-7.16
			c-3.95-1.72-8.35-2.11-13.2-1.14c-4.21,0.83-7.65,2.63-10.32,5.4c-2.67,2.76-4.49,6.09-5.47,9.99c-0.98,3.89-1.05,7.95-0.22,12.16
			c0.84,4.24,2.45,7.97,4.82,11.18c2.37,3.21,5.32,5.58,8.83,7.08c3.51,1.51,7.41,1.84,11.68,0.99c3.2-0.63,6.01-1.8,8.43-3.5
			c2.43-1.7,4.42-3.72,5.98-6.05c1.56-2.33,2.63-4.72,3.2-7.16C109.39,153.75,110.63,152.6,112.66,152.2z"/>
		<path class="st1" d="M142.97,125.05c3.41-0.05,6.59,0.55,9.56,1.8c2.97,1.26,5.58,3.02,7.84,5.3c2.26,2.28,4.04,4.9,5.35,7.87
			c1.31,2.97,1.99,6.15,2.04,9.52c0.05,3.32-0.53,6.47-1.76,9.47c-1.23,3-2.94,5.65-5.14,7.95c-2.2,2.3-4.76,4.13-7.69,5.48
			c-2.93,1.35-6.06,2.05-9.41,2.1c-3.32,0.05-6.46-0.53-9.43-1.76c-2.97-1.23-5.59-2.95-7.86-5.16c-2.27-2.21-4.07-4.8-5.39-7.76
			c-1.32-2.96-2.01-6.14-2.06-9.54c-0.05-3.38,0.53-6.57,1.76-9.58c1.23-3.01,2.94-5.68,5.14-8.01c2.2-2.33,4.75-4.18,7.67-5.54
			C136.5,125.82,139.62,125.11,142.97,125.05z M128,150.27c0.05,2.87,0.79,5.48,2.24,7.81c1.44,2.33,3.35,4.18,5.71,5.53
			c2.36,1.36,4.93,2.01,7.72,1.97c2.84-0.05,5.42-0.8,7.72-2.28c2.3-1.47,4.12-3.41,5.46-5.8c1.34-2.39,1.99-4.99,1.94-7.81
			c-0.05-2.87-0.77-5.5-2.17-7.9c-1.4-2.39-3.28-4.3-5.62-5.71c-2.35-1.41-4.97-2.1-7.88-2.05c-2.93,0.05-5.54,0.82-7.83,2.32
			c-2.29,1.5-4.09,3.47-5.39,5.91C128.58,144.7,127.95,147.36,128,150.27z"/>
		<path class="st1" d="M182.13,133.66c1.75-1.4,3.81-2.76,6.19-4.07c2.38-1.31,5.04-1.82,7.99-1.52c3.86,0.39,6.97,1.73,9.33,4.04
			c2.36,2.31,4.01,4.87,4.94,7.71c0.73,2.25,1.08,4.43,1.06,6.56c-0.02,2.13-0.12,4.12-0.31,5.98l-2.24,22.33
			c-0.12,1.21-0.66,2.2-1.62,2.99c-0.96,0.78-2.04,1.11-3.25,0.99c-1.21-0.12-2.2-0.66-2.99-1.62c-0.78-0.96-1.11-2.04-0.99-3.25
			l2.24-22.33c0.17-1.74,0.25-3.35,0.24-4.84c-0.01-1.49-0.22-2.82-0.6-3.99c-0.43-1.35-1.18-2.6-2.26-3.73
			c-1.08-1.13-2.53-1.79-4.36-1.98c-4.36-0.44-7.88,0.89-10.56,3.99c-2.68,3.1-4.28,7.47-4.82,13.14l-1.72,17.64
			c-0.12,1.21-0.66,2.2-1.62,2.99c-0.96,0.78-2.04,1.11-3.25,0.99c-1.24-0.12-2.24-0.66-3.01-1.62c-0.77-0.95-1.09-2.05-0.97-3.29
			l3.98-40.64c0.12-1.21,0.56-2.21,1.31-3.02c0.75-0.8,1.73-1.14,2.94-1.02c1.21,0.12,2.09,0.65,2.65,1.58
			c0.56,0.93,0.96,2.02,1.19,3.27L182.13,133.66z"/>
		<path class="st1" d="M225.61,123.28c0.09-1.21,0.6-2.22,1.52-3.03c0.92-0.81,2-1.16,3.25-1.07c1.21,0.09,2.22,0.61,3.02,1.54
			c0.8,0.94,1.16,2.01,1.07,3.22l-0.67,8.82l5.94,0.45c1.15,0.09,2.11,0.58,2.87,1.47c0.76,0.89,1.1,1.91,1.01,3.06
			s-0.58,2.11-1.47,2.87c-0.89,0.76-1.91,1.1-3.06,1.01l-5.98-0.46l-2.13,27.42l-0.01,0.09c-0.11,1.45-0.02,2.46,0.26,3.03
			c0.28,0.57,0.93,0.89,1.93,0.97c1.27,0.1,2.42-0.16,3.44-0.76c0.37-0.21,0.82-0.39,1.33-0.54c0.52-0.15,1.01-0.21,1.48-0.18
			c1.21,0.09,2.22,0.6,3.03,1.52c0.81,0.92,1.16,1.99,1.07,3.2c-0.11,1.45-0.79,2.57-2.04,3.36c-1.19,0.77-2.53,1.38-4.02,1.83
			c-1.49,0.45-3.06,0.61-4.72,0.49c-3.72-0.28-6.5-1.65-8.33-4.09c-1.83-2.44-2.62-5.38-2.36-8.8l0.03-0.4l2.16-27.78l-5.72-0.43
			c-1.15-0.09-2.11-0.58-2.87-1.47c-0.76-0.89-1.1-1.91-1.01-3.06c0.09-1.15,0.58-2.11,1.47-2.87c0.89-0.76,1.91-1.1,3.06-1.01
			l5.76,0.44L225.61,123.28z"/>
		<path class="st1" d="M270.98,132.69c2.19-0.04,4.34,0.35,6.45,1.19c2.11,0.83,3.99,1.89,5.66,3.18c1.67,1.29,2.92,2.62,3.74,3.99
			l0.41-4.27c-0.02-1.21,0.31-2.26,1.01-3.15c0.69-0.89,1.65-1.34,2.86-1.37c1.21-0.02,2.27,0.39,3.16,1.25
			c0.89,0.86,1.35,1.89,1.37,3.11l0,0.09l0.71,41.14c0.02,1.21-0.39,2.27-1.25,3.16c-0.86,0.89-1.89,1.35-3.11,1.37
			c-1.21,0.02-2.19-0.4-2.91-1.25c-0.73-0.86-1.1-1.9-1.13-3.11l-0.56-3.54c-1.49,2.67-3.7,4.67-6.64,6.02
			c-2.94,1.35-5.9,2.05-8.89,2.11c-3.35,0.06-6.5-0.53-9.46-1.79c-2.96-1.26-5.57-3.03-7.84-5.29c-2.27-2.27-4.06-4.88-5.37-7.85
			c-1.32-2.97-2.01-6.11-2.07-9.43c-0.06-3.29,0.49-6.45,1.66-9.48c1.17-3.03,2.84-5.74,5-8.14c2.16-2.4,4.7-4.3,7.62-5.7
			C264.32,133.49,267.51,132.76,270.98,132.69z M286.79,157.36c-0.06-2.9-0.78-5.55-2.18-7.96c-1.4-2.4-3.26-4.32-5.6-5.76
			c-2.34-1.44-4.99-2.13-7.95-2.07c-2.9,0.06-5.51,0.85-7.82,2.37c-2.31,1.53-4.12,3.52-5.44,5.99c-1.32,2.47-1.95,5.13-1.89,7.97
			c0.06,2.87,0.8,5.52,2.24,7.93c1.44,2.42,3.35,4.34,5.73,5.78c2.38,1.44,5,2.13,7.84,2.07c2.84-0.06,5.41-0.84,7.71-2.37
			c2.3-1.53,4.11-3.52,5.44-5.99C286.2,162.86,286.84,160.2,286.79,157.36z"/>
		<path class="st1" d="M302.15,156.74c-0.61-3.23-0.61-6.41-0.03-9.53c0.59-3.12,1.7-6.02,3.35-8.67c1.64-2.66,3.71-4.9,6.22-6.73
			c2.51-1.83,5.37-3.04,8.61-3.65c3.2-0.6,6.22-0.53,9.06,0.22c2.84,0.75,5.39,1.96,7.64,3.63c2.26,1.67,4.08,3.61,5.46,5.83
			c0.3,0.46,0.5,0.99,0.62,1.6c0.22,1.19-0.01,2.3-0.71,3.32c-0.7,1.02-1.64,1.64-2.84,1.87c-0.82,0.15-1.67,0.03-2.56-0.38
			c-0.89-0.41-1.57-0.97-2.04-1.7c-1.21-1.94-2.97-3.5-5.29-4.68c-2.32-1.18-4.89-1.5-7.71-0.97c-2.65,0.5-4.89,1.68-6.73,3.55
			c-1.84,1.87-3.14,4.09-3.92,6.68c-0.78,2.59-0.91,5.25-0.4,7.99c0.52,2.77,1.63,5.25,3.34,7.44c1.71,2.2,3.79,3.84,6.26,4.93
			c2.47,1.09,5.07,1.38,7.8,0.86c2.68-0.5,4.87-1.61,6.56-3.33c1.7-1.72,2.87-3.57,3.52-5.57c0.23-0.71,0.68-1.36,1.35-1.95
			c0.67-0.59,1.37-0.96,2.1-1.09c1.19-0.22,2.3,0.01,3.32,0.71c1.02,0.7,1.64,1.64,1.87,2.84c0.14,0.73,0.08,1.48-0.17,2.25
			c-1.09,3.37-3.06,6.48-5.93,9.34c-2.87,2.86-6.53,4.71-10.99,5.54c-3.32,0.62-6.51,0.54-9.57-0.26c-3.06-0.8-5.84-2.15-8.36-4.06
			c-2.51-1.91-4.63-4.23-6.35-6.97C303.94,163.05,302.77,160.03,302.15,156.74z"/>
		<path class="st1" d="M344.35,113.52c-0.51-1.1-0.55-2.23-0.13-3.38c0.42-1.15,1.19-1.99,2.32-2.5c1.1-0.51,2.24-0.54,3.39-0.11
			c1.16,0.43,1.99,1.2,2.49,2.3l3.68,8.04l5.42-2.48c1.05-0.48,2.13-0.52,3.22-0.11c1.1,0.41,1.89,1.14,2.37,2.19
			c0.48,1.05,0.52,2.13,0.11,3.23c-0.41,1.1-1.14,1.89-2.19,2.37l-5.46,2.49l11.4,25.03l0.04,0.08c0.6,1.32,1.17,2.16,1.69,2.52
			c0.52,0.36,1.24,0.34,2.16-0.08c1.16-0.53,2.04-1.31,2.65-2.33c0.22-0.36,0.53-0.74,0.9-1.12c0.38-0.38,0.78-0.68,1.21-0.87
			c1.1-0.51,2.23-0.55,3.38-0.13c1.15,0.42,1.98,1.18,2.49,2.28c0.6,1.32,0.55,2.63-0.16,3.93c-0.67,1.25-1.54,2.43-2.63,3.55
			c-1.09,1.12-2.38,2.02-3.89,2.71c-3.39,1.55-6.49,1.7-9.27,0.45c-2.79-1.25-4.89-3.44-6.32-6.56l-0.17-0.36l-11.54-25.36
			l-5.21,2.38c-1.05,0.48-2.13,0.52-3.22,0.11c-1.1-0.41-1.89-1.14-2.37-2.19c-0.48-1.05-0.52-2.13-0.11-3.22
			c0.41-1.1,1.14-1.89,2.19-2.37l5.25-2.4L344.35,113.52z"/>
	</g>
</g>
</svg>
