<?xml version="1.0" encoding="utf-8"?>
<!-- Generator: Adobe Illustrator 23.1.1, SVG Export Plug-In . SVG Version: 6.00 Build 0)  -->
<svg version="1.1" id="Layer_1" xmlns="http://www.w3.org/2000/svg" xmlns:xlink="http://www.w3.org/1999/xlink" x="0px" y="0px"
	 viewBox="0 0 230.34 204.34" style="enable-background:new 0 0 230.34 204.34;" xml:space="preserve">
<style type="text/css">
	.st0{fill:#F1DEDE;}
	.st1{fill:#231F20;}
	.st2{fill:#202020;}
	.st3{fill:none;stroke:#202020;stroke-width:7;stroke-linecap:round;stroke-linejoin:round;stroke-miterlimit:10;}
</style>
<g>
	<path class="st0" d="M115.05,198.34c-3.36,0-6.59-1.18-9.37-3.42c-0.19-0.1-0.39-0.21-0.57-0.32c-1.64-0.99-3.31-1.97-4.98-2.94
		c-3.83-2.23-7.78-4.54-11.57-7.17c-8.2-5.69-16.43-11.72-25.15-18.44c-4.49-3.46-8.94-7.37-13.59-11.95
		c-7.66-7.54-16.41-16.45-23.23-26.9l-0.72-1.11c-2.66-4.06-5.41-8.26-7.87-12.65c-7.46-13.31-11.6-27.7-11.99-41.63
		C6,71.4,6.03,70.98,6.11,70.57C6.03,69.37,6,68.25,6,67.17C6,33.44,33.44,6,67.17,6c18.82,0,36.49,8.73,48,23.27
		C126.68,14.73,144.35,6,163.17,6c33.73,0,61.17,27.44,61.17,61.17c0,1.11-0.04,2.28-0.11,3.52c0.06,0.37,0.08,0.75,0.08,1.12
		c-0.04,1.33-0.09,2.53-0.17,3.67c-0.92,13.3-4.98,26.25-12.05,38.47c-3.07,5.31-7.23,12.2-12.19,18.49
		c-4.11,5.21-8.61,10.19-12.87,14.79l0,0c-0.08,0.1-0.17,0.2-0.25,0.3c-0.25,0.28-0.61,0.69-1.08,1.21
		c-0.84,0.92-2.19,2.38-3.88,4.12c-0.05,0.05-0.11,0.11-0.15,0.15c-0.04,0.04-0.09,0.08-0.13,0.13c-4.92,4.76-9.76,9.08-14.43,12.86
		c-3.98,3.23-7.98,6.25-11.89,8.96c-6.85,4.77-13.84,9.4-20.59,13.89l-1.9,1.27c-3.16,2.12-6.43,4.31-9.96,6.19
		C120.23,197.66,117.64,198.34,115.05,198.34C115.05,198.34,115.05,198.34,115.05,198.34z"/>
	<path class="st1" d="M163.17,12c30.47,0,55.17,24.7,55.17,55.17c0,1.51-0.08,3-0.2,4.48h0.16c-0.03,1.13-0.08,2.27-0.16,3.42
		c-0.89,12.83-4.84,24.8-11.26,35.88c-3.55,6.14-7.33,12.23-11.71,17.78c-3.94,5-8.22,9.74-12.56,14.43l0,0c0,0-1.96,2.29-5.14,5.54
		c-0.01,0.01-0.03,0.03-0.04,0.04c0,0-0.01,0-0.01,0.01c-3.81,3.69-8.65,8.16-14.12,12.59c-3.74,3.03-7.59,5.95-11.54,8.7
		c-6.76,4.7-13.62,9.26-20.48,13.81c-3.73,2.48-7.43,5.06-11.37,7.17c-1.61,0.86-3.25,1.32-4.88,1.32c-2.01,0-3.99-0.71-5.84-2.28
		c-0.29-0.24-0.66-0.39-0.99-0.59c-5.43-3.28-11.04-6.31-16.24-9.91c-8.46-5.87-16.75-11.98-24.9-18.26
		c-4.58-3.53-8.92-7.41-13.05-11.47c-8.16-8.03-16.12-16.27-22.42-25.91c-2.88-4.41-5.8-8.81-8.38-13.41
		C16.3,98.13,12.38,84.86,12.01,71.65h0.19c-0.12-1.48-0.2-2.97-0.2-4.48C12,36.7,36.7,12,67.17,12c20.58,0,38.51,11.28,48,27.98
		C124.66,23.28,142.59,12,163.17,12 M163.17,0c-18.25,0-35.51,7.47-48,20.21C102.69,7.47,85.42,0,67.17,0C30.13,0,0,30.13,0,67.17
		c0,1.01,0.03,2.05,0.08,3.14C0.02,70.86,0,71.42,0.01,71.98c0.42,14.89,4.83,30.24,12.76,44.4c2.56,4.57,5.37,8.86,8.09,13.01
		l0.71,1.09c7.16,10.95,16.17,20.14,24.05,27.9c4.82,4.75,9.45,8.81,14.14,12.42c8.79,6.77,17.1,12.86,25.39,18.61
		c3.98,2.76,8.04,5.13,11.97,7.42c1.7,0.99,3.31,1.93,4.91,2.9c0.12,0.07,0.24,0.14,0.35,0.21c3.76,2.88,8.12,4.39,12.69,4.39
		c3.58,0,7.12-0.92,10.52-2.74c3.8-2.03,7.2-4.31,10.49-6.51c0.62-0.42,1.25-0.84,1.87-1.25c6.8-4.51,13.82-9.18,20.7-13.96
		c4.02-2.79,8.13-5.9,12.24-9.23c4.81-3.9,9.79-8.33,14.79-13.18c0.17-0.16,0.33-0.32,0.49-0.49c2.93-3,4.92-5.26,5.44-5.86
		c4.29-4.64,8.82-9.65,13.01-14.97c5.19-6.59,9.5-13.72,12.67-19.2c7.54-13.02,11.86-26.84,12.84-41.06
		c0.09-1.24,0.15-2.52,0.18-3.92c0.01-0.5,0-1-0.05-1.49c0.06-1.16,0.09-2.25,0.09-3.31C230.34,30.13,200.21,0,163.17,0L163.17,0z"
		/>
</g>
<path class="st2" d="M117.61,109.4c4.65,0.5,10.65,3.45,15.58,8.47c2.09,2.12,1.94,5.9-0.06,7.64c-2.37,2.06-4.65,1.46-6.93-0.37
	c-7.96-6.39-14.02-6.38-22.01,0.04c-2.27,1.82-4.55,2.44-6.92,0.35c-2.01-1.77-2.01-5.37-0.12-7.68
	C100.21,114.13,109.66,109.04,117.61,109.4z"/>
<circle class="st2" cx="154.58" cy="95.13" r="8.3"/>
<circle class="st2" cx="75.27" cy="95.13" r="8.3"/>
<polyline class="st3" points="186.32,10.67 189.11,50.29 169.58,43.04 175.44,68.43 "/>
</svg>
