<?xml version="1.0" encoding="utf-8"?>
<!-- Generator: Adobe Illustrator 23.1.1, SVG Export Plug-In . SVG Version: 6.00 Build 0)  -->
<svg version="1.1" id="Layer_1" xmlns="http://www.w3.org/2000/svg" xmlns:xlink="http://www.w3.org/1999/xlink" x="0px" y="0px"
	 viewBox="0 0 442.1 439.7" style="enable-background:new 0 0 442.1 439.7;" xml:space="preserve">
<style type="text/css">
	.st0{fill:#FA0636;}
	.st1{fill:none;stroke:#FA0636;stroke-width:3;stroke-linejoin:round;stroke-miterlimit:10;}
</style>
<g>
	<path class="st0" d="M221.2,4.5l20.1,98.6c0.5,2.7,2.8,4.5,5.5,4.5c1.8,0,3.5-0.9,4.6-2.4l58.4-81.9l-21.8,98.2
		c-0.4,1.7,0,3.4,1.1,4.7c1.1,1.3,2.7,2.1,4.4,2.1c1,0,2-0.3,2.9-0.8L383,76.6l-59.8,80.9c-1.3,1.7-1.5,4-0.5,5.9
		c1,1.9,2.9,3.1,5,3.1c0.2,0,0.4,0,0.7,0l100-11.4l-87.6,49.5c-1.9,1.1-3.1,3.3-2.8,5.5c0.2,2.2,1.8,4.1,3.9,4.8l95.9,30.3
		l-100.1,9.6c-2.2,0.2-4.1,1.7-4.8,3.9c-0.7,2.1-0.1,4.5,1.6,5.9l75.3,66.7l-95.4-31.9c-0.6-0.2-1.2-0.3-1.8-0.3
		c-1.9,0-3.7,1-4.7,2.6c-1,1.6-1.2,3.6-0.4,5.4l41.7,91.5l-74.2-68c-1-1-2.4-1.5-3.8-1.5c-1.5,0-3,0.6-4,1.7c-1.1,1.1-1.6,2.5-1.6,4
		l0.9,100.6L226.3,343c-0.9-2.1-2.9-3.4-5.2-3.4c-2.2,0-4.3,1.3-5.2,3.4l-40.1,92.3l0.9-100.6c0-1.5-0.6-2.9-1.6-4
		c-1.1-1.1-2.5-1.7-4-1.7c-1.4,0-2.7,0.5-3.8,1.5l-74.2,68l41.7-91.5c0.8-1.7,0.7-3.8-0.4-5.4c-1-1.6-2.8-2.6-4.7-2.6
		c-0.6,0-1.2,0.1-1.8,0.3l-95.4,31.9l75.3-66.7c1.7-1.5,2.3-3.8,1.6-5.9c-0.7-2.1-2.6-3.6-4.8-3.9L4.6,245l95.9-30.3
		c2.1-0.7,3.7-2.5,3.9-4.8c0.2-2.2-0.9-4.4-2.8-5.5L14.1,155l100,11.4c0.2,0,0.4,0,0.7,0c2.1,0,4-1.2,5-3.1c1-1.9,0.8-4.2-0.5-5.9
		L59.4,76.6l86.7,51.1c0.9,0.5,1.9,0.8,2.9,0.8c1.7,0,3.3-0.8,4.4-2.1c1.1-1.3,1.5-3,1.1-4.7l-21.8-98.2l58.4,81.9
		c1.1,1.5,2.7,2.4,4.6,2.4c2.7,0,5-1.9,5.5-4.5L221.2,4.5 M221.2,0c-1.1,0-2.3,0.7-2.6,2.1l-20.4,100.4c-0.3,1.3-1.4,2.1-2.6,2.1
		c-0.8,0-1.6-0.3-2.1-1.1L134,20.1c-0.6-0.8-1.3-1.1-2.1-1.1c-1.5,0-3,1.3-2.6,3.2l22.2,100c0.4,1.7-1,3.2-2.6,3.2
		c-0.4,0-0.9-0.1-1.3-0.4L59.3,73c-0.5-0.3-0.9-0.4-1.3-0.4c-1.9,0-3.5,2.3-2.1,4.2l60.9,82.4c1.3,1.8,0,4.2-2.1,4.2
		c-0.1,0-0.2,0-0.3,0L12.6,151.8c-0.1,0-0.2,0-0.3,0c-2.6,0-3.6,3.6-1.3,4.9l89.2,50.5c2,1.1,1.7,4.1-0.5,4.8L1.9,242.7
		c-2.7,0.9-2.3,4.8,0.5,5.1l102,9.8c2.3,0.2,3.2,3.1,1.5,4.6l-76.7,67.9c-1.9,1.7-0.5,4.6,1.7,4.6c0.3,0,0.6,0,0.9-0.1L129,302
		c0.3-0.1,0.6-0.1,0.8-0.1c1.8,0,3.2,1.9,2.4,3.7l-42.5,93.2c-0.9,1.9,0.7,3.7,2.4,3.7c0.6,0,1.2-0.2,1.7-0.7l75.5-69.2
		c0.5-0.5,1.1-0.7,1.8-0.7c1.4,0,2.7,1.1,2.6,2.6l-0.9,102.5c0,1.7,1.3,2.6,2.7,2.6c0.9,0,1.9-0.5,2.4-1.6l40.9-94
		c0.5-1.1,1.4-1.6,2.4-1.6s1.9,0.5,2.4,1.6l40.9,94c0.5,1.1,1.4,1.6,2.4,1.6c1.3,0,2.7-1,2.7-2.6l-0.9-102.5c0-1.6,1.3-2.6,2.6-2.6
		c0.6,0,1.2,0.2,1.8,0.7l75.5,69.2c0.5,0.5,1.2,0.7,1.7,0.7c1.7,0,3.3-1.8,2.4-3.7l-42.5-93.2c-0.8-1.8,0.6-3.7,2.4-3.7
		c0.3,0,0.6,0,0.8,0.1l97.2,32.5c0.3,0.1,0.6,0.1,0.9,0.1c2.2,0,3.6-2.9,1.7-4.6l-76.7-67.9c-1.7-1.5-0.8-4.4,1.5-4.6l102-9.8
		c2.8-0.3,3.3-4.2,0.5-5.1l-97.7-30.8c-2.2-0.7-2.5-3.7-0.5-4.8l89.2-50.5c2.4-1.3,1.3-4.9-1.3-4.9c-0.1,0-0.2,0-0.3,0l-101.8,11.6
		c-0.1,0-0.2,0-0.3,0c-2.1,0-3.4-2.4-2.1-4.2l60.9-82.4c1.4-1.9-0.1-4.2-2.1-4.2c-0.4,0-0.9,0.1-1.3,0.4l-88.3,52
		c-0.4,0.3-0.9,0.4-1.3,0.4c-1.6,0-2.9-1.4-2.6-3.2l22.2-100c0.4-1.9-1.1-3.2-2.6-3.2c-0.8,0-1.5,0.3-2.1,1.1l-59.5,83.4
		c-0.5,0.8-1.3,1.1-2.1,1.1c-1.2,0-2.3-0.8-2.6-2.1L223.7,2.1C223.4,0.7,222.3,0,221.2,0L221.2,0z"/>
</g>
<g>
	<g>
		<path class="st1" d="M148.9,195.4c0-10.3,8-18.1,18.5-18.1c9.2,0,16.4,5.9,18.1,14.3h-6.7c-1.7-3.8-6-6.4-11.4-6.4
			c-6.9,0-12.1,4.4-12.1,10.3c0,5.9,5.2,10.3,12.1,10.3c5.3,0,9.6-2.6,11.4-6.4h6.7c-1.7,8.3-8.9,14.3-18.1,14.3
			C156.9,213.6,148.9,205.7,148.9,195.4z"/>
		<path class="st1" d="M217.9,206.8h-17.3l-2.4,6.2H191l13.4-35h9.2l13.3,35h-6.6L217.9,206.8z M214.9,199.1l-5-12.7h-1.4l-5,12.7
			H214.9z"/>
		<path class="st1" d="M233.9,202.2h6.4c0,2.3,3.6,4.1,8.4,4.1c4.2,0,7.6-1.4,7.6-3.4c0-2.6-5.3-3.5-9.8-4.2c-6.4-1-12-4.3-12-10.6
			c0-6.5,6-10.8,13.7-10.8c8,0,13.9,4.7,13.9,10.9h-6.4c0-2-3.2-3.6-7.7-3.6c-4,0-7,1.3-7,3.1c0,2.5,6.2,3.6,9.1,4
			c6.8,1,12.6,4,12.6,10.5c0,6.9-6.3,11.3-14.3,11.3C240.1,213.6,233.9,208.7,233.9,202.2z"/>
		<path class="st1" d="M299.2,205.3v7.7h-25.5v-35h25.3v7.7h-19v6h17.4v7.4h-17.4v6.2H299.2z"/>
		<path class="st1" d="M136.9,250.8h6.4c0,2.3,3.6,4.1,8.4,4.1c4.2,0,7.6-1.4,7.6-3.4c0-2.6-5.3-3.5-9.8-4.2c-6.4-1-12-4.3-12-10.6
			c0-6.5,6-10.8,13.7-10.8c8,0,13.9,4.7,13.9,10.9h-6.4c0-2-3.2-3.6-7.7-3.6c-4,0-7,1.3-7,3.1c0,2.5,6.2,3.6,9.1,4
			c6.8,1,12.6,4,12.6,10.5c0,6.9-6.3,11.3-14.3,11.3C143.1,262.1,136.9,257.3,136.9,250.8z"/>
		<path class="st1" d="M200.3,234.2h-11.1v27.4h-6.2v-27.4h-11.1v-7.7h28.5V234.2z"/>
		<path class="st1" d="M208.3,247.9v-21.4h6.2v21.3c0,3.7,3.6,6.5,8.4,6.5c4.8,0,8.3-2.8,8.3-6.5v-21.3h6.3v21.4
			c0,8.1-6.3,14.2-14.6,14.2C214.6,262.1,208.3,256.1,208.3,247.9z"/>
		<path class="st1" d="M279.3,244c0,10-7.7,17.5-17.9,17.5h-13.8v-35h13.8C271.6,226.5,279.3,234,279.3,244z M272.8,244
			c0-5.6-5-9.8-11.6-9.8h-7.4v19.7h7.4C267.9,253.9,272.8,249.7,272.8,244z"/>
		<path class="st1" d="M295.5,250l-13.4-23.5h7.2l8.6,14.4h1.1l8.6-14.4h7.5L301.8,250v11.6h-6.2V250z"/>
	</g>
</g>
</svg>
