<?xml version="1.0" encoding="utf-8"?>
<!-- Generator: Adobe Illustrator 23.1.1, SVG Export Plug-In . SVG Version: 6.00 Build 0)  -->
<svg version="1.1" id="Layer_1" xmlns="http://www.w3.org/2000/svg" xmlns:xlink="http://www.w3.org/1999/xlink" x="0px" y="0px"
	 viewBox="0 0 1001.25 251.5" style="enable-background:new 0 0 1001.25 251.5;" xml:space="preserve">
<style type="text/css">
	.st0{fill:#FEF6F6;}
	.st1{fill:#F05354;}
</style>
<g>
	<g>
		<path class="st0" d="M341.23,115.16c-4.31,0-7.44-2.74-7.79-6.82c-0.19-2.21,0.67-4.81,2.28-6.95c1.75-2.32,4.15-3.77,6.6-3.97
			c0.27-0.02,0.53-0.03,0.8-0.03c4.24,0,7.32,2.82,7.67,7.02c0.17,2.04-0.58,4.56-1.97,6.58c-1.67,2.44-4.07,3.91-6.74,4.14
			C341.8,115.15,341.51,115.16,341.23,115.16z"/>
		<path class="st1" d="M343.12,98.38c3.48,0,6.35,2.19,6.68,6.1c0.29,3.42-2.48,9.19-7.79,9.64c-0.26,0.02-0.52,0.03-0.78,0.03
			c-3.48,0-6.46-2.01-6.79-5.9c-0.33-3.99,3.22-9.45,7.97-9.85C342.65,98.39,342.89,98.38,343.12,98.38 M343.12,96.38
			c-0.29,0-0.59,0.01-0.88,0.04c-2.74,0.23-5.4,1.82-7.32,4.37c-1.76,2.33-2.68,5.19-2.47,7.64c0.39,4.62,3.92,7.73,8.78,7.73
			c0.31,0,0.63-0.01,0.94-0.04c2.98-0.25,5.63-1.87,7.48-4.57c1.51-2.2,2.33-4.97,2.14-7.23C351.39,99.57,347.91,96.38,343.12,96.38
			L343.12,96.38z"/>
	</g>
	<g>
		<path class="st0" d="M465.84,250.5c-10.92,0-18.22-5.56-20.38-10.73c-0.77-1.8-0.85-2.67-0.93-3.67c-0.28-3.37,1.64-5.73,4.9-6
			c0.17-0.01,0.33-0.02,0.49-0.02c2.5,0,3.96,1.68,5.06,3.32c3.1,4.5,5.56,7.46,11.22,7.46c0.48,0,1-0.02,1.52-0.07
			c9.83-0.83,21.22-15.66,27.08-35.28c2.98-9.98,4.87-18.05,6.39-24.53c0.19-0.81,0.37-1.59,0.55-2.34
			c-8.72,12.64-17.48,19.19-26.66,19.96c-0.81,0.07-1.62,0.1-2.41,0.1c-11.45,0-19.48-6.88-21.86-18.57
			c-9.81,14.61-19.4,22.13-29.27,22.96c-0.63,0.05-1.27,0.08-1.88,0.08c-9.6,0-16.11-6.55-16.99-17.09
			c-0.77-9.21,3.45-18.94,7.53-28.35c3.47-8,6.75-15.57,6.25-21.56c-0.28-3.36-2.19-5.21-5.38-5.21c-0.24,0-0.49,0.01-0.74,0.03
			c-9.49,0.8-24.81,14.15-33.17,26.13c-7.13,10.35-12.51,29.95-15.77,44.57c-0.5,2.29-1.43,6.56-6.11,6.95
			c-0.16,0.01-0.32,0.02-0.48,0.02c-2.64,0-4.5-1.73-4.72-4.41c-0.15-1.84-0.03-2.89,0.4-4.91c0.19-0.82,0.39-1.63,0.58-2.45
			c-7.48,8.76-14.88,13.35-22.55,14c-0.71,0.06-1.41,0.09-2.09,0.09c-10.02,0-16.53-6.33-18.09-17.45
			c-9.44,13.61-18.69,20.63-28.23,21.43c-0.63,0.05-1.27,0.08-1.88,0.08c-9.6,0-16.11-6.55-16.99-17.09
			c-0.78-9.3,3.43-19.07,7.51-28.53c3.47-8.06,6.76-15.67,6.24-21.76c-0.19-2.24-1.13-4.9-4.56-4.9c-0.19,0-0.39,0.01-0.59,0.03
			c-7.11,0.6-19,13.33-27.08,25.6c-7.98,12.15-13.7,35.23-15.78,44.6c-0.5,2.29-1.43,6.56-6.11,6.95c-0.16,0.01-0.32,0.02-0.49,0.02
			c-2.35,0-4.84-1.41-5.1-4.57c-0.12-1.41,0.18-2.78,0.54-4.37l0.21-0.96c1.71-6.78,4.15-15.67,6.51-24.27
			c2.25-8.19,4.57-16.67,6.32-23.49c1.15-4.99,1.69-8.86,1.52-10.89c-0.27-3.24-1.85-4.89-4.68-4.89c-0.21,0-0.43,0.01-0.65,0.03
			c-7.98,0.67-20.33,13.44-28.41,25.71c-8.47,12.89-14.37,37.41-15.97,44.61c-0.5,2.29-1.43,6.56-6.11,6.95
			c-0.16,0.01-0.32,0.02-0.48,0.02c-2.64,0-4.49-1.73-4.72-4.41c-0.15-1.84-0.03-2.89,0.4-4.91c0.55-2.33,1.13-4.73,1.77-7.28
			c-6.17,5.54-12.92,8.55-20.53,9.19c-0.85,0.07-1.71,0.11-2.55,0.11c-4.15,0-8.12-0.88-11.29-2.49
			c-7.81,8.99-17.29,14.37-26.77,15.16c-1,0.08-2,0.13-2.97,0.13c-13.33,0-22.72-7.85-25.5-21.14
			c-12.83,15.77-30.64,25.98-48.04,27.44c-1.54,0.13-3.05,0.2-4.5,0.2c-16.85,0-26.87-8.82-28.21-24.84
			C0,197.08,5.01,182.75,15.28,170.66c9.22-10.86,21.63-18.17,32.38-19.07c0.71-0.06,1.42-0.09,2.12-0.09
			c9.62,0,16.58,5.85,17.31,14.57c0.95,11.28-4.86,20.91-10.3,21.37c-0.28,0.02-0.55,0.04-0.82,0.04c-3.6,0-6.11-2.2-6.39-5.6
			c-0.32-3.85,1.7-9.9,6.01-18c-0.99-1.62-3.16-2.55-6.05-2.55c-0.4,0-0.82,0.02-1.25,0.05C33.93,162.59,11.96,185.86,14,210.1
			c0.83,9.93,7.03,15.4,17.44,15.4c0.88,0,1.79-0.04,2.72-0.12c19.34-1.62,38.88-18.7,47.52-34c3.73-23.45,23.84-44.65,44.01-46.34
			c1.04-0.09,2.06-0.13,3.06-0.13c14.15,0,23.34,8.92,24.6,23.86c1,11.91-2.54,25.19-9.74,36.6c1.73,1.05,3.98,1.62,6.47,1.62
			c0.47,0,0.96-0.02,1.45-0.06c9.3-0.78,18.09-9,26.88-25.12c3.17-11,6.83-22.95,11.19-36.53c1.5-4.75,4.38-5.96,6.53-6.14
			c0.22-0.02,0.44-0.03,0.65-0.03c3,0,5.1,1.86,5.34,4.73c0.21,2.49-1.02,6.52-3.64,11.96c7.23-9.13,16.75-18.27,26.32-19.08
			c0.63-0.05,1.27-0.08,1.88-0.08c8.77,0,14.69,5.57,15.44,14.54c0.12,1.41,0.08,2.75-0.07,4.13c6.13-8.42,17.17-21.48,27.17-22.32
			c0.56-0.05,1.12-0.07,1.66-0.07c8.75,0,15.12,5.83,15.85,14.52c0.7,8.34-3.04,17.04-6.66,25.46c-3.62,8.41-7.35,17.1-6.66,25.37
			c0.38,4.52,2.73,7.01,6.63,7.01c0.26,0,0.52-0.01,0.79-0.03c7.8-0.66,17.65-11.89,29.28-33.39c1.83-8.04,4.89-17.35,8.61-26.23
			c5.09-12.27,7.78-17.44,11.26-17.74c0.25-0.02,0.49-0.03,0.73-0.03c3.3,0,5.6,1.99,5.86,5.07c0.27,3.25-1.76,8.84-6.8,18.69
			c-6.92,17.34-9.93,30.2-9.17,39.24c0.58,6.87,3.21,10.35,7.84,10.35c0.27,0,0.54-0.01,0.82-0.04c7.94-0.67,18-12.29,29.9-34.55
			c3.17-11,6.83-22.95,11.19-36.54c1.5-4.75,4.38-5.96,6.53-6.14c0.22-0.02,0.44-0.03,0.65-0.03c3,0,5.1,1.86,5.34,4.73
			c0.19,2.3-0.98,6.06-3.7,11.84l-0.5,1.59c10.58-12.42,21.96-20.14,31.06-20.9c0.61-0.05,1.22-0.08,1.82-0.08
			c9.23,0,15.93,5.96,16.68,14.83c0.69,8.25-3.06,16.9-6.68,25.27c-3.62,8.36-7.36,17-6.68,25.18c0.38,4.52,2.73,7.01,6.63,7.01
			c0.26,0,0.52-0.01,0.79-0.03c7.86-0.66,17.8-12.07,29.55-33.9c6.21-23.2,27.67-44.13,46.93-45.75c0.98-0.08,1.95-0.12,2.88-0.12
			c6.93,0,12.53,2.28,16.32,6.63c1.54-5.06,4.52-8.49,7.76-8.76c0.25-0.02,0.49-0.03,0.73-0.03c3.3,0,5.6,1.99,5.86,5.07
			c0.29,3.39-2.19,8.95-7.15,18.66c-3.63,10.19-7.41,27.09-9.66,37.19l-0.38,1.71l-5.89,23.27c-8.17,32.22-22.99,51.55-40.66,53.03
			C467.63,250.46,466.73,250.5,465.84,250.5z M127.87,154.77c-0.5,0-1.02,0.02-1.55,0.07c-7.24,0.61-15.83,6.71-22.42,15.92
			c-7.12,9.95-10.71,21.64-9.83,32.06c0.85,10.15,6.44,16.46,14.58,16.46c0.42,0,0.85-0.02,1.28-0.05
			c6.99-0.59,14.01-5.04,19.8-12.57c-0.09-0.32-0.12-0.62-0.14-0.89c-0.28-3.31,1.85-6.19,5-6.92c4.91-9.3,7.27-20,6.48-29.42
			C140.28,159.97,135.59,154.77,127.87,154.77z M501.58,123.43c-0.71,0-1.45,0.03-2.2,0.1c-8.06,0.68-17.73,7.57-25.23,17.99
			c-7.81,10.85-11.95,23.62-11.07,34.14c0.67,7.99,4.89,12.95,11.02,12.95c0.3,0,0.61-0.01,0.92-0.04c8.23-0.69,16.97-9,25.97-24.69
			c6.2-11.24,9.76-21.02,13.15-32.19C512.77,126.36,508.32,123.43,501.58,123.43z"/>
		<path class="st1" d="M526.44,112.44c2.85,0,4.65,1.68,4.86,4.16c0.27,3.23-2.48,9.19-7.08,18.18
			c-3.87,10.84-7.88,29.15-10.1,39.09l-5.89,23.25c-7.18,28.33-20.79,50.69-39.78,52.28c-0.89,0.07-1.76,0.11-2.61,0.11
			c-9.89,0-17.25-4.84-19.45-10.11c-0.71-1.66-0.78-2.42-0.86-3.37c-0.21-2.47,0.95-4.67,3.98-4.92c0.14-0.01,0.27-0.02,0.4-0.02
			c2.03,0,3.21,1.35,4.23,2.88c3.21,4.67,5.98,7.91,12.05,7.91c0.51,0,1.05-0.02,1.61-0.07c9.87-0.83,21.68-15.01,27.95-35.99
			c4.33-14.51,6.33-24.81,8.35-32.63c-8.08,13.1-17.72,23.47-29.11,24.43c-0.79,0.07-1.56,0.1-2.32,0.1
			c-11.14,0-19.61-7.02-21.3-20.25c-8.5,13.21-18.33,23.68-29.92,24.65c-0.61,0.05-1.21,0.08-1.8,0.08
			c-8.91,0-15.13-5.84-15.99-16.17c-1.42-16.9,14.9-36.62,13.78-49.91c-0.33-3.89-2.67-6.12-6.38-6.12c-0.27,0-0.54,0.01-0.83,0.04
			c-10.06,0.84-25.54,14.57-33.91,26.55c-6.99,10.14-12.45,29.34-15.92,44.93c-0.55,2.53-1.42,5.85-5.22,6.17
			c-0.13,0.01-0.26,0.02-0.39,0.02c-1.77,0-3.52-1.02-3.72-3.49c-0.14-1.71-0.03-2.67,0.38-4.62c0.53-2.24,1.08-4.51,1.65-6.78
			c-7.24,9.48-15.4,16.35-24.68,17.13c-0.68,0.06-1.35,0.09-2.01,0.09c-9.57,0-16.28-6.1-17.32-18.54
			c-0.02-0.25-0.02-0.53-0.04-0.78c-8.29,12.57-17.85,22.36-29.04,23.3c-0.61,0.05-1.21,0.08-1.8,0.08
			c-8.92,0-15.13-5.84-15.99-16.17c-1.43-17.09,14.88-36.81,13.75-50.29c-0.31-3.73-2.33-5.82-5.55-5.82
			c-0.22,0-0.44,0.01-0.67,0.03c-7.97,0.67-20.37,14.71-27.83,26.04c-6.78,10.32-12.45,29.34-15.92,44.93
			c-0.55,2.53-1.42,5.85-5.22,6.17c-0.13,0.01-0.27,0.02-0.41,0.02c-1.82,0-3.88-1.01-4.11-3.65c-0.13-1.52,0.31-3.09,0.73-5.03
			c3.3-13.09,9.22-33.66,12.82-47.73c1.12-4.88,1.74-8.94,1.54-11.22c-0.31-3.72-2.32-5.8-5.68-5.8c-0.24,0-0.48,0.01-0.73,0.03
			c-8.92,0.75-21.7,14.82-29.16,26.16c-6.78,10.32-12.64,29.36-16.11,44.94c-0.55,2.53-1.42,5.85-5.22,6.17
			c-0.13,0.01-0.26,0.02-0.39,0.02c-1.77,0-3.51-1.02-3.72-3.49c-0.14-1.71-0.03-2.67,0.38-4.62c0.82-3.5,1.7-7.06,2.62-10.65
			c-6.52,6.76-13.78,10.63-22.45,11.35c-0.83,0.07-1.65,0.1-2.47,0.1c-4.25,0-8.32-0.94-11.52-2.75
			c-7.3,8.64-16.75,14.6-26.62,15.43c-0.98,0.08-1.94,0.12-2.89,0.12c-12.85,0-22.7-7.55-24.9-22.51
			c-12.33,16-30.18,27.25-48.72,28.8c-1.52,0.13-2.99,0.19-4.41,0.19c-16.16,0-25.9-8.22-27.21-23.92
			c-2.49-29.62,24.32-56.53,45.58-58.32c0.69-0.06,1.37-0.09,2.03-0.09c9.49,0,15.66,5.84,16.31,13.65
			c0.92,11.01-4.83,19.91-9.39,20.29c-0.25,0.02-0.49,0.03-0.73,0.03c-3.18,0-5.16-1.85-5.39-4.68c-0.29-3.42,1.51-9.3,6.14-17.91
			c-1.04-2.3-3.67-3.55-7.18-3.55c-0.43,0-0.88,0.02-1.34,0.06c-15,1.26-37.26,25.31-35.21,49.8c0.92,11,8,16.31,18.44,16.31
			c0.91,0,1.85-0.04,2.8-0.12c16.14-1.36,37.28-14.82,48.4-34.66c3.69-23.72,23.97-44.07,43.13-45.68c1.02-0.09,2.01-0.13,2.98-0.13
			c13.52,0,22.37,8.24,23.6,22.94c1.04,12.34-2.99,25.87-10.1,36.79c1.94,1.49,4.68,2.34,7.84,2.34c0.5,0,1.01-0.02,1.53-0.06
			c9.68-0.81,18.73-9.22,27.67-25.65c0,0,0.02-0.04,0.05-0.08c3.77-13.08,7.73-25.76,11.21-36.61c1.06-3.34,3-5.22,5.66-5.45
			c0.19-0.02,0.38-0.02,0.56-0.02c2.53,0,4.15,1.52,4.35,3.82c0.19,2.28-1.01,6.2-3.62,11.58l-1.99,5.9
			c8.55-12,19.31-22.84,29.37-23.69c0.61-0.05,1.21-0.08,1.8-0.08c8.3,0,13.73,5.11,14.45,13.63c0.22,2.66-0.14,5.17-0.83,8.29
			c8.5-12.57,19.72-24.79,29.02-25.57c0.53-0.04,1.06-0.07,1.58-0.07c7.98,0,14.15,5.22,14.85,13.6
			c1.37,16.33-14.74,33.93-13.32,50.83c0.43,5.16,3.35,7.93,7.62,7.93c0.29,0,0.58-0.01,0.88-0.04
			c9.86-0.83,20.84-16.81,30.14-34.03c2.05-9.05,5.34-18.45,8.59-26.19c4.93-11.88,7.57-16.89,10.42-17.13
			c0.22-0.02,0.44-0.03,0.65-0.03c2.85,0,4.65,1.68,4.86,4.16c0.27,3.23-2.1,9.16-6.7,18.15c-5.21,13.06-10.24,28.39-9.28,39.78
			c0.67,8.03,4.16,11.27,8.83,11.27c0.3,0,0.6-0.01,0.9-0.04c10.06-0.84,21.29-17.46,30.71-35.08c0.01-0.03,0.03-0.05,0.04-0.08
			c3.77-13.09,7.73-25.76,11.21-36.62c1.06-3.34,3-5.22,5.66-5.45c0.19-0.02,0.38-0.02,0.56-0.02c2.53,0,4.15,1.52,4.35,3.82
			c0.19,2.28-1.2,6.22-3.63,11.4l-2.12,6.68c9.66-12.47,22.68-23.7,33.69-24.62c0.59-0.05,1.16-0.07,1.73-0.07
			c8.47,0,14.96,5.37,15.68,13.91c1.35,16.14-14.76,33.74-13.36,50.45c0.43,5.16,3.35,7.93,7.62,7.93c0.29,0,0.58-0.01,0.88-0.04
			c9.96-0.84,21.05-17.11,30.4-34.52c6.04-22.78,27.14-43.54,46.08-45.13c0.95-0.08,1.89-0.12,2.8-0.12
			c7.25,0,13.11,2.55,16.78,7.85c1.23-5.84,4.35-9.73,7.38-9.99C526.01,112.45,526.23,112.44,526.44,112.44 M474.09,189.61
			c0.33,0,0.66-0.01,1-0.04c9.68-0.81,18.92-11.53,26.76-25.19c5.97-10.83,9.58-20.3,13.32-32.66c-1.36-5.81-6.02-9.28-13.59-9.28
			c-0.73,0-1.49,0.03-2.28,0.1c-17.66,1.48-39.17,29.86-37.21,53.22C462.85,184.92,468.05,189.61,474.09,189.61 M108.64,220.26
			c0.45,0,0.91-0.02,1.37-0.06c7.78-0.65,15.19-5.86,20.86-13.41c-0.22-0.36-0.25-0.74-0.29-1.12c-0.25-3.04,1.83-5.51,4.66-5.94
			c4.96-9.21,7.66-20.34,6.82-30.4c-0.88-10.49-6.34-15.57-14.2-15.57c-0.53,0-1.08,0.02-1.63,0.07
			c-15.57,1.31-35.11,25.89-33.17,49.05C94.05,214.55,100.84,220.26,108.64,220.26 M526.44,110.44c-0.27,0-0.54,0.01-0.82,0.03
			c-3.28,0.28-6.3,3.31-8.08,7.88c-3.92-3.77-9.35-5.75-15.91-5.75c-0.96,0-1.96,0.04-2.96,0.13
			c-19.61,1.65-41.44,22.86-47.78,46.38c-11.55,21.45-21.21,32.64-28.7,33.27c-0.24,0.02-0.48,0.03-0.71,0.03
			c-4.23,0-5.4-3.31-5.63-6.1c-0.66-7.92,3.03-16.45,6.6-24.7c3.67-8.48,7.47-17.25,6.76-25.75c-0.79-9.42-7.89-15.74-17.67-15.74
			c-0.63,0-1.26,0.03-1.9,0.08c-8.25,0.69-18.28,6.88-27.91,16.99c1.63-3.94,2.29-6.67,2.13-8.62c-0.28-3.38-2.83-5.65-6.34-5.65
			c-0.24,0-0.48,0.01-0.73,0.03c-3.47,0.29-6.1,2.72-7.4,6.84c-4.34,13.54-8,25.47-11.17,36.46c-11.7,21.87-21.48,33.3-29.06,33.93
			c-0.25,0.02-0.5,0.03-0.74,0.03c-4.01,0-6.32-3.17-6.84-9.43c-0.74-8.87,2.24-21.55,9.11-38.79c5.17-10.11,7.16-15.66,6.87-19.15
			c-0.3-3.58-3.06-5.99-6.85-5.99c-0.27,0-0.54,0.01-0.81,0.03c-3.95,0.33-6.6,5.1-12.1,18.35c-3.72,8.87-6.78,18.18-8.63,26.25
			c-11.43,21.11-20.99,32.13-28.42,32.75c-0.24,0.02-0.48,0.03-0.71,0.03c-4.23,0-5.4-3.31-5.63-6.1
			c-0.67-8.02,3.02-16.6,6.58-24.89c3.67-8.53,7.46-17.35,6.74-25.94c-0.77-9.23-7.54-15.43-16.84-15.43
			c-0.57,0-1.16,0.02-1.75,0.07c-4.47,0.38-13.44,3.62-25.96,20.1c-0.01-0.33-0.03-0.66-0.06-0.99c-0.8-9.54-7.1-15.46-16.44-15.46
			c-0.64,0-1.3,0.03-1.96,0.08c-8.1,0.68-16.09,7.03-22.76,14.41c0.92-2.65,1.3-4.76,1.16-6.38c-0.28-3.38-2.83-5.65-6.34-5.65
			c-0.24,0-0.48,0.01-0.73,0.03c-3.47,0.29-6.1,2.72-7.4,6.84c-4.34,13.54-8,25.47-11.16,36.45c-8.59,15.74-17.1,23.76-26.03,24.51
			c-0.46,0.04-0.92,0.06-1.36,0.06c-1.89,0-3.63-0.35-5.06-1c6.92-11.38,10.31-24.5,9.32-36.3c-1.3-15.51-10.87-24.78-25.6-24.78
			c-1.02,0-2.08,0.05-3.14,0.13c-20.53,1.72-41.01,23.2-44.88,47c-5.13,9.03-12.57,17.08-21.54,23.29
			c-8.42,5.83-17.34,9.4-25.11,10.05c-0.9,0.08-1.79,0.11-2.64,0.11c-6.95,0-15.44-2.51-16.45-14.48
			c-0.88-10.52,3.05-22.27,10.79-32.21c6.84-8.79,15.71-14.84,22.59-15.42c0.4-0.03,0.79-0.05,1.17-0.05c2.23,0,3.95,0.58,4.87,1.63
			c-4.2,8-6.16,14.05-5.83,18c0.33,3.96,3.23,6.51,7.39,6.51c0.29,0,0.6-0.01,0.9-0.04c5.89-0.49,12.2-10.62,11.21-22.45
			c-0.78-9.26-8.13-15.48-18.31-15.48c-0.72,0-1.46,0.03-2.2,0.09c-11.17,0.94-23.52,8.2-33.05,19.42
			c-10.45,12.3-15.54,26.88-14.35,41.06c1.39,16.61,11.77,25.75,29.21,25.75c1.47,0,3.01-0.07,4.58-0.2
			c17.09-1.43,34.55-11.16,47.44-26.26c3.36,12.59,12.83,19.97,26.01,19.97c1,0,2.03-0.04,3.06-0.13
			c9.53-0.8,19.05-6.08,26.93-14.92c3.19,1.48,6.97,2.26,11.04,2.26c0.87,0,1.76-0.04,2.63-0.11c6.87-0.58,13.05-3.03,18.74-7.45
			c-0.36,1.47-0.7,2.9-1.03,4.29c-0.44,2.08-0.59,3.25-0.42,5.24c0.31,3.68,3.09,5.33,5.71,5.33c0.19,0,0.38-0.01,0.56-0.02
			c5.41-0.45,6.49-5.37,7-7.74c4.26-19.11,10.17-35.67,15.83-44.27c7.94-12.07,19.99-24.62,27.66-25.26
			c0.19-0.02,0.38-0.02,0.57-0.02c1.44,0,3.39,0.41,3.68,3.97c0.09,1.12,0.02,3.98-1.5,10.6c-1.73,6.77-4.06,15.24-6.3,23.43
			c-2.36,8.61-4.8,17.51-6.5,24.25l-0.01,0.04l-0.01,0.04c-0.07,0.33-0.14,0.64-0.21,0.95c-0.35,1.6-0.69,3.1-0.55,4.66
			c0.32,3.79,3.29,5.49,6.1,5.49c0.19,0,0.38-0.01,0.57-0.02c5.42-0.45,6.49-5.38,7-7.74c2.07-9.3,7.75-32.24,15.64-44.26
			c7.75-11.77,19.61-24.59,26.33-25.15c0.17-0.01,0.34-0.02,0.5-0.02c0.8,0,3.22,0,3.56,3.98c0.49,5.84-2.74,13.34-6.17,21.28
			c-4.12,9.57-8.39,19.46-7.59,29.01c0.93,11.11,7.82,18.01,17.99,18.01c0.64,0,1.3-0.03,1.97-0.08
			c9.37-0.79,18.42-7.31,27.57-19.89c2.2,10.19,8.83,15.92,18.66,15.92c0.71,0,1.44-0.03,2.17-0.09c7.05-0.59,13.86-4.37,20.66-11.5
			c-0.24,1.35-0.3,2.4-0.17,3.94c0.31,3.68,3.09,5.33,5.72,5.33c0.19,0,0.37-0.01,0.56-0.02c5.42-0.46,6.49-5.38,7-7.74
			c4.57-20.53,10.12-36.24,15.62-44.22c8.22-11.78,23.22-24.92,32.43-25.7c0.23-0.02,0.45-0.03,0.66-0.03
			c2.67,0,4.14,1.44,4.38,4.29c0.48,5.75-2.75,13.19-6.17,21.08c-4.13,9.53-8.41,19.37-7.61,28.83
			c0.93,11.11,7.82,18.01,17.99,18.01c0.64,0,1.3-0.03,1.97-0.08c9.75-0.82,19.19-7.88,28.75-21.55
			c3.04,10.71,11.25,17.16,22.3,17.16c0.82,0,1.65-0.04,2.49-0.11c8.46-0.71,16.52-6.09,24.48-16.37
			c-1.42,6.02-3.19,13.28-5.8,22.01c-6.51,21.8-18.11,33.89-26.2,34.57c-0.5,0.04-0.98,0.06-1.44,0.06c-4.79,0-6.99-2.08-10.41-7.04
			c-1.23-1.84-2.91-3.75-5.88-3.75c-0.19,0-0.38,0.01-0.57,0.02c-3.8,0.32-6.14,3.17-5.81,7.08c0.09,1.04,0.17,2.03,1.01,3.99
			c2.78,6.66,11.54,11.32,21.29,11.32c0.92,0,1.85-0.04,2.78-0.12c18.12-1.52,33.27-21.12,41.55-53.78l5.89-23.25l0.01-0.03
			l0.01-0.03l0.38-1.72c2.25-10.06,6-26.87,9.61-37.01c5.03-9.85,7.53-15.52,7.23-19.14C532.99,112.85,530.24,110.44,526.44,110.44
			L526.44,110.44z M474.09,187.61c-5.56,0-9.4-4.61-10.02-12.03c-0.86-10.29,3.2-22.81,10.88-33.47
			c7.34-10.19,16.73-16.93,24.51-17.58c0.73-0.06,1.44-0.09,2.12-0.09c4.37,0,9.85,1.27,11.52,7.24c-3.35,11-6.87,20.66-12.99,31.74
			c-8.69,15.14-17.4,23.51-25.17,24.16C474.65,187.6,474.37,187.61,474.09,187.61L474.09,187.61z M108.64,218.26
			c-7.57,0-12.77-5.95-13.58-15.54c-0.86-10.19,2.66-21.63,9.65-31.39c6.43-8.98,14.74-14.92,21.69-15.5
			c0.5-0.04,0.99-0.06,1.46-0.06c9.14,0,11.68,7.47,12.21,13.73c0.76,9.11-1.48,19.44-6.16,28.48c-3.39,1-5.62,4.2-5.32,7.85
			c0.01,0.16,0.03,0.35,0.06,0.56c-5.56,7.08-12.21,11.26-18.81,11.82C109.44,218.25,109.04,218.26,108.64,218.26L108.64,218.26z"/>
	</g>
	<g>
		<path class="st0" d="M568.45,190.66c-1.19,0-2.38-0.42-3.42-1.21c-0.94-0.7-1.6-1.84-1.78-3.15c-0.22-1.58,0.22-3.19,1.26-4.54
			c12-18.3,24.75-39.65,36.4-71.24l-0.2-2.44c-0.5-5.94,0.38-11.67,2.48-16.15c2.01-4.29,4.87-6.89,7.85-7.14
			c0.33-0.03,0.66-0.04,0.97-0.04c4.03,0,6.72,2.34,7.04,6.11c0.35,4.12-1.7,10.89-6.07,20.14c1.94,4.98,5.18,9.99,8.59,15.3
			c5.87,9.11,11.95,18.53,12.88,29.61c0.49,5.86-0.87,11.2-3.96,15.71c12.73-7.81,20.45-19.72,25.31-28.44
			c3.73-23.44,23.85-44.64,44-46.33c1.04-0.09,2.07-0.13,3.06-0.13c14.15,0,23.34,8.92,24.6,23.86c1,11.91-2.54,25.19-9.74,36.6
			c1.73,1.05,3.99,1.62,6.47,1.62c0.47,0,0.96-0.02,1.45-0.06c9-0.76,17.52-8.48,26.04-23.63c3.75-23.43,23.86-44.61,44-46.3
			c1.04-0.09,2.07-0.13,3.06-0.13c14.15,0,23.35,8.92,24.6,23.86c1,11.91-2.54,25.19-9.74,36.6c1.72,1.05,3.98,1.62,6.47,1.62
			c0.47,0,0.96-0.02,1.45-0.06c9.3-0.78,18.09-9,26.88-25.12c3.17-11.01,6.84-22.96,11.19-36.53c1.5-4.75,4.38-5.96,6.53-6.14
			c0.22-0.02,0.44-0.03,0.65-0.03c3,0,5.1,1.86,5.34,4.73c0.19,2.3-0.98,6.06-3.69,11.84l-0.5,1.59
			c10.58-12.42,21.96-20.13,31.06-20.9c0.61-0.05,1.22-0.08,1.82-0.08c9.23,0,15.93,5.96,16.67,14.82
			c0.69,8.25-3.05,16.9-6.68,25.27c-3.62,8.36-7.36,17-6.68,25.18c0.38,4.54,2.62,7.04,6.31,7.04c0.24,0,0.48-0.01,0.73-0.03
			c3.56-0.3,7.09-3.91,10.48-10.72c1.13-2.51,2.78-3.01,3.66-3.08c0.1-0.01,0.2-0.01,0.31-0.01c1.85,0,3.88,1.46,4.08,3.9
			c0.25,3.02-1.8,7.7-5.12,11.65c-2.29,2.73-7.12,7.39-13.74,7.95c-0.63,0.05-1.27,0.08-1.88,0.08c0,0,0,0,0,0
			c-9.59,0-16.1-6.55-16.99-17.09c-0.77-9.21,3.45-18.94,7.53-28.35c3.47-8,6.75-15.56,6.25-21.56c-0.28-3.36-2.19-5.21-5.38-5.21
			c-0.24,0-0.49,0.01-0.74,0.03c-9.49,0.8-24.81,14.15-33.17,26.13c-7.13,10.35-12.51,29.95-15.76,44.57
			c-0.5,2.29-1.43,6.56-6.11,6.95c-0.16,0.01-0.32,0.02-0.48,0.02c-2.64,0-4.5-1.73-4.72-4.41c-0.16-1.84-0.03-2.89,0.39-4.91
			c0.54-2.31,1.12-4.71,1.77-7.28c-6.17,5.54-12.92,8.55-20.53,9.19c-0.85,0.07-1.71,0.11-2.55,0.11c-4.15,0-8.12-0.88-11.29-2.49
			c-7.81,8.99-17.29,14.37-26.77,15.16c-1,0.08-2,0.13-2.97,0.13c-13.21,0-22.58-7.74-25.43-20.82
			c-7.92,10.01-16.5,15.1-26.86,15.97c-0.85,0.07-1.71,0.11-2.55,0.11c-4.15,0-8.12-0.88-11.29-2.49
			c-7.81,8.99-17.29,14.37-26.77,15.16c-1,0.08-2,0.13-2.97,0.13c-13.17,0-22.52-7.69-25.41-20.7
			c-12.62,16.29-29.25,25.41-49.46,27.1c-1.36,0.12-2.71,0.17-4.01,0.17c-10.47,0-18.75-3.8-23.03-10.49
			c-2.04,3.49-4.14,7.05-6.39,10.44C572.06,189.6,570.36,190.66,568.45,190.66z M587.78,163.73c-0.21,0.97-0.13,1.91-0.09,2.43
			c0.35,4.16,5.32,11.94,15.73,11.94c0.6,0,1.23-0.03,1.85-0.08c5.39-0.45,9.9-2.87,13.03-6.98c2.95-3.86,4.33-8.79,3.9-13.9
			c-0.83-9.83-5.29-17.17-10.02-24.94c-1.62-2.67-3.29-5.41-4.85-8.32C602.11,136.71,595.54,150.1,587.78,163.73z M701.98,106.59
			c-0.5,0-1.02,0.02-1.55,0.07c-7.24,0.61-15.83,6.71-22.42,15.92c-7.12,9.95-10.71,21.64-9.83,32.06
			c0.85,10.15,6.44,16.46,14.58,16.46c0.42,0,0.85-0.02,1.28-0.05c6.99-0.59,14.01-5.04,19.8-12.57c-0.09-0.32-0.12-0.62-0.14-0.88
			c-0.28-3.31,1.85-6.19,5-6.92c4.91-9.3,7.27-19.99,6.48-29.42C714.39,111.79,709.7,106.59,701.98,106.59z M797.85,98.54
			c-0.5,0-1.02,0.02-1.55,0.07c-17.87,1.5-33.83,29.18-32.25,47.97c0.85,10.15,6.44,16.46,14.58,16.46c0.42,0,0.85-0.02,1.28-0.05
			c6.99-0.59,14.01-5.04,19.8-12.57c-0.09-0.32-0.12-0.62-0.14-0.88c-0.28-3.31,1.85-6.19,5-6.92c4.91-9.3,7.27-19.99,6.48-29.42
			C810.26,103.74,805.57,98.54,797.85,98.54z"/>
		<path class="st1" d="M900.77,81.07c8.47,0,14.96,5.37,15.68,13.91c1.35,16.14-14.76,33.74-13.36,50.45
			c0.43,5.17,3.2,7.96,7.31,7.96c0.26,0,0.53-0.01,0.81-0.03c4.75-0.4,8.51-5.68,11.29-11.27c0.81-1.79,1.9-2.45,2.85-2.53
			c0.07-0.01,0.15-0.01,0.22-0.01c1.45,0,2.93,1.18,3.09,2.98c0.45,5.32-7.5,17.65-17.95,18.52c-0.61,0.05-1.21,0.08-1.8,0.08
			c-8.91,0-15.13-5.84-15.99-16.17c-1.42-16.9,14.9-36.62,13.78-49.91c-0.33-3.89-2.67-6.12-6.37-6.12c-0.27,0-0.54,0.01-0.83,0.04
			c-10.06,0.84-25.54,14.57-33.91,26.55c-6.99,10.14-12.45,29.34-15.92,44.93c-0.55,2.53-1.42,5.85-5.22,6.17
			c-0.13,0.01-0.26,0.02-0.39,0.02c-1.77,0-3.52-1.02-3.72-3.5c-0.14-1.71-0.03-2.67,0.38-4.62c0.82-3.5,1.7-7.06,2.62-10.65
			c-6.52,6.76-13.77,10.63-22.45,11.35c-0.83,0.07-1.65,0.1-2.47,0.1c-4.25,0-8.32-0.94-11.52-2.75
			c-7.3,8.64-16.75,14.6-26.62,15.43c-0.98,0.08-1.94,0.12-2.89,0.12c-12.77,0-22.57-7.45-24.86-22.22
			c-7.8,10.53-16.53,16.44-27.52,17.36c-0.83,0.07-1.65,0.1-2.47,0.1c-4.25,0-8.32-0.94-11.52-2.75
			c-7.3,8.64-16.75,14.6-26.62,15.43c-0.98,0.08-1.94,0.12-2.89,0.12c-12.74,0-22.53-7.42-24.85-22.11
			c-10.4,14.18-26.19,26.51-50.1,28.52c-1.35,0.11-2.66,0.17-3.93,0.17c-11.68,0-19.52-4.7-23.02-11.48
			c-2.34,4.02-4.68,8.04-7.22,11.89c-1.09,1.78-2.53,2.53-3.94,2.53c-0.99,0-1.97-0.37-2.81-1.01c-1.63-1.2-2.06-4.03-0.33-6.28
			c14.07-21.45,25.88-42.51,36.62-71.71l-0.22-2.66c-1.05-12.53,4.29-21.77,9.42-22.2c0.31-0.03,0.6-0.04,0.89-0.04
			c3.64,0,5.78,2.02,6.04,5.19c0.32,3.8-1.61,10.46-6.16,20.02c5.17,13.71,20.09,27.57,21.56,45.03c0.62,7.41-1.88,14.12-7.38,19.17
			c14.86-7.14,24.11-19.82,30.69-31.66c3.69-23.71,23.97-44.05,43.13-45.66c1.02-0.09,2.01-0.13,2.98-0.13
			c13.52,0,22.37,8.24,23.6,22.94c1.04,12.34-2.99,25.87-10.1,36.79c1.94,1.49,4.68,2.34,7.84,2.34c0.5,0,1.01-0.02,1.53-0.06
			c9.41-0.79,18.21-8.77,26.91-24.29c3.7-23.7,23.97-44.03,43.12-45.64c1.02-0.09,2.01-0.13,2.98-0.13
			c13.52,0,22.37,8.24,23.6,22.94c1.04,12.34-2.99,25.87-10.1,36.79c1.94,1.49,4.68,2.34,7.83,2.34c0.5,0,1.01-0.02,1.53-0.07
			c9.68-0.81,18.73-9.22,27.67-25.65c0,0,0.02-0.04,0.05-0.08c3.77-13.08,7.73-25.76,11.21-36.61c1.06-3.34,3-5.22,5.66-5.45
			c0.19-0.02,0.38-0.02,0.56-0.02c2.53,0,4.15,1.52,4.35,3.82c0.19,2.28-1.2,6.22-3.63,11.39l-2.12,6.68
			c9.66-12.47,22.68-23.7,33.69-24.62C899.62,81.09,900.2,81.07,900.77,81.07 M778.63,164.03c0.45,0,0.91-0.02,1.37-0.06
			c7.78-0.65,15.19-5.86,20.86-13.41c-0.22-0.36-0.25-0.74-0.29-1.12c-0.25-3.04,1.83-5.51,4.66-5.94
			c4.96-9.21,7.66-20.34,6.82-30.4c-0.88-10.49-6.34-15.57-14.2-15.57c-0.53,0-1.08,0.02-1.63,0.07
			c-15.57,1.31-35.11,25.89-33.17,49.05C764.04,158.33,770.83,164.03,778.63,164.03 M682.75,172.08c0.45,0,0.91-0.02,1.37-0.06
			c7.78-0.65,15.19-5.86,20.86-13.41c-0.22-0.36-0.25-0.74-0.29-1.12c-0.25-3.04,1.83-5.51,4.66-5.94
			c4.96-9.21,7.66-20.34,6.82-30.4c-0.88-10.49-6.34-15.57-14.2-15.57c-0.53,0-1.08,0.02-1.63,0.07
			c-15.57,1.31-35.11,25.89-33.17,49.05C668.16,166.37,674.96,172.08,682.75,172.08 M603.43,179.1c0.63,0,1.27-0.03,1.94-0.08
			c11.96-1,18.74-11.32,17.85-21.96c-1.2-14.24-9.79-23.27-15.99-35.56c-5.53,13.85-12.39,27.81-20.39,41.86
			c-0.28,1.17-0.19,2.31-0.14,2.88C587.06,170.56,592.24,179.1,603.43,179.1 M900.77,79.07C900.77,79.07,900.77,79.07,900.77,79.07
			C900.77,79.07,900.77,79.07,900.77,79.07c-0.63,0-1.26,0.03-1.9,0.08c-8.25,0.69-18.28,6.88-27.91,16.99
			c1.63-3.94,2.29-6.67,2.13-8.62c-0.28-3.38-2.83-5.65-6.34-5.65c-0.24,0-0.48,0.01-0.73,0.03c-3.47,0.29-6.1,2.72-7.4,6.84
			c-4.34,13.54-8,25.46-11.17,36.45c-8.59,15.74-17.1,23.76-26.03,24.51c-0.46,0.04-0.92,0.06-1.37,0.06c-1.89,0-3.63-0.35-5.06-1
			c6.92-11.38,10.31-24.5,9.32-36.3c-1.3-15.51-10.87-24.78-25.6-24.78c-1.02,0-2.08,0.05-3.14,0.13
			c-20.51,1.72-40.99,23.18-44.87,46.96c-8.31,14.73-16.54,22.24-25.16,22.97c-0.46,0.04-0.92,0.06-1.36,0.06
			c-1.89,0-3.63-0.35-5.06-1c6.92-11.38,10.31-24.5,9.32-36.3c-1.3-15.51-10.87-24.78-25.59-24.78c-1.02,0-2.08,0.05-3.14,0.13
			c-20.53,1.72-41,23.2-44.88,46.99c-4.35,7.78-10.98,18.07-21.43,25.62c1.72-3.82,2.42-8.07,2.03-12.63
			c-0.95-11.33-7.09-20.86-13.03-30.07c-3.3-5.11-6.42-9.96-8.34-14.72c4.32-9.21,6.33-16.03,5.98-20.26
			c-0.36-4.33-3.44-7.03-8.04-7.03c-0.34,0-0.7,0.02-1.06,0.05c-3.34,0.28-6.5,3.09-8.67,7.71c-2.17,4.63-3.09,10.55-2.57,16.66
			l0.19,2.22c-11.57,31.35-24.25,52.57-36.22,70.83c-1.17,1.55-1.66,3.4-1.41,5.23c0.23,1.59,1,2.95,2.19,3.82
			c1.19,0.91,2.59,1.39,4,1.39c2.26,0,4.26-1.23,5.63-3.45c1.96-2.97,3.81-6.06,5.61-9.11c4.66,6.16,12.83,9.63,22.95,9.63
			c1.33,0,2.71-0.06,4.1-0.18c19.83-1.66,36.26-10.37,48.9-25.89c3.47,12.29,12.89,19.49,25.88,19.49c1,0,2.03-0.04,3.06-0.13
			c9.53-0.8,19.05-6.08,26.93-14.92c3.19,1.48,6.97,2.26,11.04,2.26c0.87,0,1.76-0.04,2.63-0.11c10.1-0.85,18.54-5.57,26.29-14.78
			c3.44,12.39,12.87,19.64,25.92,19.64c1,0,2.03-0.04,3.06-0.13c9.53-0.8,19.05-6.08,26.93-14.92c3.19,1.48,6.97,2.26,11.04,2.26
			c0.87,0,1.76-0.04,2.63-0.11c6.87-0.58,13.05-3.03,18.74-7.45c-0.36,1.47-0.7,2.9-1.03,4.29c-0.44,2.08-0.59,3.25-0.42,5.24
			c0.31,3.68,3.09,5.33,5.72,5.33c0.19,0,0.37-0.01,0.56-0.02c5.41-0.46,6.49-5.38,7-7.74c4.57-20.53,10.12-36.24,15.61-44.22
			c8.22-11.78,23.22-24.92,32.43-25.7c0.23-0.02,0.45-0.03,0.66-0.03c2.67,0,4.14,1.44,4.38,4.29c0.48,5.75-2.75,13.19-6.17,21.08
			c-4.13,9.53-8.41,19.37-7.61,28.83c0.93,11.11,7.82,18.01,17.99,18.01c0.64,0,1.31-0.03,1.97-0.08c6.97-0.59,12.03-5.45,14.42-8.3
			c3.53-4.2,5.63-9.06,5.35-12.38c-0.23-2.7-2.46-4.81-5.08-4.81c-0.13,0-0.26,0.01-0.39,0.02c-1.1,0.09-3.13,0.69-4.49,3.67
			c-3.18,6.37-6.51,9.87-9.65,10.14c-0.22,0.02-0.43,0.03-0.64,0.03c-3.97,0-5.08-3.33-5.32-6.12c-0.67-7.92,3.03-16.45,6.6-24.7
			c3.67-8.48,7.47-17.25,6.76-25.75C917.65,85.39,910.55,79.07,900.77,79.07L900.77,79.07L900.77,79.07z M778.63,162.03
			c-7.57,0-12.77-5.95-13.58-15.54c-1.83-21.8,16.69-45.66,31.34-46.89c0.5-0.04,0.99-0.06,1.46-0.06c9.14,0,11.68,7.47,12.21,13.73
			c0.76,9.11-1.48,19.44-6.16,28.48c-3.39,1-5.62,4.2-5.32,7.85c0.01,0.16,0.03,0.35,0.06,0.56c-5.56,7.08-12.21,11.26-18.81,11.82
			C779.43,162.02,779.02,162.03,778.63,162.03L778.63,162.03z M682.75,170.08c-7.57,0-12.77-5.95-13.58-15.54
			c-0.86-10.19,2.66-21.63,9.65-31.39c6.43-8.98,14.74-14.92,21.69-15.5c0.5-0.04,0.99-0.06,1.46-0.06
			c9.14,0,11.68,7.47,12.21,13.73c0.76,9.11-1.48,19.44-6.16,28.48c-3.39,1-5.62,4.2-5.32,7.85c0.01,0.16,0.03,0.35,0.06,0.56
			c-5.57,7.08-12.22,11.26-18.81,11.82C683.55,170.06,683.15,170.08,682.75,170.08L682.75,170.08z M588.73,164.08
			c7.35-12.94,13.64-25.66,18.74-37.89c1.27,2.26,2.58,4.42,3.87,6.53c4.67,7.67,9.07,14.91,9.88,24.5
			c0.41,4.86-0.91,9.55-3.7,13.21c-2.96,3.88-7.22,6.16-12.32,6.59c-0.6,0.05-1.19,0.08-1.77,0.08c-10.54,0-14.49-8.08-14.73-11.02
			C588.66,165.64,588.59,164.86,588.73,164.08L588.73,164.08z"/>
	</g>
	<g>
		<path class="st0" d="M960.68,123.03c-2.89,0-4.98-1.83-5.21-4.56c-0.14-1.61,0.1-2.68,0.42-4.15l0.17-0.78
			C966.28,73.5,977.39,35.8,987.33,7.36c1.47-3.95,3.78-6.07,6.89-6.33c0.22-0.02,0.43-0.03,0.64-0.03c3.05,0,5.1,1.89,5.36,4.92
			c0.09,1.13-0.05,2.25-0.41,3.16c-8.1,23.84-20.24,60.91-31.9,106.76c-0.79,3.26-2.02,6.77-6.66,7.16
			C961.06,123.02,960.86,123.03,960.68,123.03L960.68,123.03z"/>
		<path class="st1" d="M994.86,2c2.53,0,4.15,1.53,4.36,4.01c0.08,0.95-0.03,1.91-0.35,2.71c-9.97,29.32-21.16,64.49-31.94,106.88
			c-0.85,3.51-1.97,6.09-5.77,6.41c-0.16,0.01-0.33,0.02-0.49,0.02c-2.24,0-4.02-1.34-4.21-3.64c-0.14-1.71,0.16-2.69,0.57-4.64
			c9.79-38.3,20.92-76.51,31.25-106.06c1.25-3.35,3.18-5.43,6.03-5.67C994.5,2.01,994.68,2,994.86,2 M994.86,0
			c-0.24,0-0.48,0.01-0.73,0.03c-3.52,0.3-6.12,2.64-7.73,6.96c-9.97,28.5-21.08,66.23-31.31,106.26l-0.01,0.04l-0.01,0.04
			c-0.06,0.28-0.11,0.53-0.17,0.77c-0.33,1.5-0.58,2.68-0.44,4.44c0.27,3.22,2.82,5.47,6.21,5.47c0.22,0,0.43-0.01,0.65-0.03
			c5.74-0.48,6.92-5.33,7.55-7.93c11.64-45.77,23.77-82.79,31.88-106.66c0.41-1.05,0.57-2.28,0.46-3.56
			C1000.92,2.29,998.43,0,994.86,0L994.86,0z"/>
	</g>
	<g>
		<path class="st0" d="M951.24,158.6c-4.56,0-7.75-2.89-8.13-7.36c-0.34-4.06,0.93-8.38,3.48-11.85c2.42-3.29,5.66-5.41,8.67-5.66
			c0.39-0.03,0.76-0.05,1.13-0.05c4.54,0,7.35,2.55,7.73,7c0.32,3.78-0.81,8.11-3.01,11.59c-2.35,3.71-5.6,6.01-8.92,6.28
			C951.87,158.59,951.55,158.6,951.24,158.6L951.24,158.6z"/>
		<path class="st1" d="M956.39,134.68c3.95,0,6.39,2.06,6.73,6.08c0.62,7.4-4.56,16.25-11.02,16.79c-0.29,0.02-0.58,0.04-0.86,0.04
			c-3.93,0-6.79-2.36-7.13-6.44c-0.7-8.35,5.73-15.97,11.24-16.43C955.71,134.7,956.06,134.68,956.39,134.68 M956.39,132.68
			c-0.39,0-0.8,0.02-1.21,0.05c-3.29,0.28-6.8,2.54-9.39,6.06c-2.73,3.72-4.04,8.17-3.67,12.53c0.42,5.03,4,8.27,9.13,8.27
			c0.34,0,0.68-0.01,1.03-0.04c3.64-0.3,7.17-2.76,9.69-6.75c2.35-3.71,3.5-8.16,3.16-12.21
			C964.7,135.64,961.44,132.68,956.39,132.68L956.39,132.68z"/>
	</g>
</g>
</svg>
