<?xml version="1.0" encoding="utf-8"?>
<!-- Generator: Adobe Illustrator 23.1.1, SVG Export Plug-In . SVG Version: 6.00 Build 0)  -->
<svg version="1.1" id="Layer_1" xmlns="http://www.w3.org/2000/svg" xmlns:xlink="http://www.w3.org/1999/xlink" x="0px" y="0px"
	 viewBox="0 0 500 500" style="enable-background:new 0 0 500 500;" xml:space="preserve">
<style type="text/css">
	.st0{fill:#FA0636;}
</style>
<g>
	<path class="st0" d="M250,0C111.93,0,0,111.93,0,250s111.93,250,250,250s250-111.93,250-250S388.07,0,250,0z M325.26,147.04
		c-41.05,56.56-87.29,64.2-127,124.94c-37.06,56.69-45.17,124.05-38.85,190.57C76.86,427.33,19,345.42,19,250
		C19,122.42,122.42,19,250,19c42.4,0,82.12,11.43,116.28,31.37C357.97,91.96,342.61,123.14,325.26,147.04z"/>
</g>
</svg>
