<?xml version="1.0" encoding="utf-8"?>
<!-- Generator: Adobe Illustrator 23.1.1, SVG Export Plug-In . SVG Version: 6.00 Build 0)  -->
<svg version="1.1" id="Layer_1" xmlns="http://www.w3.org/2000/svg" xmlns:xlink="http://www.w3.org/1999/xlink" x="0px" y="0px"
	 viewBox="0 0 500 500" style="enable-background:new 0 0 500 500;" xml:space="preserve">
<style type="text/css">
	.st0{fill:#FA0636;}
</style>
<g>
	<path class="st0" d="M250,0C111.9,0,0,111.9,0,250s111.9,250,250,250s250-111.9,250-250S388.1,0,250,0z M325.3,147
		c-41,56.6-87.3,64.2-127,124.9c-37.1,56.7-45.2,124-38.9,190.6C76.9,427.3,19,345.4,19,250C19,122.4,122.4,19,250,19
		c42.4,0,82.1,11.4,116.3,31.4C358,92,342.6,123.1,325.3,147z"/>
</g>
</svg>
