<?xml version="1.0" encoding="utf-8"?>
<!-- Generator: Adobe Illustrator 23.1.1, SVG Export Plug-In . SVG Version: 6.00 Build 0)  -->
<svg version="1.1" id="Layer_1" xmlns="http://www.w3.org/2000/svg" xmlns:xlink="http://www.w3.org/1999/xlink" x="0px" y="0px"
	 viewBox="0 0 557 500" style="enable-background:new 0 0 557 500;" xml:space="preserve">
<style type="text/css">
	.st0{fill:#F05354;}
</style>
<g>
	<path class="st0" d="M281.12,317.31l0.86,73.11H117.27c9.03-24.94,11.18-46.88,11.18-70.1V180.98c0-23.22-2.15-45.15-11.18-70.1
		h165.14l-1.72,71.82c-20.21-34.83-41.71-54.62-98.48-56.34h-6.02c-1.29,18.06-1.72,36.55-1.72,54.62v57.63h8.17
		c35.69,0,54.62-6.88,76.55-32.25v79.13c-21.93-23.22-40.85-31.39-76.55-31.39h-8.17v66.23c0,18.49,0.43,35.69,2.58,54.62h4.3
		C239.84,374.5,258.76,354.29,281.12,317.31z"/>
</g>
<g>
	<path class="st0" d="M456,336.68h-38.99l-24.89-75.5c-3.32-10.51-4.98-12.72-10.51-13.27l-18.81,26v17.7
		c0,14.93,1.11,29.04,7.19,45.08h-44.25c6.08-16.04,7.19-30.14,7.19-45.08V202c0-14.93-1.11-29.04-7.19-45.08h44.25
		c-6.08,16.04-7.19,30.14-7.19,45.08v59.74L401.8,202c11.06-16.87,14.93-29.59,14.93-45.08h36.51
		c-15.49,13.83-27.1,29.87-43.42,52.27l-22.95,31.53h12.44c9.4,0,19.64,0.55,22.95,9.68l19.08,56.42
		C444.94,317.87,449.36,327.83,456,336.68z"/>
</g>
</svg>
