<?xml version="1.0" encoding="utf-8"?>
<!-- Generator: Adobe Illustrator 23.1.1, SVG Export Plug-In . SVG Version: 6.00 Build 0)  -->
<svg version="1.1" id="Layer_1" xmlns="http://www.w3.org/2000/svg" xmlns:xlink="http://www.w3.org/1999/xlink" x="0px" y="0px"
	 viewBox="0 0 594.49 535.86" style="enable-background:new 0 0 594.49 535.86;" xml:space="preserve">
<style type="text/css">
	.st0{fill:#FFF6F6;stroke:#F05354;stroke-width:16;stroke-miterlimit:10;}
	.st1{fill:#F05354;}
</style>
<g>
	<path class="st0" d="M323,527.71c-130.88,3.39-348.48-52.1-310.65-227.87C26.79,232.77,66.81,171,109.69,118.54
		C145.61,74.58,190.97,26.9,247.9,12.32c58.25-14.92,115.45,10.92,162.17,44.46c64.86,46.57,119.07,110.98,152.4,182.79
		c29.93,64.48,37.72,143.01-10.83,201.39C497.22,506.42,402.71,525.65,323,527.71z"/>
</g>
<path class="st1" d="M312.53,152.57L312.53,152.57 M312.53,152.57l-1.56,65.09c-0.01,0.22-0.18,0.35-0.37,0.35
	c-0.12,0-0.24-0.06-0.32-0.18c-18.49-31.5-38.51-49.38-90.36-50.95h-5.56c-1.19,16.69-1.59,33.78-1.59,50.47v53.26h7.55
	c32.37,0,49.81-6.12,69.61-28.51c0.14-0.15,0.31-0.22,0.49-0.22c0.33,0,0.65,0.25,0.65,0.64v69.79c0,0.39-0.32,0.64-0.65,0.64
	c-0.17,0-0.33-0.06-0.47-0.2c-19.8-20.56-37.25-27.84-69.63-27.84h-7.55v61.21c0,17.09,0.4,32.99,2.38,50.47h3.97
	c53.47-0.39,71.16-18.68,91.54-52.16c0.07-0.12,0.19-0.18,0.31-0.18c0.18,0,0.36,0.13,0.37,0.36l0.78,66.29H159.92
	c8.35-23.05,10.33-43.32,10.33-64.78V217.36c0-21.46-1.99-41.73-10.33-64.78H312.53 M312.54,139.64L312.54,139.64H159.92
	c-4.22,0-8.17,2.06-10.59,5.51c-2.42,3.45-3.01,7.87-1.57,11.83c6.79,18.76,9.56,36.25,9.56,60.38v128.77
	c0,24.13-2.77,41.62-9.56,60.38c-1.44,3.97-0.85,8.38,1.57,11.83c2.42,3.45,6.37,5.51,10.59,5.51h152.22c3.46,0,6.77-1.38,9.2-3.84
	c2.43-2.46,3.78-5.79,3.73-9.25l-0.78-66.29c-0.09-7.25-6.05-13.14-13.3-13.14c-4.61,0-8.97,2.45-11.37,6.39
	c-17.77,29.2-31.32,43.87-72.72,45.75c-1.02-13.31-1.19-25.73-1.19-37.34v-48.19c25.05,0.71,38.44,6.69,54.92,23.8
	c2.55,2.65,6.12,4.17,9.79,4.17c7.49,0,13.59-6.09,13.59-13.58v-69.79c0-7.49-6.1-13.58-13.59-13.58c-3.89,0-7.6,1.67-10.18,4.59
	c-15.53,17.56-28.31,23.42-54.53,24.07v-40.25c0-13.59,0.27-25.88,0.82-37.21c19.02,1.23,33.2,5.08,44.24,11.97
	c10.41,6.49,18.89,16.14,28.36,32.27c2.38,4.05,6.77,6.57,11.47,6.57c7.28,0,13.13-5.7,13.3-12.98l1.55-64.83
	c0.01-0.19,0.01-0.38,0.01-0.56C325.47,145.43,319.68,139.64,312.54,139.64L312.54,139.64z M312.53,165.51L312.53,165.51
	L312.53,165.51L312.53,165.51z"/>
<path class="st1" d="M470.13,195.12c0.1,0,0.14,0.12,0.07,0.18c-14.21,12.74-24.91,27.52-39.92,48.12l-21.21,29.14h11.5
	c8.69,0,18.15,0.51,21.21,8.95l17.64,52.14c3.3,10.15,7.36,19.3,13.42,27.44c0.05,0.07,0,0.17-0.08,0.17h-35.83l-23-69.77
	c-3.07-9.71-4.6-11.76-9.71-12.27l-17.38,24.02v16.36c0,13.8,1.02,26.84,6.65,41.66h-40.89c5.62-14.82,6.65-27.86,6.65-41.66v-82.81
	c0-13.8-1.02-26.84-6.65-41.66h40.89c-5.62,14.82-6.65,27.86-6.65,41.66v55.21l36.04-55.21c10.22-15.59,13.8-27.35,13.8-41.66
	H470.13 M393.47,195.12L393.47,195.12 M470.13,182.18h-33.46c-7.15,0-12.94,5.79-12.94,12.94c0,10.34-1.95,19.73-11.68,34.57
	l-12.28,18.81v-11.72c0-12.96,0.97-24.18,5.68-36.75c0.62-1.51,0.96-3.17,0.96-4.91c0-7.15-5.79-12.94-12.94-12.94h0h-40.89
	c-4.25,0-8.23,2.09-10.65,5.59c-2.42,3.5-2.96,7.96-1.45,11.94c4.82,12.7,5.8,24,5.8,37.07v82.81c0,13.07-0.99,24.37-5.8,37.07
	c-1.51,3.98-0.97,8.44,1.45,11.94c2.42,3.5,6.4,5.59,10.65,5.59h40.89c4.25,0,8.23-2.09,10.65-5.59c2.42-3.5,2.96-7.96,1.45-11.94
	c-4.82-12.7-5.8-24-5.8-37.07v-12.17l3.98-5.5l20.89,63.37c1.75,5.3,6.7,8.89,12.29,8.89h35.83c4.96,0,9.43-2.76,11.66-7.19
	c2.23-4.44,1.77-9.67-1.2-13.65c-4.58-6.14-8.23-13.68-11.49-23.7c-0.02-0.05-0.03-0.1-0.05-0.15l-17.64-52.14
	c-0.03-0.09-0.06-0.18-0.1-0.28c-3.85-10.59-12.34-14.76-20.22-16.4l7.02-9.64l0.55-0.76c14.24-19.55,24.53-33.67,37.54-45.34
	c4-3.58,5.4-9.36,3.48-14.37C480.39,185.55,475.5,182.18,470.13,182.18L470.13,182.18z"/>
</svg>
