<?xml version="1.0" encoding="utf-8"?>
<!-- Generator: Adobe Illustrator 23.1.1, SVG Export Plug-In . SVG Version: 6.00 Build 0)  -->
<svg version="1.1" id="Layer_1" xmlns="http://www.w3.org/2000/svg" xmlns:xlink="http://www.w3.org/1999/xlink" x="0px" y="0px"
	 viewBox="0 0 930.4 368.31" style="enable-background:new 0 0 930.4 368.31;" xml:space="preserve">
<style type="text/css">
	.st0{fill:#F05354;}
</style>
<g>
	<path class="st0" d="M262.57,130.41l0.54,45.9H159.7c5.67-15.66,7.02-29.43,7.02-44.01V44.82c0-14.58-1.35-28.35-7.02-44.01h103.68
		L262.3,45.9c-12.69-21.87-26.19-34.29-61.83-35.37h-3.78c-0.81,11.34-1.08,22.95-1.08,34.29V81h5.13
		c22.41,0,34.29-4.32,48.06-20.25v49.68c-13.77-14.58-25.65-19.71-48.06-19.71h-5.13v41.58c0,11.61,0.27,22.41,1.62,34.29h2.7
		C236.65,166.32,248.53,153.63,262.57,130.41z"/>
	<path class="st0" d="M432.67,133.65c0,14.58,1.89,27,7.56,42.66h-41.04c5.67-15.66,7.29-28.08,7.56-42.66V40.23l-44.82,136.08
		h-14.85L301.45,39.96v93.69c0,14.58,1.62,27,7.29,42.66h-25.65c5.4-15.66,7.29-28.08,7.29-42.66V35.37c0-13.5-1.35-24.3-7.29-34.56
		h47.79c-1.89,2.7-2.7,7.56-2.7,12.96c0,8.37,1.89,18.63,4.86,27.54l30.51,96.12l30.24-96.12c2.7-8.64,4.59-18.9,4.59-27.27
		c0-5.67-0.81-10.53-2.97-13.23h44.82c-6.48,10.26-7.56,20.79-7.56,34.56V133.65z"/>
	<path class="st0" d="M610.87,133.65c0,14.58,1.89,27,7.56,42.66h-41.04c5.67-15.66,7.29-28.08,7.56-42.66V40.23l-44.82,136.08
		h-14.85L479.65,39.96v93.69c0,14.58,1.62,27,7.29,42.66h-25.65c5.4-15.66,7.29-28.08,7.29-42.66V35.37c0-13.5-1.35-24.3-7.29-34.56
		h47.79c-1.89,2.7-2.7,7.56-2.7,12.96c0,8.37,1.89,18.63,4.86,27.54l30.51,96.12l30.24-96.12c2.7-8.64,4.59-18.9,4.59-27.27
		c0-5.67-0.81-10.53-2.97-13.23h44.82c-6.48,10.26-7.56,20.79-7.56,34.56V133.65z"/>
	<path class="st0" d="M718.86,176.31c1.62-3.78,2.7-10.8,2.7-18.63c0-7.02-0.81-14.85-2.7-21.87l-4.59-16.2h-46.71l-4.86,16.2
		c-2.16,6.75-3.24,14.31-3.24,21.33c0,8.1,1.35,15.12,3.78,19.17h-33.21c8.91-10.53,14.58-23.22,20.52-41.85L693.21,0h14.58
		l42.66,134.46c5.94,17.82,11.07,31.32,19.44,41.85H718.86z M711.84,110.97l-20.79-72.09l-21.06,72.09H711.84z"/>
	<path class="st0" d="M127.17,368.31H89.1L64.8,294.6c-3.24-10.26-4.86-12.42-10.26-12.96l-18.36,25.38v17.28
		c0,14.58,1.08,28.35,7.02,44.01H0c5.94-15.66,7.02-29.43,7.02-44.01v-87.48c0-14.58-1.08-28.35-7.02-44.01h43.2
		c-5.94,15.66-7.02,29.43-7.02,44.01v58.32l38.07-58.32c10.8-16.47,14.58-28.89,14.58-44.01h35.64
		c-15.12,13.5-26.46,29.16-42.39,51.03l-22.41,30.78h12.15c9.18,0,19.17,0.54,22.41,9.45l18.63,55.08
		C116.37,349.95,120.69,359.67,127.17,368.31z"/>
	<path class="st0" d="M241.65,322.41l0.54,45.9H138.78c5.67-15.66,7.02-29.43,7.02-44.01v-87.48c0-14.58-1.35-28.35-7.02-44.01
		h103.68l-1.08,45.09c-12.69-21.87-26.19-34.29-61.83-35.37h-3.78c-0.81,11.34-1.08,22.95-1.08,34.29V273h5.13
		c22.41,0,34.29-4.32,48.06-20.25v49.68c-13.77-14.58-25.65-19.71-48.06-19.71h-5.13v41.58c0,11.61,0.27,22.41,1.62,34.29h2.7
		C215.73,358.32,227.61,345.63,241.65,322.41z"/>
	<path class="st0" d="M341.01,368.31c1.62-3.78,2.7-10.8,2.7-18.63c0-7.02-0.81-14.85-2.7-21.87l-4.59-16.2h-46.71l-4.86,16.2
		c-2.16,6.75-3.24,14.31-3.24,21.33c0,8.1,1.35,15.12,3.78,19.17h-33.21c8.91-10.53,14.58-23.22,20.52-41.85L315.36,192h14.58
		l42.66,134.46c5.94,17.82,11.07,31.32,19.44,41.85H341.01z M333.99,302.97l-20.79-72.09l-21.06,72.09H333.99z"/>
	<path class="st0" d="M528.11,368.31h-38.07l-18.36-59.4c-3.51-12.69-7.56-15.12-13.23-15.12h-18.63v30.51
		c0,14.58,1.89,28.35,7.29,44.01h-43.47c5.94-15.66,7.02-29.43,7.02-44.01v-87.48c0-14.58-1.08-28.35-7.02-44.01h55.89
		c26.19,0,56.7,8.91,56.7,48.33c0,22.68-13.77,38.07-28.35,45.36c8.37,1.89,11.88,7.29,15.39,18.9l11.34,36.45
		C517.58,352.11,521.9,359.4,528.11,368.31z M485.45,246c0-28.89-11.88-44.01-33.48-44.01c-3.78,0-7.56,0-11.34,0.27
		c-0.54,11.88-0.81,22.95-0.81,34.56v48.06h10.53C471.14,284.88,485.45,276.78,485.45,246z"/>
	<path class="st0" d="M662.84,192.81c-5.67,15.66-7.83,27.81-7.83,42.39v133.11h-19.17l-75.33-129.6v86.94
		c0,14.58,1.89,27,7.29,42.66h-26.73c5.4-15.66,7.56-28.08,7.56-42.66v-95.04c0-13.5-1.89-27.54-7.56-37.8h38.07
		c-1.35,2.7-2.16,5.4-2.16,7.83c0,5.4,2.7,10.53,7.02,17.82l58.86,102.6V235.2c0-14.58-1.62-26.73-7.29-42.39H662.84z"/>
	<path class="st0" d="M786.5,322.41l0.54,45.9H683.63c5.67-15.66,7.02-29.43,7.02-44.01v-87.48c0-14.58-1.35-28.35-7.02-44.01
		h103.68l-1.08,45.09c-12.69-21.87-26.19-34.29-61.83-35.37h-3.78c-0.81,11.34-1.08,22.95-1.08,34.29V273h5.13
		c22.41,0,34.29-4.32,48.06-20.25v49.68c-13.77-14.58-25.65-19.71-48.06-19.71h-5.13v41.58c0,11.61,0.27,22.41,1.62,34.29h2.7
		C760.58,358.32,772.46,345.63,786.5,322.41z"/>
	<path class="st0" d="M930.4,192.81c-7.83,6.21-18.09,21.33-23.76,33.21l-30.51,66.15v32.13c0,14.58,1.35,28.35,7.29,44.01h-43.2
		c5.67-15.66,7.02-29.43,7.02-44.01v-32.13l-30.78-64.8c-5.67-12.15-14.58-28.35-22.14-34.56h50.22c-1.62,2.97-2.16,6.21-2.16,9.99
		c0,5.94,2.16,13.23,5.4,21.33l24.03,55.35l22.41-54c3.78-8.91,5.67-17.01,5.67-22.95c0-4.05-1.08-7.29-2.43-9.72H930.4z"/>
</g>
</svg>
