<?xml version="1.0" encoding="utf-8"?>
<!-- Generator: Adobe Illustrator 23.1.1, SVG Export Plug-In . SVG Version: 6.00 Build 0)  -->
<svg version="1.1" id="Layer_1" xmlns="http://www.w3.org/2000/svg" xmlns:xlink="http://www.w3.org/1999/xlink" x="0px" y="0px"
	 viewBox="0 0 1623.7 176.31" style="enable-background:new 0 0 1623.7 176.31;" xml:space="preserve">
<style type="text/css">
	.st0{fill:#F05354;}
</style>
<g>
	<path class="st0" d="M102.87,130.41l0.54,45.9H0c5.67-15.66,7.02-29.43,7.02-44.01V44.82C7.02,30.24,5.67,16.47,0,0.81h103.68
		L102.6,45.9C89.91,24.03,76.41,11.61,40.77,10.53h-3.78c-0.81,11.34-1.08,22.95-1.08,34.29V81h5.13c22.41,0,34.29-4.32,48.06-20.25
		v49.68C75.33,95.85,63.45,90.72,41.04,90.72h-5.13v41.58c0,11.61,0.27,22.41,1.62,34.29h2.7
		C76.95,166.32,88.83,153.63,102.87,130.41z"/>
	<path class="st0" d="M272.97,133.65c0,14.58,1.89,27,7.56,42.66h-41.04c5.67-15.66,7.29-28.08,7.56-42.66V40.23l-44.82,136.08
		h-14.85L141.75,39.96v93.69c0,14.58,1.62,27,7.29,42.66h-25.65c5.4-15.66,7.29-28.08,7.29-42.66V35.37c0-13.5-1.35-24.3-7.29-34.56
		h47.79c-1.89,2.7-2.7,7.56-2.7,12.96c0,8.37,1.89,18.63,4.86,27.54l30.51,96.12l30.24-96.12c2.7-8.64,4.59-18.9,4.59-27.27
		c0-5.67-0.81-10.53-2.97-13.23h44.82c-6.48,10.26-7.56,20.79-7.56,34.56V133.65z"/>
	<path class="st0" d="M451.17,133.65c0,14.58,1.89,27,7.56,42.66h-41.04c5.67-15.66,7.29-28.08,7.56-42.66V40.23l-44.82,136.08
		h-14.85L319.95,39.96v93.69c0,14.58,1.62,27,7.29,42.66h-25.65c5.4-15.66,7.29-28.08,7.29-42.66V35.37c0-13.5-1.35-24.3-7.29-34.56
		h47.79c-1.89,2.7-2.7,7.56-2.7,12.96c0,8.37,1.89,18.63,4.86,27.54l30.51,96.12l30.24-96.12c2.7-8.64,4.59-18.9,4.59-27.27
		c0-5.67-0.81-10.53-2.97-13.23h44.82c-6.48,10.26-7.56,20.79-7.56,34.56L451.17,133.65L451.17,133.65z"/>
	<path class="st0" d="M559.16,176.31c1.62-3.78,2.7-10.8,2.7-18.63c0-7.02-0.81-14.85-2.7-21.87l-4.59-16.2h-46.71l-4.86,16.2
		c-2.16,6.75-3.24,14.31-3.24,21.33c0,8.1,1.35,15.12,3.78,19.17h-33.21c8.91-10.53,14.58-23.22,20.52-41.85L533.51,0h14.58
		l42.66,134.46c5.94,17.82,11.07,31.32,19.44,41.85H559.16z M552.14,110.97l-20.79-72.09l-21.06,72.09H552.14z"/>
</g>
<g>
	<path class="st0" d="M820.47,176.31H782.4l-24.3-73.71c-3.24-10.26-4.86-12.42-10.26-12.96l-18.36,25.38v17.28
		c0,14.58,1.08,28.35,7.02,44.01h-43.2c5.94-15.66,7.02-29.43,7.02-44.01V44.82c0-14.58-1.08-28.35-7.02-44.01h43.2
		c-5.94,15.66-7.02,29.43-7.02,44.01v58.32l38.07-58.32c10.8-16.47,14.58-28.89,14.58-44.01h35.64
		c-15.12,13.5-26.46,29.16-42.39,51.03l-22.41,30.78h12.15c9.18,0,19.17,0.54,22.41,9.45l18.63,55.08
		C809.67,157.95,813.99,167.67,820.47,176.31z"/>
	<path class="st0" d="M934.95,130.41l0.54,45.9H832.08c5.67-15.66,7.02-29.43,7.02-44.01V44.82c0-14.58-1.35-28.35-7.02-44.01
		h103.68l-1.08,45.09c-12.69-21.87-26.19-34.29-61.83-35.37h-3.78c-0.81,11.34-1.08,22.95-1.08,34.29V81h5.13
		c22.41,0,34.29-4.32,48.06-20.25v49.68c-13.77-14.58-25.65-19.71-48.06-19.71h-5.13v41.58c0,11.61,0.27,22.41,1.62,34.29h2.7
		C909.03,166.32,920.91,153.63,934.95,130.41z"/>
	<path class="st0" d="M1034.31,176.31c1.62-3.78,2.7-10.8,2.7-18.63c0-7.02-0.81-14.85-2.7-21.87l-4.59-16.2h-46.71l-4.86,16.2
		c-2.16,6.75-3.24,14.31-3.24,21.33c0,8.1,1.35,15.12,3.78,19.17h-33.21c8.91-10.53,14.58-23.22,20.52-41.85L1008.66,0h14.58
		l42.66,134.46c5.94,17.82,11.07,31.32,19.44,41.85L1034.31,176.31L1034.31,176.31z M1027.29,110.97l-20.79-72.09l-21.06,72.09
		H1027.29z"/>
	<path class="st0" d="M1221.41,176.31h-38.07l-18.36-59.4c-3.51-12.69-7.56-15.12-13.23-15.12h-18.63v30.51
		c0,14.58,1.89,28.35,7.29,44.01h-43.47c5.94-15.66,7.02-29.43,7.02-44.01V44.82c0-14.58-1.08-28.35-7.02-44.01h55.89
		c26.19,0,56.7,8.91,56.7,48.33c0,22.68-13.77,38.07-28.35,45.36c8.37,1.89,11.88,7.29,15.39,18.9l11.34,36.45
		C1210.88,160.11,1215.2,167.4,1221.41,176.31z M1178.75,54c0-28.89-11.88-44.01-33.48-44.01c-3.78,0-7.56,0-11.34,0.27
		c-0.54,11.88-0.81,22.95-0.81,34.56v48.06h10.53C1164.44,92.88,1178.75,84.78,1178.75,54z"/>
	<path class="st0" d="M1356.14,0.81c-5.67,15.66-7.83,27.81-7.83,42.39v133.11h-19.17l-75.33-129.6v86.94
		c0,14.58,1.89,27,7.29,42.66h-26.73c5.4-15.66,7.56-28.08,7.56-42.66V38.61c0-13.5-1.89-27.54-7.56-37.8h38.07
		c-1.35,2.7-2.16,5.4-2.16,7.83c0,5.4,2.7,10.53,7.02,17.82l58.86,102.6V43.2c0-14.58-1.62-26.73-7.29-42.39H1356.14z"/>
	<path class="st0" d="M1479.8,130.41l0.54,45.9h-103.41c5.67-15.66,7.02-29.43,7.02-44.01V44.82c0-14.58-1.35-28.35-7.02-44.01
		h103.68l-1.08,45.09c-12.69-21.87-26.19-34.29-61.83-35.37h-3.78c-0.81,11.34-1.08,22.95-1.08,34.29V81h5.13
		c22.41,0,34.29-4.32,48.06-20.25v49.68c-13.77-14.58-25.65-19.71-48.06-19.71h-5.13v41.58c0,11.61,0.27,22.41,1.62,34.29h2.7
		C1453.88,166.32,1465.76,153.63,1479.8,130.41z"/>
	<path class="st0" d="M1623.7,0.81c-7.83,6.21-18.09,21.33-23.76,33.21l-30.51,66.15v32.13c0,14.58,1.35,28.35,7.29,44.01h-43.2
		c5.67-15.66,7.02-29.43,7.02-44.01v-32.13l-30.78-64.8c-5.67-12.15-14.58-28.35-22.14-34.56h50.22c-1.62,2.97-2.16,6.21-2.16,9.99
		c0,5.94,2.16,13.23,5.4,21.33l24.03,55.35l22.41-54c3.78-8.91,5.67-17.01,5.67-22.95c0-4.05-1.08-7.29-2.43-9.72L1623.7,0.81
		L1623.7,0.81z"/>
</g>
</svg>
