<?xml version="1.0" encoding="utf-8"?>
<!-- Generator: Adobe Illustrator 23.1.1, SVG Export Plug-In . SVG Version: 6.00 Build 0)  -->
<svg version="1.1" id="Layer_1" xmlns="http://www.w3.org/2000/svg" xmlns:xlink="http://www.w3.org/1999/xlink" x="0px" y="0px"
	 viewBox="0 0 209.52 209.52" style="enable-background:new 0 0 209.52 209.52;" xml:space="preserve">
<style type="text/css">
	.st0{fill:#F05354;}
</style>
<g>
	<path class="st0" d="M104.4,208.77c-8.02,0-15.57-3.12-21.24-8.8c-5.37-5.37-8.47-12.53-8.75-20.16c-0.01-0.29-0.19-0.55-0.46-0.67
		c-0.09-0.04-0.19-0.06-0.29-0.06c-0.19,0-0.37,0.07-0.51,0.2c-5.59,5.2-12.85,8.07-20.44,8.07c-16.56,0-30.04-13.48-30.04-30.04
		c0-7.83,3.01-15.25,8.48-20.89c0.21-0.22,0.27-0.54,0.15-0.81c-0.12-0.28-0.39-0.46-0.69-0.46c-7.97-0.04-15.45-3.17-21.07-8.79
		c-11.71-11.71-11.71-30.77,0-42.48c5.66-5.66,13.2-8.78,21.24-8.78c0.19,0,0.58,0.01,0.58,0.01c0.3,0,0.58-0.18,0.69-0.46
		c0.12-0.29,0.05-0.61-0.17-0.83c-5.94-5.73-9.22-13.4-9.22-21.62c0-16.56,13.48-30.04,30.04-30.04c7.95,0,15.45,3.08,21.12,8.69
		c0.14,0.14,0.33,0.22,0.53,0.22c0.1,0,0.19-0.02,0.28-0.06c0.28-0.11,0.46-0.38,0.47-0.68c0.12-7.86,3.24-15.24,8.78-20.77
		c5.67-5.67,13.22-8.8,21.24-8.8c8.02,0,15.57,3.12,21.24,8.8c5.37,5.37,8.47,12.52,8.75,20.16c0.01,0.29,0.19,0.55,0.46,0.67
		c0.09,0.04,0.19,0.06,0.29,0.06c0.19,0,0.37-0.07,0.51-0.2c5.59-5.2,12.85-8.07,20.44-8.07c16.56,0,30.04,13.48,30.04,30.04
		c0,7.83-3.01,15.25-8.48,20.9c-0.21,0.22-0.27,0.54-0.15,0.81c0.12,0.28,0.39,0.46,0.69,0.46c7.96,0.04,15.45,3.17,21.07,8.79
		c11.71,11.71,11.71,30.77,0,42.48c-5.66,5.66-13.2,8.78-21.23,8.78c0,0-0.58-0.01-0.59-0.01c-0.3,0-0.58,0.18-0.69,0.46
		c-0.12,0.29-0.05,0.61,0.17,0.83c5.94,5.73,9.22,13.4,9.22,21.62c0,16.56-13.48,30.04-30.04,30.04c-7.95,0-15.45-3.08-21.12-8.68
		c-0.14-0.14-0.33-0.22-0.53-0.22c-0.1,0-0.19,0.02-0.28,0.06c-0.28,0.11-0.46,0.38-0.47,0.68c-0.12,7.86-3.24,15.24-8.78,20.77
		C119.97,205.65,112.42,208.77,104.4,208.77z"/>
	<path d="M105.12,1.5c7.82,0,15.18,3.05,20.71,8.58c5.23,5.23,8.26,12.21,8.53,19.65c0.02,0.59,0.38,1.11,0.92,1.33
		c0.19,0.08,0.38,0.11,0.57,0.11c0.37,0,0.74-0.14,1.02-0.4c5.45-5.07,12.53-7.87,19.93-7.87c16.15,0,29.29,13.14,29.29,29.29
		c0,7.64-2.94,14.87-8.27,20.37c-0.42,0.43-0.54,1.07-0.31,1.62c0.23,0.55,0.77,0.92,1.37,0.92c7.77,0.04,15.06,3.09,20.55,8.57
		c11.42,11.42,11.42,30,0,41.42c-5.52,5.52-12.87,8.56-20.71,8.56c-0.18,0-0.37,0-0.55-0.01c-0.01,0-0.02,0-0.03,0
		c-0.61,0-1.15,0.36-1.39,0.93c-0.24,0.57-0.1,1.23,0.35,1.65c5.8,5.58,8.99,13.07,8.99,21.08c0,16.15-13.14,29.29-29.29,29.29
		c-7.75,0-15.07-3.01-20.59-8.47c-0.29-0.28-0.67-0.43-1.06-0.43c-0.19,0-0.38,0.04-0.57,0.11c-0.56,0.23-0.92,0.76-0.93,1.37
		c-0.12,7.66-3.16,14.86-8.56,20.26c-5.53,5.53-12.89,8.58-20.71,8.58c-7.82,0-15.18-3.05-20.71-8.58
		c-5.23-5.23-8.26-12.21-8.53-19.65c-0.02-0.59-0.38-1.11-0.92-1.33c-0.19-0.08-0.38-0.11-0.57-0.11c-0.37,0-0.74,0.14-1.02,0.4
		c-5.45,5.07-12.53,7.87-19.93,7.87c-16.15,0-29.29-13.14-29.29-29.29c0-7.64,2.94-14.87,8.27-20.37c0.42-0.43,0.54-1.07,0.31-1.62
		s-0.77-0.92-1.37-0.92c-7.77-0.04-15.06-3.09-20.55-8.57c-11.42-11.42-11.42-30,0-41.42c5.52-5.52,12.87-8.56,20.71-8.56
		c0.18,0,0.37,0,0.55,0.01c0.01,0,0.02,0,0.03,0c0.61,0,1.15-0.36,1.39-0.93c0.24-0.57,0.1-1.23-0.35-1.65
		c-5.8-5.58-8.99-13.07-8.99-21.08c0-16.15,13.14-29.29,29.29-29.29c7.75,0,15.07,3.01,20.59,8.47c0.29,0.28,0.67,0.43,1.06,0.43
		c0.19,0,0.38-0.04,0.57-0.11c0.56-0.23,0.92-0.76,0.93-1.37c0.12-7.66,3.16-14.86,8.56-20.26C89.95,4.55,97.3,1.5,105.12,1.5
		 M105.12,0c-7.88,0-15.76,3.01-21.77,9.02c-5.89,5.89-8.88,13.57-9,21.29c-5.56-5.5-13.2-8.9-21.64-8.9
		c-17.01,0-30.79,13.79-30.79,30.79c0,8.71,3.63,16.56,9.45,22.16c-0.19,0-0.39-0.01-0.58-0.01c-7.88,0-15.76,2.98-21.77,9
		c-12.02,12.02-12.02,31.52,0,43.54c5.97,5.97,13.78,8.97,21.6,9.01c-5.37,5.54-8.7,13.09-8.7,21.42
		c0,17.01,13.79,30.79,30.79,30.79c8.1,0,15.45-3.15,20.95-8.27c0.27,7.51,3.24,14.93,8.97,20.66c6.01,6.01,13.89,9.02,21.77,9.02
		s15.76-3.01,21.77-9.02c5.89-5.89,8.88-13.57,9-21.29c5.56,5.5,13.2,8.9,21.64,8.9c17.01,0,30.79-13.79,30.79-30.79
		c0-8.71-3.63-16.56-9.45-22.16c0.19,0,0.39,0.01,0.58,0.01c7.88,0,15.76-2.98,21.77-9c12.02-12.02,12.02-31.52,0-43.54
		c-5.97-5.97-13.78-8.97-21.6-9.01c5.37-5.54,8.7-13.09,8.7-21.42c0-17.01-13.79-30.79-30.79-30.79c-8.1,0-15.45,3.15-20.95,8.27
		c-0.27-7.51-3.24-14.93-8.97-20.66C120.88,3.01,113,0,105.12,0L105.12,0z"/>
</g>
</svg>
