<?xml version="1.0" encoding="utf-8"?>
<!-- Generator: Adobe Illustrator 23.1.1, SVG Export Plug-In . SVG Version: 6.00 Build 0)  -->
<svg version="1.1" id="Layer_1" xmlns="http://www.w3.org/2000/svg" xmlns:xlink="http://www.w3.org/1999/xlink" x="0px" y="0px"
	 viewBox="0 0 233.48 233.52" style="enable-background:new 0 0 233.48 233.52;" xml:space="preserve">
<style type="text/css">
	.st0{fill:#F1DFDF;}
	.st1{fill:none;stroke:#000000;stroke-width:12;stroke-linecap:square;stroke-miterlimit:10;}
</style>
<g>
	<path class="st0" d="M116.38,227.52c-9.83,0-19.07-3.83-26.02-10.78c-4.15-4.15-7.2-9.17-8.96-14.66
		c-5.13,2.63-10.84,4.03-16.71,4.03c-20.29,0-36.79-16.5-36.79-36.79c0-6,1.44-11.8,4.16-16.99c-5.72-1.73-10.97-4.85-15.3-9.19
		c-14.34-14.34-14.34-37.68,0-52.03c4.42-4.42,9.78-7.58,15.63-9.28c-2.93-5.34-4.49-11.35-4.49-17.63
		c0-20.29,16.5-36.79,36.79-36.79c6.14,0,12.05,1.5,17.32,4.32c1.75-5.59,4.83-10.71,9.07-14.95C98.04,9.83,107.28,6,117.1,6
		s19.07,3.83,26.02,10.78c4.15,4.15,7.2,9.17,8.96,14.66c5.13-2.63,10.84-4.03,16.71-4.03c20.29,0,36.79,16.5,36.79,36.79
		c0,6-1.44,11.8-4.16,16.99c5.72,1.73,10.97,4.85,15.3,9.19c14.35,14.34,14.35,37.69,0,52.03c-4.42,4.42-9.78,7.58-15.63,9.28
		c2.93,5.34,4.49,11.35,4.49,17.63c0,20.29-16.5,36.79-36.79,36.79c-6.14,0-12.05-1.5-17.32-4.32c-1.75,5.59-4.83,10.71-9.07,14.96
		C135.45,223.7,126.21,227.52,116.38,227.52z"/>
	<path d="M117.1,12c7.88,0,15.76,3.01,21.77,9.02c5.73,5.73,8.7,13.16,8.97,20.66c5.5-5.12,12.85-8.27,20.95-8.27
		c17.01,0,30.79,13.79,30.79,30.79c0,8.33-3.32,15.87-8.7,21.42c7.82,0.04,15.63,3.04,21.6,9.01c12.02,12.02,12.02,31.52,0,43.54
		c-6.01,6.01-13.89,9-21.77,9c-0.19,0-0.39,0-0.58-0.01c5.81,5.6,9.45,13.45,9.45,22.16c0,17.01-13.79,30.79-30.79,30.79
		c-8.44,0-16.08-3.4-21.64-8.9c-0.12,7.72-3.11,15.4-9,21.29c-6.01,6.01-13.89,9.02-21.77,9.02s-15.76-3.01-21.77-9.02
		c-5.73-5.73-8.7-13.16-8.97-20.66c-5.5,5.12-12.85,8.27-20.95,8.27c-17.01,0-30.79-13.79-30.79-30.79c0-8.33,3.32-15.87,8.7-21.42
		c-7.82-0.04-15.63-3.04-21.6-9.01c-12.02-12.02-12.02-31.52,0-43.54c6.01-6.01,13.89-9,21.77-9c0.19,0,0.39,0,0.58,0.01
		c-5.81-5.6-9.45-13.45-9.45-22.16c0-17.01,13.79-30.79,30.79-30.79c8.44,0,16.08,3.4,21.64,8.9c0.12-7.72,3.11-15.4,9-21.29
		C101.34,15.01,109.22,12,117.1,12 M117.1,0c-11.43,0-22.18,4.45-30.26,12.53c-3.33,3.33-6.04,7.12-8.08,11.24
		c-4.47-1.55-9.21-2.36-14.07-2.36c-23.59,0-42.79,19.2-42.79,42.79c0,4.95,0.83,9.77,2.44,14.29c-4.34,2.07-8.33,4.88-11.82,8.37
		c-16.68,16.68-16.68,43.83,0,60.52c3.44,3.44,7.36,6.22,11.62,8.28c-1.47,4.35-2.23,8.95-2.23,13.66
		c0,23.59,19.2,42.79,42.79,42.79c4.62,0,9.15-0.74,13.45-2.17c2.03,4.05,4.71,7.78,7.98,11.05c8.08,8.08,18.83,12.53,30.26,12.53
		c11.43,0,22.18-4.45,30.26-12.53c3.33-3.33,6.04-7.12,8.08-11.24c4.47,1.55,9.21,2.36,14.07,2.36c23.59,0,42.79-19.2,42.79-42.79
		c0-4.95-0.83-9.77-2.44-14.29c4.34-2.07,8.33-4.88,11.82-8.37c16.68-16.68,16.68-43.83,0-60.52c-3.44-3.44-7.36-6.22-11.62-8.28
		c1.47-4.35,2.23-8.95,2.23-13.66c0-23.59-19.2-42.79-42.79-42.79c-4.62,0-9.15,0.74-13.45,2.17c-2.03-4.05-4.71-7.78-7.98-11.05
		C139.28,4.45,128.53,0,117.1,0L117.1,0z"/>
</g>
<polyline class="st1" points="160.72,119.88 116.74,163.86 72.76,119.88 "/>
<polyline class="st1" points="160.72,85.89 116.74,129.87 72.76,85.89 "/>
</svg>
