<?xml version="1.0" encoding="utf-8"?>
<!-- Generator: Adobe Illustrator 23.1.1, SVG Export Plug-In . SVG Version: 6.00 Build 0)  -->
<svg version="1.1" id="Layer_1" xmlns="http://www.w3.org/2000/svg" xmlns:xlink="http://www.w3.org/1999/xlink" x="0px" y="0px"
	 viewBox="0 0 451.2 453.5" style="enable-background:new 0 0 451.2 453.5;" xml:space="preserve">
<style type="text/css">
	.st0{fill:#0068FF;}
</style>
<g>
	<path class="st0" d="M328.3,32.4c0.2-5-2.6-9.6-7-11.9C295.7,7.4,266.7,0,236,0h-0.1c-4.9,0-9.4,2.9-11.5,7.4
		c-1.4,3.1-2.6,6.4-3.5,9.9c-8.2,33-2.3,120,2.1,170.9c1.1-0.1,2.1-0.1,3.2-0.1c7.6,0,14.6,2.1,20.7,5.8
		c27.2-44.9,73-122.9,79.8-150.4c0.1-0.3,0.1-0.5,0.2-0.8l0,0l0,0C327.7,39.2,328.1,35.8,328.3,32.4z"/>
</g>
<g>
	<path class="st0" d="M435.6,145c-8.6-24.1-22.1-45.9-39.2-64.3c-6.7-7.2-17.5-8.9-25.9-3.9c-0.1,0.1-0.2,0.1-0.3,0.2
		c-29,17.5-86,81.7-118.7,120.2c6.4,5.3,11.1,12.7,13.1,21.1c50.8-11.8,137.6-33.3,161.8-47.9c0.2-0.1,0.5-0.3,0.7-0.4l0,0l0,0
		l0.1-0.1C435.5,164.6,438.9,154.2,435.6,145z"/>
</g>
<g>
	<path class="st0" d="M445.8,226.8c-4.2-2.4-8.8-4.2-13.7-5.5c-32.7-8.2-116.9-2.6-166.7,1.7c0.2,1.4,0.3,2.9,0.3,4.4
		c0,7.5-2.1,14.4-5.7,20.4c43.8,27.4,118.5,72.4,145.7,79.2c0.3,0.1,0.5,0.1,0.8,0.2l0,0l0,0c4.8,1.1,9.6,1.6,14.3,1.4
		c3.8-0.1,7.2-2.3,9-5.6c13.6-26,21.4-55.6,21.4-87c0,0,0,0,0-0.1C451.2,232.2,449.1,228.7,445.8,226.8z"/>
</g>
<g>
	<path class="st0" d="M377.1,371.8c0-0.1-0.1-0.1-0.1-0.2c-17.4-29-81.4-86.2-120.1-119.5c-5.4,6.6-12.8,11.5-21.3,13.5
		c12,51.3,33.6,137.9,48,162c0.1,0.2,0.3,0.5,0.4,0.7l0,0l0,0c0.1,0.1,0.1,0.2,0.2,0.3c5.9,9.4,17.7,13.3,28.1,9.4
		c22.4-8.4,42.8-21,60.2-36.9C380.8,393.7,382.8,381.4,377.1,371.8z"/>
</g>
<g>
	<path class="st0" d="M226.3,266.8c-7.8,0-15.1-2.3-21.2-6.2c-28,44.5-74.1,120.1-80.9,147.3c-0.1,0.3-0.1,0.5-0.2,0.8l0,0l0,0
		c-1.2,5.3-1.6,10.6-1.3,15.7c0.1,2.1,1.4,4,3.2,5.1c27.1,15.2,58.3,23.9,91.6,23.9l0,0c2.1,0,4.1-1.1,5.3-2.8
		c3.2-4.9,5.6-10.4,7.1-16.4c8.1-32.6,3.7-117.1,0.1-167.6C228.8,266.8,227.5,266.8,226.3,266.8z"/>
</g>
<g>
	<path class="st0" d="M187.6,235.1c-52.2,11.5-140.9,32.5-165.1,47c-0.2,0.1-0.5,0.3-0.7,0.4l0,0l0,0c-0.1,0-0.1,0.1-0.1,0.1
		c-8.3,5.2-11.9,15.6-8.8,25c7.9,24,20.6,45.8,36.9,64.4c6.6,7.6,17.6,9.6,26.5,4.8c0.8-0.4,1.6-0.9,2.4-1.4
		c28.8-17.3,87.3-80.3,121.5-118.6C193.8,251.3,189.3,243.7,187.6,235.1z"/>
</g>
<g>
	<path class="st0" d="M186.9,227.4c0-7.8,2.3-15,6.1-21.1c-45.5-27.2-124.1-72.6-151.5-79.5c-0.3-0.1-0.5-0.1-0.8-0.2l0,0l0,0
		c-2.5-0.6-5-1-7.5-1.2c-5-0.5-9.8,2.2-12.1,6.7C7.6,158,0,187.4,0,218.6v0.1c0,5,3,9.5,7.7,11.4c2.3,1,4.8,1.8,7.3,2.4
		c32.8,8.3,120.4,2.5,172-2C186.9,229.5,186.9,228.5,186.9,227.4z"/>
</g>
<g>
	<path class="st0" d="M217,189.1c-13.6-51.2-38.3-139.3-52.8-163.6c-0.1-0.2-0.3-0.5-0.4-0.7l0,0l0,0c-0.3-0.6-0.7-1.1-1.1-1.7
		c-4.8-7.2-14.1-10.1-22.3-7.1c-25.2,9.2-47.8,23.7-66.6,42.1c-6.2,6.1-7.6,15.7-3.1,23.2l0.1,0.1C88.3,110.6,156,168.8,196.3,202
		C201.5,195.7,208.7,191.1,217,189.1z"/>
</g>
</svg>
