<?xml version="1.0" encoding="utf-8"?>
<!-- Generator: Adobe Illustrator 23.1.1, SVG Export Plug-In . SVG Version: 6.00 Build 0)  -->
<svg version="1.1" id="Layer_1" xmlns="http://www.w3.org/2000/svg" xmlns:xlink="http://www.w3.org/1999/xlink" x="0px" y="0px"
	 viewBox="0 0 391.7 246.4" style="enable-background:new 0 0 391.7 246.4;" xml:space="preserve">
<style type="text/css">
	.st0{fill:none;stroke:#FFC200;stroke-width:7;stroke-miterlimit:10;}
</style>
<path class="st0" d="M308,204.6c-20.2-58.8-45.9-78.8-66.9-85.5c-29.3-9.3-56.4-9.9-76.9-18.2c-1-0.4-4.5-4.4-1.5-7.1
	c10.1-8.9,36-7.1,36.1-9.1c0.2-2.3-32.3-10.9-53.8-21.8c0,0-9.7-4.6-5.2-8.6c3.4-3,8.9-0.3,12.6,0.8c37.4,10.8,44.6,12.5,44.9,11.7
	c0.8-1.9-35.2-14.3-54.9-24.4c-1.3-0.7-9.3-3.8-7-9.3c1.1-2.8,7.8-0.2,10.8,0.1c1.1,0.1,2.1,0.2,3.7,0.5c7.1,1.5,48,15.9,48.7,14.3
	c0.8-1.9-35.6-18.8-48.6-24c-4.1-1.7-3.6-5.1-1.5-7.1c2.2-2,7.9,0.9,10,1.9c21.4,10.6,52.6,19,53.4,17.4c0.6-1.2-21.3-13-31-21.2
	c-2-1.7-2.8-4.1-3.1-5.8c-0.3-1.7,0.3-3.5,1.8-4.5c1.9-1.3,4.5-1.4,5.8-0.9c44.7,18.5,86.8,36.6,104.3,44.3c6,2.6,11.6,6,16.6,10.2
	c40.9,34.5,60.1,69.7,65.2,79.4c8,15.3,13.2,28.9,16.5,39.1"/>
<path class="st0" d="M86.7,28.1c12.8,60.9,35.9,83.8,55.9,93c27.9,12.8,54.8,16.8,74.1,27.5c1,0.5,4,4.9,0.6,7.2
	c-11.1,7.6-36.6,2.7-36.9,4.6c-0.4,2.3,30.7,14.8,50.7,28.2c0,0,9,5.8,4.1,9.1c-3.7,2.5-8.9-0.8-12.4-2.3
	c-35.8-15.3-42.7-17.9-43.2-17.1c-1,1.7,33.2,18.5,51.5,30.9c1.2,0.8,8.7,4.9,5.8,10.1c-1.5,2.6-7.8-0.8-10.7-1.4
	c-1.1-0.2-2.1-0.4-3.6-0.9c-6.9-2.3-45.7-21.6-46.6-20.1c-1,1.7,33,23,45.3,29.8c3.9,2.2,3,5.5,0.6,7.2c-2.4,1.8-7.8-1.8-9.7-3.1
	c-19.9-13.1-49.9-25.3-50.9-23.8c-0.7,1.1,19.6,15.5,28.1,24.8c1.8,1.9,2.3,4.4,2.4,6.1c0.1,1.8-0.7,3.5-2.3,4.3
	c-2.1,1-4.7,0.8-5.9,0.1c-42.1-23.8-81.7-46.9-98.2-56.6c-5.6-3.3-10.8-7.4-15.2-12.2C33.8,134.2,18.9,97,15.1,86.8
	C9,70.6,5.5,56.4,3.4,45.9"/>
</svg>
