<?xml version="1.0" encoding="utf-8"?>
<!-- Generator: Adobe Illustrator 23.1.1, SVG Export Plug-In . SVG Version: 6.00 Build 0)  -->
<svg version="1.1" id="Layer_1" xmlns="http://www.w3.org/2000/svg" xmlns:xlink="http://www.w3.org/1999/xlink" x="0px" y="0px"
	 viewBox="0 0 19.46 32" style="enable-background:new 0 0 19.46 32;" xml:space="preserve">
<style type="text/css">
	.st0{fill:#FA0636;}
</style>
<g>
	<path class="st0" d="M8.6,21.77c0-6.61,8.51-7.24,8.51-12.85c0-3.12-3.26-5.43-7.33-5.43c-4.21,0-7.38,2.4-7.38,5.52H0
		C0,3.89,4.16,0,9.73,0c5.52,0,9.73,3.8,9.73,8.78c0,7.11-8.6,7.51-8.6,12.99v1.67H8.6V21.77z M7.15,29.69
		c0-1.31,1.13-2.31,2.58-2.31c1.49,0,2.58,1,2.58,2.31c0,1.36-1.09,2.31-2.58,2.31C8.28,32,7.15,31.05,7.15,29.69z"/>
</g>
</svg>
