<?xml version="1.0" encoding="utf-8"?>
<!-- Generator: Adobe Illustrator 23.1.1, SVG Export Plug-In . SVG Version: 6.00 Build 0)  -->
<svg version="1.1" id="Layer_1" xmlns="http://www.w3.org/2000/svg" xmlns:xlink="http://www.w3.org/1999/xlink" x="0px" y="0px"
	 viewBox="0 0 195.4 308.2" style="enable-background:new 0 0 195.4 308.2;" xml:space="preserve">
<style type="text/css">
	.st0{fill:#FFC200;}
</style>
<g>
	<g>
		<path class="st0" d="M185.9,0c-23.7,0-47.4,0-71.1,0c-6.7,0-13.5,0-20.2,0c-2.4,0-4.6,2.1-4.5,4.5s2,4.5,4.5,4.5
			c23.7,0,47.4,0,71.1,0c6.7,0,13.5,0,20.2,0c2.4,0,4.6-2.1,4.5-4.5C190.3,2.1,188.5,0,185.9,0L185.9,0z"/>
	</g>
</g>
<g>
	<g>
		<path class="st0" d="M91.5,2.6C81.2,22.3,70.8,42.1,60.4,61.8c-3,5.6-5.9,11.3-8.9,16.9c-1.6,3.1,0.4,6.6,3.9,6.8
			c13.8,0.6,27.7,1,41.5,1.2c-1.4-1.9-2.9-3.8-4.3-5.7c-0.2,0.4-0.3,0.9-0.5,1.3c0,0.1-0.3,0.8-0.1,0.2c-0.1,0.2-0.2,0.4-0.3,0.6
			c-0.4,0.9-0.8,1.8-1.2,2.7c-0.9,1.9-1.8,3.7-2.8,5.5c-1.9,3.5-3.9,6.9-6.1,10.2c-4.6,6.9-8.9,12.3-14.5,18.6
			c-10.9,12.3-22.9,23.4-34.5,34.9c-6.6,6.5-13.1,13.2-19.1,20.2c-1.2,1.4-1.7,3.2-0.9,4.9c0.7,1.5,2.3,2.9,4.1,2.8
			c18.5-1.6,37-3.2,55.5-4.8c-1.4-1.9-2.9-3.8-4.3-5.7c-0.8,2.3-1.7,4.5-2.6,6.7c-0.4,1.1-0.6,1.4-1.1,2.6c-0.5,1.1-1,2.3-1.5,3.4
			c-2,4.3-4.1,8.5-6.3,12.7c-4.5,8.5-9.3,16.7-14.3,24.9C32.2,239,21.7,255.1,13,272.1c-5,9.8-9.4,19.9-12.8,30.3
			c-1,3.1,2.3,6.7,5.5,5.5c14.8-5.2,27.2-14.7,38.9-24.9c12.1-10.6,23.8-21.5,35.4-32.6c23.7-22.6,46.7-46,68.9-70.1
			c12.4-13.5,24.6-27.3,36.5-41.2c1.1-1.2,1.6-2.7,1.2-4.4c-0.4-1.4-1.6-2.9-3.1-3.1c-19.5-3.4-39.2-2.5-58.7,0.3
			c1.5,2.5,2.9,5,4.4,7.5c21.3-18.1,39.7-39.6,54.3-63.4c4.1-6.7,7.9-13.5,11.4-20.6c1.6-3.3-0.4-6.4-3.9-6.8
			c-13.4-1.4-27-1.5-40.4-0.1c1.1,2.6,2.1,5.1,3.2,7.7c12.9-15.8,25.3-32,37.1-48.6c1.4-2,0.4-5-1.6-6.2C187,0.1,184.6,1,183.1,3
			c-11.4,16-23.3,31.6-35.7,46.8c-1.2,1.4-1.7,3.1-0.9,4.9c0.7,1.5,2.3,2.9,4.1,2.8c13.4-1.4,27-1.3,40.4,0.1
			c-1.3-2.3-2.6-4.5-3.9-6.8c-6.2,12.4-13.3,24.3-21.3,35.5c-7.7,10.8-16.4,21.1-26,30.8c-5.4,5.5-11.1,10.8-17.1,15.8
			c-1.5,1.3-1.7,3.8-0.7,5.5c1.1,1.9,3.1,2.4,5.1,2.1c17.6-2.5,36.4-3.4,53.9-0.3c-0.7-2.5-1.3-5-2-7.5
			c-21.1,24.7-42.9,48.8-65.6,72.1c-22.6,23.2-45.9,45.6-69.9,67.3C31.4,283,18.6,293.9,3.3,299.3c1.8,1.8,3.7,3.7,5.5,5.5
			c3-9.2,6.4-17.1,10.7-25.7c4.3-8.5,9-16.8,13.9-25c9.8-16.4,20.4-32.4,29.5-49.3c5.2-9.7,9.9-19.7,13.7-30c1-2.6-1.6-5.9-4.3-5.7
			c-18.5,1.6-37,3.2-55.5,4.8c1.1,2.6,2.1,5.1,3.2,7.7c10.9-12.6,23.1-24,35-35.8c11.9-11.7,23.5-23.8,32.9-37.5
			c5.4-7.8,9.9-16.2,13.4-25c1.1-2.8-1.7-5.7-4.3-5.7c-13.9-0.2-27.7-0.6-41.5-1.2c1.3,2.3,2.6,4.5,3.9,6.8
			C69.8,63.5,80.1,43.7,90.5,24c3-5.6,5.9-11.3,8.9-16.9c1.1-2.2,0.5-4.9-1.6-6.2C95.6-0.2,92.6,0.5,91.5,2.6L91.5,2.6z"/>
	</g>
</g>
</svg>
