<?xml version="1.0" encoding="utf-8"?>
<!-- Generator: Adobe Illustrator 23.1.1, SVG Export Plug-In . SVG Version: 6.00 Build 0)  -->
<svg version="1.1" id="Layer_1" xmlns="http://www.w3.org/2000/svg" xmlns:xlink="http://www.w3.org/1999/xlink" x="0px" y="0px"
	 viewBox="0 0 739.7 116.3" style="enable-background:new 0 0 739.7 116.3;" xml:space="preserve">
<style type="text/css">
	.st0{fill:#FA0636;stroke:#FA0636;stroke-width:3;stroke-miterlimit:10;}
	.st1{fill:none;}
	.st2{fill:#FFFFFF;}
	.st3{fill:#FA0636;}
</style>
<g>
	<path class="st0" d="M1.7,46.9c-0.3-1-0.2-2,0.3-3s1.3-1.6,2.3-1.9l32.6-10.3l0,0c1-0.3,2-0.2,3,0.3s1.7,1.3,2,2.3
		c0.3,1,0.2,2-0.3,3c-0.5,1-1.3,1.7-2.3,2l0,0l-28.8,9.1l5,15.6l25.7-8c1.1-0.3,2.1-0.3,3.1,0.3c1,0.5,1.6,1.4,2,2.6
		c0.3,1,0.2,2-0.4,2.9c-0.6,1-1.3,1.6-2.3,1.9l0,0l-25.6,8l5.2,16.1l28.7-9.2l0,0c1-0.3,2-0.2,3,0.3c1,0.5,1.7,1.3,2,2.3
		c0.3,1,0.2,2.1-0.3,3c-0.5,1-1.3,1.7-2.3,2l0,0L21.8,96.5c-1,0.3-2,0.2-3-0.3c-1-0.5-1.6-1.3-2-2.3L1.7,46.9z"/>
	<path class="st0" d="M78.3,79.3c-1.1,0.2-2.1,0.1-3-0.6c-0.9-0.6-1.5-1.4-1.8-2.5L62.9,27.9c-0.1-0.2-0.1-0.5-0.2-0.7
		c-0.1-0.4-0.1-0.7,0-1.1c0.1-0.4,0.2-0.8,0.4-1.2c0.4-1.1,1.2-1.9,2.4-2.1c1.9-0.4,3.3,0,4.3,1.4l28.3,29.5L110,15.3
		c0.5-1.5,1.4-2.4,2.7-2.6c1.1-0.2,2.2-0.1,3.2,0.5c1,0.6,1.6,1.4,1.9,2.5l10.6,48.8c0.2,1.1,0.1,2.1-0.5,3
		c-0.6,0.9-1.4,1.5-2.5,1.8c-1.1,0.2-2.1,0.1-3-0.6c-0.9-0.6-1.5-1.4-1.8-2.5L113,31.3l-9.3,31.2c-0.2,0.5-0.5,1.1-1,1.6
		c-0.5,0.6-1.1,0.9-1.8,1.1c-1.5,0.3-2.8,0-3.9-1.1L73.7,39.7l7.7,34.8l0,0c0.2,1.1,0.1,2.1-0.6,3C80.2,78.5,79.4,79.1,78.3,79.3z"
		/>
	<path class="st0" d="M150.7,65c-1.1,0.1-2.1-0.2-2.9-0.9c-0.9-0.7-1.4-1.6-1.5-2.7l-5.1-49.3c-0.1-0.2-0.1-0.5-0.1-0.7
		c0-0.4,0-0.7,0.1-1.1c0.1-0.4,0.3-0.7,0.5-1.1c0.5-1.1,1.4-1.7,2.6-1.8c1.9-0.2,3.3,0.4,4.2,1.8l24.8,32.5l16.2-36.7
		c0.7-1.4,1.7-2.2,3-2.3c1.1-0.1,2.2,0.2,3.1,0.8c0.9,0.7,1.4,1.6,1.6,2.7l5,49.7c0.1,1.1-0.2,2.1-0.9,2.9s-1.6,1.3-2.7,1.5
		c-1.1,0.1-2.1-0.2-2.9-0.9s-1.4-1.6-1.5-2.7l-3.6-35.5l-12.8,30c-0.2,0.5-0.6,1-1.2,1.5c-0.6,0.5-1.2,0.8-1.9,0.9
		c-1.5,0.2-2.8-0.4-3.7-1.5l-20.4-26.9l3.7,35.5v0c0.1,1.1-0.2,2.1-0.9,2.9C152.7,64.5,151.8,64.9,150.7,65z"/>
	<path class="st0" d="M242.2,3.8c0.3-0.7,0.8-1.2,1.5-1.7s1.4-0.7,2.2-0.7c0.7,0,1.4,0.3,2.2,0.7c0.7,0.5,1.2,1,1.5,1.7l21.2,51.3
		c0.2,0.5,0.3,1.1,0.3,1.6c0,1.1-0.4,2-1.2,2.8c-0.8,0.8-1.7,1.2-2.8,1.1c-0.8,0-1.5-0.3-2.2-0.8c-0.7-0.5-1.2-1.1-1.5-1.7l-6.6-16
		L234,41.7l-7.2,16.1c-0.3,0.7-0.8,1.2-1.5,1.7s-1.5,0.7-2.2,0.7c-1.1,0-2-0.4-2.8-1.2c-0.8-0.8-1.1-1.7-1.1-2.8
		c0-0.6,0.1-1.1,0.4-1.6L242.2,3.8z M245.7,15.6l-8.1,18.2l15.9,0.5L245.7,15.6z"/>
	<path class="st0" d="M324.4,61.2c0.2-1.1,0.5-2.4,0.8-3.9c0.3-1.5,0.7-3.5,1.1-5.8l7.4-38.5c0.2-1.1,0.8-1.9,1.6-2.5s1.9-0.8,3-0.6
		c1.1,0.2,1.9,0.8,2.6,1.7s0.9,1.9,0.6,3c-0.6,3.3-1.2,6.7-1.9,10.1s-1.3,6.7-1.9,10l31.2-17.4c1-0.6,1.9-0.8,2.8-0.6
		c1.1,0.2,2,0.8,2.5,1.8c0.6,1,0.8,2,0.6,3c-0.2,1.1-0.8,1.9-1.9,2.5l-25.4,14l18.8,29.9c0.6,1,0.8,1.9,0.7,2.7
		c-0.2,1.1-0.8,1.9-1.7,2.5s-2,0.8-3,0.6c-0.5-0.1-0.9-0.2-1.4-0.5s-0.9-0.6-1.2-1l-19-30.2l-5,2.8c-1,4.9-1.8,9.1-2.5,12.6
		c-0.7,3.5-1.2,5.8-1.4,6.8c-0.2,1.1-0.8,1.9-1.8,2.4s-1.9,0.6-2.9,0.4c-1.5-0.3-2.4-1-2.7-2.1C324.1,63.8,324.1,62.5,324.4,61.2z"
		/>
	<path class="st0" d="M396.4,26.7c0.3-1,0.9-1.8,1.9-2.3c1-0.5,2-0.6,3-0.3l32.9,9.4l0,0c1,0.3,1.9,0.9,2.4,1.9c0.5,1,0.7,2,0.4,3
		c-0.3,1-0.9,1.8-1.9,2.4c-1,0.5-2,0.7-3,0.4l0,0l-29.1-8.3l-4.5,15.8l25.8,7.6c1.1,0.3,1.9,1,2.4,1.9c0.5,1,0.6,2.1,0.2,3.3
		c-0.3,1-0.9,1.8-1.9,2.2c-1,0.5-2,0.6-3,0.3l0,0l-25.8-7.5l-4.6,16.3l29,8.2l0,0c1,0.3,1.8,0.9,2.4,1.9s0.7,2,0.4,3
		c-0.3,1.1-0.9,1.8-1.9,2.4s-2,0.7-3,0.4l0,0l-32.8-9.3c-1-0.3-1.9-0.9-2.4-1.9c-0.5-1-0.7-2-0.4-3L396.4,26.7z"/>
	<path class="st0" d="M474.3,45.7c0.4-0.6,1-1,1.8-1.3s1.5-0.4,2.3-0.2c0.7,0.2,1.4,0.5,2,1.2c0.6,0.6,1,1.3,1.1,2l10.6,54.5
		c0.1,0.6,0.1,1.1,0,1.7c-0.2,1.1-0.8,1.9-1.8,2.5c-0.9,0.6-1.9,0.8-3,0.6c-0.7-0.2-1.4-0.6-2-1.2c-0.6-0.6-1-1.3-1.1-2l-3.3-17
		l-22.2-5.2l-10.3,14.3c-0.4,0.6-1,1.1-1.8,1.4s-1.6,0.4-2.3,0.2c-1.1-0.2-1.9-0.8-2.5-1.8c-0.6-0.9-0.8-1.9-0.5-3
		c0.1-0.6,0.4-1.1,0.7-1.5L474.3,45.7z M475.4,57.9l-11.6,16.2l15.5,3.6L475.4,57.9z"/>
	<path class="st0" d="M556.6,110.6c-0.1,1-0.6,1.9-1.4,2.6s-1.7,1-2.5,0.9c-0.7-0.1-1.4-0.4-1.9-0.9c-0.5-0.6-0.9-1-1-1.3
		c-2.3-1.9-4.2-4-5.7-6.4s-2.8-4.8-3.9-7.5c-0.9-2.4-1.8-4.3-2.8-5.6c-1-1.4-2.3-2.4-3.8-3.1c-1.5-0.7-3.6-1.1-6.1-1.4l-3.6-0.4
		l-1.7,19.3l0,0.1c-0.1,1.1-0.6,1.9-1.4,2.7c-0.8,0.7-1.8,1-2.9,0.9c-1.1-0.1-2-0.6-2.7-1.5s-1-2-0.9-3.1l4.4-49.4
		c0.1-1.1,0.6-2,1.4-2.7c0.8-0.7,1.8-1,2.9-0.9l10.6,0.9l0.9,0.1c4.6,0.4,8.6,1.5,12,3.1c3.5,1.7,6.1,3.9,7.9,6.8
		c1.8,2.9,2.5,6.3,2.2,10.2c-0.2,2.6-1,4.8-2.2,6.7c-1.2,1.9-2.8,3.4-4.6,4.7c-1.8,1.2-3.8,2.1-5.8,2.7c0.8,1.2,1.6,2.7,2.3,4.5
		c1.3,3.1,2.5,5.8,3.8,8.2s3,4.6,5.2,6.5c0.5,0.4,0.8,0.8,1.1,1.4C556.6,109.2,556.7,109.9,556.6,110.6z M533.8,61.8l-7.7-0.7
		l-1.7,19l7.7,0.6c4.9,0.4,8.8,0,11.7-1.2c2.9-1.2,4.5-3.3,4.8-6.5c0.3-3.2-1-5.8-3.7-7.7C542,63.4,538.3,62.2,533.8,61.8z"/>
	<path class="st0" d="M577.4,60.9c0-1.1,0.4-2,1.2-2.8s1.8-1.1,2.9-1.2c1.2,0,2.3,0.5,3.1,1.5l31,40.3l-0.8-38.5
		c0-1.1,0.3-2,1.1-2.8s1.7-1.2,2.8-1.2s2,0.3,2.8,1.1c0.8,0.7,1.2,1.7,1.2,2.7l1,50.1c0,1.1-0.4,2.1-1.2,2.8s-1.8,1.1-2.9,1.2
		c-1.2,0-2.3-0.5-3.1-1.5l-31-40.2l0.8,38.6c0,1.1-0.3,2-1.1,2.8c-0.8,0.8-1.7,1.2-2.8,1.2c-1.1,0-2-0.3-2.8-1.1
		c-0.8-0.7-1.2-1.6-1.2-2.7L577.4,60.9z"/>
	<path class="st0" d="M639.9,58.5c-0.1-1.1,0.1-2,0.8-2.9c0.7-0.8,1.6-1.3,2.7-1.5l34-4.2l0,0c1.1-0.1,2.1,0.1,2.9,0.8
		s1.4,1.6,1.5,2.7s-0.1,2.1-0.8,2.9c-0.7,0.9-1.6,1.4-2.7,1.5l0,0l-30,3.7l2.1,16.2l26.7-3.1c1.1-0.1,2.1,0.1,3,0.8
		c0.8,0.7,1.4,1.7,1.5,2.9c0.1,1.1-0.2,2-0.9,2.8c-0.7,0.8-1.6,1.3-2.6,1.4l0,0l-26.7,3.1l2.1,16.8l29.9-3.8l0,0
		c1.1-0.1,2.1,0.1,2.9,0.8s1.4,1.6,1.5,2.7c0.1,1.1-0.1,2.1-0.8,2.9c-0.7,0.9-1.6,1.4-2.7,1.5l0,0l-33.8,4.3
		c-1.1,0.1-2.1-0.1-2.9-0.8s-1.4-1.6-1.5-2.6L639.9,58.5z"/>
	<path class="st0" d="M695.9,49.7c-0.2-1.1,0-2,0.7-2.9c0.7-0.9,1.6-1.4,2.6-1.6c1.3-0.3,2.5,0.1,3.5,1.2l19.1,21l8.5-26.7
		c0.2-0.5,0.5-1,1-1.5c0.5-0.5,1.1-0.8,1.7-1c0.6-0.1,1.2-0.2,1.7-0.2c0.5,0,1.1,0.2,1.7,0.7c0.9,0.6,1.4,1.4,1.6,2.2
		c0.2,0.8,0.1,1.6-0.1,2.3l-10.5,31.8l3.9,19.5c0.2,1,0,2-0.6,2.9c-0.6,0.9-1.5,1.5-2.5,1.7c-1.1,0.2-2.1,0.1-3-0.5
		s-1.5-1.4-1.7-2.4l0-0.1l-4-19.9L697,51.8C696.5,51.3,696.1,50.6,695.9,49.7z"/>
</g>
<image style="overflow:visible;" width="1125" height="2436" xlink:href="../../../../Desktop/IMG_F1545E7DF8D3-1.jpeg"  transform="matrix(0.3333 0 0 0.3333 358.3863 -624.8761)">
</image>
<image style="overflow:visible;" width="970" height="1376" xlink:href="../../../../Desktop/Screen Shot 2020-09-14 at 6.44.33 PM.png"  transform="matrix(0.5 0 0 0.5 -146.9027 -584.6435)">
</image>
<path id="SVGID_x5F_1_x5F_" class="st1" d="M1417.7-45.6c0,169.4-137.3,306.7-306.7,306.7S804.4,123.8,804.4-45.6
	s137.3-306.7,306.7-306.7S1417.7-214.9,1417.7-45.6z"/>
<text><textPath  xlink:href="#SVGID_x5F_1_x5F_" startOffset="83.448%">
<tspan  class="st3" style="font-family:'Kavoon-Regular'; font-size:84.6998px; letter-spacing:40;">LOOK WHAT I CAN DO    LOOK WHAT I CAN DO                   </tspan></textPath>
</text>
<path class="st2" d="M1628-175.2v704h704v-704H1628z M1980,392.3c-119.1,0-215.6-96.5-215.6-215.6S1861-38.8,1980-38.8
	c119.1,0,215.6,96.5,215.6,215.6S2099.1,392.3,1980,392.3z"/>
<path class="st3" d="M1980-38.8c-119.1,0-215.6,96.5-215.6,215.6S1861,392.3,1980,392.3c119.1,0,215.6-96.5,215.6-215.6
	S2099.1-38.8,1980-38.8z M2044.9,88c-35.4,48.8-75.3,55.4-109.5,107.7c-32,48.9-38.9,107-33.5,164.3
	c-71.2-30.4-121.1-101-121.1-183.3c0-110,89.2-199.2,199.2-199.2c36.6,0,70.8,9.9,100.3,27C2073.1,40.5,2059.9,67.4,2044.9,88z"/>
<g>
	<path class="st3" d="M1785-24.5c0.3-0.3,0.8-0.6,1.6-1.1c0.8-0.4,1.6-0.9,2.4-1.3c-3.4-3.8-6.7-7.6-9.9-11.3
		c-3.4-4-6.3-7.5-8.5-10.4l0,0l-0.3-0.3l-4.9,3.2c-1.2-0.9-2.2-1.6-2.9-2.3c-0.7-0.7-1.5-1.5-2.3-2.4c0-1.1,0.4-2.4,1.1-3.9
		c0.7-1.5,1.6-2.9,2.7-4.3c1.1-1.4,2.2-2.5,3.3-3.5c2.1-1.8,4.1-2.7,5.9-2.9c1.9-0.2,3.7,0.6,5.4,2.2c0.7,0.7,1.3,1.4,2.1,2.2
		c2.4,2.8,4.9,6.2,7.7,10.4c2.7,4.2,5.9,9.2,9.4,14.9l1,1.6l6.9-5.9l-4.7-11.2c0.8-0.7,1.9-1.5,3.1-2.2c1.2-0.8,2.4-1.4,3.4-1.7
		c1,0.6,2.5,1.7,4.4,3.3c1.9,1.6,3.5,3.3,5.1,5.1c2.5,2.9,3.8,5.4,4,7.3c0.1,0.9-0.1,2-0.5,3c-0.4,1.1-0.9,2.1-1.6,3
		c-0.6,0.9-1.3,1.7-2,2.3c-1.1,0.9-2.5,1.7-4.3,2.5c-1.8,0.8-3.7,1.4-5.7,1.8c-2,0.5-3.7,0.7-5.2,0.7c0.4,2.2,0.5,4.1,0.1,5.8
		c-0.4,1.7-1.4,3.3-3,4.6c-0.9,0.5-1.9,0.7-3.2,0.6c-1.2-0.1-2.5-0.6-3.8-1.3c-1.3-0.8-2.5-1.8-3.6-3
		C1786.7-20.5,1785.7-22.4,1785-24.5z"/>
	<path class="st3" d="M1817.4-98.5c5.1-3,9.6-4.3,13.7-3.8c4.1,0.4,7.7,2.1,10.9,5c3.2,2.9,6.2,6.8,9.2,11.8c4.3,7.3,6.2,14,5.8,20
		c-0.4,6.1-4.1,11.1-11,15.2c-6.9,4.1-13.1,4.9-18.6,2.4c-5.4-2.5-10.3-7.5-14.7-14.8C1803.1-79.1,1804.7-91,1817.4-98.5z
		 M1844.4-63c0-1.2-0.6-3-1.6-5.4c-1.1-2.4-2.4-5-4.1-7.8c-1.7-2.9-3.5-5.6-5.2-7.9c-1.8-2.3-3.2-3.9-4.3-4.6
		c-0.8-0.1-1.7,0-2.8,0.4c-1.1,0.4-2.3,0.9-3.5,1.7c-0.7,0.4-1.3,0.8-1.8,1.2c-0.5,0.4-0.9,0.8-1,1c0,1.4,0.4,3.1,1.3,5.2
		c0.9,2.1,2,4.4,3.5,6.9c1.7,2.8,3.5,5.5,5.4,8.1c2,2.6,3.6,4.5,4.9,5.7c0.5,0.1,1.3-0.1,2.6-0.6c1.3-0.5,2.6-1.2,3.9-2
		C1843.4-62,1844.3-62.7,1844.4-63z"/>
	<path class="st3" d="M1872.1-124.2c5.5-2,10.3-2.4,14.2-1.2c3.9,1.2,7.2,3.5,9.7,7c2.6,3.5,4.8,7.9,6.8,13.3
		c2.9,8,3.5,14.9,1.9,20.8c-1.6,5.9-6.1,10.2-13.7,12.9c-7.6,2.7-13.8,2.3-18.7-1.2c-4.9-3.5-8.7-9.3-11.6-17.4
		C1854.3-107.8,1858.1-119.2,1872.1-124.2z M1891.8-84.3c0.2-1.2,0-3.1-0.6-5.6c-0.6-2.6-1.4-5.4-2.5-8.4c-1.1-3.2-2.4-6.1-3.6-8.8
		s-2.4-4.4-3.3-5.3c-0.7-0.2-1.7-0.3-2.8-0.1c-1.2,0.2-2.4,0.5-3.7,1c-0.8,0.3-1.4,0.6-2,0.9c-0.6,0.3-1,0.6-1.2,0.8
		c-0.2,1.4-0.1,3.1,0.3,5.4c0.5,2.2,1.2,4.7,2.1,7.4c1.1,3.1,2.4,6.1,3.8,9c1.4,2.9,2.7,5.1,3.7,6.5c0.4,0.2,1.3,0.2,2.7-0.1
		c1.3-0.3,2.7-0.7,4.2-1.2C1890.6-83.5,1891.6-84,1891.8-84.3z"/>
	<path class="st3" d="M1917.6-93c-0.5-2.9-0.9-4.8-1.1-5.7c-1.2-6.1-2-10.6-2.5-13.7c-0.7-4.5-1.2-8.4-1.5-11.7l-4.8,0
		c-0.5-1.2-0.9-2.3-1.2-3.1c-0.3-0.8-0.5-1.8-0.7-2.8l-0.1-0.8c0.4-0.7,1.1-1.5,2.1-2.3c1-0.8,2.2-1.6,3.6-2.3
		c1.4-0.7,2.8-1.1,4.3-1.4c2.8-0.4,5.1-0.2,6.9,0.7c1.8,0.9,2.9,2.6,3.3,5c0.8,5.1,1.9,13.7,3.3,25.8l2.1-0.8
		c1.1-2.9,2.1-6.6,3.3-11.3c1.1-4.6,1.8-8.1,2-10.6l-4.5,0c-0.5-1.2-0.9-2.3-1.2-3.1c-0.3-0.8-0.5-1.8-0.7-2.8l-0.1-0.8
		c0.4-0.7,1.1-1.4,2.2-2.3c1.1-0.9,2.4-1.6,3.9-2.3c1.5-0.7,3-1.2,4.5-1.4c1.7-0.3,3.2-0.2,4.7,0.1c1.5,0.3,2.7,1,3.7,2.1
		c1,1,1.6,2.4,1.9,4.1c0.5,3-0.2,6.7-2,11.3c-1.8,4.5-4.2,9.2-7,13.9c1.5,2.2,3.1,4.3,4.8,6.2c1.7,1.9,3.1,3.3,4.3,4.2
		c0.5-0.3,0.9-0.8,1.3-1.3c0.4-0.5,0.9-1.2,1.5-2.1l0.6-0.9l4.9,2.6l0.1,0.8c0.6,3.7,0.1,6.9-1.4,9.5c-1.5,2.6-4.1,4.2-7.9,4.8
		c-1.4,0.2-2.8,0.2-4.1,0c-1.8-0.3-3.5-1.1-5.1-2.5c-1.5-1.4-2.8-3.1-3.9-5c-1.1-2-1.9-4-2.6-6.2c-1.1,0.5-2.6,0.9-4.5,1.2
		c0.4,4.1,0.9,8.7,1.4,14c-1.7,1.3-3.8,2.1-6.1,2.5c-2,0.3-4,0.3-5.9-0.1L1919-85C1918.6-87.4,1918.2-90.1,1917.6-93z"/>
	<path class="st3" d="M1996.1-103.7c-0.7-7.3-1.3-13.4-1.9-18.3s-1.2-8-1.8-9.3l-3.5-0.5c-0.4-1.9-0.6-4.2-0.5-6.9
		c0.6-1.2,1.5-2.3,2.8-3c1.2-0.8,2.6-1.3,4.2-1.6c1.6-0.3,3.1-0.3,4.6-0.1c3.4,0.5,5.8,2.5,7,5.9c0.6,1.5,1,3.4,1.2,5.5
		s0.4,4.5,0.5,7.4c0.1,4.8,0,9-0.2,12.7c-0.2,3.7-0.6,7.7-1,11.8l-0.3,3.2l0.5,0.1c0.8-1.2,1.8-3.9,3.2-8.1
		c1.3-4.2,2.6-8.6,3.8-13.3c1.2-4.7,2-8.2,2.4-10.6l-4.3-1.3c-0.1-1.3-0.2-2.4-0.1-3.4c0-1,0.2-2.2,0.4-3.6c0.6-0.5,1.5-1,2.7-1.5
		c1.2-0.5,2.7-0.8,4.3-1c1.6-0.2,3.1-0.2,4.6,0c2,0.3,3.8,0.9,5.3,1.8c1.5,0.9,2.7,2.1,3.5,3.5s1,3.1,0.8,5l-0.8,5.4
		c0.5,4.3,0.7,9.2,0.7,14.9c0,5.7-0.2,11-0.5,16l0.4,0.1c0.8-1.2,1.8-3.9,3.2-8.1c1.3-4.2,2.6-8.6,3.9-13.3c1.2-4.7,2-8.2,2.4-10.5
		l-4.1-1.3c-0.1-1.3-0.2-2.4-0.1-3.4c0-1,0.2-2.2,0.4-3.6c0.6-0.5,1.5-1,2.7-1.5c1.3-0.5,2.7-0.8,4.3-1c1.6-0.2,3.2-0.2,4.7,0
		c3.1,0.4,5.3,1.6,6.6,3.4c1.3,1.8,1.7,4.4,1.2,7.6c-0.5,3.1-1.6,7-3.3,11.8c-1.7,4.7-3.7,9.1-5.9,13.2c-1.9,3.6-3.7,6.6-5.4,9.2
		c-1.7,2.6-3.7,5-6,7.4c-0.9,0.7-2,1.1-3.3,1.2c-1.3,0.1-2.6,0.1-4-0.1c-4.6-0.7-7.9-2.1-9.9-4.2l2-7.1l-0.6-12.2
		c-0.1-3.2-0.1-5.8,0-7.6l-0.5-0.1l-0.8,4.5c-1.4,4.5-3,8.6-4.7,12.4c-1.7,3.8-3.4,6.9-5.3,9.3c-0.8,0.7-1.8,1.1-3.1,1.2
		c-1.2,0.1-2.5,0.1-3.7-0.1c-4.8-0.7-8.1-2.1-9.8-4.1l1.7-6.5L1996.1-103.7z"/>
	<path class="st3" d="M2070.1-107.4c1.6-3.6,3-6.8,4.3-9.4l-0.1,0l-3.5-2.2c0.2-1.2,0.4-2.2,0.6-3c0.2-0.8,0.5-1.6,0.8-2.4
		c0.2-0.6,0.4-1,0.6-1.3c0.7-0.4,1.7-0.7,2.9-1c1.2-0.2,2.5-0.3,4-0.2c1.4,0.1,2.9,0.4,4.2,0.9c2.8,1.1,4.6,2.7,5.4,4.6
		c0.8,2,0.6,4.4-0.7,7.2l-1.2,2.8c-2,4.8-3.8,8.7-5.3,11.6l11.3,4.5c1.8-4.4,3.6-8.4,5.4-11.9l-0.1,0l-4.5-2.6
		c0.2-1.2,0.4-2.2,0.6-3c0.2-0.8,0.5-1.6,0.8-2.4c0.2-0.6,0.4-1,0.6-1.3c0.7-0.4,1.7-0.7,3.1-0.8c1.4-0.2,2.9-0.2,4.5,0
		c1.6,0.2,3.2,0.5,4.6,1.1c2.8,1.1,4.7,2.7,5.6,4.7c0.9,2,0.8,4.5-0.3,7.3c-3.1,7.9-8.7,18.5-16.8,31.8l5.7-0.2
		c1.1,2.1,1.3,4.5,0.6,7c-0.1,0.2-0.8,0.6-2.3,1.3c-1.5,0.7-3.2,1.2-5.2,1.5c-2,0.3-4.1,0.1-6.2-0.8c-2.2-0.9-3.8-2.2-4.8-4
		c-1-1.8-0.9-4.1,0.3-7.1l0.9-2.2c1.5-3.7,2.7-6.7,3.9-9.1c-0.5-0.2-1.3-0.4-2.3-0.9c-1.5-0.6-3.7-1.6-6.6-3.1
		c-1.4-0.7-2.3-1.2-2.9-1.5c-0.8,2.3-1.5,4.5-2.1,6.8c-0.6,2.3-1.2,4.9-1.9,7.9c-0.4,1.9-0.8,3.2-1,4.2c-1.1,0.2-2.7,0.1-4.9-0.3
		c-2.1-0.4-3.8-0.9-5.2-1.4c-0.7-0.3-1.3-0.6-1.9-0.9c-0.6-0.4-1.2-0.8-1.8-1.3c1.2-5.4,3.5-12.5,6.9-21.1
		C2067.2-100.7,2068.6-104,2070.1-107.4z"/>
	<path class="st3" d="M2112.4-64.7c7-6.6,15.2-14.5,24.6-23.7l-6.7-5.5c0.4-1.6,1.1-3.2,2.2-4.9c0.8-1.3,1.8-2.4,2.8-3.4
		c3.3,1.3,6.8,3.1,10.6,5.6s7,4.5,9.8,6.3c2,1.3,3.4,2.2,4.4,2.8l1.2,2.3c-2.6,11.4-7.2,26-13.8,44c-0.1,0.2-0.2,0.6-0.4,1.1
		c-0.2,0.6-0.4,1.1-0.6,1.5c-0.2,0.5-0.4,0.9-0.7,1.3c-1.1,1.7-2.6,2.7-4.4,2.9c-2.1-0.4-4.3-1.4-6.7-2.9c-1.1-0.7-2.2-1.6-3.2-2.5
		c-1-1-1.5-1.8-1.6-2.6l5.3-7.5l1.8-4.4c-1.3-0.8-2.8-1.8-4.6-3c-1.9-1.2-3.6-2.4-5.2-3.6l-1.4,1.4c-3,3-5.2,5.1-6.7,6.2
		c-1.4,1.1-2.8,1.8-4.2,1.9c-1.4,0.1-3-0.5-4.9-1.7c-1.2-0.8-2.4-1.7-3.4-2.8c-1-1.1-1.9-2.2-2.6-3.4c-0.7-1.2-1.1-2.2-1.2-3.1
		c0.9-1.4,2-2.7,3.3-3.7c1.3-1,2.5-1.6,3.6-1.6C2110.7-66.6,2111.6-65.6,2112.4-64.7z M2147.9-81l-1.4-0.9l-11.9,13.7l6.7,4.3
		L2147.9-81z"/>
	<path class="st3" d="M2162.3-29.2c0.5,1,1,1.9,1.6,2.9c0.8-0.4,1.6-1.1,2.6-2.1c1.3-1.4,3.5-4,6.7-7.8c4.2-5.1,7.5-9,9.9-11.6
		c1.7-1.8,3.1-3.3,4.4-4.5l-4.3-4l-7.7,8.2c-1.7-0.8-3.4-1.9-5-3.4c-0.4-0.4-0.7-0.7-0.9-0.9c-0.1-1-0.1-2.3,0.2-3.9
		c0.3-1.6,0.8-3.2,1.6-4.8c0.8-1.6,1.7-3,2.8-4.2c1.9-2,3.6-3.3,5.2-3.7c1.6-0.5,3.2-0.4,4.8,0.3c1.5,0.7,3.3,1.9,5.3,3.7
		c3,2.8,6.6,6.1,10.7,9.9c4.1,3.8,8.1,7.4,11.8,10.9c-0.1,1.1-0.3,2.1-0.8,3.2c-0.5,1-1,1.9-1.8,2.7c-1.3,1.5-2.8,2.3-4.5,2.6
		c-1.7,0.3-3.3-0.3-4.8-1.7c-1-0.9-2-2.2-3.1-3.8c-8,8-15.5,15.3-22.6,21.8c-1.4,1.2-2.7,2.3-3.9,3.1c-1.2,0.8-2.5,1.3-3.8,1.5
		c-1.6,0.3-3.2,0.1-4.9-0.6c-1.7-0.7-3.3-1.7-4.8-3.2c-1.4-1.3-2.6-2.9-3.5-4.7c-0.9-1.8-1.1-3.7-0.6-5.7c1.1-1.1,2.1-2,3.2-2.6
		c1.1-0.6,2.5-1.1,4.2-1.4C2161.1-31.4,2161.8-30.1,2162.3-29.2z"/>
	<path class="st3" d="M2201.6,13.5c5.8-4.3,10.9-8,15.2-11.1c4.2-3,7.9-5.4,10.9-7.3l-2.7-5.2c1-1.1,1.8-2,2.5-2.6
		c0.7-0.6,1.6-1.3,2.6-2c0.8,0,2,0.3,3.4,0.9c1.4,0.6,2.8,1.4,4.2,2.5c1.4,1,2.5,2.2,3.4,3.5c1.6,2.3,2.4,4.5,2.4,6.6
		c0,2.1-0.9,3.9-2.8,5.3c-1.1,0.8-2.1,1.5-2.8,2.1c-3.7,2.6-8.2,5.6-13.6,8.9c-5.4,3.3-11.8,7.2-19.3,11.7l-4.3,2.6
		c-1.9-0.9-3.6-2.4-5-4.4c-1.2-1.7-2-3.5-2.4-5.3l1.1-0.8C2195.1,18.2,2197.6,16.4,2201.6,13.5z"/>
	<path class="st3" d="M2256.1,43.4c4.5-0.1,8.5,0.9,12.1,3.1c3.6,2.2,6.4,5.7,8.4,10.6c1.4,3.3,2.4,7,3.1,11c-0.2,1.5-0.5,2.8-0.9,4
		c-0.4,1.2-1,2.4-1.7,3.7c-1.6,0.6-3.7,1.3-6.5,1.9c-2.7,0.7-5.4,1.1-7.9,1.4c-2.5,0.3-4.2,0.3-5.1,0c-0.5-0.5-0.9-0.9-1.2-1.2
		c-0.3-0.4-0.6-0.9-0.9-1.8c-0.4-1-0.8-2-1-3c-0.2-1-0.3-1.7-0.2-2.3l10.6-5.8c-0.2-1.7-0.9-4-2-6.8c-0.3-0.7-0.5-1.3-0.7-1.6
		c-3.4,0.3-7.7,1.5-12.8,3.5c-0.6,0.2-1.6,0.6-2.8,1.1c-2.9,1.2-5.2,2.4-6.9,3.4c-1.6,1-2.7,1.8-3.5,2.5c-0.7,0.7-1.1,1.5-1.3,2.5
		c-0.1,1,0.2,2.3,0.8,4c0.9,2.2,2.1,4.1,3.5,5.7c1.4,1.6,3.2,3.3,5.4,5c-0.5,1.2-1,2.2-1.4,2.8s-0.9,1.4-1.6,2.1
		c-0.7,0.7-1.5,1.4-2.5,2c-0.9-0.1-2.2-0.6-4.1-1.6c-1.8-1-3.7-2.5-5.7-4.6c-2-2.1-3.6-4.6-4.9-7.7c-3-7.1-2.9-13.2,0.3-18.2
		c3.1-5,8.8-9.2,17.1-12.7C2246.8,44.6,2251.6,43.5,2256.1,43.4z"/>
	<path class="st3" d="M2244.5,99.9c9.7,0.3,21,0.5,34.2,0.7l-0.9-8.6c1.4-0.9,3.1-1.5,5-1.9c1.5-0.3,3-0.5,4.4-0.4
		c1.4,3.2,2.6,7,3.5,11.4c1,4.4,1.8,8.2,2.5,11.3c0.5,2.3,0.9,4,1.1,5.1l-0.8,2.5c-9.9,6.2-23.5,13.3-40.9,21.3
		c-0.2,0.1-0.5,0.3-1.1,0.5c-0.5,0.2-1,0.5-1.5,0.6c-0.5,0.2-0.9,0.3-1.4,0.4c-2,0.4-3.7,0.1-5.2-1.1c-1.2-1.8-2.1-4.1-2.7-6.8
		c-0.3-1.3-0.4-2.6-0.4-4c0-1.4,0.2-2.4,0.7-3l9.1-1.5l4.4-1.9c-0.3-1.5-0.7-3.3-1.2-5.3c-0.5-2.2-0.8-4.2-1.1-6.2l-2,0
		c-4.2,0-7.3-0.1-9.1-0.3c-1.8-0.2-3.3-0.8-4.3-1.7c-1.1-0.9-1.8-2.5-2.3-4.7c-0.3-1.4-0.4-2.9-0.4-4.4c0-1.5,0.2-2.9,0.6-4.2
		c0.3-1.3,0.8-2.3,1.4-3c1.7-0.4,3.3-0.5,4.9-0.3c1.6,0.2,2.8,0.6,3.7,1.4C2244.6,97.3,2244.5,98.7,2244.5,99.9z M2281.1,113.5
		l-0.3-1.6l-18.1,1.3l1.7,7.8L2281.1,113.5z"/>
	<path class="st3" d="M2254.7,149.6c-0.2,0.7-0.4,1.5-0.6,2.3l33.1-0.7l1.9-5.6c1.3-0.6,2.9-0.9,4.7-0.9c1.4,0,2.7,0.2,3.9,0.6
		c0.5,1.7,0.9,3.8,1.2,6.2c0.3,2.4,0.5,4.7,0.5,7c0.1,3.4-0.1,6.3-0.6,8.9c-2.3,1.2-6.6,3.1-13,5.6c-6.4,2.5-14.7,5.5-25,9l0.1,0.6
		c5.8-0.8,12.5-1.6,20.3-2.5c7.8-0.8,13.1-1.3,16-1.4c0.9,1.2,1.5,2.6,2,4.1c0.5,1.5,0.8,2.9,0.8,4.2c0,2.1-0.6,4.1-2,6.1l-44.4-2.5
		c-1.7,1.3-3.8,2.1-6.1,2.4c-1.1-1-1.9-2.4-2.5-4.4c-0.6-2-0.9-4.1-1-6.3c0-1.7,0.1-3.3,0.4-4.7c0.3-1.4,0.8-2.5,1.5-3.3
		c1.8,0,3.4,0.1,4.8,0.4c3.5-1.9,7.3-3.7,11.5-5.4c4.2-1.7,9.8-4,16.7-6.6l4.2-1.7l0-0.2c-3.6,0.6-9,1.2-16.1,1.9
		c-7.1,0.7-12.3,1.1-15.5,1.2c-2.6,0.1-4.6-0.7-6-2.2c-1.4-1.6-2.1-4-2.2-7.4c0-1,0.2-2.2,0.5-3.4c0.4-1.2,0.9-2.3,1.5-3.3
		c0.6-1,1.2-1.7,1.8-2.1c1.7,0,3.3,0.2,4.8,0.7c1.5,0.5,2.6,1.2,3.3,2.1C2255.1,148.4,2254.9,148.9,2254.7,149.6z"/>
	<path class="st3" d="M2252.8,224.4c0,2.1-0.2,4-0.6,5.8c4.6,0.7,9.6,1.6,15,2.7c5.4,1.1,10.4,2.1,14.9,3.2l0,0l2-4.8
		c0.9-0.1,1.9-0.1,3,0c1.1,0.1,2.1,0.3,3.1,0.5c0.7,0.2,1.5,0.5,2.4,0.8c0.5,2.7,0.2,6.8-0.7,12.2c-0.9,5.4-2,10.7-3.4,15.9
		c-0.9,3.5-1.9,6.4-3.1,8.7c-1.2,2.3-3,4-5.4,5.2c-2.4,1.1-5.5,1.2-9.4,0.2c-7.2-1.9-16.3-6-27.1-12.5c-1.8-1.1-3.3-2.2-4.7-3.3
		c-1.4-1.1-2.4-2.4-3.3-3.7c-0.8-1.2-1.4-2.4-1.7-3.5c-0.3-1.1-0.3-2.4,0.1-3.8c0.2-0.7,0.5-1.7,1.1-2.8c0.7-1.4,1.4-2.7,2.2-3.7
		c0.8-1.1,1.5-1.9,2.2-2.5c0.7-0.6,1.6-1.4,2.6-2.3c-0.5-0.6-1-1.6-1.5-2.8c-0.5-1.3-0.9-2.6-1.1-4c-0.2-1.4-0.2-2.7,0.1-3.8
		c1-1.4,2.4-2.4,4.1-2.9c1.8-0.5,3.6-0.5,5.5,0C2250.5,223.2,2251.7,223.7,2252.8,224.4z M2257.9,255c4.1,1.4,8.6,2.9,13.4,4.4
		l2.4,0.8c0.3-0.1,0.7-0.6,1.2-1.5c0.5-0.9,1-2.2,1.4-3.7l0.7-2.7c0.3-1.3,0.5-2.3,0.6-3.2c-1-0.2-1.8-0.4-2.5-0.6
		c-4-1-7.6-1.8-10.8-2.7c-3.7-0.9-8.9-2.3-15.6-4.1c-0.8,3-1.3,6-1.6,8.9C2250.2,252.1,2253.8,253.6,2257.9,255z"/>
	<path class="st3" d="M2269.7,312.1c-2.5,5.3-5.5,9-9.1,10.9c-3.6,1.9-7.5,2.6-11.8,2c-4.3-0.6-9-2.1-14.2-4.6
		c-7.7-3.6-13-8-16.1-13.3c-3-5.3-2.9-11.5,0.5-18.8c3.4-7.3,8.1-11.4,14-12.4c5.9-1,12.7,0.4,20.5,4
		C2270.6,287.9,2276,298.6,2269.7,312.1z M2227.4,298c0.7,1,2.2,2.2,4.4,3.5c2.2,1.4,4.8,2.8,7.7,4.1c3.1,1.4,6,2.6,8.8,3.6
		c2.8,0.9,4.8,1.4,6.1,1.4c0.7-0.3,1.4-1,2.1-1.9c0.7-1,1.4-2.1,2-3.3c0.3-0.7,0.6-1.4,0.8-2c0.2-0.6,0.3-1.1,0.3-1.4
		c-0.8-1.1-2.1-2.3-4-3.6c-1.9-1.2-4.1-2.5-6.7-3.7c-2.9-1.4-6-2.6-9-3.6s-5.5-1.7-7.3-1.9c-0.5,0.1-1.1,0.8-1.8,1.9
		c-0.7,1.1-1.4,2.4-2.1,3.8C2227.7,296.5,2227.4,297.6,2227.4,298z"/>
	<path class="st3" d="M2176.2,376.9c-0.3,0.3-0.8,0.6-1.6,1.1c-0.7,0.4-1.6,0.9-2.4,1.3c3.4,3.8,6.7,7.5,9.9,11.2
		c3.4,4,6.3,7.4,8.6,10.4l0,0l0.3,0.3l4.9-3.2c1.2,0.9,2.2,1.6,2.9,2.3c0.7,0.7,1.5,1.5,2.3,2.4c0,1.1-0.4,2.5-1.1,3.9
		c-0.7,1.5-1.6,2.9-2.7,4.3c-1.1,1.4-2.2,2.5-3.2,3.5c-2.1,1.8-4,2.8-5.9,3c-1.9,0.2-3.7-0.6-5.4-2.2c-0.7-0.7-1.4-1.4-2.1-2.2
		c-2.4-2.8-4.9-6.2-7.7-10.4c-2.8-4.2-5.9-9.1-9.5-14.9l-1-1.6l-6.9,5.9l4.8,11.2c-0.8,0.7-1.9,1.5-3.1,2.3
		c-1.2,0.8-2.4,1.4-3.4,1.8c-1.1-0.6-2.5-1.6-4.4-3.2c-1.9-1.6-3.6-3.3-5.1-5c-2.5-2.9-3.9-5.4-4-7.3c-0.1-0.9,0.1-2,0.5-3
		c0.4-1.1,0.9-2.1,1.6-3c0.6-0.9,1.3-1.7,2-2.3c1.1-0.9,2.5-1.8,4.3-2.5s3.7-1.4,5.7-1.9c2-0.5,3.7-0.7,5.2-0.8
		c-0.4-2.2-0.5-4.1-0.1-5.8c0.4-1.7,1.3-3.3,2.9-4.6c0.9-0.5,1.9-0.8,3.2-0.6c1.2,0.1,2.5,0.6,3.8,1.3c1.3,0.8,2.5,1.8,3.6,3
		C2174.5,372.9,2175.6,374.8,2176.2,376.9z"/>
	<path class="st3" d="M2144.2,451.1c-5,3-9.6,4.3-13.7,3.9c-4.1-0.4-7.7-2-10.9-4.9c-3.2-2.9-6.3-6.8-9.2-11.7
		c-4.4-7.3-6.3-13.9-5.9-20c0.4-6.1,4.1-11.2,10.9-15.3c6.9-4.1,13.1-5,18.5-2.5s10.4,7.4,14.8,14.8
		C2158.5,431.6,2157,443.5,2144.2,451.1z M2117.1,415.8c0,1.2,0.6,3,1.7,5.4c1.1,2.4,2.4,5,4.1,7.7c1.7,2.9,3.5,5.5,5.3,7.9
		c1.8,2.3,3.2,3.9,4.3,4.6c0.8,0.1,1.7,0,2.8-0.4c1.1-0.4,2.3-1,3.5-1.7c0.7-0.4,1.3-0.8,1.8-1.2c0.5-0.4,0.9-0.8,1-1
		c0-1.4-0.5-3.1-1.3-5.2c-0.9-2.1-2.1-4.4-3.5-6.8c-1.7-2.8-3.5-5.5-5.5-8.1c-2-2.6-3.6-4.5-4.9-5.7c-0.5-0.1-1.3,0.1-2.6,0.6
		c-1.3,0.5-2.6,1.2-3.9,2C2118.1,414.8,2117.2,415.4,2117.1,415.8z"/>
	<path class="st3" d="M2089.8,477.1c-5.5,2-10.2,2.4-14.2,1.3s-7.2-3.5-9.8-6.9c-2.6-3.4-4.9-7.9-6.8-13.3c-2.9-8-3.6-14.9-2-20.7
		c1.5-5.9,6.1-10.2,13.6-12.9c7.6-2.8,13.8-2.4,18.7,1.1c4.9,3.5,8.8,9.2,11.7,17.3C2107.4,460.6,2103.7,472,2089.8,477.1z
		 M2069.8,437.3c-0.2,1.2,0,3.1,0.6,5.6c0.6,2.6,1.5,5.3,2.6,8.4c1.2,3.2,2.4,6.1,3.7,8.7c1.3,2.6,2.4,4.4,3.4,5.3
		c0.7,0.2,1.7,0.3,2.8,0.1c1.2-0.2,2.4-0.5,3.7-1c0.8-0.3,1.4-0.6,2-0.9c0.6-0.3,1-0.6,1.2-0.8c0.2-1.4,0.1-3.1-0.3-5.4
		c-0.5-2.2-1.2-4.7-2.2-7.4c-1.1-3.1-2.4-6-3.8-9c-1.4-2.9-2.7-5.1-3.8-6.5c-0.4-0.2-1.3-0.2-2.7,0.1c-1.3,0.3-2.7,0.7-4.2,1.2
		C2071,436.5,2069.9,437,2069.8,437.3z"/>
	<path class="st3" d="M2044,446.1c0.6,2.9,0.9,4.8,1.1,5.7c1.2,6.1,2.1,10.6,2.6,13.7c0.8,4.5,1.3,8.4,1.6,11.7l4.8,0
		c0.5,1.2,0.9,2.2,1.2,3.1c0.3,0.8,0.5,1.8,0.7,2.8l0.1,0.8c-0.4,0.7-1.1,1.5-2.1,2.3c-1,0.8-2.2,1.6-3.6,2.3
		c-1.4,0.7-2.8,1.2-4.3,1.4c-2.8,0.5-5.1,0.3-6.9-0.6c-1.8-0.9-3-2.5-3.4-5c-0.9-5.1-2-13.7-3.4-25.8l-2.1,0.9
		c-1,2.9-2.1,6.7-3.2,11.3c-1.1,4.6-1.7,8.2-1.9,10.6l4.5,0c0.5,1.2,0.9,2.2,1.2,3.1c0.3,0.8,0.5,1.8,0.7,2.8l0.1,0.8
		c-0.4,0.7-1.1,1.4-2.2,2.3s-2.4,1.6-3.9,2.3c-1.5,0.7-3,1.2-4.5,1.4c-1.7,0.3-3.2,0.2-4.7-0.1s-2.7-1-3.7-2.1c-1-1-1.6-2.4-1.9-4.1
		c-0.5-3,0.2-6.7,2-11.3c1.8-4.6,4.1-9.2,6.9-14c-1.5-2.2-3.2-4.3-4.8-6.1c-1.7-1.9-3.1-3.3-4.3-4.2c-0.5,0.3-0.9,0.8-1.3,1.3
		c-0.4,0.5-0.9,1.2-1.5,2.1l-0.6,0.9l-4.9-2.6l-0.1-0.8c-0.6-3.7-0.2-6.9,1.3-9.5c1.5-2.6,4.1-4.2,7.9-4.8c1.4-0.2,2.8-0.3,4.1-0.1
		c1.8,0.2,3.5,1.1,5.1,2.4c1.5,1.4,2.9,3,3.9,5c1.1,2,2,4,2.6,6.2c1.1-0.5,2.6-0.9,4.5-1.2c-0.5-4.1-1-8.7-1.5-14
		c1.7-1.3,3.8-2.1,6.1-2.5c2-0.3,4-0.3,5.9,0.1l0.5,3.3C2043,440.6,2043.4,443.2,2044,446.1z"/>
	<path class="st3" d="M1965.6,457.3c0.7,7.3,1.4,13.4,2,18.3c0.6,4.9,1.3,8,1.9,9.3l3.5,0.5c0.4,1.9,0.6,4.2,0.5,6.9
		c-0.6,1.2-1.5,2.3-2.7,3.1c-1.2,0.8-2.6,1.3-4.2,1.6c-1.6,0.3-3.1,0.3-4.6,0.1c-3.4-0.5-5.8-2.4-7-5.8c-0.6-1.5-1-3.4-1.3-5.5
		c-0.3-2.1-0.4-4.5-0.5-7.4c-0.1-4.8-0.1-9,0.1-12.7c0.2-3.7,0.5-7.7,0.9-11.9l0.3-3.2l-0.5-0.1c-0.8,1.2-1.8,3.9-3.1,8.1
		c-1.3,4.2-2.6,8.6-3.7,13.4c-1.2,4.7-2,8.2-2.3,10.6l4.4,1.3c0.2,1.3,0.2,2.4,0.2,3.4c0,1-0.2,2.2-0.4,3.6c-0.6,0.5-1.5,1-2.7,1.5
		c-1.2,0.5-2.7,0.8-4.3,1.1c-1.6,0.2-3.1,0.2-4.6,0c-2-0.3-3.8-0.9-5.4-1.8c-1.5-0.9-2.7-2.1-3.5-3.5c-0.8-1.5-1.1-3.1-0.8-5
		l0.8-5.4c-0.5-4.3-0.7-9.2-0.7-14.9c0-5.7,0.1-11,0.5-16l-0.4-0.1c-0.7,1.2-1.8,4-3.1,8.2c-1.3,4.2-2.6,8.6-3.8,13.3
		c-1.2,4.7-2,8.2-2.3,10.5l4.1,1.3c0.2,1.3,0.2,2.4,0.2,3.4s-0.2,2.2-0.4,3.6c-0.6,0.5-1.5,1-2.7,1.5c-1.3,0.5-2.7,0.8-4.3,1.1
		c-1.6,0.2-3.2,0.2-4.7,0c-3.1-0.4-5.3-1.6-6.6-3.4c-1.3-1.8-1.7-4.4-1.3-7.6c0.4-3.1,1.5-7,3.2-11.8c1.7-4.7,3.7-9.2,5.8-13.3
		c1.9-3.6,3.6-6.6,5.3-9.2c1.7-2.6,3.7-5,5.9-7.4c0.9-0.7,2-1.1,3.3-1.2c1.3-0.1,2.6-0.1,4,0.1c4.6,0.6,7.9,2,9.9,4.1l-2,7.1
		l0.6,12.2c0.1,3.2,0.1,5.8,0,7.6l0.5,0.1l0.7-4.5c1.4-4.5,3-8.7,4.6-12.4c1.7-3.8,3.4-6.9,5.2-9.4c0.8-0.7,1.8-1.1,3.1-1.2
		c1.2-0.1,2.5-0.1,3.7,0c4.8,0.7,8.1,2,9.8,4.1l-1.7,6.5L1965.6,457.3z"/>
	<path class="st3" d="M1891.6,461.5c-1.5,3.6-3,6.8-4.3,9.5l0.1,0l3.5,2.2c-0.2,1.2-0.4,2.2-0.6,3c-0.2,0.8-0.5,1.6-0.8,2.4
		c-0.2,0.6-0.4,1-0.6,1.3c-0.7,0.4-1.6,0.7-2.8,1c-1.2,0.2-2.5,0.3-4,0.2c-1.4-0.1-2.9-0.4-4.2-0.9c-2.8-1.1-4.6-2.6-5.4-4.6
		c-0.8-2-0.6-4.4,0.6-7.2l1.2-2.9c2-4.8,3.7-8.7,5.2-11.6l-11.3-4.4c-1.8,4.4-3.6,8.4-5.3,12l0.1,0l4.5,2.5c-0.2,1.2-0.4,2.2-0.6,3
		c-0.2,0.8-0.5,1.6-0.8,2.4c-0.2,0.6-0.4,1-0.5,1.3c-0.7,0.4-1.7,0.7-3.1,0.9c-1.4,0.2-2.9,0.2-4.5,0c-1.6-0.2-3.2-0.5-4.6-1.1
		c-2.8-1.1-4.7-2.7-5.6-4.7c-0.9-2-0.8-4.5,0.3-7.3c3.1-7.9,8.6-18.6,16.6-31.9l-5.7,0.2c-1.1-2.1-1.3-4.5-0.6-7
		c0.1-0.2,0.8-0.6,2.3-1.3c1.5-0.7,3.2-1.2,5.2-1.6c2-0.3,4.1-0.1,6.2,0.7c2.2,0.9,3.9,2.2,4.8,3.9c1,1.8,0.9,4.1-0.3,7.1l-0.8,2.2
		c-1.4,3.7-2.7,6.7-3.8,9.1c0.5,0.2,1.3,0.4,2.4,0.8c1.5,0.6,3.7,1.6,6.6,3c1.4,0.7,2.3,1.2,2.9,1.4c0.8-2.3,1.5-4.6,2.1-6.9
		c0.6-2.3,1.2-4.9,1.9-7.9c0.4-1.9,0.7-3.2,1-4.2c1.1-0.2,2.7-0.1,4.9,0.3c2.1,0.4,3.9,0.9,5.2,1.4c0.7,0.3,1.3,0.6,1.9,0.9
		c0.6,0.3,1.2,0.8,1.8,1.3c-1.2,5.4-3.4,12.5-6.8,21.1C1894.5,454.7,1893.1,458,1891.6,461.5z"/>
	<path class="st3" d="M1849,419c-7,6.7-15.1,14.6-24.5,23.8l6.7,5.4c-0.4,1.6-1.1,3.3-2.2,4.9c-0.8,1.3-1.7,2.4-2.8,3.5
		c-3.3-1.3-6.8-3.1-10.6-5.5s-7.1-4.5-9.8-6.2c-2-1.2-3.4-2.2-4.4-2.8l-1.2-2.3c2.5-11.4,7-26.1,13.6-44.1c0.1-0.2,0.2-0.6,0.4-1.1
		c0.2-0.6,0.4-1.1,0.6-1.5c0.2-0.5,0.4-0.9,0.7-1.3c1.1-1.7,2.5-2.7,4.4-2.9c2.1,0.4,4.4,1.4,6.7,2.9c1.1,0.7,2.2,1.6,3.2,2.5
		c1,1,1.5,1.8,1.6,2.6l-5.3,7.5l-1.8,4.5c1.3,0.8,2.8,1.8,4.6,2.9c1.9,1.2,3.6,2.4,5.2,3.5l1.4-1.4c3-3,5.2-5.1,6.6-6.2
		c1.4-1.2,2.8-1.8,4.2-1.9c1.4-0.1,3,0.4,4.9,1.6c1.2,0.8,2.4,1.7,3.4,2.8c1,1.1,1.9,2.2,2.6,3.4c0.7,1.2,1.1,2.2,1.2,3.1
		c-0.9,1.4-2,2.7-3.3,3.7c-1.3,1-2.5,1.6-3.6,1.6C1850.8,420.9,1849.9,419.9,1849,419z M1813.6,435.6l1.4,0.9l11.8-13.8l-6.7-4.3
		L1813.6,435.6z"/>
	<path class="st3" d="M1799,383.8c-0.5-1-1-1.9-1.6-2.9c-0.8,0.4-1.6,1.1-2.5,2.1c-1.3,1.4-3.5,4-6.6,7.8c-4.2,5.2-7.5,9.1-9.9,11.7
		c-1.6,1.8-3.1,3.3-4.4,4.5l4.4,4l7.6-8.2c1.7,0.8,3.4,1.9,5.1,3.4c0.4,0.4,0.7,0.7,0.9,0.9c0.2,1,0.1,2.3-0.2,3.9
		c-0.3,1.6-0.8,3.2-1.6,4.8c-0.7,1.6-1.7,3-2.7,4.2c-1.8,2-3.6,3.3-5.2,3.8c-1.6,0.5-3.2,0.4-4.8-0.3c-1.5-0.7-3.3-1.9-5.3-3.7
		c-3.1-2.8-6.7-6.1-10.8-9.8c-4.1-3.8-8.1-7.4-11.9-10.8c0.1-1.1,0.3-2.1,0.8-3.2c0.5-1,1-1.9,1.7-2.7c1.3-1.5,2.8-2.3,4.5-2.6
		c1.7-0.3,3.3,0.3,4.8,1.6c1,0.9,2,2.2,3.1,3.8c7.9-8.1,15.4-15.4,22.4-21.9c1.4-1.3,2.7-2.3,3.9-3.1c1.2-0.8,2.5-1.3,3.8-1.6
		c1.6-0.3,3.2-0.1,4.9,0.6c1.7,0.7,3.3,1.7,4.8,3.1c1.4,1.3,2.6,2.9,3.6,4.6c0.9,1.8,1.1,3.7,0.6,5.7c-1.1,1.1-2.1,2-3.2,2.7
		c-1.1,0.6-2.5,1.1-4.2,1.4C1800.1,386,1799.5,384.7,1799,383.8z"/>
	<path class="st3" d="M1759.5,341.3c-5.8,4.4-10.8,8.1-15.1,11.2c-4.2,3-7.8,5.5-10.9,7.4l2.8,5.2c-1,1.1-1.8,2-2.5,2.6
		c-0.7,0.6-1.6,1.3-2.6,2c-0.8,0-2-0.3-3.4-0.9c-1.4-0.6-2.8-1.4-4.2-2.4c-1.4-1-2.5-2.2-3.4-3.4c-1.6-2.2-2.4-4.4-2.4-6.6
		c0-2.1,0.9-3.9,2.8-5.4c1.1-0.8,2-1.5,2.8-2.1c3.7-2.6,8.2-5.6,13.6-9c5.4-3.4,11.8-7.3,19.2-11.8l4.2-2.6c1.9,0.9,3.6,2.4,5,4.3
		c1.2,1.7,2,3.4,2.5,5.3l-1.1,0.8C1765.8,336.6,1763.4,338.4,1759.5,341.3z"/>
	<path class="st3" d="M1704.8,311.8c-4.5,0.2-8.6-0.9-12.1-3.1s-6.4-5.7-8.4-10.5c-1.4-3.3-2.4-6.9-3.1-11c0.2-1.5,0.5-2.8,0.9-4
		c0.4-1.2,0.9-2.4,1.7-3.7c1.6-0.7,3.7-1.3,6.4-2c2.7-0.7,5.4-1.2,7.8-1.5c2.5-0.3,4.2-0.3,5.1,0c0.5,0.4,0.9,0.9,1.2,1.2
		c0.3,0.4,0.6,0.9,0.9,1.8c0.4,1,0.8,2,1,3c0.2,1,0.3,1.7,0.2,2.3l-10.6,5.8c0.2,1.7,0.9,4,2.1,6.7c0.3,0.7,0.6,1.3,0.7,1.6
		c3.4-0.3,7.7-1.5,12.8-3.6c0.6-0.2,1.6-0.6,2.8-1.1c2.9-1.2,5.2-2.4,6.9-3.5c1.6-1,2.7-1.9,3.4-2.5c0.7-0.7,1.1-1.5,1.2-2.6
		c0.1-1-0.2-2.3-0.9-4c-0.9-2.2-2.1-4.1-3.5-5.7c-1.4-1.6-3.2-3.3-5.4-4.9c0.5-1.2,1-2.2,1.4-2.8c0.4-0.7,0.9-1.4,1.6-2.1
		c0.7-0.7,1.5-1.4,2.5-2c0.9,0,2.2,0.6,4.1,1.6c1.8,1,3.8,2.5,5.8,4.6c2,2,3.6,4.6,4.9,7.6c3,7.1,3,13.2-0.2,18.2
		c-3.1,5-8.8,9.3-17.1,12.8C1714,310.5,1709.3,311.6,1704.8,311.8z"/>
	<path class="st3" d="M1716,255.2c-9.7-0.2-21-0.4-34.2-0.5l0.9,8.6c-1.4,0.9-3.1,1.5-5,2c-1.5,0.3-2.9,0.5-4.4,0.5
		c-1.4-3.2-2.6-7-3.6-11.4c-1-4.4-1.8-8.2-2.5-11.3c-0.5-2.3-0.9-4-1.1-5.1l0.8-2.5c9.8-6.3,23.4-13.5,40.8-21.5
		c0.2-0.1,0.5-0.3,1.1-0.5c0.5-0.3,1-0.5,1.5-0.6c0.5-0.2,0.9-0.3,1.4-0.4c1.9-0.4,3.7-0.1,5.2,1c1.2,1.8,2.1,4,2.7,6.8
		c0.3,1.3,0.4,2.6,0.5,4c0,1.4-0.2,2.4-0.7,3l-9.1,1.6l-4.4,1.9c0.3,1.5,0.7,3.3,1.2,5.3c0.5,2.2,0.9,4.2,1.2,6.2l2,0
		c4.2,0,7.3,0.1,9.1,0.3c1.8,0.2,3.3,0.7,4.3,1.7c1.1,0.9,1.8,2.5,2.3,4.7c0.3,1.4,0.5,2.9,0.4,4.4c0,1.5-0.2,2.9-0.6,4.2
		c-0.3,1.3-0.8,2.3-1.4,3c-1.7,0.4-3.3,0.5-4.9,0.3c-1.6-0.2-2.8-0.6-3.7-1.4C1715.9,257.8,1716,256.4,1716,255.2z M1679.3,241.8
		l0.4,1.6l18.1-1.4l-1.7-7.8L1679.3,241.8z"/>
	<path class="st3" d="M1705.5,205.5c0.2-0.7,0.4-1.5,0.6-2.4l-33.1,0.9l-1.9,5.7c-1.3,0.6-2.9,0.9-4.7,0.9c-1.4,0-2.7-0.1-3.9-0.5
		c-0.5-1.7-0.9-3.7-1.3-6.2c-0.3-2.4-0.5-4.7-0.6-7c-0.1-3.4,0.1-6.3,0.5-8.9c2.3-1.2,6.6-3.1,12.9-5.6c6.3-2.5,14.7-5.6,25-9.1
		l-0.1-0.6c-5.8,0.8-12.5,1.7-20.3,2.6c-7.8,0.9-13.1,1.4-16,1.4c-0.9-1.2-1.6-2.6-2.1-4.1c-0.5-1.5-0.8-2.9-0.8-4.2
		c-0.1-2.1,0.6-4.1,2-6.1l44.4,2.3c1.7-1.3,3.8-2.1,6.1-2.5c1.1,0.9,1.9,2.4,2.6,4.4c0.6,2,1,4.1,1,6.3c0,1.7-0.1,3.3-0.4,4.7
		c-0.3,1.4-0.8,2.5-1.5,3.3c-1.8,0-3.4-0.1-4.8-0.3c-3.5,1.9-7.3,3.7-11.5,5.5c-4.2,1.8-9.7,4-16.7,6.7l-4.2,1.7l0,0.2
		c3.6-0.6,9-1.3,16.1-2c7.1-0.8,12.3-1.2,15.5-1.3c2.6-0.1,4.6,0.7,6,2.2c1.4,1.5,2.1,4,2.2,7.3c0,1-0.1,2.2-0.5,3.4
		c-0.4,1.2-0.8,2.3-1.4,3.3c-0.6,1-1.2,1.7-1.8,2.1c-1.7,0-3.3-0.2-4.8-0.7c-1.5-0.5-2.6-1.2-3.3-2.1
		C1705.1,206.7,1705.3,206.2,1705.5,205.5z"/>
	<path class="st3" d="M1707,130.8c-0.1-2.1,0.1-4,0.6-5.8c-4.6-0.7-9.6-1.5-15-2.6c-5.4-1-10.4-2.1-15-3.1l0,0l-2,4.8
		c-0.9,0.1-1.9,0.1-3,0c-1.1-0.1-2.1-0.3-3.1-0.5c-0.7-0.2-1.5-0.4-2.4-0.8c-0.5-2.7-0.3-6.8,0.6-12.2c0.9-5.4,2-10.7,3.3-15.9
		c0.9-3.5,1.9-6.4,3.1-8.7c1.2-2.3,2.9-4,5.3-5.2c2.4-1.2,5.5-1.2,9.4-0.3c7.2,1.8,16.3,5.9,27.2,12.3c1.8,1.1,3.4,2.1,4.7,3.2
		c1.4,1.1,2.5,2.3,3.3,3.7c0.8,1.2,1.4,2.4,1.7,3.5c0.3,1.1,0.3,2.4-0.1,3.8c-0.2,0.7-0.5,1.7-1.1,2.8c-0.7,1.4-1.4,2.7-2.2,3.7
		c-0.8,1.1-1.5,1.9-2.2,2.6c-0.7,0.6-1.6,1.4-2.6,2.3c0.5,0.6,1,1.6,1.5,2.8c0.5,1.3,0.9,2.6,1.1,4c0.2,1.4,0.2,2.7-0.1,3.8
		c-1,1.4-2.4,2.4-4.1,3c-1.8,0.5-3.6,0.6-5.5,0.1C1709.3,132,1708.1,131.5,1707,130.8z M1701.7,100.1c-4.1-1.4-8.6-2.9-13.4-4.3
		l-2.4-0.8c-0.3,0.1-0.7,0.6-1.2,1.5c-0.5,0.9-1,2.2-1.4,3.8l-0.7,2.7c-0.3,1.3-0.5,2.3-0.6,3.2c1,0.2,1.8,0.4,2.5,0.6
		c4,0.9,7.6,1.8,10.8,2.6c3.7,0.9,8.9,2.3,15.6,4c0.8-3,1.3-6,1.5-8.9C1709.4,103,1705.8,101.6,1701.7,100.1z"/>
	<path class="st3" d="M1689.5,43.2c2.5-5.3,5.5-9,9.1-11c3.6-2,7.5-2.7,11.8-2.1c4.3,0.6,9,2.1,14.2,4.5c7.7,3.5,13.1,7.9,16.2,13.2
		c3.1,5.2,2.9,11.5-0.4,18.8c-3.4,7.3-8,11.5-13.9,12.5c-5.9,1-12.7-0.3-20.5-3.9C1688.8,67.3,1683.3,56.6,1689.5,43.2z M1731.9,57
		c-0.7-1-2.2-2.2-4.4-3.5c-2.2-1.4-4.8-2.7-7.8-4.1c-3.1-1.4-6-2.6-8.8-3.5c-2.8-0.9-4.8-1.4-6.1-1.3c-0.7,0.3-1.4,1-2.1,1.9
		c-0.7,1-1.3,2.1-1.9,3.3c-0.3,0.7-0.6,1.4-0.8,2c-0.2,0.6-0.3,1.1-0.3,1.4c0.8,1.1,2.1,2.3,4,3.5c1.9,1.2,4.2,2.4,6.8,3.6
		c3,1.4,6,2.6,9.1,3.6c3.1,1,5.5,1.7,7.3,1.9c0.5-0.2,1.1-0.8,1.8-2c0.7-1.2,1.4-2.4,2.1-3.8C1731.6,58.4,1732,57.4,1731.9,57z"/>
</g>
</svg>
