<?xml version="1.0" encoding="utf-8"?>
<!-- Generator: Adobe Illustrator 23.1.1, SVG Export Plug-In . SVG Version: 6.00 Build 0)  -->
<svg version="1.1" id="Layer_1" xmlns="http://www.w3.org/2000/svg" xmlns:xlink="http://www.w3.org/1999/xlink" x="0px" y="0px"
	 viewBox="0 0 1400 425" style="enable-background:new 0 0 1400 425;" xml:space="preserve">
<style type="text/css">
	.st0{fill:#FFF6F6;}
	.st1{fill:none;stroke:#FA0636;stroke-width:3;stroke-miterlimit:10;}
</style>
<rect y="0.5" class="st0" width="1400" height="424"/>
<g>
	<path class="st1" d="M527.18,196.86c-0.31-0.98-0.22-1.93,0.28-2.85s1.25-1.55,2.25-1.87l31.4-9.95l0.04-0.01
		c1-0.32,1.98-0.23,2.93,0.26s1.58,1.24,1.9,2.24c0.32,1,0.23,1.98-0.26,2.93c-0.49,0.95-1.24,1.58-2.24,1.9l-0.04,0.01l-27.74,8.79
		l4.82,15.01l24.75-7.67c1.05-0.33,2.04-0.25,2.97,0.26c0.93,0.51,1.58,1.34,1.94,2.49c0.31,0.98,0.19,1.92-0.35,2.83
		c-0.54,0.91-1.28,1.52-2.21,1.81l-0.04,0.01l-24.67,7.65l4.97,15.48l27.61-8.83l0.04-0.01c1-0.32,1.98-0.23,2.93,0.26
		c0.95,0.49,1.58,1.24,1.9,2.24c0.32,1,0.23,1.98-0.26,2.93c-0.49,0.95-1.24,1.58-2.24,1.9l-0.04,0.01l-31.27,9.99
		c-1,0.32-1.98,0.23-2.93-0.26c-0.95-0.49-1.58-1.23-1.89-2.2L527.18,196.86z"/>
	<path class="st1" d="M600.94,228.11c-1.03,0.22-1.99,0.05-2.89-0.53c-0.9-0.58-1.46-1.38-1.68-2.41l-10.25-46.59
		c-0.07-0.22-0.14-0.44-0.18-0.67c-0.08-0.35-0.07-0.71,0.02-1.07c0.09-0.36,0.21-0.74,0.36-1.14c0.39-1.11,1.15-1.78,2.27-2.03
		c1.8-0.39,3.19,0.04,4.18,1.3l27.22,28.42l11.46-36.87c0.48-1.42,1.36-2.26,2.63-2.54c1.08-0.23,2.09-0.09,3.05,0.44
		c0.95,0.53,1.55,1.34,1.79,2.44l10.22,46.99c0.22,1.03,0.05,1.99-0.53,2.89c-0.58,0.9-1.38,1.46-2.41,1.68
		c-1.03,0.22-1.99,0.05-2.89-0.53c-0.9-0.58-1.46-1.38-1.68-2.41l-7.3-33.58l-8.93,30.03c-0.18,0.51-0.51,1.03-1,1.57
		c-0.49,0.54-1.07,0.88-1.74,1.03c-1.45,0.32-2.7-0.04-3.74-1.08l-22.45-23.48l7.4,33.52l0.01,0.04c0.22,1.03,0.05,1.99-0.53,2.89
		C602.77,227.32,601.97,227.89,600.94,228.11z"/>
	<path class="st1" d="M670.58,214.36c-1.05,0.11-1.98-0.18-2.81-0.86c-0.83-0.68-1.3-1.54-1.4-2.58l-4.9-47.45
		c-0.05-0.23-0.08-0.45-0.11-0.68c-0.04-0.36,0.01-0.71,0.14-1.06c0.13-0.35,0.3-0.71,0.49-1.09c0.51-1.06,1.34-1.64,2.49-1.76
		c1.84-0.19,3.17,0.4,4,1.76l23.83,31.33l15.56-35.34c0.64-1.35,1.6-2.09,2.91-2.22c1.1-0.11,2.09,0.15,2.98,0.78
		c0.89,0.63,1.39,1.51,1.5,2.63l4.82,47.85c0.11,1.05-0.18,1.98-0.86,2.81c-0.68,0.83-1.54,1.29-2.58,1.4
		c-1.05,0.11-1.98-0.18-2.81-0.86c-0.83-0.68-1.29-1.54-1.4-2.58l-3.45-34.19l-12.28,28.82c-0.23,0.49-0.62,0.97-1.17,1.45
		c-0.54,0.48-1.16,0.75-1.85,0.82c-1.48,0.15-2.68-0.35-3.59-1.49l-19.65-25.87l3.56,34.14l0,0.04c0.11,1.05-0.18,1.98-0.86,2.81
		C672.49,213.79,671.63,214.25,670.58,214.36z"/>
	<path class="st1" d="M758.65,155.46c0.29-0.64,0.78-1.17,1.47-1.61c0.69-0.44,1.39-0.65,2.1-0.64c0.69,0.01,1.39,0.25,2.08,0.71
		c0.7,0.46,1.17,1.01,1.42,1.66l20.38,49.37c0.22,0.52,0.33,1.04,0.32,1.58c-0.02,1.05-0.41,1.95-1.18,2.69
		c-0.77,0.74-1.68,1.11-2.73,1.09c-0.72-0.01-1.42-0.25-2.1-0.72c-0.68-0.47-1.16-1.03-1.43-1.68l-6.33-15.36l-21.9-0.65l-6.97,15.5
		c-0.27,0.64-0.75,1.19-1.45,1.65c-0.7,0.46-1.41,0.69-2.13,0.68c-1.05-0.02-1.95-0.41-2.69-1.18c-0.74-0.77-1.11-1.68-1.09-2.73
		c0.01-0.54,0.13-1.06,0.37-1.57L758.65,155.46z M762.01,166.78l-7.85,17.52l15.26,0.43L762.01,166.78z"/>
	<path class="st1" d="M837.72,210.64c0.2-1.03,0.45-2.29,0.76-3.77c0.31-1.48,0.68-3.35,1.11-5.62l7.08-37
		c0.2-1.03,0.72-1.83,1.57-2.4c0.85-0.57,1.81-0.75,2.86-0.55c1.03,0.2,1.86,0.73,2.47,1.61c0.62,0.87,0.83,1.83,0.63,2.86
		c-0.58,3.2-1.18,6.43-1.8,9.67c-0.62,3.25-1.22,6.46-1.79,9.64l29.99-16.75c0.91-0.56,1.83-0.75,2.73-0.58
		c1.08,0.21,1.9,0.78,2.45,1.72c0.55,0.94,0.74,1.89,0.55,2.84c-0.2,1.03-0.79,1.84-1.79,2.44l-24.41,13.51l18.08,28.76
		c0.58,0.92,0.79,1.79,0.64,2.63c-0.19,1.01-0.75,1.79-1.66,2.36c-0.92,0.57-1.89,0.76-2.92,0.56c-0.43-0.08-0.87-0.24-1.32-0.49
		c-0.45-0.24-0.83-0.57-1.14-1l-18.3-29.04l-4.78,2.73c-0.92,4.7-1.72,8.76-2.39,12.16c-0.68,3.41-1.12,5.59-1.32,6.54
		c-0.21,1.08-0.78,1.85-1.71,2.31c-0.94,0.46-1.87,0.6-2.8,0.43c-1.41-0.27-2.29-0.94-2.63-2.01
		C837.52,213.14,837.47,211.95,837.72,210.64z"/>
	<path class="st1" d="M907.02,177.47c0.28-0.99,0.88-1.73,1.81-2.22c0.93-0.5,1.9-0.6,2.91-0.31l31.67,9.06l0.04,0.01
		c1.01,0.29,1.78,0.9,2.3,1.83s0.64,1.91,0.35,2.92c-0.29,1.01-0.9,1.78-1.83,2.3s-1.91,0.64-2.92,0.35l-0.04-0.01l-27.98-8.01
		l-4.28,15.17l24.87,7.28c1.06,0.3,1.84,0.92,2.33,1.86c0.49,0.94,0.57,1.99,0.24,3.15c-0.28,0.99-0.9,1.71-1.86,2.17
		c-0.96,0.46-1.9,0.56-2.84,0.29l-0.04-0.01l-24.79-7.26l-4.42,15.65l27.89,7.9l0.04,0.01c1.01,0.29,1.77,0.9,2.29,1.83
		c0.52,0.93,0.64,1.91,0.35,2.92c-0.29,1.01-0.9,1.78-1.83,2.3c-0.93,0.52-1.91,0.64-2.92,0.35l-0.04-0.01l-31.58-8.96
		c-1.01-0.29-1.78-0.9-2.3-1.83c-0.52-0.93-0.64-1.89-0.36-2.88L907.02,177.47z"/>
	<path class="st1" d="M982.03,195.73c0.41-0.57,1-1,1.76-1.29c0.76-0.29,1.49-0.36,2.19-0.21c0.68,0.15,1.31,0.52,1.9,1.1
		c0.59,0.59,0.94,1.22,1.06,1.9l10.16,52.44c0.12,0.55,0.12,1.09,0,1.61c-0.23,1.03-0.79,1.83-1.69,2.4
		c-0.9,0.58-1.86,0.75-2.89,0.53c-0.7-0.15-1.34-0.53-1.92-1.13c-0.58-0.6-0.94-1.24-1.07-1.93l-3.16-16.31l-21.34-4.99l-9.91,13.81
		c-0.39,0.57-0.97,1.01-1.75,1.33c-0.78,0.32-1.52,0.4-2.22,0.24c-1.03-0.22-1.83-0.79-2.41-1.69s-0.75-1.86-0.53-2.89
		c0.12-0.53,0.34-1.01,0.68-1.47L982.03,195.73z M983.07,207.48L971.9,223.1l14.87,3.45L983.07,207.48z"/>
	<path class="st1" d="M1061.23,258.18c-0.09,1-0.53,1.82-1.33,2.48c-0.79,0.66-1.61,0.95-2.45,0.88c-0.72-0.07-1.32-0.37-1.81-0.92
		c-0.49-0.55-0.83-0.96-1.01-1.23c-2.17-1.85-4.01-3.89-5.52-6.12c-1.51-2.24-2.75-4.63-3.72-7.19c-0.85-2.29-1.75-4.1-2.73-5.42
		c-0.97-1.32-2.2-2.31-3.69-2.96c-1.48-0.65-3.45-1.1-5.9-1.35l-3.48-0.36l-1.66,18.53l-0.01,0.08c-0.09,1.02-0.55,1.88-1.38,2.58
		c-0.82,0.7-1.76,1-2.8,0.9c-1.05-0.1-1.91-0.59-2.59-1.47c-0.68-0.89-0.97-1.89-0.86-3.01l4.24-47.51c0.1-1.07,0.56-1.94,1.38-2.6
		c0.82-0.66,1.74-0.95,2.76-0.88l10.19,0.89l0.88,0.08c4.39,0.4,8.25,1.41,11.58,3.01c3.33,1.6,5.87,3.78,7.62,6.53
		c1.76,2.75,2.46,6.02,2.11,9.82c-0.23,2.45-0.93,4.59-2.11,6.41c-1.18,1.82-2.65,3.32-4.41,4.5c-1.76,1.18-3.61,2.05-5.57,2.62
		c0.77,1.18,1.51,2.61,2.23,4.3c1.22,2.97,2.43,5.61,3.64,7.92s2.88,4.4,5.02,6.27c0.43,0.35,0.78,0.81,1.05,1.39
		C1061.18,256.89,1061.29,257.51,1061.23,258.18z M1039.24,211.23l-7.39-0.68l-1.6,18.3l7.4,0.6c4.7,0.38,8.45,0,11.24-1.13
		c2.79-1.13,4.33-3.22,4.61-6.26c0.29-3.11-0.91-5.6-3.6-7.45C1047.21,212.76,1043.66,211.63,1039.24,211.23z"/>
	<path class="st1" d="M1081.24,210.34c-0.02-1.08,0.35-1.97,1.11-2.7c0.77-0.72,1.69-1.09,2.76-1.12c1.2-0.03,2.2,0.44,2.99,1.4
		l29.86,38.77l-0.79-37.01c-0.02-1.02,0.34-1.91,1.08-2.66s1.63-1.13,2.69-1.15c1.05-0.02,1.96,0.32,2.73,1.04
		c0.77,0.71,1.17,1.58,1.19,2.61l0.99,48.19c0.02,1.08-0.35,1.97-1.11,2.7c-0.77,0.72-1.69,1.09-2.76,1.12
		c-1.2,0.03-2.2-0.47-2.99-1.47l-29.82-38.73l0.79,37.12c0.02,1.03-0.34,1.91-1.08,2.66c-0.74,0.75-1.64,1.13-2.69,1.15
		c-1.05,0.02-1.96-0.32-2.73-1.04c-0.77-0.71-1.17-1.58-1.19-2.61L1081.24,210.34z"/>
	<path class="st1" d="M1141.39,208.05c-0.13-1.02,0.14-1.93,0.8-2.75c0.66-0.82,1.51-1.29,2.55-1.42l32.69-4.04l0.04-0.01
		c1.04-0.13,1.99,0.13,2.83,0.79c0.84,0.66,1.33,1.51,1.46,2.55c0.13,1.04-0.13,1.99-0.79,2.83c-0.66,0.84-1.51,1.33-2.55,1.46
		l-0.04,0.01l-28.88,3.57l1.99,15.63l25.73-3.02c1.09-0.14,2.05,0.13,2.87,0.8c0.82,0.67,1.31,1.61,1.45,2.8
		c0.13,1.02-0.16,1.92-0.86,2.72c-0.7,0.8-1.53,1.26-2.5,1.38l-0.04,0.01l-25.66,3.01l2.05,16.13l28.76-3.63l0.04-0.01
		c1.04-0.13,1.99,0.13,2.83,0.79c0.84,0.66,1.33,1.51,1.46,2.55c0.13,1.04-0.13,1.99-0.79,2.83c-0.66,0.84-1.51,1.33-2.55,1.46
		l-0.04,0.01l-32.57,4.11c-1.04,0.13-1.99-0.13-2.83-0.79c-0.84-0.66-1.33-1.49-1.46-2.51L1141.39,208.05z"/>
	<path class="st1" d="M1195.28,199.61c-0.22-1.03,0.01-1.96,0.7-2.79c0.69-0.83,1.53-1.35,2.53-1.57c1.3-0.28,2.43,0.11,3.39,1.16
		l18.39,20.23l8.19-25.71c0.16-0.45,0.49-0.93,0.97-1.43c0.48-0.5,1.03-0.81,1.63-0.94c0.58-0.12,1.11-0.18,1.6-0.17
		c0.49,0.01,1.04,0.23,1.65,0.65c0.86,0.6,1.38,1.31,1.56,2.14c0.17,0.8,0.14,1.56-0.1,2.26l-10.13,30.57l3.76,18.77
		c0.22,1,0.03,1.94-0.55,2.81c-0.59,0.87-1.39,1.42-2.42,1.64c-1.03,0.22-1.99,0.05-2.88-0.5s-1.45-1.33-1.66-2.34l-0.02-0.08
		l-3.85-19.18l-21.69-23.53C1195.82,201.13,1195.46,200.46,1195.28,199.61z"/>
</g>
</svg>
