<?xml version="1.0" encoding="utf-8"?>
<!-- Generator: Adobe Illustrator 23.1.1, SVG Export Plug-In . SVG Version: 6.00 Build 0)  -->
<svg version="1.1" id="Layer_1" xmlns="http://www.w3.org/2000/svg" xmlns:xlink="http://www.w3.org/1999/xlink" x="0px" y="0px"
	 viewBox="0 0 739.7 116.3" style="enable-background:new 0 0 739.7 116.3;" xml:space="preserve">
<style type="text/css">
	.st0{fill:#FBE8DE;stroke:#FBE8DE;stroke-width:3;stroke-miterlimit:10;}
</style>
<g>
	<path class="st0" d="M1.7,46.9c-0.3-1-0.2-2,0.3-3s1.3-1.6,2.3-1.9l32.6-10.3l0,0c1-0.3,2-0.2,3,0.3c1,0.5,1.7,1.3,2,2.3
		s0.2,2-0.3,3s-1.3,1.7-2.3,2l0,0l-28.8,9.1l5,15.6l25.7-8c1.1-0.3,2.1-0.3,3.1,0.3c1,0.5,1.6,1.4,2,2.6c0.3,1,0.2,2-0.4,2.9
		c-0.6,1-1.3,1.6-2.3,1.9l0,0l-25.6,8l5.2,16.1l28.7-9.2l0,0c1-0.3,2-0.2,3,0.3s1.7,1.3,2,2.3s0.2,2.1-0.3,3c-0.5,1-1.3,1.7-2.3,2
		l0,0L21.8,96.5c-1,0.3-2,0.2-3-0.3s-1.6-1.3-2-2.3L1.7,46.9z"/>
	<path class="st0" d="M78.3,79.3c-1.1,0.2-2.1,0.1-3-0.6c-0.9-0.6-1.5-1.4-1.8-2.5L62.9,27.9c-0.1-0.2-0.1-0.5-0.2-0.7
		c-0.1-0.4-0.1-0.7,0-1.1s0.2-0.8,0.4-1.2c0.4-1.1,1.2-1.9,2.4-2.1c1.9-0.4,3.3,0,4.3,1.4l28.3,29.5L110,15.3
		c0.5-1.5,1.4-2.4,2.7-2.6c1.1-0.2,2.2-0.1,3.2,0.5s1.6,1.4,1.9,2.5l10.6,48.8c0.2,1.1,0.1,2.1-0.5,3c-0.6,0.9-1.4,1.5-2.5,1.8
		c-1.1,0.2-2.1,0.1-3-0.6c-0.9-0.6-1.5-1.4-1.8-2.5L113,31.3l-9.3,31.2c-0.2,0.5-0.5,1.1-1,1.6c-0.5,0.6-1.1,0.9-1.8,1.1
		c-1.5,0.3-2.8,0-3.9-1.1L73.7,39.7l7.7,34.8l0,0c0.2,1.1,0.1,2.1-0.6,3C80.2,78.5,79.4,79.1,78.3,79.3z"/>
	<path class="st0" d="M150.7,65c-1.1,0.1-2.1-0.2-2.9-0.9c-0.9-0.7-1.4-1.6-1.5-2.7l-5.1-49.3c-0.1-0.2-0.1-0.5-0.1-0.7
		c0-0.4,0-0.7,0.1-1.1c0.1-0.4,0.3-0.7,0.5-1.1c0.5-1.1,1.4-1.7,2.6-1.8c1.9-0.2,3.3,0.4,4.2,1.8l24.8,32.5L189.5,5
		c0.7-1.4,1.7-2.2,3-2.3c1.1-0.1,2.2,0.2,3.1,0.8c0.9,0.7,1.4,1.6,1.6,2.7l5,49.7c0.1,1.1-0.2,2.1-0.9,2.9s-1.6,1.3-2.7,1.5
		c-1.1,0.1-2.1-0.2-2.9-0.9s-1.4-1.6-1.5-2.7l-3.6-35.5l-12.8,30c-0.2,0.5-0.6,1-1.2,1.5c-0.6,0.5-1.2,0.8-1.9,0.9
		c-1.5,0.2-2.8-0.4-3.7-1.5l-20.4-26.9l3.7,35.5l0,0c0.1,1.1-0.2,2.1-0.9,2.9C152.7,64.5,151.8,64.9,150.7,65z"/>
	<path class="st0" d="M242.2,3.8c0.3-0.7,0.8-1.2,1.5-1.7s1.4-0.7,2.2-0.7c0.7,0,1.4,0.3,2.2,0.7c0.7,0.5,1.2,1,1.5,1.7l21.2,51.3
		c0.2,0.5,0.3,1.1,0.3,1.6c0,1.1-0.4,2-1.2,2.8c-0.8,0.8-1.7,1.2-2.8,1.1c-0.8,0-1.5-0.3-2.2-0.8s-1.2-1.1-1.5-1.7l-6.6-16L234,41.7
		l-7.2,16.1c-0.3,0.7-0.8,1.2-1.5,1.7s-1.5,0.7-2.2,0.7c-1.1,0-2-0.4-2.8-1.2s-1.1-1.7-1.1-2.8c0-0.6,0.1-1.1,0.4-1.6L242.2,3.8z
		 M245.7,15.6l-8.1,18.2l15.9,0.5L245.7,15.6z"/>
	<path class="st0" d="M324.4,61.2c0.2-1.1,0.5-2.4,0.8-3.9s0.7-3.5,1.1-5.8l7.4-38.5c0.2-1.1,0.8-1.9,1.6-2.5s1.9-0.8,3-0.6
		s1.9,0.8,2.6,1.7s0.9,1.9,0.6,3c-0.6,3.3-1.2,6.7-1.9,10.1s-1.3,6.7-1.9,10l31.2-17.4c1-0.6,1.9-0.8,2.8-0.6c1.1,0.2,2,0.8,2.5,1.8
		c0.6,1,0.8,2,0.6,3c-0.2,1.1-0.8,1.9-1.9,2.5l-25.4,14l18.8,29.9c0.6,1,0.8,1.9,0.7,2.7c-0.2,1.1-0.8,1.9-1.7,2.5s-2,0.8-3,0.6
		c-0.5-0.1-0.9-0.2-1.4-0.5s-0.9-0.6-1.2-1l-19-30.2l-5,2.8c-1,4.9-1.8,9.1-2.5,12.6s-1.2,5.8-1.4,6.8c-0.2,1.1-0.8,1.9-1.8,2.4
		s-1.9,0.6-2.9,0.4c-1.5-0.3-2.4-1-2.7-2.1C324.1,63.8,324.1,62.5,324.4,61.2z"/>
	<path class="st0" d="M396.4,26.7c0.3-1,0.9-1.8,1.9-2.3s2-0.6,3-0.3l32.9,9.4l0,0c1,0.3,1.9,0.9,2.4,1.9s0.7,2,0.4,3
		c-0.3,1-0.9,1.8-1.9,2.4c-1,0.5-2,0.7-3,0.4l0,0L403,32.9l-4.5,15.8l25.8,7.6c1.1,0.3,1.9,1,2.4,1.9c0.5,1,0.6,2.1,0.2,3.3
		c-0.3,1-0.9,1.8-1.9,2.2c-1,0.5-2,0.6-3,0.3l0,0l-25.8-7.5l-4.6,16.3l29,8.2l0,0c1,0.3,1.8,0.9,2.4,1.9s0.7,2,0.4,3
		c-0.3,1.1-0.9,1.8-1.9,2.4s-2,0.7-3,0.4l0,0l-32.8-9.3c-1-0.3-1.9-0.9-2.4-1.9s-0.7-2-0.4-3L396.4,26.7z"/>
	<path class="st0" d="M474.3,45.7c0.4-0.6,1-1,1.8-1.3s1.5-0.4,2.3-0.2c0.7,0.2,1.4,0.5,2,1.2c0.6,0.6,1,1.3,1.1,2l10.6,54.5
		c0.1,0.6,0.1,1.1,0,1.7c-0.2,1.1-0.8,1.9-1.8,2.5c-0.9,0.6-1.9,0.8-3,0.6c-0.7-0.2-1.4-0.6-2-1.2s-1-1.3-1.1-2l-3.3-17l-22.2-5.2
		l-10.3,14.3c-0.4,0.6-1,1.1-1.8,1.4s-1.6,0.4-2.3,0.2c-1.1-0.2-1.9-0.8-2.5-1.8c-0.6-0.9-0.8-1.9-0.5-3c0.1-0.6,0.4-1.1,0.7-1.5
		L474.3,45.7z M475.4,57.9l-11.6,16.2l15.5,3.6L475.4,57.9z"/>
	<path class="st0" d="M556.6,110.6c-0.1,1-0.6,1.9-1.4,2.6s-1.7,1-2.5,0.9c-0.7-0.1-1.4-0.4-1.9-0.9c-0.5-0.6-0.9-1-1-1.3
		c-2.3-1.9-4.2-4-5.7-6.4s-2.8-4.8-3.9-7.5c-0.9-2.4-1.8-4.3-2.8-5.6c-1-1.4-2.3-2.4-3.8-3.1s-3.6-1.1-6.1-1.4l-3.6-0.4l-1.7,19.3
		v0.1c-0.1,1.1-0.6,1.9-1.4,2.7c-0.8,0.7-1.8,1-2.9,0.9c-1.1-0.1-2-0.6-2.7-1.5s-1-2-0.9-3.1l4.4-49.4c0.1-1.1,0.6-2,1.4-2.7
		c0.8-0.7,1.8-1,2.9-0.9l10.6,0.9l0.9,0.1c4.6,0.4,8.6,1.5,12,3.1c3.5,1.7,6.1,3.9,7.9,6.8c1.8,2.9,2.5,6.3,2.2,10.2
		c-0.2,2.6-1,4.8-2.2,6.7c-1.2,1.9-2.8,3.4-4.6,4.7c-1.8,1.2-3.8,2.1-5.8,2.7c0.8,1.2,1.6,2.7,2.3,4.5c1.3,3.1,2.5,5.8,3.8,8.2
		s3,4.6,5.2,6.5c0.5,0.4,0.8,0.8,1.1,1.4C556.6,109.2,556.7,109.9,556.6,110.6z M533.8,61.8l-7.7-0.7l-1.7,19l7.7,0.6
		c4.9,0.4,8.8,0,11.7-1.2s4.5-3.3,4.8-6.5s-1-5.8-3.7-7.7C542,63.4,538.3,62.2,533.8,61.8z"/>
	<path class="st0" d="M577.4,60.9c0-1.1,0.4-2,1.2-2.8s1.8-1.1,2.9-1.2c1.2,0,2.3,0.5,3.1,1.5l31,40.3l-0.8-38.5
		c0-1.1,0.3-2,1.1-2.8s1.7-1.2,2.8-1.2s2,0.3,2.8,1.1c0.8,0.7,1.2,1.7,1.2,2.7l1,50.1c0,1.1-0.4,2.1-1.2,2.8s-1.8,1.1-2.9,1.2
		c-1.2,0-2.3-0.5-3.1-1.5l-31-40.2l0.8,38.6c0,1.1-0.3,2-1.1,2.8s-1.7,1.2-2.8,1.2s-2-0.3-2.8-1.1c-0.8-0.7-1.2-1.6-1.2-2.7
		L577.4,60.9z"/>
	<path class="st0" d="M639.9,58.5c-0.1-1.1,0.1-2,0.8-2.9c0.7-0.8,1.6-1.3,2.7-1.5l34-4.2l0,0c1.1-0.1,2.1,0.1,2.9,0.8
		s1.4,1.6,1.5,2.7s-0.1,2.1-0.8,2.9c-0.7,0.9-1.6,1.4-2.7,1.5l0,0l-30,3.7l2.1,16.2l26.7-3.1c1.1-0.1,2.1,0.1,3,0.8
		c0.8,0.7,1.4,1.7,1.5,2.9c0.1,1.1-0.2,2-0.9,2.8s-1.6,1.3-2.6,1.4l0,0l-26.7,3.1l2.1,16.8l29.9-3.8l0,0c1.1-0.1,2.1,0.1,2.9,0.8
		s1.4,1.6,1.5,2.7s-0.1,2.1-0.8,2.9c-0.7,0.9-1.6,1.4-2.7,1.5l0,0l-33.8,4.3c-1.1,0.1-2.1-0.1-2.9-0.8s-1.4-1.6-1.5-2.6L639.9,58.5z
		"/>
	<path class="st0" d="M695.9,49.7c-0.2-1.1,0-2,0.7-2.9s1.6-1.4,2.6-1.6c1.3-0.3,2.5,0.1,3.5,1.2l19.1,21l8.5-26.7
		c0.2-0.5,0.5-1,1-1.5s1.1-0.8,1.7-1c0.6-0.1,1.2-0.2,1.7-0.2s1.1,0.2,1.7,0.7c0.9,0.6,1.4,1.4,1.6,2.2c0.2,0.8,0.1,1.6-0.1,2.3
		L727.4,75l3.9,19.5c0.2,1,0,2-0.6,2.9s-1.5,1.5-2.5,1.7c-1.1,0.2-2.1,0.1-3-0.5s-1.5-1.4-1.7-2.4v-0.1l-4-19.9L697,51.8
		C696.5,51.3,696.1,50.6,695.9,49.7z"/>
</g>
</svg>
