<?xml version="1.0" encoding="utf-8"?>
<!-- Generator: Adobe Illustrator 23.1.1, SVG Export Plug-In . SVG Version: 6.00 Build 0)  -->
<svg version="1.1" id="Layer_1" xmlns="http://www.w3.org/2000/svg" xmlns:xlink="http://www.w3.org/1999/xlink" x="0px" y="0px"
	 viewBox="0 0 248.7 613" style="enable-background:new 0 0 248.7 613;" xml:space="preserve">
<style type="text/css">
	.st0{fill:#FA0636;stroke:#FA0636;stroke-width:2;stroke-miterlimit:10;}
</style>
<path class="st0" d="M244.1,481c-0.1-2.6-0.2-5.8,0.1-10.3c0.5-6.8,0.7-8.1,1.6-10.7c0.5-1.6,2.2-7,1.7-11.7c-0.3-3.5-1.6-5-2.6-5.7
	c-1.5-1.1-4.1-0.8-7.5,0.7c-0.3-2.7-0.9-5.4-1.4-7.8c-0.7-3.4-1.4-6.6-1.3-9c0.1-6.2-1.7-21.9-8.5-41.9
	c-3.5-10.2-7.9-16.1-12.5-22.2c-1.5-2-3.1-4.1-4.7-6.5c-1.8-2.5-3-4.8-4-6.7c-1.9-3.5-3.3-6.2-6.5-5.8c-4.5,0.6-8.6,5.9-9,11.7
	c-0.1,1.4,0.1,4,0.5,6.2c-1.2-0.9-2.5-1.8-3.8-2.8c-3.2-2.3-6.7-4.9-11.3-8.4c-2.1-1.6-4.8-3.7-7.8-6c-8.2-6.4-18.4-14.3-22.4-17
	c-0.2-0.8-0.5-1.5-0.7-2.3c-1.4-4.5-2.6-8.7-7.6-10c-1.1-0.3-4.6,0.2-7.5,2.1c-2.1,1.4-3.5,3.2-4.1,5.4l-2.2-55.4l-2.3-64.9
	l-0.9-25.9l-3.1-87.7c-0.1-2.2-2.2-2.2-2.2,0L113.6,229l-0.1,21.4l-0.1,22.5c0,0,0.1,34.4-0.1,52.1c-0.3-0.6-0.6-1.3-1-2
	c-0.9-1.6-5.4-9.4-10.4-8.5c-7.3,1.4-11.2,16.1-14.1,26.8c-1,3.7-1.8,6.8-2.5,8.2c-2.6,5.4-5.2,9.9-14.3,24.1
	c-12.3,19.1-20,38.6-24.7,50.3c-1.8,4.5-3.2,8.1-4,9.2C5.3,488.3,3.1,546.7,2.1,574.8c-0.2,6.1-0.4,11-0.9,13.8l3,0.5
	c0.5-3,0.7-7.7,1-14.2c1.1-27.8,3.2-85.6,39.8-140.1c1-1.4,2.3-4.8,4.3-9.8c4.6-11.6,12.2-31,24.4-49.8
	c9.2-14.3,11.8-18.8,14.5-24.4c0.8-1.7,1.6-4.8,2.7-8.7c2.4-8.8,6.3-23.6,11.7-24.7c2-0.4,5.2,3.3,7.2,7c2.1,3.9,2,4.7,1.5,7
	c-0.1,0.4-0.2,0.9-0.3,1.5c-5.6,31.1-11.2,46.9-11.2,47c-9.2,25.7-13.2,51.8-9.6,62.1c3.5,9.9,13.5,21.3,27.5,22.8
	c8.2,0.9,14.1,0.1,18.4-2.3c6.2-3.4,10-9.3,11.7-11.7c0.3-0.4,0.4-0.7,0.6-0.8c1.1-1.4,5.2-6.1,8.2-9.5l0,1.1l3,0l-0.1-4.6l-0.2,0
	c0.2-1,0.2-2.8,0.1-7c-0.2-7.6-0.5-20.4,1.8-26.7c1.2-3.4,2.7-5.8,3.6-7.3c0.4-0.7,0.9-1.5,1.1-2.2l1.6-2.5l-2.5-1.6l-0.6,0.9
	c-5.6-4.2-16.2-17-25.3-32.5c-7.4-12.8-13-23.4-11.4-33.9c0.8-5.4,7.3-6.3,8.2-6.3c3.1,0.9,4,3.5,5.4,8c0.7,2.4,1.6,5.2,3.1,7.8
	c3,5.1,6.1,9.2,8.5,12.5c1,1.4,1.9,2.6,2.7,3.7c1.7,2.5,3.7,4.7,6,6.5c3.7,3.1,7.1,5.6,10.1,7.8c6.1,4.6,11,8.2,16.1,14.3
	c4.3,5,4.1,11,3.9,21c-0.1,2.3-0.1,4.8-0.1,7.6c0,4.9-0.3,6.7-3.8,29.4c-0.8,5.1-1.7,11.2-2.9,18.5c0,0-0.7,4.5-5.1,27.7
	c-1.2,6.5-1.8,9.6-3.4,13.6c0,0.1-3.8,9.8-11.4,18.2c-8.1,8.9-21.7,15.2-36.2,21.9c-16.9,7.8-34.4,15.9-46.2,29.3
	c-10.1,11.4-15.8,27-17.2,46.4l3,0.2c1.3-18.7,6.9-33.7,16.5-44.6c11.3-12.9,28.5-20.8,45.2-28.5c9.5-4.4,18.6-8.6,26.2-13.6
	l0.1,0.2c1-0.6,7-4.2,12.9-8.2c3.8,1.4,16.8,3.3,27.4,4.2c16.6,1.5,26.3,1,28.7-1.5c4.1-4.2,5.4-6.6,7.3-10.2c0.8-1.4,1.6-3,2.8-5
	c5.2-8.7,5.5-9.4,6.5-11.6c0.2-0.4,0.4-0.9,0.7-1.6C244.4,487.9,244.3,485.2,244.1,481z M92.8,441c-2.8-8.1-0.4-31.9,9.6-60.1
	c0.1-0.2,5.2-14.8,10.6-43.7l-0.3,35.1l-0.4,18.1c0,2.5,0.3,17,0.3,19.1l0.2,13.1l0.6,38.3C103.5,458.1,95.7,449.2,92.8,441z
	 M136.3,359.3c9.7,16.7,20.6,29.5,26.4,33.6c-0.2,0.4-0.5,0.8-0.7,1.2c-1,1.7-2.5,4.2-3.8,7.8c-2.5,6.8-2.2,19.5-2,27.8
	c0.1,2.6,0.1,5.3,0,6.2c-2.8,2.9-9,10.2-10.4,11.9c-0.2,0.2-0.4,0.6-0.7,1c-1.5,2.3-5.1,7.7-10.7,10.8c-1.2,0.7-2.6,1.2-4.2,1.6
	l-2.1-64.2l-0.9-19.1l-1-22.2l-0.8-20C127.3,343.3,131.4,350.9,136.3,359.3z M192.5,355.1c0.3-4.6,3.7-8.5,6.4-8.9
	c1-0.1,1.7,1,3.5,4.3c1,1.9,2.3,4.3,4.1,7c1.7,2.4,3.3,4.5,4.8,6.6c4.7,6.2,8.7,11.6,12.1,21.4c6.7,19.7,8.4,35.4,8.4,40.9
	c0,2.8,0.7,6.1,1.4,9.7c1.6,7.5,3.3,15.9-1,21.8c-11,14.7-32.2,33.2-46.6,44.3c1.8-3.1,2.6-5.6,3.2-7.8c0.1-0.4,0.2-0.8,0.4-1.2
	c0.9-2.8,1.6-5,2.4-7.1c2-5.8,3.7-10.8,6.4-23.3c2.6-1.9,10.9-8.5,15.3-16.8c1.3-2.4,0.5-5.3-0.6-9.4c-0.8-2.9-1.7-6.4-2.3-10.8
	c-0.2-1.6-0.6-6-0.9-9.8c-0.3-3.9-0.6-7.3-0.8-8.2l-0.2,0c0.7-5.1,1-9.8,0.9-15.5c-0.1-5.9-2-17.2-13.9-26.8
	c-0.7-0.6-1.4-1.1-2.1-1.6l0.2-0.1C193.2,362.7,192.3,357.3,192.5,355.1z M218.1,477.8c0.2,2.1,0.3,2.9,0.2,3.2
	c-0.1,1.6-0.7,3.3-1.6,5c-0.6,1.1-1.3,2.2-5.2,6.2c-2.8,2.9-4.8,5-5.7,5.2c-0.6,0.1-4.1-0.3-7.5-1.8
	C204.9,490.1,211.8,483.9,218.1,477.8z M198.9,458.1c1-4.7,2.1-10.3,3.3-17.1c1.1-6,2.1-10.9,3-15.3c0.5-2.7,1-5.1,1.4-7.4
	c0.3,3.3,0.6,6.4,0.7,7.7c0.6,4.6,1.6,8.3,2.4,11.2c0.9,3.4,1.6,5.9,0.9,7.2C207.5,450.3,202.4,455.2,198.9,458.1z M172.1,511.4
	c-0.9,0.6-1.8,1.3-2.7,1.9c6.4-8,9.5-15.9,9.6-16.3c1.6-4.3,2.3-7.6,3.6-14.2c4.4-23.4,5.1-27.7,5.1-27.8c1.1-7.4,2.1-13.5,2.9-18.5
	c3.5-22.8,3.8-24.7,3.8-29.8c0-2.7,0.1-5.1,0.1-7.5c0.2-10.3,0.4-17-4.6-23c-5.3-6.3-10.5-10.2-16.5-14.7c-2.9-2.2-6.3-4.7-10-7.8
	c-2.1-1.7-3.9-3.7-5.4-5.9c-0.8-1.1-1.7-2.3-2.7-3.8c-2.3-3.1-5.2-7-8.1-11.7c4.9,3.6,12.1,9.2,18.2,13.9c2.9,2.3,5.6,4.4,7.8,6
	c4.6,3.5,8.1,6.1,11.3,8.4c3.4,2.5,6.3,4.6,9.2,6.9c10.9,8.8,12.7,19.1,12.8,24.5c0.2,11.2-1.3,18.5-4.1,33c-0.9,4.4-1.8,9.4-3,15.3
	c-5.5,29.7-7.7,35.9-10.6,44.5c-0.7,2.2-1.5,4.4-2.4,7.2c-0.1,0.4-0.2,0.8-0.4,1.2c-1,3.2-2.1,6.9-6.5,12.3c-1,1.2-3.7,3.2-6.9,5.6
	C172.4,511.3,172.2,511.3,172.1,511.4L172.1,511.4z M239.9,490.3c-0.3,0.7-0.6,1.2-0.8,1.6c-1,2.1-1.3,2.7-6.4,11.3
	c-1.2,2-2.1,3.6-2.9,5.1c-1.9,3.5-3.1,5.7-6.9,9.6c-3.3,3.4-40-0.2-50.8-2.8c0.6-0.4,1.2-0.8,1.7-1.2c4-2.1,12.4-8.3,21.9-16.2
	c0.6,0.3,1.2,0.6,1.8,0.9c3.9,1.6,7.8,2.1,9,1.8c1.7-0.5,3.5-2.4,7-6c4.2-4.3,5-5.6,5.7-6.9c1.1-2.1,1.8-4.1,1.9-6.1
	c0.1-0.8-0.1-2.5-0.5-5.9l0-0.2c5.4-5.4,10.2-10.7,13.7-15.5c2.9-3.8,3.5-8.5,3.3-13.2c3.2-1.6,5.1-1.8,5.5-1.5
	c0.5,0.3,1.1,1.4,1.3,3.5c0.4,4.1-1.1,9.1-1.6,10.5c-1,3-1.3,4.8-1.8,11.5c-0.3,4.6-0.2,7.9-0.1,10.6
	C241.3,485.1,241.3,487.3,239.9,490.3z"/>
<path class="st0" d="M170.3,137.4l-3.5-3.4c-2.3-2.2-5.4-3.6-8.6-3.7l-4.9-0.2l3.3-3.2c2.5-2.4,3.9-5.8,3.9-9.3l0-4.6l3.7,3.5
	c2.3,2.1,5.2,3.4,8.3,3.5l5,0.2l-3.5,3.8c-2,2.2-3.2,5-3.4,8L170.3,137.4z"/>
<path class="st0" d="M102.5,13.4l3.3-1.8c2.2-1.2,3.8-3.2,4.6-5.5l1.2-3.5l1.6,3.1c1.2,2.4,3.4,4.2,5.9,5l3.3,1l-3.4,1.9
	c-2.1,1.2-3.7,3.1-4.5,5.3l-1.3,3.6l-2-3.5c-1.2-2-2.9-3.5-5.1-4.3L102.5,13.4z"/>
<path class="st0" d="M39.8,261.6l-0.9-6.4c-0.6-4.3-2.7-8.2-6-10.9l-5-4.2l6-0.6c4.6-0.5,8.9-2.8,11.7-6.5l3.8-4.8l1,6.6
	c0.6,4.1,2.7,7.8,5.8,10.5l5.1,4.4l-6.8,1.1c-3.9,0.7-7.5,2.6-10.1,5.6L39.8,261.6z"/>
</svg>
