<?xml version="1.0" encoding="utf-8"?>
<!-- Generator: Adobe Illustrator 23.1.1, SVG Export Plug-In . SVG Version: 6.00 Build 0)  -->
<svg version="1.1" id="Layer_1" xmlns="http://www.w3.org/2000/svg" xmlns:xlink="http://www.w3.org/1999/xlink" x="0px" y="0px"
	 viewBox="0 0 494.95 638.44" style="enable-background:new 0 0 494.95 638.44;" xml:space="preserve">
<style type="text/css">
	.st0{fill:#FEF6F6;}
	.st1{fill:#F05354;}
</style>
<polygon class="st0" points="25,49.89 73,19 108,49.89 130,117 157.14,214 181,261 223,122 256.92,31 299,19 329.11,49.89 
	329.11,100 294,223 318,235 379,261 430,245 460,261 471,304.79 466,524 441,588.56 374,615 127,615 73,568 35,501 25,452 96,330 
	"/>
<path class="st1" d="M473.1,240.28c-13.51-12.61-32.04-19.55-52.17-19.55c-13.16,0-25.62,3.96-36.3,10.75
	c-13.03-16.42-33.07-26.96-55.51-26.96c-1.17,0-2.33,0.04-3.48,0.09l29.84-114.77c10.31-37.71-11.91-76.81-49.62-87.24
	c-18.25-5.05-37.42-2.66-53.96,6.72c-16.55,9.38-28.44,24.59-33.49,42.84c-0.05,0.17-0.09,0.33-0.13,0.5L180.69,200.4L140.6,52.28
	c-0.01-0.04-0.03-0.09-0.04-0.13C130.11,14.38,90.88-7.86,53.11,2.59s-60,49.67-49.59,87.33l64.53,237.74
	c-2.68,2.83-5.15,5.88-7.39,9.15l-0.77,1.12l-49.23,91.94c-14.93,26.37-14.18,54.45,2.25,83.47c6.16,11.78,36.88,68.32,74.21,100.52
	c18.37,15.85,41.85,24.57,66.11,24.57h200.36c77.95,0,141.36-62.97,141.36-140.37v-206C494.95,271.82,487.19,253.43,473.1,240.28z
	 M350.31,276.11v44.36c0,11.69-9.51,21.2-21.2,21.2s-21.2-9.51-21.2-21.2v-44.36c0-11.97,9.51-21.72,21.2-21.72
	C340.8,254.39,350.31,264.14,350.31,276.11z M266.54,65.24c1.52-5.32,5.05-9.76,9.95-12.54c4.96-2.81,10.66-3.53,16.07-2.04
	c11.27,3.12,17.9,14.82,14.79,26.08c-0.04,0.12-0.07,0.25-0.1,0.37L247.68,306.2c-5.49-1.26-11.14-1.94-16.81-1.94h-25.14
	L266.54,65.24z M66.41,50.66c11.25-3.11,22.93,3.5,26.07,14.73l64.66,238.87h-34.75c-2.98,0-5.93,0.18-8.86,0.53L51.63,76.74
	C48.51,65.48,55.15,53.77,66.41,50.66z M13.02,513.53c0.04,0.08,0.09,0.16,0.14,0.24C13.14,513.74,13.09,513.66,13.02,513.53z
	 M353.59,588.56H153.23c-12.31,0-24.22-4.43-33.53-12.46c-25.51-22.01-51.43-64.49-62.72-86.11c-0.31-0.6-0.5-0.92-0.52-0.96
	c-9.23-16.15-7.72-25.26-2.31-34.74l48.32-90.22c4.7-6.24,12.06-9.93,19.92-9.93h108.48c6.99,0,13.83,2.9,18.78,7.95
	c4.73,4.81,7.25,11.02,7.13,17.49c-0.26,13.48-11.44,24.44-24.93,24.44h-90.89l-27.28,52.07l44.18,23.14l13.27-25.34h60.71
	c19.73,0,38.35-7.61,52.42-21.43c12.33-12.11,19.95-27.78,21.9-44.73c7.2,2.47,14.92,3.82,22.95,3.82
	c17.78,0,34.05-6.58,46.53-17.41c12.65,10.84,29.06,17.41,46.99,17.41c7.84,0,15.38-1.26,22.45-3.58v110.1
	C445.08,547.97,404.04,588.56,353.59,588.56z M422.63,341.67c-12.38,0-22.45-10.07-22.45-22.44v-25.47
	c0-10.94,8.87-23.16,20.74-23.16c11.68,0,24.15,5.64,24.15,21.46v27.17C445.08,331.61,435.01,341.67,422.63,341.67z"/>
</svg>
