<?xml version="1.0" encoding="utf-8"?>
<!-- Generator: Adobe Illustrator 23.1.1, SVG Export Plug-In . SVG Version: 6.00 Build 0)  -->
<svg version="1.1" id="Layer_1" xmlns="http://www.w3.org/2000/svg" xmlns:xlink="http://www.w3.org/1999/xlink" x="0px" y="0px"
	 viewBox="0 0 500 500" style="enable-background:new 0 0 500 500;" xml:space="preserve">
<style type="text/css">
	.st0{fill:#BA1D80;stroke:#00804A;stroke-width:3;stroke-miterlimit:10;}
	.st1{fill:#6FB144;}
	.st2{fill:#007F49;}
	.st3{fill:#BA1D80;stroke:#6EB144;stroke-width:3;stroke-miterlimit:10;}
</style>
<path class="st0" d="M158.53,932.86c0.21-5.33,1.08-10.63,2.59-15.74c-3.59-0.41-7.19-0.82-10.78-1.23
	c6.48-5.46,8.04-14.76,8.15-23.23c0.07-5.13-0.24-10.26-0.92-15.34c-0.24-1.82-0.85-4.01-2.63-4.47c-2.51,2.06-2.59,5.77-3.49,8.89
	c-1.36,4.67-4.98,8.51-9.32,10.72c-4.33,2.22-9.32,2.93-14.19,2.69c-1.51,10.24-4.1,20.94-4.49,31.24
	C134.58,929.62,147.09,930.68,158.53,932.86z"/>
<path class="st1" d="M17.45,885.34c0,0,16.59,5.17,32.22,7.48c33.78,5,71.5-6.71,82.62-10.39c0.88,10.59,1.33,22.24,1.07,34.79
	c-0.2,9.51-0.79,18.46-1.63,26.79c-15.73-3.13-48.2-8.86-81.49-8.93c-6.87-0.01-18.2,0-33.05,1.73c-4.04,0.47-12.17,1.07-32.29,5.75
	c-14.34,3.34-28.68,6.68-43.03,10.01c0.37-8.16,3.9-15.58,6.8-23c4.29-10.97,7.34-22.61,9.1-34.5c0.88-5.93-0.36-29.27,3.77-31.48
	c4.41-2.36,8.99,2.91,28.37,11.56C-10.09,875.13,1.97,880.52,17.45,885.34z"/>
<path class="st0" d="M2.35,959.95c5.25,1.76,10.86,2.39,16.37,1.84c0.25-3.02,0.14-6.08-0.33-9.07
	c13.35,9.85,31.1,10.68,47.68,11.13c1.39,0.04,3.39-1,2.54-2.09c-7.94-2.25-15.54-5.68-22.48-10.14c-2.56-1.64-5.06-3.46-6.99-5.82
	c-3.64-4.46-4.87-10.44-8.09-15.22c-1.01-1.5-13.23,0.27-15.14,0.44c-3.48,0.3-10.42-0.12-13,2.66c-2.06,2.22-1.36,6.65-1.35,9.39
	C1.6,948.71,1.85,954.34,2.35,959.95z"/>
<path class="st2" d="M12.25,858.35c-2.01-10.06-1.25-12.44-6.42-48.38c-0.9-6.22-1.57-10.66-3.92-16.33
	c-2.5-6.03-8.84-21.33-24.1-26.12c0,0-15.23-4.35-33.32,6.65c-2.58,1.57-6.14,3.78-9.48,7.89c-3.85,4.73-4.9,3.58-8.52,16.85
	c-4.17,15.28-3.27,27.15-1.83,41.19c0.78,7.63,2.8,18.94,3.44,26.58c0.12,1.48,0.76,6.24-1.74,7.12c-0.24,0.08-1.7,0.49-1.7,0.49
	c-5.57,1.23-10.21,1.5-15.78,2.74c-7.49,1.66-15.27,3.46-21.2,8.33c-3.19,2.62-5.65,5.98-8.32,9.13
	c-5.1,6.02-11.04,11.31-17.6,15.69c1.72,6.25,7.36,23.5,24.2,36.25c25.92,19.64,56.37,11.94,60.28,10.88
	c5-4.8,12.18-12.79,17.75-24.33c6.48-13.43,7.67-25.2,8.75-36.97c1.08-11.77,0.45-21.25-0.83-40.19
	c-1.35-20.02-3.04-30.99-2.51-31.07c0.66-0.1,4.48,16.98,6.6,36.65c2.37,21.87,2.6,40.93,2.6,40.93c0.05,4.52,0.07,12.69,1.4,23.72
	c1.33,11.1,2.82,14,3.65,17.07c0,0,31.46,1.76,56.07-6.6c2.25-0.76,5.55-1.95,9.49-3.63c-5.37-6.71-12.07-15.99-18.56-27.77
	C24.88,894.64,16.44,879.33,12.25,858.35z"/>
<path class="st0" d="M-100.98,758.59c7.43,7.22,10.72,17.15,12.72,26.86c2.81,13.64,3.53,27.64,2.13,41.46
	c-1.73,17-2.05,34.89,10.79,47.37c-17.01,11.77-42.02,28.32-59.4,39.63c-0.82,0.54-3.25,1.85-3.25,1.85
	c-1.35-1.85-3.39-6.39-3.95-7.49c-10.06-19.63-12.08-32.45-14.32-51.1c-4.57-38.18,0.21-77.26,13.88-113.6
	c-1.56,4.15,30.28,1.23,30.72,1.96C-109.69,748.75-106.43,753.29-100.98,758.59z"/>
<path class="st2" d="M-143.83,684.06c-9.21,3.1-14.5,9.21-16.94,12.09c-2.35,2.77-5.9,6.95-7.32,13.02
	c-1.84,7.91,1.85,10.81,2.97,20.14c1.66,13.8-5.35,16.49-6.08,35.21c-0.36,9.2,0.42,7.02,1.43,18.88
	c1.03,12.12-0.64,24.47-4.85,35.89c-2.11,5.73-4.89,11.38-5.23,17.47c-0.6,10.87,3.97,13.16,1.54,20.69
	c-2.14,6.62-7.02,8.92-7.45,16.62c-0.19,3.46,0.68,4.97,1.57,5.78c1.92,1.74,5.11,1.29,6.51,1.09c3.2-0.45,3.51-1.71,6.33-1.78
	c1.9-0.05,3.38,0.49,5.12,1.11c2.45,0.88,2.71,1.44,5.02,2.51c0.51,0.24,7.58,3.43,12.11,1.39c0.7-0.31,1.33-0.74,1.33-0.74
	c1.15-1.01,1.09-2.45,3.25-3.67c5.45-3.08,12.92,5.56,17.81,0.17c0.49-0.54,0.79-0.99,1.12-1.73c3.39-7.55-2.47-21.91-4.45-30.22
	c-3.36-14.05,3.64-13.75,1.86-32c-1.85-19-9.46-19.66-8.56-35.35c0.6-10.43,4.04-11.43,4.84-25.67c0.27-4.91,0.16-10.03,2.81-16.42
	c1.11-2.66,1.61-3.46,4.18-8.85c2.79-5.83,4.16-8.76,3.59-12.13c-0.59-3.46-2.45-3.26-3.83-8.38c-0.59-2.19-1.32-5.04-0.19-8.18
	c0.34-0.94,1.43-3.99,4.04-4.93c1.85-0.67,2.62,0.43,5.3,0c1.61-0.26,4.55-1.15,5.02-2.79c0.69-2.4-4.07-5.88-6.98-7.53
	C-129.24,679.35-142.43,683.59-143.83,684.06z"/>
<rect x="-0.19" y="0.69" class="st1" width="499.31" height="499.31"/>
<path class="st1" d="M-109.48,718.16c-2.42,4.34-6.25,8.25-6.53,13.22c-0.28,4.87,3,9.3,3.31,14.17
	c-5.77,3.46-13.12,4.18-19.46,1.89c0.76-6.61,1.46-13.58-1.19-19.67c-2.08-4.78-6.05-8.56-8.05-13.38
	c-2.17-5.23-1.73-11.44,0.99-16.41c2.71-4.97,7.61-8.66,13.09-10.1C-108.57,682.96-101.69,704.2-109.48,718.16z"/>
<path class="st1" d="M28.98,736.19c1.2-0.64,2.39-1.33,3.7-1.65c3.97-0.97,7.85,1.64,11.12,4.11c3.11,2.34,6.22,4.69,9.33,7.03
	c0.93,0.7,1.9,1.45,2.34,2.54c0.44,1.08,0.1,2.58-1,2.97c-0.63,0.23-1.33,0.04-1.98-0.15c-5.42-1.53-11.01-2.45-16.64-2.73
	c-3.12-0.16-6.6,0.02-8.78,2.27c-0.87,0.9-1.46,2.24-1.02,3.41c0.43,1.13,1.66,1.73,2.82,2.02c4.09,1.02,8.86-0.29,12.29,2.17
	c0.58,0.42,1.15,1.11,0.92,1.79c-0.16,0.47-0.63,0.75-1.08,0.96c-5.46,2.66-12,2.97-17.69,0.85c-1.86-0.69-3.62-1.63-5.5-2.27
	c-4.96-1.69-10.36-1.22-15.54-0.51c-0.56,0.08-0.61-15.56,5.12-17.41C14.65,739.25,21.79,740,28.98,736.19z"/>
<path class="st0" d="M-31.3,732.24c-3.19,0.48-9.62,1.61-17.42,4.34c-8.38,2.93-14.19,6.25-23.74,11.7
	c-6.21,3.55-6.8,4.22-13.18,7.7c-7.77,4.24-12.32,6.19-15.71,7.51c-4.11,1.59-3.93,1.24-7.5,2.65c-8.97,3.53-13.46,5.3-16.22,9.08
	c-4.29,5.87-4.23,15.89,0.7,22.19c5.67,7.25,16.12,7.45,20.43,7.53c0.25,0,0.46,0.01,0.5,0.01c5.84,0.02,10.97-1.69,15.35-3.91
	c6-3.05,9.09-6.31,16.05-12.14c5.72-4.79,11.1-9.31,17.16-13.12c13.01-8.17,25.06-10.53,27.38-10.97c0,0,12.54-2.34,25.98-0.48
	c0.01,0,0.04,0,0.08,0.01c1.84,0.33,8.55,0.73,8.55,0.73s0.63-4.02,0.83-8.03c0-0.07,0.5-5.08,1.5-15.08
	c0.44-4.44,0.7-6.13,0.7-6.13c-5.99-2.02-11.35-3.12-15.63-3.73c-5.33-0.77-9.85-0.91-13.1-0.89
	C-20.43,731.22-25.19,731.32-31.3,732.24z"/>
<g>
	<g>
		<path class="st3" d="M177.13,444.16c0.11-2.75,0.56-5.48,1.34-8.12c-1.85-0.21-3.71-0.42-5.56-0.63
			c3.34-2.81,4.15-7.61,4.21-11.98c0.03-2.65-0.12-5.29-0.47-7.92c-0.13-0.94-0.44-2.07-1.36-2.3c-1.29,1.06-1.34,2.98-1.8,4.58
			c-0.7,2.41-2.57,4.39-4.81,5.53c-2.24,1.14-4.81,1.51-7.32,1.39c-0.78,5.28-2.11,10.8-2.32,16.12
			C164.77,442.49,171.23,443.03,177.13,444.16z"/>
		<path class="st3" d="M104.34,419.64c0,0,8.56,2.67,16.62,3.86c17.43,2.58,36.89-3.46,42.63-5.36c0.45,5.47,0.69,11.48,0.55,17.95
			c-0.1,4.91-0.41,9.53-0.84,13.82c-8.12-1.61-24.87-4.57-42.04-4.61c-3.54-0.01-9.39,0-17.05,0.89c-2.08,0.24-6.28,0.55-16.66,2.97
			c-7.4,1.72-14.8,3.44-22.2,5.17c0.19-4.21,2.01-8.04,3.51-11.87c2.21-5.66,3.79-11.66,4.7-17.8c0.45-3.06-0.19-15.1,1.95-16.24
			c2.28-1.22,4.64,1.5,14.64,5.96C90.13,414.37,96.35,417.15,104.34,419.64z"/>
		<path class="st3" d="M96.55,458.13c2.71,0.91,5.61,1.23,8.45,0.95c0.13-1.56,0.07-3.13-0.17-4.68c6.89,5.08,16.04,5.51,24.6,5.74
			c0.72,0.02,1.75-0.51,1.31-1.08c-4.09-1.16-8.02-2.93-11.6-5.23c-1.32-0.85-2.61-1.78-3.6-3c-1.88-2.3-2.51-5.39-4.17-7.85
			c-0.52-0.77-6.83,0.14-7.81,0.23c-1.79,0.16-5.38-0.06-6.71,1.37c-1.07,1.15-0.7,3.43-0.7,4.85
			C96.16,452.33,96.29,455.24,96.55,458.13z"/>
		<path class="st3" d="M101.66,405.71c-1.04-5.19-0.64-6.42-3.31-24.96c-0.46-3.21-0.81-5.5-2.02-8.43
			c-1.29-3.11-4.56-11.01-12.43-13.47c0,0-7.86-2.25-17.19,3.43c-1.33,0.81-3.17,1.95-4.89,4.07c-1.99,2.44-2.53,1.85-4.4,8.7
			c-2.15,7.88-1.69,14.01-0.94,21.25c0.4,3.93,1.45,9.77,1.78,13.71c0.06,0.76,0.39,3.22-0.9,3.67c-0.12,0.04-0.88,0.25-0.88,0.25
			c-2.87,0.64-5.27,0.77-8.14,1.41c-3.86,0.86-7.88,1.79-10.94,4.3c-1.64,1.35-2.91,3.09-4.29,4.71c-2.63,3.1-5.7,5.84-9.08,8.1
			c0.89,3.23,3.8,12.12,12.48,18.7c13.38,10.13,29.08,6.16,31.1,5.62c2.58-2.48,6.28-6.6,9.16-12.55c3.35-6.93,3.96-13,4.52-19.07
			c0.56-6.07,0.23-10.96-0.43-20.74c-0.69-10.33-1.57-15.99-1.3-16.03c0.34-0.05,2.31,8.76,3.41,18.91
			c1.22,11.28,1.34,21.12,1.34,21.12c0.03,2.33,0.04,6.55,0.72,12.24c0.69,5.73,1.45,7.22,1.88,8.81c0,0,16.23,0.91,28.93-3.41
			c1.16-0.39,2.86-1.01,4.9-1.87c-2.77-3.46-6.23-8.25-9.57-14.33C108.18,424.44,103.82,416.54,101.66,405.71z"/>
		<path class="st3" d="M43.24,354.24c3.83,3.73,5.53,8.85,6.56,13.86c1.45,7.04,1.82,14.26,1.1,21.39c-0.89,8.77-1.06,18,5.57,24.44
			c-8.78,6.07-21.68,14.61-30.65,20.45c-0.42,0.28-1.68,0.96-1.68,0.96c-0.7-0.95-1.75-3.3-2.04-3.86
			c-5.19-10.13-6.23-16.74-7.39-26.37c-2.36-19.7,0.11-39.86,7.16-58.61c-0.81,2.14,15.62,0.64,15.85,1.01
			C38.74,349.17,40.43,351.51,43.24,354.24z"/>
		<path class="st3" d="M38.85,333.38c-1.64,2.93-3.04,3.82-3.37,6.82c-0.33,3.02,1.08,5.65,2.24,7.31c-1.03,0.56-2.92,1.42-5.44,1.6
			c-2.24,0.16-4.05-0.28-5.13-0.63c0.39-3.41,0.75-7-0.61-10.15c-1.07-2.47-3.12-4.42-4.15-6.91c-1.12-2.7-0.89-5.9,0.51-8.47
			c1.4-2.57,3.92-4.47,6.75-5.21C39.32,315.22,42.87,326.18,38.85,333.38z"/>
		<path class="st3" d="M15.33,318.99c-1.32,1.28-4.23,4.26-5.21,8.82c-0.34,1.57-0.1,1.67,0.03,11.32c0.03,2.35,0.06,3.53,0.04,3.69
			c-0.5,4.31-2.87,6.74-3.18,14.47c-0.19,4.75,0.22,3.62,0.74,9.74c0.53,6.26-0.33,12.63-2.5,18.52c-1.09,2.96-2.53,5.87-2.7,9.02
			c-0.31,5.61,2.05,6.79,0.79,10.68c-1.1,3.41-3.62,4.6-3.84,8.58c-0.1,1.79,0.35,2.57,0.81,2.98c0.99,0.9,2.64,0.67,3.36,0.56
			c1.65-0.23,1.81-0.88,3.27-0.92c0.98-0.02,1.74,0.25,2.64,0.57c1.27,0.46,1.4,0.74,2.59,1.3c0.26,0.12,3.91,1.77,6.25,0.72
			c0.36-0.16,0.69-0.38,0.69-0.38c0.59-0.52,0.56-1.26,1.67-1.89c2.81-1.59,6.67,2.87,9.19,0.09c0.25-0.28,0.41-0.51,0.58-0.89
			c1.75-3.89-1.27-11.3-2.3-15.59c-1.73-7.25,1.88-7.1,0.96-16.51c-0.73-7.47-3.18-9.44-4.1-13.54c-0.45-2-0.36-3.57-0.32-4.7
			c0.28-7.79,4.99-10.4,5.64-16.48c0.84-7.84-6.28-10-5.2-19.73c0.24-2.15,0.7-5.14,2.94-6.68c2.82-1.94,6.56,0.11,9.43-2.54
			c0.5-0.46,1.31-1.21,1.3-2.21c-0.02-2.39-4.77-4.64-8.62-5.11C22.6,311.93,16.59,317.76,15.33,318.99z"/>
		<path class="st3" d="M110.29,342.69c0.62-0.33,1.23-0.69,1.91-0.85c2.05-0.5,4.05,0.84,5.74,2.12c1.6,1.21,3.21,2.42,4.81,3.63
			c0.48,0.36,0.98,0.75,1.21,1.31c0.23,0.56,0.05,1.33-0.51,1.53c-0.33,0.12-0.69,0.02-1.02-0.08c-2.8-0.79-5.68-1.26-8.58-1.41
			c-1.61-0.08-3.41,0.01-4.53,1.17c-0.45,0.46-0.75,1.16-0.52,1.76c0.22,0.58,0.86,0.89,1.46,1.04c2.11,0.52,4.57-0.15,6.34,1.12
			c0.3,0.22,0.59,0.57,0.47,0.92c-0.08,0.24-0.33,0.39-0.56,0.5c-2.82,1.37-6.19,1.53-9.13,0.44c-0.96-0.36-1.87-0.84-2.84-1.17
			c-2.56-0.87-5.34-0.63-8.02-0.26c-0.29,0.04-0.32-8.03,2.64-8.98C102.9,344.27,106.58,344.65,110.29,342.69z"/>
		<path class="st3" d="M79.19,340.65c-1.64,0.25-4.96,0.83-8.99,2.24c-4.32,1.51-7.32,3.23-12.25,6.04c-3.2,1.83-3.51,2.18-6.8,3.97
			c-4.01,2.19-6.35,3.2-8.1,3.87c-2.41,0.94-2.57,0.7-3.87,1.36c-3.31,1.69-5.18,4.32-5.8,5.27c-1.1,1.69-4.36,6.71-2.21,10.86
			c2.25,4.33,8.67,4.4,9.96,4.42c3.75,0.04,6.55-1.4,8.75-2.54c2.86-1.48,3.94-2.62,8.28-6.26c2.95-2.47,5.73-4.8,8.86-6.77
			c6.71-4.22,12.93-5.43,14.13-5.66c0,0,6.47-1.21,13.4-0.25c0,0,0.02,0,0.04,0.01c0.95,0.17,4.41,0.37,4.41,0.37
			s0.32-2.07,0.43-4.14c0-0.04,0.26-2.62,0.77-7.78c0.23-2.29,0.36-3.16,0.36-3.16c-3.09-1.04-5.85-1.61-8.06-1.93
			c-2.75-0.39-5.08-0.47-6.76-0.46C84.8,340.12,82.34,340.17,79.19,340.65z"/>
		<path class="st3" d="M-7.23,310.47"/>
		<path class="st3" d="M-12.14,320.79"/>
	</g>
	<g>
		<path class="st3" d="M65.57,298.2c-0.11,2.75-0.56,5.48-1.34,8.12c1.85,0.21,3.71,0.42,5.56,0.63c-3.34,2.81-4.15,7.61-4.21,11.98
			c-0.03,2.65,0.12,5.29,0.47,7.92c0.13,0.94,0.44,2.07,1.36,2.3c1.29-1.06,1.34-2.98,1.8-4.58c0.7-2.41,2.57-4.39,4.81-5.53
			c2.24-1.14,4.81-1.51,7.32-1.39c0.78-5.28,2.11-10.8,2.32-16.12C77.93,299.87,71.48,299.32,65.57,298.2z"/>
		<path class="st3" d="M138.37,322.72c0,0-8.56-2.67-16.62-3.86c-17.43-2.58-36.89,3.46-42.63,5.36
			c-0.45-5.47-0.69-11.48-0.55-17.95c0.1-4.91,0.41-9.53,0.84-13.82c8.12,1.61,24.87,4.57,42.04,4.61c3.54,0.01,9.39,0,17.05-0.89
			c2.08-0.24,6.28-0.55,16.66-2.97c7.4-1.72,14.8-3.44,22.2-5.17c-0.19,4.21-2.01,8.04-3.51,11.87c-2.21,5.66-3.79,11.66-4.7,17.8
			c-0.45,3.06,0.19,15.1-1.95,16.24c-2.28,1.22-4.64-1.5-14.64-5.96C152.58,327.98,146.35,325.2,138.37,322.72z"/>
		<path class="st3" d="M146.15,284.22c-2.71-0.91-5.61-1.23-8.45-0.95c-0.13,1.56-0.07,3.13,0.17,4.68
			c-6.89-5.08-16.04-5.51-24.6-5.74c-0.72-0.02-1.75,0.51-1.31,1.08c4.09,1.16,8.02,2.93,11.6,5.23c1.32,0.85,2.61,1.78,3.6,3
			c1.88,2.3,2.51,5.39,4.17,7.85c0.52,0.77,6.83-0.14,7.81-0.23c1.79-0.16,5.38,0.06,6.71-1.37c1.07-1.15,0.7-3.43,0.7-4.85
			C146.54,290.02,146.41,287.12,146.15,284.22z"/>
		<path class="st3" d="M141.05,336.64c1.04,5.19,0.64,6.42,3.31,24.96c0.46,3.21,0.81,5.5,2.02,8.43
			c1.29,3.11,4.56,11.01,12.43,13.47c0,0,7.86,2.25,17.19-3.43c1.33-0.81,3.17-1.95,4.89-4.07c1.99-2.44,2.53-1.85,4.4-8.7
			c2.15-7.88,1.69-14.01,0.94-21.25c-0.4-3.93-1.45-9.77-1.78-13.71c-0.06-0.76-0.39-3.22,0.9-3.67c0.12-0.04,0.88-0.25,0.88-0.25
			c2.87-0.64,5.27-0.77,8.14-1.41c3.86-0.86,7.88-1.79,10.94-4.3c1.64-1.35,2.91-3.09,4.29-4.71c2.63-3.1,5.7-5.84,9.08-8.1
			c-0.89-3.23-3.8-12.12-12.48-18.7c-13.38-10.13-29.08-6.16-31.1-5.62c-2.58,2.48-6.28,6.6-9.16,12.55
			c-3.35,6.93-3.96,13-4.52,19.07c-0.56,6.07-0.23,10.96,0.43,20.74c0.69,10.33,1.57,15.99,1.3,16.03
			c-0.34,0.05-2.31-8.76-3.41-18.91c-1.22-11.28-1.34-21.12-1.34-21.12c-0.03-2.33-0.04-6.55-0.72-12.24
			c-0.69-5.73-1.45-7.22-1.88-8.81c0,0-16.23-0.91-28.93,3.41c-1.16,0.39-2.86,1.01-4.9,1.87c2.77,3.46,6.23,8.25,9.57,14.33
			C134.53,317.92,138.89,325.82,141.05,336.64z"/>
		<path class="st3" d="M199.47,388.11c-3.83-3.73-5.53-8.85-6.56-13.86c-1.45-7.04-1.82-14.26-1.1-21.39
			c0.89-8.77,1.06-18-5.57-24.44c8.78-6.07,21.68-14.61,30.65-20.45c0.42-0.28,1.68-0.96,1.68-0.96c0.7,0.95,1.75,3.3,2.04,3.86
			c5.19,10.13,6.23,16.74,7.39,26.37c2.36,19.7-0.11,39.86-7.16,58.61c0.81-2.14-15.62-0.64-15.85-1.01
			C203.97,393.19,202.28,390.85,199.47,388.11z"/>
		<path class="st3" d="M203.85,408.97c1.64-2.93,3.04-3.82,3.37-6.82c0.33-3.02-1.08-5.65-2.24-7.31c1.03-0.56,2.92-1.42,5.44-1.6
			c2.24-0.16,4.05,0.28,5.13,0.63c-0.39,3.41-0.75,7,0.61,10.15c1.07,2.47,3.12,4.42,4.15,6.91c1.12,2.7,0.89,5.9-0.51,8.47
			c-1.4,2.57-3.92,4.47-6.75,5.21C203.39,427.13,199.83,416.17,203.85,408.97z"/>
		<path class="st3" d="M227.38,423.37c1.32-1.28,4.23-4.26,5.21-8.82c0.34-1.57,0.1-1.67-0.03-11.32c-0.03-2.35-0.06-3.53-0.04-3.69
			c0.5-4.31,2.87-6.74,3.18-14.47c0.19-4.75-0.22-3.62-0.74-9.74c-0.53-6.26,0.33-12.63,2.5-18.52c1.09-2.96,2.53-5.87,2.7-9.02
			c0.31-5.61-2.05-6.79-0.79-10.68c1.1-3.41,3.62-4.6,3.84-8.58c0.1-1.79-0.35-2.57-0.81-2.98c-0.99-0.9-2.64-0.67-3.36-0.56
			c-1.65,0.23-1.81,0.88-3.27,0.92c-0.98,0.02-1.74-0.25-2.64-0.57c-1.27-0.46-1.4-0.74-2.59-1.3c-0.26-0.12-3.91-1.77-6.25-0.72
			c-0.36,0.16-0.69,0.38-0.69,0.38c-0.59,0.52-0.56,1.26-1.67,1.89c-2.81,1.59-6.67-2.87-9.19-0.09c-0.25,0.28-0.41,0.51-0.58,0.89
			c-1.75,3.89,1.27,11.3,2.3,15.59c1.73,7.25-1.88,7.1-0.96,16.51c0.73,7.47,3.18,9.44,4.1,13.54c0.45,2,0.36,3.57,0.32,4.7
			c-0.28,7.79-4.99,10.4-5.64,16.48c-0.84,7.84,6.28,10,5.2,19.73c-0.24,2.15-0.7,5.14-2.94,6.68c-2.82,1.94-6.56-0.11-9.43,2.54
			c-0.5,0.46-1.31,1.21-1.3,2.21c0.02,2.39,4.77,4.64,8.62,5.11C220.11,430.43,226.12,424.59,227.38,423.37z"/>
		<path class="st3" d="M132.42,399.67c-0.62,0.33-1.23,0.69-1.91,0.85c-2.05,0.5-4.05-0.84-5.74-2.12c-1.6-1.21-3.21-2.42-4.81-3.63
			c-0.48-0.36-0.98-0.75-1.21-1.31c-0.23-0.56-0.05-1.33,0.51-1.53c0.33-0.12,0.69-0.02,1.02,0.08c2.8,0.79,5.68,1.26,8.58,1.41
			c1.61,0.08,3.41-0.01,4.53-1.17c0.45-0.46,0.75-1.16,0.52-1.76c-0.22-0.58-0.86-0.89-1.46-1.04c-2.11-0.52-4.57,0.15-6.34-1.12
			c-0.3-0.22-0.59-0.57-0.47-0.92c0.08-0.24,0.33-0.39,0.56-0.5c2.82-1.37,6.19-1.53,9.13-0.44c0.96,0.36,1.87,0.84,2.84,1.17
			c2.56,0.87,5.34,0.63,8.02,0.26c0.29-0.04,0.32,8.03-2.64,8.98C139.81,398.09,136.13,397.7,132.42,399.67z"/>
		<path class="st3" d="M163.52,401.71c1.64-0.25,4.96-0.83,8.99-2.24c4.32-1.51,7.32-3.23,12.25-6.04c3.2-1.83,3.51-2.18,6.8-3.97
			c4.01-2.19,6.35-3.2,8.1-3.87c2.41-0.94,2.57-0.7,3.87-1.36c3.31-1.69,5.18-4.32,5.8-5.27c1.1-1.69,4.36-6.71,2.21-10.86
			c-2.25-4.33-8.67-4.4-9.96-4.42c-3.75-0.04-6.55,1.4-8.75,2.54c-2.86,1.48-3.94,2.62-8.28,6.26c-2.95,2.47-5.73,4.8-8.86,6.77
			c-6.71,4.22-12.93,5.43-14.13,5.66c0,0-6.47,1.21-13.4,0.25c0,0-0.02,0-0.04-0.01c-0.95-0.17-4.41-0.37-4.41-0.37
			s-0.32,2.07-0.43,4.14c0,0.04-0.26,2.62-0.77,7.78c-0.23,2.29-0.36,3.16-0.36,3.16c3.09,1.04,5.85,1.61,8.06,1.93
			c2.75,0.39,5.08,0.47,6.76,0.46C157.91,402.23,160.36,402.18,163.52,401.71z"/>
		<path class="st3" d="M249.94,431.89"/>
		<path class="st3" d="M254.85,421.56"/>
	</g>
	<g>
		<path class="st3" d="M321.47,444.16c-0.11-2.75-0.56-5.48-1.34-8.12c1.85-0.21,3.71-0.42,5.56-0.63
			c-3.34-2.81-4.15-7.61-4.21-11.98c-0.03-2.65,0.12-5.29,0.47-7.92c0.13-0.94,0.44-2.07,1.36-2.3c1.29,1.06,1.34,2.98,1.8,4.58
			c0.7,2.41,2.57,4.39,4.81,5.53c2.24,1.14,4.81,1.51,7.32,1.39c0.78,5.28,2.11,10.8,2.32,16.12
			C333.83,442.49,327.38,443.03,321.47,444.16z"/>
		<path class="st3" d="M394.26,419.64c0,0-8.56,2.67-16.62,3.86c-17.43,2.58-36.89-3.46-42.63-5.36
			c-0.45,5.47-0.69,11.48-0.55,17.95c0.1,4.91,0.41,9.53,0.84,13.82c8.12-1.61,24.87-4.57,42.04-4.61c3.54-0.01,9.39,0,17.05,0.89
			c2.08,0.24,6.28,0.55,16.66,2.97c7.4,1.72,14.8,3.44,22.2,5.17c-0.19-4.21-2.01-8.04-3.51-11.87c-2.21-5.66-3.79-11.66-4.7-17.8
			c-0.45-3.06,0.19-15.1-1.95-16.24c-2.28-1.22-4.64,1.5-14.64,5.96C408.47,414.37,402.25,417.15,394.26,419.64z"/>
		<path class="st3" d="M402.05,458.13c-2.71,0.91-5.61,1.23-8.45,0.95c-0.13-1.56-0.07-3.13,0.17-4.68
			c-6.89,5.08-16.04,5.51-24.6,5.74c-0.72,0.02-1.75-0.51-1.31-1.08c4.09-1.16,8.02-2.93,11.6-5.23c1.32-0.85,2.61-1.78,3.6-3
			c1.88-2.3,2.51-5.39,4.17-7.85c0.52-0.77,6.83,0.14,7.81,0.23c1.79,0.16,5.38-0.06,6.71,1.37c1.07,1.15,0.7,3.43,0.7,4.85
			C402.44,452.33,402.31,455.24,402.05,458.13z"/>
		<path class="st3" d="M396.95,405.71c1.04-5.19,0.64-6.42,3.31-24.96c0.46-3.21,0.81-5.5,2.02-8.43
			c1.29-3.11,4.56-11.01,12.43-13.47c0,0,7.86-2.25,17.19,3.43c1.33,0.81,3.17,1.95,4.89,4.07c1.99,2.44,2.53,1.85,4.4,8.7
			c2.15,7.88,1.69,14.01,0.94,21.25c-0.4,3.93-1.45,9.77-1.78,13.71c-0.06,0.76-0.39,3.22,0.9,3.67c0.12,0.04,0.88,0.25,0.88,0.25
			c2.87,0.64,5.27,0.77,8.14,1.41c3.86,0.86,7.88,1.79,10.94,4.3c1.64,1.35,2.91,3.09,4.29,4.71c2.63,3.1,5.7,5.84,9.08,8.1
			c-0.89,3.23-3.8,12.12-12.48,18.7c-13.38,10.13-29.08,6.16-31.1,5.62c-2.58-2.48-6.28-6.6-9.16-12.55
			c-3.35-6.93-3.96-13-4.52-19.07c-0.56-6.07-0.23-10.96,0.43-20.74c0.69-10.33,1.57-15.99,1.3-16.03
			c-0.34-0.05-2.31,8.76-3.41,18.91c-1.22,11.28-1.34,21.12-1.34,21.12c-0.03,2.33-0.04,6.55-0.72,12.24
			c-0.69,5.73-1.45,7.22-1.88,8.81c0,0-16.23,0.91-28.93-3.41c-1.16-0.39-2.86-1.01-4.9-1.87c2.77-3.46,6.23-8.25,9.57-14.33
			C390.43,424.44,394.78,416.54,396.95,405.71z"/>
		<path class="st3" d="M455.37,354.24c-3.83,3.73-5.53,8.85-6.56,13.86c-1.45,7.04-1.82,14.26-1.1,21.39
			c0.89,8.77,1.06,18-5.57,24.44c8.78,6.07,21.68,14.61,30.65,20.45c0.42,0.28,1.68,0.96,1.68,0.96c0.7-0.95,1.75-3.3,2.04-3.86
			c5.19-10.13,6.23-16.74,7.39-26.37c2.36-19.7-0.11-39.86-7.16-58.61c0.81,2.14-15.62,0.64-15.85,1.01
			C459.86,349.17,458.18,351.51,455.37,354.24z"/>
		<path class="st3" d="M459.75,333.38c1.64,2.93,3.04,3.82,3.37,6.82c0.33,3.02-1.08,5.65-2.24,7.31c1.03,0.56,2.92,1.42,5.44,1.6
			c2.24,0.16,4.05-0.28,5.13-0.63c-0.39-3.41-0.75-7,0.61-10.15c1.07-2.47,3.12-4.42,4.15-6.91c1.12-2.7,0.89-5.9-0.51-8.47
			c-1.4-2.57-3.92-4.47-6.75-5.21C459.29,315.22,455.73,326.18,459.75,333.38z"/>
		<path class="st3" d="M483.28,318.99c1.32,1.28,4.23,4.26,5.21,8.82c0.34,1.57,0.1,1.67-0.03,11.32c-0.03,2.35-0.06,3.53-0.04,3.69
			c0.5,4.31,2.87,6.74,3.18,14.47c0.19,4.75-0.22,3.62-0.74,9.74c-0.53,6.26,0.33,12.63,2.5,18.52c1.09,2.96,2.53,5.87,2.7,9.02
			c0.31,5.61-2.05,6.79-0.79,10.68c1.1,3.41,3.62,4.6,3.84,8.58c0.1,1.79-0.35,2.57-0.81,2.98c-0.99,0.9-2.64,0.67-3.36,0.56
			c-1.65-0.23-1.81-0.88-3.27-0.92c-0.98-0.02-1.74,0.25-2.64,0.57c-1.27,0.46-1.4,0.74-2.59,1.3c-0.26,0.12-3.91,1.77-6.25,0.72
			c-0.36-0.16-0.69-0.38-0.69-0.38c-0.59-0.52-0.56-1.26-1.67-1.89c-2.81-1.59-6.67,2.87-9.19,0.09c-0.25-0.28-0.41-0.51-0.58-0.89
			c-1.75-3.89,1.27-11.3,2.3-15.59c1.73-7.25-1.88-7.1-0.96-16.51c0.73-7.47,3.18-9.44,4.1-13.54c0.45-2,0.36-3.57,0.32-4.7
			c-0.28-7.79-4.99-10.4-5.64-16.48c-0.84-7.84,6.28-10,5.2-19.73c-0.24-2.15-0.7-5.14-2.94-6.68c-2.82-1.94-6.56,0.11-9.43-2.54
			c-0.5-0.46-1.31-1.21-1.3-2.21c0.02-2.39,4.77-4.64,8.62-5.11C476.01,311.93,482.01,317.76,483.28,318.99z"/>
		<path class="st3" d="M388.32,342.69c-0.62-0.33-1.23-0.69-1.91-0.85c-2.05-0.5-4.05,0.84-5.74,2.12c-1.6,1.21-3.21,2.42-4.81,3.63
			c-0.48,0.36-0.98,0.75-1.21,1.31s-0.05,1.33,0.51,1.53c0.33,0.12,0.69,0.02,1.02-0.08c2.8-0.79,5.68-1.26,8.58-1.41
			c1.61-0.08,3.41,0.01,4.53,1.17c0.45,0.46,0.75,1.16,0.52,1.76c-0.22,0.58-0.86,0.89-1.46,1.04c-2.11,0.52-4.57-0.15-6.34,1.12
			c-0.3,0.22-0.59,0.57-0.47,0.92c0.08,0.24,0.33,0.39,0.56,0.5c2.82,1.37,6.19,1.53,9.13,0.44c0.96-0.36,1.87-0.84,2.84-1.17
			c2.56-0.87,5.34-0.63,8.02-0.26c0.29,0.04,0.32-8.03-2.64-8.98C395.71,344.27,392.02,344.65,388.32,342.69z"/>
		<path class="st3" d="M419.42,340.65c1.64,0.25,4.96,0.83,8.99,2.24c4.32,1.51,7.32,3.23,12.25,6.04c3.2,1.83,3.51,2.18,6.8,3.97
			c4.01,2.19,6.35,3.2,8.1,3.87c2.41,0.94,2.57,0.7,3.87,1.36c3.31,1.69,5.18,4.32,5.8,5.27c1.1,1.69,4.36,6.71,2.21,10.86
			c-2.25,4.33-8.67,4.4-9.96,4.42c-3.75,0.04-6.55-1.4-8.75-2.54c-2.86-1.48-3.94-2.62-8.28-6.26c-2.95-2.47-5.73-4.8-8.86-6.77
			c-6.71-4.22-12.93-5.43-14.13-5.66c0,0-6.47-1.21-13.4-0.25c0,0-0.02,0-0.04,0.01c-0.95,0.17-4.41,0.37-4.41,0.37
			s-0.32-2.07-0.43-4.14c0-0.04-0.26-2.62-0.77-7.78c-0.23-2.29-0.36-3.16-0.36-3.16c3.09-1.04,5.85-1.61,8.06-1.93
			c2.75-0.39,5.08-0.47,6.76-0.46C413.81,340.12,416.26,340.17,419.42,340.65z"/>
		<path class="st3" d="M505.84,310.47"/>
		<path class="st3" d="M510.75,320.79"/>
	</g>
	<g>
		<path class="st3" d="M433.03,298.2c0.11,2.75,0.56,5.48,1.34,8.12c-1.85,0.21-3.71,0.42-5.56,0.63c3.34,2.81,4.15,7.61,4.21,11.98
			c0.03,2.65-0.12,5.29-0.47,7.92c-0.13,0.94-0.44,2.07-1.36,2.3c-1.29-1.06-1.34-2.98-1.8-4.58c-0.7-2.41-2.57-4.39-4.81-5.53
			c-2.24-1.14-4.81-1.51-7.32-1.39c-0.78-5.28-2.11-10.8-2.32-16.12C420.67,299.87,427.13,299.32,433.03,298.2z"/>
		<path class="st3" d="M360.24,322.72c0,0,8.56-2.67,16.62-3.86c17.43-2.58,36.89,3.46,42.63,5.36c0.45-5.47,0.69-11.48,0.55-17.95
			c-0.1-4.91-0.41-9.53-0.84-13.82c-8.12,1.61-24.87,4.57-42.04,4.61c-3.54,0.01-9.39,0-17.05-0.89c-2.08-0.24-6.28-0.55-16.66-2.97
			c-7.4-1.72-14.8-3.44-22.2-5.17c0.19,4.21,2.01,8.04,3.51,11.87c2.21,5.66,3.79,11.66,4.7,17.8c0.45,3.06-0.19,15.1,1.95,16.24
			c2.28,1.22,4.64-1.5,14.64-5.96C346.03,327.98,352.25,325.2,360.24,322.72z"/>
		<path class="st3" d="M352.45,284.22c2.71-0.91,5.61-1.23,8.45-0.95c0.13,1.56,0.07,3.13-0.17,4.68c6.89-5.08,16.04-5.51,24.6-5.74
			c0.72-0.02,1.75,0.51,1.31,1.08c-4.1,1.16-8.02,2.93-11.6,5.23c-1.32,0.85-2.61,1.78-3.6,3c-1.88,2.3-2.51,5.39-4.17,7.85
			c-0.52,0.77-6.83-0.14-7.81-0.23c-1.79-0.16-5.38,0.06-6.71-1.37c-1.07-1.15-0.7-3.43-0.7-4.85
			C352.06,290.02,352.19,287.12,352.45,284.22z"/>
		<path class="st3" d="M357.56,336.64c-1.04,5.19-0.64,6.42-3.31,24.96c-0.46,3.21-0.81,5.5-2.02,8.43
			c-1.29,3.11-4.56,11.01-12.43,13.47c0,0-7.86,2.25-17.19-3.43c-1.33-0.81-3.17-1.95-4.89-4.07c-1.99-2.44-2.53-1.85-4.4-8.7
			c-2.15-7.88-1.69-14.01-0.94-21.25c0.4-3.93,1.45-9.77,1.78-13.71c0.06-0.76,0.39-3.22-0.9-3.67c-0.12-0.04-0.88-0.25-0.88-0.25
			c-2.87-0.64-5.27-0.77-8.14-1.41c-3.86-0.86-7.88-1.79-10.94-4.3c-1.64-1.35-2.91-3.09-4.29-4.71c-2.63-3.1-5.7-5.84-9.08-8.1
			c0.89-3.23,3.8-12.12,12.48-18.7c13.38-10.13,29.08-6.16,31.1-5.62c2.58,2.48,6.28,6.6,9.16,12.55c3.35,6.93,3.96,13,4.52,19.07
			c0.56,6.07,0.23,10.96-0.43,20.74c-0.69,10.33-1.57,15.99-1.3,16.03c0.34,0.05,2.31-8.76,3.41-18.91
			c1.22-11.28,1.34-21.12,1.34-21.12c0.03-2.33,0.04-6.55,0.72-12.24c0.69-5.73,1.45-7.22,1.88-8.81c0,0,16.23-0.91,28.93,3.41
			c1.16,0.39,2.86,1.01,4.9,1.87c-2.77,3.46-6.23,8.25-9.57,14.33C364.07,317.92,359.72,325.82,357.56,336.64z"/>
		<path class="st3" d="M299.13,388.11c3.83-3.73,5.53-8.85,6.56-13.86c1.45-7.04,1.82-14.26,1.1-21.39
			c-0.89-8.77-1.06-18,5.57-24.44c-8.78-6.07-21.68-14.61-30.65-20.45c-0.42-0.28-1.68-0.96-1.68-0.96c-0.7,0.95-1.75,3.3-2.04,3.86
			c-5.19,10.13-6.23,16.74-7.39,26.37c-2.36,19.7,0.11,39.86,7.16,58.61c-0.81-2.14,15.62-0.64,15.85-1.01
			C294.64,393.19,296.32,390.85,299.13,388.11z"/>
		<path class="st3" d="M294.75,408.97c-1.64-2.93-3.04-3.82-3.37-6.82c-0.33-3.02,1.08-5.65,2.24-7.31
			c-1.03-0.56-2.92-1.42-5.44-1.6c-2.24-0.16-4.05,0.28-5.13,0.63c0.39,3.41,0.75,7-0.61,10.15c-1.07,2.47-3.12,4.42-4.15,6.91
			c-1.12,2.7-0.89,5.9,0.51,8.47c1.4,2.57,3.92,4.47,6.75,5.21C295.22,427.13,298.77,416.17,294.75,408.97z"/>
		<path class="st3" d="M271.23,423.37c-1.32-1.28-4.23-4.26-5.21-8.82c-0.34-1.57-0.1-1.67,0.03-11.32
			c0.03-2.35,0.06-3.53,0.04-3.69c-0.5-4.31-2.87-6.74-3.18-14.47c-0.19-4.75,0.22-3.62,0.74-9.74c0.53-6.26-0.33-12.63-2.5-18.52
			c-1.09-2.96-2.53-5.87-2.7-9.02c-0.31-5.61,2.05-6.79,0.79-10.68c-1.1-3.41-3.62-4.6-3.84-8.58c-0.1-1.79,0.35-2.57,0.81-2.98
			c0.99-0.9,2.64-0.67,3.36-0.56c1.65,0.23,1.81,0.88,3.27,0.92c0.98,0.02,1.74-0.25,2.64-0.57c1.27-0.46,1.4-0.74,2.59-1.3
			c0.26-0.12,3.91-1.77,6.25-0.72c0.36,0.16,0.69,0.38,0.69,0.38c0.59,0.52,0.56,1.26,1.67,1.89c2.81,1.59,6.67-2.87,9.19-0.09
			c0.25,0.28,0.41,0.51,0.58,0.89c1.75,3.89-1.27,11.3-2.3,15.59c-1.73,7.25,1.88,7.1,0.96,16.51c-0.73,7.47-3.18,9.44-4.1,13.54
			c-0.45,2-0.36,3.57-0.32,4.7c0.28,7.79,4.99,10.4,5.64,16.48c0.84,7.84-6.28,10-5.2,19.73c0.24,2.15,0.7,5.14,2.94,6.68
			c2.82,1.94,6.56-0.11,9.43,2.54c0.5,0.46,1.31,1.21,1.3,2.21c-0.02,2.39-4.77,4.64-8.62,5.11
			C278.5,430.43,272.49,424.59,271.23,423.37z"/>
		<path class="st3" d="M366.19,399.67c0.62,0.33,1.23,0.69,1.91,0.85c2.05,0.5,4.05-0.84,5.74-2.12c1.6-1.21,3.21-2.42,4.81-3.63
			c0.48-0.36,0.98-0.75,1.21-1.31c0.23-0.56,0.05-1.33-0.51-1.53c-0.33-0.12-0.69-0.02-1.02,0.08c-2.8,0.79-5.68,1.26-8.58,1.41
			c-1.61,0.08-3.41-0.01-4.53-1.17c-0.45-0.46-0.75-1.16-0.52-1.76c0.22-0.58,0.86-0.89,1.46-1.04c2.11-0.52,4.57,0.15,6.34-1.12
			c0.3-0.22,0.59-0.57,0.47-0.92c-0.08-0.24-0.33-0.39-0.56-0.5c-2.82-1.37-6.19-1.53-9.13-0.44c-0.96,0.36-1.87,0.84-2.84,1.17
			c-2.56,0.87-5.34,0.63-8.02,0.26c-0.29-0.04-0.32,8.03,2.64,8.98C358.8,398.09,362.48,397.7,366.19,399.67z"/>
		<path class="st3" d="M335.09,401.71c-1.64-0.25-4.96-0.83-8.99-2.24c-4.32-1.51-7.32-3.23-12.25-6.04
			c-3.2-1.83-3.51-2.18-6.8-3.97c-4.01-2.19-6.35-3.2-8.1-3.87c-2.41-0.94-2.57-0.7-3.87-1.36c-3.31-1.69-5.18-4.32-5.8-5.27
			c-1.1-1.69-4.36-6.71-2.21-10.86c2.25-4.33,8.67-4.4,9.96-4.42c3.75-0.04,6.55,1.4,8.75,2.54c2.86,1.48,3.94,2.62,8.28,6.26
			c2.95,2.47,5.73,4.8,8.86,6.77c6.71,4.22,12.93,5.43,14.13,5.66c0,0,6.47,1.21,13.4,0.25c0,0,0.02,0,0.04-0.01
			c0.95-0.17,4.41-0.37,4.41-0.37s0.32,2.07,0.43,4.14c0,0.04,0.26,2.62,0.77,7.78c0.23,2.29,0.36,3.16,0.36,3.16
			c-3.09,1.04-5.85,1.61-8.06,1.93c-2.75,0.39-5.08,0.47-6.76,0.46C340.69,402.23,338.24,402.18,335.09,401.71z"/>
		<path class="st3" d="M248.67,431.89"/>
		<path class="st3" d="M243.75,421.56"/>
	</g>
	<g>
		<path class="st3" d="M82.27,85.08c2.75-0.11,5.48-0.56,8.12-1.34c0.21,1.85,0.42,3.71,0.63,5.56c2.81-3.34,7.61-4.15,11.98-4.21
			c2.65-0.03,5.29,0.12,7.92,0.47c0.94,0.13,2.07,0.44,2.3,1.36c-1.06,1.29-2.98,1.34-4.58,1.8c-2.41,0.7-4.39,2.57-5.53,4.81
			c-1.14,2.24-1.51,4.81-1.39,7.32c-5.28,0.78-10.8,2.11-16.12,2.32C83.94,97.44,83.39,90.99,82.27,85.08z"/>
		<path class="st3" d="M106.79,157.88c0,0-2.67-8.56-3.86-16.62c-2.58-17.43,3.46-36.89,5.36-42.63
			c-5.47-0.45-11.48-0.69-17.95-0.55c-4.91,0.1-9.53,0.41-13.82,0.84c1.61,8.12,4.57,24.87,4.61,42.04c0.01,3.54,0,9.39-0.89,17.05
			c-0.24,2.08-0.55,6.28-2.97,16.66c-1.72,7.4-3.44,14.8-5.17,22.2c4.21-0.19,8.04-2.01,11.87-3.51c5.66-2.21,11.66-3.79,17.8-4.7
			c3.06-0.45,15.1,0.19,16.24-1.95c1.22-2.28-1.5-4.64-5.96-14.64C112.05,172.09,109.27,165.86,106.79,157.88z"/>
		<path class="st3" d="M68.29,165.67c-0.91-2.71-1.23-5.61-0.95-8.45c1.56-0.13,3.13-0.07,4.68,0.17
			c-5.08-6.89-5.51-16.04-5.74-24.6c-0.02-0.72,0.51-1.75,1.08-1.31c1.16,4.09,2.93,8.02,5.23,11.6c0.85,1.32,1.78,2.61,3,3.6
			c2.3,1.88,5.39,2.51,7.85,4.17c0.77,0.52-0.14,6.83-0.23,7.81c-0.16,1.79,0.06,5.38-1.37,6.71c-1.15,1.07-3.43,0.7-4.85,0.7
			C74.09,166.06,71.19,165.93,68.29,165.67z"/>
		<path class="st3" d="M120.71,160.56c5.19,1.04,6.42,0.64,24.96,3.31c3.21,0.46,5.5,0.81,8.43,2.02
			c3.11,1.29,11.01,4.56,13.47,12.43c0,0,2.25,7.86-3.43,17.19c-0.81,1.33-1.95,3.17-4.07,4.89c-2.44,1.99-1.85,2.53-8.7,4.4
			c-7.88,2.15-14.01,1.69-21.25,0.94c-3.93-0.4-9.77-1.45-13.71-1.78c-0.76-0.06-3.22-0.39-3.67,0.9c-0.04,0.12-0.25,0.88-0.25,0.88
			c-0.64,2.87-0.77,5.27-1.41,8.14c-0.86,3.86-1.79,7.88-4.3,10.94c-1.35,1.64-3.09,2.91-4.71,4.29c-3.1,2.63-5.84,5.7-8.1,9.08
			c-3.23-0.89-12.12-3.8-18.7-12.48c-10.13-13.38-6.16-29.08-5.62-31.1c2.48-2.58,6.6-6.28,12.55-9.16c6.93-3.35,13-3.96,19.07-4.52
			c6.07-0.56,10.96-0.23,20.74,0.43c10.33,0.69,15.99,1.57,16.03,1.3c0.05-0.34-8.76-2.31-18.91-3.41
			c-11.28-1.22-21.12-1.34-21.12-1.34c-2.33-0.03-6.55-0.04-12.24-0.72c-5.73-0.69-7.22-1.45-8.81-1.88c0,0-0.91-16.23,3.41-28.93
			c0.39-1.16,1.01-2.86,1.87-4.9c3.46,2.77,8.25,6.23,14.33,9.57C101.99,154.04,109.89,158.4,120.71,160.56z"/>
		<path class="st3" d="M172.18,218.98c-3.73-3.83-8.85-5.53-13.86-6.56c-7.04-1.45-14.26-1.82-21.39-1.1
			c-8.77,0.89-18,1.06-24.44-5.57c-6.07,8.78-14.61,21.68-20.45,30.65c-0.28,0.42-0.96,1.68-0.96,1.68c0.95,0.7,3.3,1.75,3.86,2.04
			c10.13,5.19,16.74,6.23,26.37,7.39c19.7,2.36,39.86-0.11,58.61-7.16c-2.14,0.81-0.64-15.62-1.01-15.85
			C177.26,223.48,174.92,221.79,172.18,218.98z"/>
		<path class="st3" d="M193.05,223.37c-2.93,1.64-3.82,3.04-6.82,3.37c-3.02,0.33-5.65-1.08-7.31-2.24
			c-0.56,1.03-1.42,2.92-1.6,5.44c-0.16,2.24,0.28,4.05,0.63,5.13c3.41-0.39,7-0.75,10.15,0.61c2.47,1.07,4.42,3.12,6.91,4.15
			c2.7,1.12,5.9,0.89,8.47-0.51c2.57-1.4,4.47-3.92,5.21-6.75C211.21,222.9,200.25,219.34,193.05,223.37z"/>
		<path class="st3" d="M207.44,246.89c-1.28,1.32-4.26,4.23-8.82,5.21c-1.57,0.34-1.67,0.1-11.32-0.03
			c-2.35-0.03-3.53-0.06-3.69-0.04c-4.31,0.5-6.74,2.87-14.47,3.18c-4.75,0.19-3.62-0.22-9.74-0.74c-6.26-0.53-12.63,0.33-18.52,2.5
			c-2.96,1.09-5.87,2.53-9.02,2.7c-5.61,0.31-6.79-2.05-10.68-0.79c-3.41,1.1-4.6,3.62-8.58,3.84c-1.79,0.1-2.57-0.35-2.98-0.81
			c-0.9-0.99-0.67-2.64-0.56-3.36c0.23-1.65,0.88-1.81,0.92-3.27c0.02-0.98-0.25-1.74-0.57-2.64c-0.46-1.27-0.74-1.4-1.3-2.59
			c-0.12-0.26-1.77-3.91-0.72-6.25c0.16-0.36,0.38-0.69,0.38-0.69c0.52-0.59,1.26-0.56,1.89-1.67c1.59-2.81-2.87-6.67-0.09-9.19
			c0.28-0.25,0.51-0.41,0.89-0.58c3.89-1.75,11.3,1.27,15.59,2.3c7.25,1.73,7.1-1.88,16.51-0.96c7.47,0.73,9.44,3.18,13.54,4.1
			c2,0.45,3.57,0.36,4.7,0.32c7.79-0.28,10.4-4.99,16.48-5.64c7.84-0.84,10,6.28,19.73,5.2c2.15-0.24,5.14-0.7,6.68-2.94
			c1.94-2.82-0.11-6.56,2.54-9.43c0.46-0.5,1.21-1.31,2.21-1.3c2.39,0.02,4.64,4.77,5.11,8.62
			C214.5,239.62,208.66,245.63,207.44,246.89z"/>
		<path class="st3" d="M183.74,151.93c0.33-0.62,0.69-1.23,0.85-1.91c0.5-2.05-0.84-4.05-2.12-5.74c-1.21-1.6-2.42-3.21-3.63-4.81
			c-0.36-0.48-0.75-0.98-1.31-1.21c-0.56-0.23-1.33-0.05-1.53,0.51c-0.12,0.33-0.02,0.69,0.08,1.02c0.79,2.8,1.26,5.68,1.41,8.58
			c0.08,1.61-0.01,3.41-1.17,4.53c-0.46,0.45-1.16,0.75-1.76,0.52c-0.58-0.22-0.89-0.86-1.04-1.46c-0.52-2.11,0.15-4.57-1.12-6.34
			c-0.22-0.3-0.57-0.59-0.92-0.47c-0.24,0.08-0.39,0.33-0.5,0.56c-1.37,2.82-1.53,6.19-0.44,9.13c0.36,0.96,0.84,1.87,1.17,2.84
			c0.87,2.56,0.63,5.34,0.26,8.02c-0.04,0.29,8.03,0.32,8.98-2.64C182.16,159.32,181.78,155.64,183.74,151.93z"/>
		<path class="st3" d="M185.78,183.03c-0.25,1.64-0.83,4.96-2.24,8.99c-1.51,4.32-3.23,7.32-6.04,12.25
			c-1.83,3.2-2.18,3.51-3.97,6.8c-2.19,4.01-3.2,6.35-3.87,8.1c-0.94,2.41-0.7,2.57-1.36,3.87c-1.69,3.31-4.32,5.18-5.27,5.8
			c-1.69,1.1-6.71,4.36-10.86,2.21c-4.33-2.25-4.4-8.67-4.42-9.96c-0.04-3.75,1.4-6.55,2.54-8.75c1.48-2.86,2.62-3.94,6.26-8.28
			c2.47-2.95,4.8-5.73,6.77-8.86c4.22-6.71,5.43-12.93,5.66-14.13c0,0,1.21-6.47,0.25-13.4c0,0,0-0.02-0.01-0.04
			c-0.17-0.95-0.37-4.41-0.37-4.41s2.07-0.32,4.14-0.43c0.04,0,2.62-0.26,7.78-0.77c2.29-0.23,3.16-0.36,3.16-0.36
			c1.04,3.09,1.61,5.85,1.93,8.06c0.39,2.75,0.47,5.08,0.46,6.76C186.3,177.42,186.25,179.87,185.78,183.03z"/>
		<path class="st3" d="M215.96,269.45"/>
		<path class="st3" d="M205.63,274.36"/>
	</g>
	<g>
		<path class="st3" d="M228.23,196.65c-2.75,0.11-5.48,0.56-8.12,1.34c-0.21-1.85-0.42-3.71-0.63-5.56
			c-2.81,3.34-7.61,4.15-11.98,4.21c-2.65,0.03-5.29-0.12-7.92-0.47c-0.94-0.13-2.07-0.44-2.3-1.36c1.06-1.29,2.98-1.34,4.58-1.8
			c2.41-0.7,4.39-2.57,5.53-4.81c1.14-2.24,1.51-4.81,1.39-7.32c5.28-0.78,10.8-2.11,16.12-2.32
			C226.56,184.29,227.11,190.74,228.23,196.65z"/>
		<path class="st3" d="M203.71,123.85c0,0,2.67,8.56,3.86,16.62c2.58,17.43-3.46,36.89-5.36,42.63c5.47,0.45,11.48,0.69,17.95,0.55
			c4.91-0.1,9.53-0.41,13.82-0.84c-1.61-8.12-4.57-24.87-4.61-42.04c-0.01-3.54,0-9.39,0.89-17.05c0.24-2.08,0.55-6.28,2.97-16.66
			c1.72-7.4,3.44-14.8,5.17-22.2c-4.21,0.19-8.04,2.01-11.87,3.51c-5.66,2.21-11.66,3.79-17.8,4.7c-3.06,0.45-15.1-0.19-16.24,1.95
			c-1.22,2.28,1.5,4.64,5.96,14.64C198.45,109.64,201.22,115.87,203.71,123.85z"/>
		<path class="st3" d="M242.21,116.06c0.91,2.71,1.23,5.61,0.95,8.45c-1.56,0.13-3.13,0.07-4.68-0.17
			c5.08,6.89,5.51,16.04,5.74,24.6c0.02,0.72-0.51,1.75-1.08,1.31c-1.16-4.09-2.93-8.02-5.23-11.6c-0.85-1.32-1.78-2.61-3-3.6
			c-2.3-1.88-5.39-2.51-7.85-4.17c-0.77-0.52,0.14-6.83,0.23-7.81c0.16-1.79-0.06-5.38,1.37-6.71c1.15-1.07,3.43-0.7,4.85-0.7
			C236.4,115.67,239.31,115.8,242.21,116.06z"/>
		<path class="st3" d="M189.79,121.17c-5.19-1.04-6.42-0.64-24.96-3.31c-3.21-0.46-5.5-0.81-8.43-2.02
			c-3.11-1.29-11.01-4.56-13.47-12.43c0,0-2.25-7.86,3.43-17.19c0.81-1.33,1.95-3.17,4.07-4.89c2.44-1.99,1.85-2.53,8.7-4.4
			c7.88-2.15,14.01-1.69,21.25-0.94c3.93,0.4,9.77,1.45,13.71,1.78c0.76,0.06,3.22,0.39,3.67-0.9c0.04-0.12,0.25-0.88,0.25-0.88
			c0.64-2.87,0.77-5.27,1.41-8.14c0.86-3.86,1.79-7.88,4.3-10.94c1.35-1.64,3.09-2.91,4.71-4.29c3.1-2.63,5.84-5.7,8.1-9.08
			c3.23,0.89,12.12,3.8,18.7,12.48c10.13,13.38,6.16,29.08,5.62,31.1c-2.48,2.58-6.6,6.28-12.55,9.16c-6.93,3.35-13,3.96-19.07,4.52
			c-6.07,0.56-10.96,0.23-20.74-0.43c-10.33-0.69-15.99-1.57-16.03-1.3c-0.05,0.34,8.76,2.31,18.91,3.41
			c11.28,1.22,21.12,1.34,21.12,1.34c2.33,0.03,6.55,0.04,12.24,0.72c5.73,0.69,7.22,1.45,8.81,1.88c0,0,0.91,16.23-3.41,28.93
			c-0.39,1.16-1.01,2.86-1.87,4.9c-3.46-2.77-8.25-6.23-14.33-9.57C208.51,127.69,200.61,123.33,189.79,121.17z"/>
		<path class="st3" d="M138.31,62.75c3.73,3.83,8.85,5.53,13.86,6.56c7.04,1.45,14.26,1.82,21.39,1.1c8.77-0.89,18-1.06,24.44,5.57
			c6.07-8.78,14.61-21.68,20.45-30.65c0.28-0.42,0.96-1.68,0.96-1.68c-0.95-0.7-3.3-1.75-3.86-2.04
			c-10.13-5.19-16.74-6.23-26.37-7.39c-19.7-2.36-39.86,0.11-58.61,7.16c2.14-0.81,0.64,15.62,1.01,15.85
			C133.24,58.25,135.58,59.94,138.31,62.75z"/>
		<path class="st3" d="M117.45,58.36c2.93-1.64,3.82-3.04,6.82-3.37c3.02-0.33,5.65,1.08,7.31,2.24c0.56-1.03,1.42-2.92,1.6-5.44
			c0.16-2.24-0.28-4.05-0.63-5.13c-3.41,0.39-7,0.75-10.15-0.61c-2.47-1.07-4.42-3.12-6.91-4.15c-2.7-1.12-5.9-0.89-8.47,0.51
			c-2.57,1.4-4.47,3.92-5.21,6.75C99.29,58.83,110.25,62.39,117.45,58.36z"/>
		<path class="st3" d="M103.06,34.84c1.28-1.32,4.26-4.23,8.82-5.21c1.57-0.34,1.67-0.1,11.32,0.03c2.35,0.03,3.53,0.06,3.69,0.04
			c4.31-0.5,6.74-2.87,14.47-3.18c4.75-0.19,3.62,0.22,9.74,0.74c6.26,0.53,12.63-0.33,18.52-2.5c2.96-1.09,5.87-2.53,9.02-2.7
			c5.61-0.31,6.79,2.05,10.68,0.79c3.41-1.1,4.6-3.62,8.58-3.84c1.79-0.1,2.57,0.35,2.98,0.81c0.9,0.99,0.67,2.64,0.56,3.36
			c-0.23,1.65-0.88,1.81-0.92,3.27c-0.02,0.98,0.25,1.74,0.57,2.64c0.46,1.27,0.74,1.4,1.3,2.59c0.12,0.26,1.77,3.91,0.72,6.25
			c-0.16,0.36-0.38,0.69-0.38,0.69c-0.52,0.59-1.26,0.56-1.89,1.67c-1.59,2.81,2.87,6.67,0.09,9.19c-0.28,0.25-0.51,0.41-0.89,0.58
			c-3.89,1.75-11.3-1.27-15.59-2.3c-7.25-1.73-7.1,1.88-16.51,0.96c-7.47-0.73-9.44-3.18-13.54-4.1c-2-0.45-3.57-0.36-4.7-0.32
			c-7.79,0.28-10.4,4.99-16.48,5.64c-7.84,0.84-10-6.28-19.73-5.2c-2.15,0.24-5.14,0.7-6.68,2.94c-1.94,2.82,0.11,6.56-2.54,9.43
			c-0.46,0.5-1.21,1.31-2.21,1.3c-2.39-0.02-4.64-4.77-5.11-8.62C96,42.11,101.83,36.1,103.06,34.84z"/>
		<path class="st3" d="M126.76,129.8c-0.33,0.62-0.69,1.23-0.85,1.91c-0.5,2.05,0.84,4.05,2.12,5.74c1.21,1.6,2.42,3.21,3.63,4.81
			c0.36,0.48,0.75,0.98,1.31,1.21s1.33,0.05,1.53-0.51c0.12-0.33,0.02-0.69-0.08-1.02c-0.79-2.8-1.26-5.68-1.41-8.58
			c-0.08-1.61,0.01-3.41,1.17-4.53c0.46-0.45,1.16-0.75,1.76-0.52c0.58,0.22,0.89,0.86,1.04,1.46c0.52,2.11-0.15,4.57,1.12,6.34
			c0.22,0.3,0.57,0.59,0.92,0.47c0.24-0.08,0.39-0.33,0.5-0.56c1.37-2.82,1.53-6.19,0.44-9.13c-0.36-0.96-0.84-1.87-1.17-2.84
			c-0.87-2.56-0.63-5.34-0.26-8.02c0.04-0.29-8.03-0.32-8.98,2.64C128.34,122.41,128.72,126.09,126.76,129.8z"/>
		<path class="st3" d="M124.72,98.7c0.25-1.64,0.83-4.96,2.24-8.99c1.51-4.32,3.23-7.32,6.04-12.25c1.83-3.2,2.18-3.51,3.97-6.8
			c2.19-4.01,3.2-6.35,3.87-8.1c0.94-2.41,0.7-2.57,1.36-3.87c1.69-3.31,4.32-5.18,5.27-5.8c1.69-1.1,6.71-4.36,10.86-2.21
			c4.33,2.25,4.4,8.67,4.42,9.96c0.04,3.75-1.4,6.55-2.54,8.75c-1.48,2.86-2.62,3.94-6.26,8.28c-2.47,2.95-4.8,5.73-6.77,8.86
			c-4.22,6.71-5.43,12.93-5.66,14.13c0,0-1.21,6.47-0.25,13.4c0,0,0,0.02,0.01,0.04c0.17,0.95,0.37,4.41,0.37,4.41
			s-2.07,0.32-4.14,0.43c-0.04,0-2.62,0.26-7.78,0.77c-2.29,0.23-3.16,0.36-3.16,0.36c-1.04-3.09-1.61-5.85-1.93-8.06
			c-0.39-2.75-0.47-5.08-0.46-6.76C124.2,104.31,124.24,101.86,124.72,98.7z"/>
		<path class="st3" d="M94.54,12.28"/>
		<path class="st3" d="M104.87,7.37"/>
	</g>
	<g>
		<path class="st3" d="M415.06,84.64c-2.75-0.11-5.48-0.56-8.12-1.34c-0.21,1.85-0.42,3.71-0.63,5.56
			c-2.81-3.34-7.61-4.15-11.98-4.21c-2.65-0.03-5.29,0.12-7.92,0.47c-0.94,0.13-2.07,0.44-2.3,1.36c1.06,1.29,2.98,1.34,4.58,1.8
			c2.41,0.7,4.39,2.57,5.53,4.81c1.14,2.24,1.51,4.81,1.39,7.32c5.28,0.78,10.8,2.11,16.12,2.32
			C413.39,97,413.94,90.55,415.06,84.64z"/>
		<path class="st3" d="M390.55,157.44c0,0,2.67-8.56,3.86-16.62c2.58-17.43-3.46-36.89-5.36-42.63c5.47-0.45,11.48-0.69,17.95-0.55
			c4.91,0.1,9.53,0.41,13.82,0.84c-1.61,8.12-4.57,24.87-4.61,42.04c-0.01,3.54,0,9.39,0.89,17.05c0.24,2.08,0.55,6.28,2.97,16.66
			c1.72,7.4,3.44,14.8,5.17,22.2c-4.21-0.19-8.04-2.01-11.87-3.51c-5.66-2.21-11.66-3.79-17.8-4.7c-3.06-0.45-15.1,0.19-16.24-1.95
			c-1.22-2.28,1.5-4.64,5.96-14.64C385.28,171.65,388.06,165.42,390.55,157.44z"/>
		<path class="st3" d="M429.04,165.23c0.91-2.71,1.23-5.61,0.95-8.45c-1.56-0.13-3.13-0.07-4.68,0.17
			c5.08-6.89,5.51-16.04,5.74-24.6c0.02-0.72-0.51-1.75-1.08-1.31c-1.16,4.09-2.93,8.02-5.23,11.6c-0.85,1.32-1.78,2.61-3,3.6
			c-2.3,1.88-5.39,2.51-7.85,4.17c-0.77,0.52,0.14,6.83,0.23,7.81c0.16,1.79-0.06,5.38,1.37,6.71c1.15,1.07,3.43,0.7,4.85,0.7
			C423.24,165.62,426.15,165.49,429.04,165.23z"/>
		<path class="st3" d="M376.62,160.12c-5.19,1.04-6.42,0.64-24.96,3.31c-3.21,0.46-5.5,0.81-8.43,2.02
			c-3.11,1.29-11.01,4.56-13.47,12.43c0,0-2.25,7.86,3.43,17.19c0.81,1.33,1.95,3.17,4.07,4.89c2.44,1.99,1.85,2.53,8.7,4.4
			c7.88,2.15,14.01,1.69,21.25,0.94c3.93-0.4,9.77-1.45,13.71-1.78c0.76-0.06,3.22-0.39,3.67,0.9c0.04,0.12,0.25,0.88,0.25,0.88
			c0.64,2.87,0.77,5.27,1.41,8.14c0.86,3.86,1.79,7.88,4.3,10.94c1.35,1.64,3.09,2.91,4.71,4.29c3.1,2.63,5.84,5.7,8.1,9.08
			c3.23-0.89,12.12-3.8,18.7-12.48c10.13-13.38,6.16-29.08,5.62-31.1c-2.48-2.58-6.6-6.28-12.55-9.16c-6.93-3.35-13-3.96-19.07-4.52
			c-6.07-0.56-10.96-0.23-20.74,0.43c-10.33,0.69-15.99,1.57-16.03,1.3c-0.05-0.34,8.76-2.31,18.91-3.41
			c11.28-1.22,21.12-1.34,21.12-1.34c2.33-0.03,6.55-0.04,12.24-0.72c5.73-0.69,7.22-1.45,8.81-1.88c0,0,0.91-16.23-3.41-28.93
			c-0.39-1.16-1.01-2.86-1.87-4.9c-3.46,2.77-8.25,6.23-14.33,9.57C395.35,153.6,387.44,157.96,376.62,160.12z"/>
		<path class="st3" d="M325.15,218.54c3.73-3.83,8.85-5.53,13.86-6.56c7.04-1.45,14.26-1.82,21.39-1.1c8.77,0.89,18,1.06,24.44-5.57
			c6.07,8.78,14.61,21.68,20.45,30.65c0.28,0.42,0.96,1.68,0.96,1.68c-0.95,0.7-3.3,1.75-3.86,2.04
			c-10.13,5.19-16.74,6.23-26.37,7.39c-19.7,2.36-39.86-0.11-58.61-7.16c2.14,0.81,0.64-15.62,1.01-15.85
			C320.07,223.04,322.41,221.35,325.15,218.54z"/>
		<path class="st3" d="M304.29,222.93c2.93,1.64,3.82,3.04,6.82,3.37c3.02,0.33,5.65-1.08,7.31-2.24c0.56,1.03,1.42,2.92,1.6,5.44
			c0.16,2.24-0.28,4.05-0.63,5.13c-3.41-0.39-7-0.75-10.15,0.61c-2.47,1.07-4.42,3.12-6.91,4.15c-2.7,1.12-5.9,0.89-8.47-0.51
			c-2.57-1.4-4.47-3.92-5.21-6.75C286.13,222.46,297.09,218.9,304.29,222.93z"/>
		<path class="st3" d="M289.9,246.45c1.28,1.32,4.26,4.23,8.82,5.21c1.57,0.34,1.67,0.1,11.32-0.03c2.35-0.03,3.53-0.06,3.69-0.04
			c4.31,0.5,6.74,2.87,14.47,3.18c4.75,0.19,3.62-0.22,9.74-0.74c6.26-0.53,12.63,0.33,18.52,2.5c2.96,1.09,5.87,2.53,9.02,2.7
			c5.61,0.31,6.79-2.05,10.68-0.79c3.41,1.1,4.6,3.62,8.58,3.84c1.79,0.1,2.57-0.35,2.98-0.81c0.9-0.99,0.67-2.64,0.56-3.36
			c-0.23-1.65-0.88-1.81-0.92-3.27c-0.02-0.98,0.25-1.74,0.57-2.64c0.46-1.27,0.74-1.4,1.3-2.59c0.12-0.26,1.77-3.91,0.72-6.25
			c-0.16-0.36-0.38-0.69-0.38-0.69c-0.52-0.59-1.26-0.56-1.89-1.67c-1.59-2.81,2.87-6.67,0.09-9.19c-0.28-0.25-0.51-0.41-0.89-0.58
			c-3.89-1.75-11.3,1.27-15.59,2.3c-7.25,1.73-7.1-1.88-16.51-0.96c-7.47,0.73-9.44,3.18-13.54,4.1c-2,0.45-3.57,0.36-4.7,0.32
			c-7.79-0.28-10.4-4.99-16.48-5.64c-7.84-0.84-10,6.28-19.73,5.2c-2.15-0.24-5.14-0.7-6.68-2.94c-1.94-2.82,0.11-6.56-2.54-9.43
			c-0.46-0.5-1.21-1.31-2.21-1.3c-2.39,0.02-4.64,4.77-5.11,8.62C282.83,239.18,288.67,245.19,289.9,246.45z"/>
		<path class="st3" d="M313.59,151.49c-0.33-0.62-0.69-1.23-0.85-1.91c-0.5-2.05,0.84-4.05,2.12-5.74c1.21-1.6,2.42-3.21,3.63-4.81
			c0.36-0.48,0.75-0.98,1.31-1.21s1.33-0.05,1.53,0.51c0.12,0.33,0.02,0.69-0.08,1.02c-0.79,2.8-1.26,5.68-1.41,8.58
			c-0.08,1.61,0.01,3.41,1.17,4.53c0.46,0.45,1.16,0.75,1.76,0.52c0.58-0.22,0.89-0.86,1.04-1.46c0.52-2.11-0.15-4.57,1.12-6.34
			c0.22-0.3,0.57-0.59,0.92-0.47c0.24,0.08,0.39,0.33,0.5,0.56c1.37,2.82,1.53,6.19,0.44,9.13c-0.36,0.96-0.84,1.87-1.17,2.84
			c-0.87,2.56-0.63,5.34-0.26,8.02c0.04,0.29-8.03,0.32-8.98-2.64C315.17,158.88,315.56,155.2,313.59,151.49z"/>
		<path class="st3" d="M311.55,182.59c0.25,1.64,0.83,4.96,2.24,8.99c1.51,4.32,3.23,7.32,6.04,12.25c1.83,3.2,2.18,3.51,3.97,6.8
			c2.19,4.01,3.2,6.35,3.87,8.1c0.94,2.41,0.7,2.57,1.36,3.87c1.69,3.31,4.32,5.18,5.27,5.8c1.69,1.1,6.71,4.36,10.86,2.21
			c4.33-2.25,4.4-8.67,4.42-9.96c0.04-3.75-1.4-6.55-2.54-8.75c-1.48-2.86-2.62-3.94-6.26-8.28c-2.47-2.95-4.8-5.73-6.77-8.86
			c-4.22-6.71-5.43-12.93-5.66-14.13c0,0-1.21-6.47-0.25-13.4c0,0,0-0.02,0.01-0.04c0.17-0.95,0.37-4.41,0.37-4.41
			s-2.07-0.32-4.14-0.43c-0.04,0-2.62-0.26-7.78-0.77c-2.29-0.23-3.16-0.36-3.16-0.36c-1.04,3.09-1.61,5.85-1.93,8.06
			c-0.39,2.75-0.47,5.08-0.46,6.76C311.03,176.98,311.08,179.43,311.55,182.59z"/>
		<path class="st3" d="M281.37,269.01"/>
		<path class="st3" d="M291.7,273.92"/>
	</g>
	<g>
		<path class="st3" d="M269.1,196.21c2.75,0.11,5.48,0.56,8.12,1.34c0.21-1.85,0.42-3.71,0.63-5.56c2.81,3.34,7.61,4.15,11.98,4.21
			c2.65,0.03,5.29-0.12,7.92-0.47c0.94-0.13,2.07-0.44,2.3-1.36c-1.06-1.29-2.98-1.34-4.58-1.8c-2.41-0.7-4.39-2.57-5.53-4.81
			c-1.14-2.24-1.51-4.81-1.39-7.32c-5.28-0.78-10.8-2.11-16.12-2.32C270.78,183.85,270.23,190.3,269.1,196.21z"/>
		<path class="st3" d="M293.62,123.41c0,0-2.67,8.56-3.86,16.62c-2.58,17.43,3.46,36.89,5.36,42.63
			c-5.47,0.45-11.48,0.69-17.95,0.55c-4.91-0.1-9.53-0.41-13.82-0.84c1.61-8.12,4.57-24.87,4.61-42.04c0.01-3.54,0-9.39-0.89-17.05
			c-0.24-2.08-0.55-6.28-2.97-16.66c-1.72-7.4-3.44-14.8-5.17-22.2c4.21,0.19,8.04,2.01,11.87,3.51c5.66,2.21,11.66,3.79,17.8,4.7
			c3.06,0.45,15.1-0.19,16.24,1.95c1.22,2.28-1.5,4.64-5.96,14.64C298.89,109.2,296.11,115.43,293.62,123.41z"/>
		<path class="st3" d="M255.13,115.62c-0.91,2.71-1.23,5.61-0.95,8.45c1.56,0.13,3.13,0.07,4.68-0.17
			c-5.08,6.89-5.51,16.04-5.74,24.6c-0.02,0.72,0.51,1.75,1.08,1.31c1.16-4.09,2.93-8.02,5.23-11.6c0.85-1.32,1.78-2.61,3-3.6
			c2.3-1.88,5.39-2.51,7.85-4.17c0.77-0.52-0.14-6.83-0.23-7.81c-0.16-1.79,0.06-5.38-1.37-6.71c-1.15-1.07-3.43-0.7-4.85-0.7
			C260.93,115.23,258.02,115.36,255.13,115.62z"/>
		<path class="st3" d="M307.55,120.73c5.19-1.04,6.42-0.64,24.96-3.31c3.21-0.46,5.5-0.81,8.43-2.02
			c3.11-1.29,11.01-4.56,13.47-12.43c0,0,2.25-7.86-3.43-17.19c-0.81-1.33-1.95-3.17-4.07-4.89c-2.44-1.99-1.85-2.53-8.7-4.4
			c-7.88-2.15-14.01-1.69-21.25-0.94c-3.93,0.4-9.77,1.45-13.71,1.78c-0.76,0.06-3.22,0.39-3.67-0.9c-0.04-0.12-0.25-0.88-0.25-0.88
			c-0.64-2.87-0.77-5.27-1.41-8.14c-0.86-3.86-1.79-7.88-4.3-10.94c-1.35-1.64-3.09-2.91-4.71-4.29c-3.1-2.63-5.84-5.7-8.1-9.08
			c-3.23,0.89-12.12,3.8-18.7,12.48c-10.13,13.38-6.16,29.08-5.62,31.1c2.48,2.58,6.6,6.28,12.55,9.16c6.93,3.35,13,3.96,19.07,4.52
			c6.07,0.56,10.96,0.23,20.74-0.43c10.33-0.69,15.99-1.57,16.03-1.3c0.05,0.34-8.76,2.31-18.91,3.41
			c-11.28,1.22-21.12,1.34-21.12,1.34c-2.33,0.03-6.55,0.04-12.24,0.72c-5.73,0.69-7.22,1.45-8.81,1.88c0,0-0.91,16.23,3.41,28.93
			c0.39,1.16,1.01,2.86,1.87,4.9c3.46-2.77,8.25-6.23,14.33-9.57C288.82,127.25,296.72,122.89,307.55,120.73z"/>
		<path class="st3" d="M359.02,62.31c-3.73,3.83-8.85,5.53-13.86,6.56c-7.04,1.45-14.26,1.82-21.39,1.1
			c-8.77-0.89-18-1.06-24.44,5.57c-6.07-8.78-14.61-21.68-20.45-30.65c-0.28-0.42-0.96-1.68-0.96-1.68c0.95-0.7,3.3-1.75,3.86-2.04
			c10.13-5.19,16.74-6.23,26.37-7.39c19.7-2.36,39.86,0.11,58.61,7.16c-2.14-0.81-0.64,15.62-1.01,15.85
			C364.09,57.81,361.75,59.5,359.02,62.31z"/>
		<path class="st3" d="M379.88,57.92c-2.93-1.64-3.82-3.04-6.82-3.37c-3.02-0.33-5.65,1.08-7.31,2.24c-0.56-1.03-1.42-2.92-1.6-5.44
			c-0.16-2.24,0.28-4.05,0.63-5.13c3.41,0.39,7,0.75,10.15-0.61c2.47-1.07,4.42-3.12,6.91-4.15c2.7-1.12,5.9-0.89,8.47,0.51
			c2.57,1.4,4.47,3.92,5.21,6.75C398.04,58.39,387.08,61.95,379.88,57.92z"/>
		<path class="st3" d="M394.27,34.4c-1.28-1.32-4.26-4.23-8.82-5.21c-1.57-0.34-1.67-0.1-11.32,0.03c-2.35,0.03-3.53,0.06-3.69,0.04
			c-4.31-0.5-6.74-2.87-14.47-3.18c-4.75-0.19-3.62,0.22-9.74,0.74c-6.26,0.53-12.63-0.33-18.52-2.5c-2.96-1.09-5.87-2.53-9.02-2.7
			c-5.61-0.31-6.79,2.05-10.68,0.79c-3.41-1.1-4.6-3.62-8.58-3.84c-1.79-0.1-2.57,0.35-2.98,0.81c-0.9,0.99-0.67,2.64-0.56,3.36
			c0.23,1.65,0.88,1.81,0.92,3.27c0.02,0.98-0.25,1.74-0.57,2.64c-0.46,1.27-0.74,1.4-1.3,2.59c-0.12,0.26-1.77,3.91-0.72,6.25
			c0.16,0.36,0.38,0.69,0.38,0.69c0.52,0.59,1.26,0.56,1.89,1.67c1.59,2.81-2.87,6.67-0.09,9.19c0.28,0.25,0.51,0.41,0.89,0.58
			c3.89,1.75,11.3-1.27,15.59-2.3c7.25-1.73,7.1,1.88,16.51,0.96c7.47-0.73,9.44-3.18,13.54-4.1c2-0.45,3.57-0.36,4.7-0.32
			c7.79,0.28,10.4,4.99,16.48,5.64c7.84,0.84,10-6.28,19.73-5.2c2.15,0.24,5.14,0.7,6.68,2.94c1.94,2.82-0.11,6.56,2.54,9.43
			c0.46,0.5,1.21,1.31,2.21,1.3c2.39-0.02,4.64-4.77,5.11-8.62C401.34,41.67,395.5,35.66,394.27,34.4z"/>
		<path class="st3" d="M370.57,129.36c0.33,0.62,0.69,1.23,0.85,1.91c0.5,2.05-0.84,4.05-2.12,5.74c-1.21,1.6-2.42,3.21-3.63,4.81
			c-0.36,0.48-0.75,0.98-1.31,1.21c-0.56,0.23-1.33,0.05-1.53-0.51c-0.12-0.33-0.02-0.69,0.08-1.02c0.79-2.8,1.26-5.68,1.41-8.58
			c0.08-1.61-0.01-3.41-1.17-4.53c-0.46-0.45-1.16-0.75-1.76-0.52c-0.58,0.22-0.89,0.86-1.04,1.46c-0.52,2.11,0.15,4.57-1.12,6.34
			c-0.22,0.3-0.57,0.59-0.92,0.47c-0.24-0.08-0.39-0.33-0.5-0.56c-1.37-2.82-1.53-6.19-0.44-9.13c0.36-0.96,0.84-1.87,1.17-2.84
			c0.87-2.56,0.63-5.34,0.26-8.02c-0.04-0.29,8.03-0.32,8.98,2.64C369,121.97,368.61,125.65,370.57,129.36z"/>
		<path class="st3" d="M372.61,98.26c-0.25-1.64-0.83-4.96-2.24-8.99c-1.51-4.32-3.23-7.32-6.04-12.25c-1.83-3.2-2.18-3.51-3.97-6.8
			c-2.19-4.01-3.2-6.35-3.87-8.1c-0.94-2.41-0.7-2.57-1.36-3.87c-1.69-3.31-4.32-5.18-5.27-5.8c-1.69-1.1-6.71-4.36-10.86-2.21
			c-4.33,2.25-4.4,8.67-4.42,9.96c-0.04,3.75,1.4,6.55,2.54,8.75c1.48,2.86,2.62,3.94,6.26,8.28c2.47,2.95,4.8,5.73,6.77,8.86
			c4.22,6.71,5.43,12.93,5.66,14.13c0,0,1.21,6.47,0.25,13.4c0,0,0,0.02-0.01,0.04c-0.17,0.95-0.37,4.41-0.37,4.41
			s2.07,0.32,4.14,0.43c0.04,0,2.62,0.26,7.78,0.77c2.29,0.23,3.16,0.36,3.16,0.36c1.04-3.09,1.61-5.85,1.93-8.06
			c0.39-2.75,0.47-5.08,0.46-6.76C373.14,103.87,373.09,101.42,372.61,98.26z"/>
		<path class="st3" d="M402.8,11.84"/>
		<path class="st3" d="M392.47,6.93"/>
	</g>
</g>
</svg>
