<?xml version="1.0" encoding="utf-8"?>
<!-- Generator: Adobe Illustrator 23.1.1, SVG Export Plug-In . SVG Version: 6.00 Build 0)  -->
<svg version="1.1" id="Layer_1" xmlns="http://www.w3.org/2000/svg" xmlns:xlink="http://www.w3.org/1999/xlink" x="0px" y="0px"
	 viewBox="0 0 1238.04 2474.07" style="enable-background:new 0 0 1238.04 2474.07;" xml:space="preserve">
<style type="text/css">
	.st0{fill:#FA0636;}
</style>
<path class="st0" d="M8.5,2318.64c-22.09-121.4,3.25-191.17,26.47-232c37.08-65.19,92.69-72.54,138.27-140.93
	c45.46-68.21,47.72-151.1,42.11-208.22l0,0c-22.09-121.4,3.25-191.17,26.47-232c37.08-65.19,92.69-72.54,138.27-140.93
	c45.46-68.21,47.84-149.04,42.22-206.16l0,0c-22.09-121.4,3.25-191.17,26.47-232c37.08-65.19,92.69-72.54,138.27-140.93
	c45.46-68.21,47.72-151.1,42.11-208.22l0,0c-22.09-121.4,3.25-191.17,26.47-232c37.08-65.19,92.69-72.54,138.27-140.93
	C839.36,136.09,841.56,57.12,835.95,0l402.09,174.54L429.85,2474.07L8.5,2318.64z"/>
</svg>
