<?xml version="1.0" encoding="utf-8"?>
<!-- Generator: Adobe Illustrator 23.1.1, SVG Export Plug-In . SVG Version: 6.00 Build 0)  -->
<svg version="1.1" id="Layer_1" xmlns="http://www.w3.org/2000/svg" xmlns:xlink="http://www.w3.org/1999/xlink" x="0px" y="0px"
	 viewBox="0 0 739.72 116.31" style="enable-background:new 0 0 739.72 116.31;" xml:space="preserve">
<style type="text/css">
	.st0{fill:none;stroke:#FA0636;stroke-width:3;stroke-miterlimit:10;}
</style>
<g>
	<path class="st0" d="M1.69,46.85c-0.32-1.02-0.23-2,0.29-2.96c0.52-0.96,1.3-1.61,2.34-1.94l32.63-10.34l0.04-0.01
		c1.04-0.33,2.05-0.24,3.04,0.27c0.99,0.51,1.65,1.29,1.98,2.33c0.33,1.04,0.24,2.05-0.27,3.04c-0.51,0.99-1.29,1.65-2.33,1.98
		l-0.04,0.01l-28.83,9.13l5,15.59l25.71-7.97c1.09-0.35,2.12-0.26,3.09,0.28c0.97,0.53,1.64,1.39,2.02,2.59
		c0.32,1.02,0.2,2-0.36,2.94c-0.56,0.95-1.33,1.58-2.29,1.88l-0.04,0.01l-25.64,7.95l5.16,16.09l28.69-9.17l0.04-0.01
		c1.04-0.33,2.05-0.24,3.04,0.27c0.99,0.51,1.65,1.29,1.98,2.33c0.33,1.04,0.24,2.05-0.27,3.04c-0.51,0.99-1.29,1.65-2.33,1.98
		l-0.04,0.01L21.81,96.53c-1.04,0.33-2.05,0.24-3.04-0.27c-0.99-0.51-1.64-1.27-1.96-2.29L1.69,46.85z"/>
	<path class="st0" d="M78.33,79.33c-1.07,0.23-2.07,0.05-3-0.55c-0.94-0.6-1.52-1.43-1.75-2.5L62.93,27.86
		c-0.08-0.23-0.14-0.46-0.19-0.69c-0.08-0.36-0.07-0.73,0.02-1.11c0.1-0.38,0.22-0.77,0.38-1.19c0.4-1.15,1.19-1.85,2.36-2.11
		c1.87-0.41,3.32,0.04,4.34,1.35l28.29,29.53l11.9-38.31c0.5-1.47,1.41-2.35,2.74-2.64c1.12-0.24,2.17-0.09,3.17,0.46
		c0.99,0.55,1.61,1.39,1.86,2.54l10.62,48.83c0.23,1.07,0.05,2.07-0.55,3c-0.6,0.94-1.44,1.52-2.5,1.75c-1.07,0.23-2.07,0.05-3-0.55
		c-0.94-0.6-1.52-1.43-1.75-2.5l-7.59-34.89l-9.28,31.2c-0.18,0.53-0.53,1.07-1.03,1.64c-0.51,0.56-1.11,0.92-1.81,1.07
		c-1.51,0.33-2.8-0.04-3.88-1.12l-23.33-24.4l7.69,34.83l0.01,0.04c0.23,1.07,0.05,2.07-0.55,3C80.23,78.51,79.4,79.1,78.33,79.33z"
		/>
	<path class="st0" d="M150.7,65.04c-1.09,0.11-2.06-0.19-2.92-0.89c-0.86-0.7-1.35-1.6-1.46-2.68l-5.09-49.31
		c-0.05-0.24-0.09-0.47-0.11-0.71c-0.04-0.37,0.01-0.74,0.15-1.1c0.14-0.36,0.31-0.74,0.51-1.13c0.53-1.1,1.39-1.71,2.59-1.83
		c1.91-0.19,3.29,0.42,4.16,1.83l24.76,32.55l16.17-36.72c0.66-1.4,1.67-2.18,3.02-2.31c1.14-0.11,2.17,0.16,3.09,0.81
		c0.92,0.66,1.44,1.57,1.56,2.73L202.14,56c0.11,1.09-0.19,2.06-0.89,2.92s-1.6,1.35-2.68,1.45c-1.09,0.11-2.06-0.19-2.92-0.89
		c-0.86-0.7-1.35-1.6-1.46-2.68l-3.58-35.53l-12.76,29.95c-0.24,0.51-0.65,1.01-1.21,1.51c-0.57,0.5-1.21,0.78-1.92,0.86
		c-1.54,0.16-2.78-0.36-3.73-1.55l-20.41-26.89l3.7,35.48l0,0.04c0.11,1.09-0.19,2.06-0.89,2.92
		C152.68,64.45,151.78,64.93,150.7,65.04z"/>
	<path class="st0" d="M242.2,3.84c0.3-0.66,0.81-1.22,1.52-1.67c0.71-0.45,1.44-0.68,2.19-0.67c0.72,0.01,1.44,0.26,2.17,0.73
		c0.73,0.48,1.21,1.05,1.47,1.72l21.17,51.3c0.23,0.54,0.34,1.08,0.33,1.64c-0.02,1.09-0.42,2.02-1.22,2.8
		c-0.8,0.77-1.74,1.15-2.83,1.13c-0.75-0.01-1.47-0.26-2.19-0.75c-0.71-0.49-1.21-1.07-1.49-1.74l-6.58-15.96l-22.76-0.67
		l-7.24,16.11c-0.28,0.66-0.78,1.23-1.5,1.71s-1.46,0.72-2.21,0.7c-1.09-0.02-2.02-0.42-2.8-1.22c-0.77-0.8-1.15-1.74-1.13-2.83
		c0.01-0.56,0.14-1.1,0.38-1.63L242.2,3.84z M245.69,15.6l-8.15,18.21l15.85,0.45L245.69,15.6z"/>
	<path class="st0" d="M324.36,61.18c0.2-1.07,0.47-2.38,0.79-3.92c0.32-1.54,0.7-3.48,1.15-5.84l7.36-38.45
		c0.2-1.07,0.75-1.9,1.63-2.49c0.88-0.59,1.88-0.78,2.98-0.57c1.07,0.2,1.93,0.76,2.57,1.67c0.64,0.91,0.86,1.9,0.65,2.97
		c-0.61,3.33-1.23,6.68-1.87,10.05s-1.26,6.71-1.87,10.01l31.16-17.41c0.95-0.58,1.9-0.78,2.84-0.6c1.12,0.21,1.97,0.81,2.55,1.79
		c0.57,0.98,0.76,1.96,0.58,2.96c-0.2,1.07-0.83,1.92-1.86,2.53l-25.36,14.04l18.79,29.88c0.6,0.96,0.82,1.86,0.66,2.73
		c-0.2,1.05-0.78,1.87-1.73,2.46c-0.95,0.59-1.97,0.78-3.04,0.58c-0.45-0.09-0.9-0.25-1.37-0.5c-0.47-0.25-0.86-0.6-1.18-1.04
		l-19.02-30.17l-4.97,2.84c-0.96,4.89-1.79,9.1-2.49,12.64c-0.7,3.54-1.16,5.8-1.37,6.79c-0.21,1.12-0.81,1.93-1.78,2.41
		c-0.97,0.48-1.94,0.63-2.91,0.44c-1.46-0.28-2.38-0.98-2.73-2.09C324.15,63.78,324.11,62.54,324.36,61.18z"/>
	<path class="st0" d="M396.38,26.71c0.29-1.02,0.92-1.79,1.88-2.31c0.96-0.51,1.97-0.62,3.02-0.32l32.91,9.42l0.04,0.01
		c1.05,0.3,1.85,0.93,2.39,1.91c0.54,0.97,0.66,1.98,0.36,3.03c-0.3,1.05-0.93,1.85-1.91,2.39c-0.97,0.54-1.98,0.66-3.03,0.36
		L432,41.18l-29.07-8.32l-4.45,15.76l25.84,7.57c1.1,0.31,1.91,0.96,2.42,1.93c0.51,0.98,0.6,2.07,0.25,3.27
		c-0.29,1.02-0.94,1.78-1.93,2.25c-0.99,0.48-1.98,0.58-2.95,0.3l-0.04-0.01l-25.76-7.55l-4.59,16.26l28.98,8.21l0.04,0.01
		c1.05,0.3,1.84,0.94,2.38,1.91c0.54,0.97,0.66,1.98,0.36,3.03c-0.3,1.05-0.94,1.85-1.91,2.39c-0.97,0.54-1.98,0.66-3.03,0.36
		l-0.04-0.01l-32.82-9.31c-1.05-0.3-1.85-0.93-2.39-1.91c-0.54-0.97-0.66-1.97-0.37-2.99L396.38,26.71z"/>
	<path class="st0" d="M474.31,45.68c0.43-0.59,1.04-1.03,1.83-1.34s1.55-0.38,2.28-0.22c0.7,0.15,1.36,0.54,1.98,1.15
		c0.61,0.61,0.98,1.27,1.1,1.98l10.56,54.49c0.12,0.57,0.12,1.13,0,1.68c-0.23,1.07-0.82,1.9-1.75,2.5c-0.94,0.6-1.94,0.78-3,0.55
		c-0.73-0.16-1.39-0.55-1.99-1.17c-0.6-0.62-0.97-1.29-1.12-2l-3.28-16.95l-22.17-5.18l-10.3,14.35c-0.4,0.59-1.01,1.05-1.81,1.38
		s-1.58,0.41-2.3,0.25c-1.07-0.23-1.9-0.82-2.5-1.75c-0.6-0.94-0.78-1.94-0.55-3c0.12-0.55,0.35-1.05,0.7-1.52L474.31,45.68z
		 M475.4,57.9l-11.61,16.23l15.45,3.59L475.4,57.9z"/>
	<path class="st0" d="M556.61,110.57c-0.1,1.03-0.56,1.89-1.38,2.58c-0.82,0.69-1.67,0.99-2.55,0.91c-0.74-0.07-1.37-0.39-1.88-0.95
		c-0.51-0.57-0.86-1-1.05-1.28c-2.26-1.92-4.17-4.04-5.73-6.36c-1.56-2.32-2.85-4.81-3.87-7.47c-0.88-2.38-1.82-4.26-2.83-5.63
		c-1.01-1.38-2.29-2.4-3.83-3.08c-1.54-0.68-3.59-1.14-6.13-1.4l-3.62-0.37l-1.73,19.26l-0.01,0.08c-0.1,1.06-0.57,1.95-1.43,2.68
		c-0.85,0.72-1.83,1.04-2.91,0.94c-1.09-0.1-1.98-0.61-2.69-1.53c-0.71-0.92-1-1.96-0.9-3.13l4.41-49.37
		c0.1-1.11,0.58-2.01,1.43-2.7c0.85-0.68,1.81-0.99,2.87-0.92l10.58,0.93l0.91,0.08c4.56,0.42,8.57,1.46,12.03,3.13
		c3.46,1.67,6.1,3.93,7.92,6.78c1.83,2.86,2.55,6.26,2.19,10.21c-0.23,2.55-0.97,4.76-2.2,6.66c-1.23,1.89-2.76,3.45-4.58,4.67
		c-1.83,1.22-3.75,2.13-5.78,2.72c0.8,1.22,1.57,2.71,2.32,4.46c1.27,3.08,2.53,5.83,3.78,8.23s2.99,4.57,5.22,6.51
		c0.45,0.36,0.81,0.84,1.09,1.44C556.56,109.24,556.67,109.88,556.61,110.57z M533.77,61.79l-7.68-0.7l-1.66,19.02l7.68,0.62
		c4.88,0.4,8.78,0,11.68-1.17c2.9-1.18,4.5-3.34,4.79-6.5c0.3-3.23-0.95-5.82-3.74-7.74C542.04,63.38,538.35,62.21,533.77,61.79z"/>
	<path class="st0" d="M577.4,60.87c-0.02-1.12,0.36-2.05,1.16-2.8c0.8-0.75,1.75-1.14,2.87-1.16c1.25-0.03,2.29,0.46,3.11,1.45
		l31.02,40.29l-0.82-38.46c-0.02-1.06,0.35-1.98,1.12-2.76s1.7-1.17,2.79-1.2s2.04,0.34,2.84,1.08c0.8,0.74,1.21,1.65,1.24,2.71
		l1.03,50.08c0.02,1.12-0.36,2.05-1.16,2.8c-0.8,0.75-1.75,1.14-2.87,1.16c-1.25,0.03-2.29-0.48-3.11-1.53l-30.98-40.25l0.82,38.57
		c0.02,1.07-0.35,1.99-1.12,2.76c-0.77,0.78-1.7,1.17-2.79,1.2c-1.09,0.02-2.04-0.34-2.84-1.08c-0.8-0.74-1.21-1.64-1.24-2.71
		L577.4,60.87z"/>
	<path class="st0" d="M639.9,58.49c-0.13-1.06,0.14-2.01,0.83-2.86c0.68-0.85,1.57-1.34,2.65-1.48l33.97-4.2l0.04-0.01
		c1.08-0.14,2.06,0.14,2.94,0.82c0.88,0.68,1.38,1.56,1.52,2.65s-0.14,2.06-0.82,2.94c-0.68,0.88-1.56,1.38-2.65,1.52l-0.04,0.01
		l-30.01,3.71l2.07,16.25l26.74-3.14c1.14-0.14,2.13,0.14,2.98,0.83c0.85,0.7,1.36,1.67,1.51,2.91c0.13,1.06-0.17,2-0.89,2.83
		c-0.73,0.83-1.59,1.31-2.6,1.43l-0.04,0.01l-26.66,3.13l2.13,16.76l29.88-3.77l0.04-0.01c1.08-0.14,2.06,0.14,2.94,0.82
		c0.88,0.68,1.38,1.56,1.52,2.65c0.14,1.08-0.14,2.06-0.82,2.94c-0.68,0.88-1.57,1.38-2.65,1.52l-0.04,0.01l-33.84,4.27
		c-1.08,0.13-2.06-0.14-2.94-0.82c-0.88-0.68-1.38-1.55-1.51-2.61L639.9,58.49z"/>
	<path class="st0" d="M695.9,49.72c-0.23-1.07,0.01-2.03,0.73-2.89c0.71-0.86,1.59-1.4,2.63-1.63c1.35-0.29,2.53,0.11,3.53,1.2
		l19.11,21.02l8.51-26.71c0.17-0.47,0.51-0.97,1.01-1.48c0.5-0.52,1.07-0.84,1.69-0.98c0.6-0.13,1.15-0.19,1.66-0.17
		c0.51,0.01,1.08,0.24,1.72,0.67c0.9,0.62,1.44,1.37,1.62,2.23c0.18,0.83,0.14,1.62-0.11,2.35l-10.53,31.76l3.91,19.5
		c0.22,1.04,0.03,2.02-0.58,2.92c-0.61,0.91-1.45,1.48-2.51,1.71c-1.07,0.23-2.06,0.06-2.99-0.52s-1.5-1.39-1.73-2.43l-0.02-0.08
		l-4-19.93l-22.54-24.44C696.46,51.3,696.09,50.6,695.9,49.72z"/>
</g>
</svg>
